%TF.GenerationSoftware,KiCad,Pcbnew,(6.0.6)*%
%TF.CreationDate,2022-09-06T19:45:01+05:30*%
%TF.ProjectId,rp2040-ble,72703230-3430-42d6-926c-652e6b696361,rev?*%
%TF.SameCoordinates,Original*%
%TF.FileFunction,Copper,L2,Bot*%
%TF.FilePolarity,Positive*%
%FSLAX46Y46*%
G04 Gerber Fmt 4.6, Leading zero omitted, Abs format (unit mm)*
G04 Created by KiCad (PCBNEW (6.0.6)) date 2022-09-06 19:45:01*
%MOMM*%
%LPD*%
G01*
G04 APERTURE LIST*
%TA.AperFunction,ComponentPad*%
%ADD10R,1.000000X1.000000*%
%TD*%
%TA.AperFunction,ComponentPad*%
%ADD11O,1.000000X1.000000*%
%TD*%
%TA.AperFunction,ComponentPad*%
%ADD12R,1.700000X1.700000*%
%TD*%
%TA.AperFunction,ComponentPad*%
%ADD13O,1.700000X1.700000*%
%TD*%
%TA.AperFunction,ComponentPad*%
%ADD14O,1.500000X1.100000*%
%TD*%
%TA.AperFunction,ComponentPad*%
%ADD15O,1.700000X1.350000*%
%TD*%
%TA.AperFunction,ViaPad*%
%ADD16C,0.600000*%
%TD*%
%TA.AperFunction,ViaPad*%
%ADD17C,0.800000*%
%TD*%
%TA.AperFunction,Conductor*%
%ADD18C,0.154000*%
%TD*%
%TA.AperFunction,Conductor*%
%ADD19C,0.300000*%
%TD*%
%TA.AperFunction,Conductor*%
%ADD20C,0.200000*%
%TD*%
%TA.AperFunction,Conductor*%
%ADD21C,0.500000*%
%TD*%
G04 APERTURE END LIST*
D10*
%TO.P,J4,1,Pin_1*%
%TO.N,/SWD*%
X100150000Y-103335000D03*
D11*
%TO.P,J4,2,Pin_2*%
%TO.N,GND*%
X100150000Y-104605000D03*
%TO.P,J4,3,Pin_3*%
%TO.N,/SWCLK*%
X100150000Y-105875000D03*
%TD*%
D12*
%TO.P,J1,1,Pin_1*%
%TO.N,VBUS*%
X142000000Y-68500000D03*
D13*
%TO.P,J1,2,Pin_2*%
%TO.N,/GPIO0*%
X139460000Y-68500000D03*
%TO.P,J1,3,Pin_3*%
%TO.N,/GPIO1*%
X136920000Y-68500000D03*
%TO.P,J1,4,Pin_4*%
%TO.N,/GPIO2*%
X134380000Y-68500000D03*
%TO.P,J1,5,Pin_5*%
%TO.N,/GPIO3*%
X131840000Y-68500000D03*
%TO.P,J1,6,Pin_6*%
%TO.N,/GPIO4*%
X129300000Y-68500000D03*
%TO.P,J1,7,Pin_7*%
%TO.N,/GPIO5*%
X126760000Y-68500000D03*
%TO.P,J1,8,Pin_8*%
%TO.N,/GPIO6*%
X124220000Y-68500000D03*
%TO.P,J1,9,Pin_9*%
%TO.N,/GPIO7*%
X121680000Y-68500000D03*
%TO.P,J1,10,Pin_10*%
%TO.N,/GPIO8*%
X119140000Y-68500000D03*
%TO.P,J1,11,Pin_11*%
%TO.N,/GPIO9*%
X116600000Y-68500000D03*
%TO.P,J1,12,Pin_12*%
%TO.N,/GPIO10*%
X114060000Y-68500000D03*
%TO.P,J1,13,Pin_13*%
%TO.N,GND*%
X111520000Y-68500000D03*
%TO.P,J1,14,Pin_14*%
X108980000Y-68500000D03*
%TO.P,J1,15,Pin_15*%
X106440000Y-68500000D03*
%TD*%
D12*
%TO.P,J2,1,Pin_1*%
%TO.N,+3.3V*%
X142000000Y-110500000D03*
D13*
%TO.P,J2,2,Pin_2*%
%TO.N,/GPIO29*%
X139460000Y-110500000D03*
%TO.P,J2,3,Pin_3*%
%TO.N,/GPIO28*%
X136920000Y-110500000D03*
%TO.P,J2,4,Pin_4*%
%TO.N,/GPIO27*%
X134380000Y-110500000D03*
%TO.P,J2,5,Pin_5*%
%TO.N,/GPIO26*%
X131840000Y-110500000D03*
%TO.P,J2,6,Pin_6*%
%TO.N,/GPIO24*%
X129300000Y-110500000D03*
%TO.P,J2,7,Pin_7*%
%TO.N,/GPIO23*%
X126760000Y-110500000D03*
%TO.P,J2,8,Pin_8*%
%TO.N,/GPIO22*%
X124220000Y-110500000D03*
%TO.P,J2,9,Pin_9*%
%TO.N,/GPIO21*%
X121680000Y-110500000D03*
%TO.P,J2,10,Pin_10*%
%TO.N,/GPIO20*%
X119140000Y-110500000D03*
%TO.P,J2,11,Pin_11*%
%TO.N,/GPIO19*%
X116600000Y-110500000D03*
%TO.P,J2,12,Pin_12*%
%TO.N,/GPIO18*%
X114060000Y-110500000D03*
%TO.P,J2,13,Pin_13*%
%TO.N,/GPIO17*%
X111520000Y-110500000D03*
%TO.P,J2,14,Pin_14*%
%TO.N,/GPIO16*%
X108980000Y-110500000D03*
%TO.P,J2,15,Pin_15*%
%TO.N,GND*%
X106440000Y-110500000D03*
%TD*%
D14*
%TO.P,J3,6,Shield*%
%TO.N,GND*%
X149160000Y-92440000D03*
D15*
X152160000Y-87290000D03*
X152160000Y-92750000D03*
D14*
X149160000Y-87600000D03*
%TD*%
D16*
%TO.N,GND*%
X134650000Y-79650000D03*
%TO.N,/BLE_POWER_DOWN*%
X118925000Y-86725000D03*
%TO.N,/BLE_WAKEUP*%
X118250000Y-85375000D03*
%TO.N,/BLE_TX*%
X117723500Y-83450000D03*
%TO.N,/BLE_RX*%
X117350000Y-82025000D03*
%TO.N,GND*%
X113775000Y-84475000D03*
X113450000Y-91225000D03*
X118275000Y-87500000D03*
X149025000Y-78800000D03*
X105850000Y-104375000D03*
D17*
X125700000Y-87900000D03*
D16*
X122400000Y-80100000D03*
X135225000Y-87750000D03*
D17*
X124700000Y-90300000D03*
X124500000Y-87900000D03*
D16*
X99650000Y-86850000D03*
D17*
X123300000Y-87900000D03*
D16*
X116200000Y-93250000D03*
X134250000Y-94025000D03*
X95175000Y-93450000D03*
D17*
X125700000Y-89000000D03*
X125700000Y-90300000D03*
D16*
X117625000Y-93625000D03*
X152400000Y-96420000D03*
X108325000Y-104450000D03*
X98425000Y-85375000D03*
X148950000Y-80900000D03*
X96825000Y-85425000D03*
X135050000Y-88800000D03*
D17*
X123300000Y-90300000D03*
D16*
X127900000Y-104275000D03*
X134225000Y-92950000D03*
D17*
X123300000Y-89000000D03*
D16*
X149575000Y-105500000D03*
X127700000Y-81075000D03*
X135800000Y-100325000D03*
D17*
X124600000Y-89100000D03*
D16*
X134250000Y-92275000D03*
X123600000Y-98625000D03*
X137290000Y-87965000D03*
X135825000Y-93725000D03*
X134150000Y-95150000D03*
%TO.N,+1V1*%
X122375000Y-89725000D03*
X118325000Y-90075000D03*
X126549502Y-89900000D03*
X129573556Y-88773556D03*
%TO.N,VBUS*%
X150554502Y-90780000D03*
%TO.N,/BLE_RX*%
X98630000Y-95820600D03*
%TO.N,/BLE_TX*%
X96630000Y-95820600D03*
%TO.N,/BLE_WAKEUP*%
X101630000Y-90570600D03*
%TO.N,/BLE_POWER_DOWN*%
X101630000Y-88570600D03*
%TD*%
D18*
%TO.N,/BLE_TX*%
X96630000Y-96680000D02*
X96630000Y-95820600D01*
X98050000Y-98100000D02*
X96630000Y-96680000D01*
X103800000Y-98100000D02*
X98050000Y-98100000D01*
X105650000Y-76525000D02*
X105300000Y-76875000D01*
X116175000Y-79050000D02*
X113650000Y-76525000D01*
X116175000Y-83450000D02*
X116175000Y-79050000D01*
X113650000Y-76525000D02*
X105650000Y-76525000D01*
X105300000Y-96600000D02*
X103800000Y-98100000D01*
X117723500Y-83450000D02*
X116175000Y-83450000D01*
X105300000Y-76875000D02*
X105300000Y-96600000D01*
%TO.N,/BLE_WAKEUP*%
X103950000Y-89350000D02*
X102729400Y-90570600D01*
X104925000Y-74700000D02*
X103950000Y-75675000D01*
X103950000Y-75675000D02*
X103950000Y-89350000D01*
X115550000Y-74700000D02*
X104925000Y-74700000D01*
X118250000Y-77400000D02*
X115550000Y-74700000D01*
X118250000Y-85375000D02*
X118250000Y-77400000D01*
X102729400Y-90570600D02*
X101630000Y-90570600D01*
%TO.N,/BLE_RX*%
X104525000Y-76375000D02*
X104525000Y-93375000D01*
X104525000Y-93375000D02*
X102079400Y-95820600D01*
X105200000Y-75700000D02*
X104525000Y-76375000D01*
X115525000Y-75700000D02*
X105200000Y-75700000D01*
X117325000Y-77500000D02*
X115525000Y-75700000D01*
X117325000Y-81950000D02*
X117325000Y-77500000D01*
X102079400Y-95820600D02*
X98630000Y-95820600D01*
%TO.N,/BLE_POWER_DOWN*%
X102250600Y-87950000D02*
X101630000Y-88570600D01*
X103150000Y-74575000D02*
X103150000Y-87725000D01*
X102925000Y-87950000D02*
X102250600Y-87950000D01*
X115275920Y-73596000D02*
X104129000Y-73596000D01*
X104129000Y-73596000D02*
X103150000Y-74575000D01*
X118925000Y-77245080D02*
X115275920Y-73596000D01*
X118925000Y-86725000D02*
X118925000Y-77245080D01*
X103150000Y-87725000D02*
X102925000Y-87950000D01*
D19*
%TO.N,+1V1*%
X119475000Y-89725000D02*
X118675000Y-89725000D01*
D20*
X129553555Y-88773556D02*
X129573556Y-88773556D01*
D19*
X126549502Y-89900000D02*
X127000000Y-89449502D01*
X122375000Y-89725000D02*
X119475000Y-89725000D01*
X118675000Y-89725000D02*
X118325000Y-90075000D01*
X127000000Y-89449502D02*
X127000000Y-88925000D01*
D20*
X129402111Y-88925000D02*
X129553555Y-88773556D01*
D19*
X127000000Y-88925000D02*
X129402111Y-88925000D01*
D21*
%TO.N,VBUS*%
X150570000Y-76220000D02*
X142850000Y-68500000D01*
X142850000Y-68500000D02*
X142000000Y-68500000D01*
X150570000Y-90764502D02*
X150570000Y-76220000D01*
X150554502Y-90780000D02*
X150570000Y-90764502D01*
%TD*%
%TA.AperFunction,Conductor*%
%TO.N,GND*%
G36*
X151649947Y-65237161D02*
G01*
X151857099Y-65295319D01*
X151870290Y-65299824D01*
X152157105Y-65415879D01*
X152169726Y-65421819D01*
X152441932Y-65568862D01*
X152453821Y-65576162D01*
X152708110Y-65752403D01*
X152719119Y-65760973D01*
X152952359Y-65964243D01*
X152962353Y-65973977D01*
X153171700Y-66201799D01*
X153180545Y-66212565D01*
X153221897Y-66268997D01*
X153363423Y-66462138D01*
X153371033Y-66473831D01*
X153525185Y-66742071D01*
X153531457Y-66754534D01*
X153604277Y-66921711D01*
X153614756Y-66970979D01*
X153839496Y-93943249D01*
X153839500Y-93944299D01*
X153839500Y-110273592D01*
X153838485Y-110281303D01*
X153838485Y-110293973D01*
X153834191Y-110309995D01*
X153838452Y-110325898D01*
X153838290Y-110331721D01*
X153830037Y-110479838D01*
X153822015Y-110623820D01*
X153820459Y-110637743D01*
X153769407Y-110940764D01*
X153766315Y-110954427D01*
X153686836Y-111232757D01*
X153681937Y-111249912D01*
X153677348Y-111263145D01*
X153586360Y-111484872D01*
X153560683Y-111547442D01*
X153554651Y-111560088D01*
X153418139Y-111809579D01*
X153407151Y-111829660D01*
X153399755Y-111841555D01*
X153246048Y-112060585D01*
X153223229Y-112093101D01*
X153214565Y-112104093D01*
X153011203Y-112334485D01*
X153001368Y-112344451D01*
X152773691Y-112550836D01*
X152762804Y-112559654D01*
X152513617Y-112739489D01*
X152501818Y-112747043D01*
X152234217Y-112898095D01*
X152221652Y-112904293D01*
X152125391Y-112945291D01*
X151938928Y-113024706D01*
X151925767Y-113029465D01*
X151631408Y-113117749D01*
X151617793Y-113121019D01*
X151315468Y-113176074D01*
X151301573Y-113177813D01*
X151173426Y-113186654D01*
X151112067Y-113190887D01*
X151103192Y-113191186D01*
X94601300Y-113100002D01*
X94598640Y-113099969D01*
X92087317Y-113042893D01*
X92048572Y-113035858D01*
X91978135Y-113011216D01*
X91917946Y-112990159D01*
X91905364Y-112984977D01*
X91640155Y-112858601D01*
X91628208Y-112852094D01*
X91378170Y-112697820D01*
X91367013Y-112690074D01*
X91135101Y-112509725D01*
X91124818Y-112500796D01*
X90913723Y-112296468D01*
X90904470Y-112286488D01*
X90716661Y-112060567D01*
X90708552Y-112049664D01*
X90546225Y-111804794D01*
X90539326Y-111793056D01*
X90404385Y-111532112D01*
X90398793Y-111519695D01*
X90292801Y-111245706D01*
X90288580Y-111232757D01*
X90288332Y-111231829D01*
X90223072Y-110987465D01*
X90218813Y-110953809D01*
X90224824Y-110300000D01*
X91644341Y-110300000D01*
X91664937Y-110535408D01*
X91666361Y-110540722D01*
X91666361Y-110540723D01*
X91723956Y-110755671D01*
X91726097Y-110763663D01*
X91728419Y-110768643D01*
X91728420Y-110768645D01*
X91796328Y-110914272D01*
X91825965Y-110977829D01*
X91961505Y-111171401D01*
X92128599Y-111338495D01*
X92322171Y-111474035D01*
X92327149Y-111476356D01*
X92327152Y-111476358D01*
X92531355Y-111571580D01*
X92536337Y-111573903D01*
X92541645Y-111575325D01*
X92541647Y-111575326D01*
X92759277Y-111633639D01*
X92764592Y-111635063D01*
X92867682Y-111644082D01*
X92938310Y-111650262D01*
X92938317Y-111650262D01*
X92941034Y-111650500D01*
X93058966Y-111650500D01*
X93061683Y-111650262D01*
X93061690Y-111650262D01*
X93132318Y-111644082D01*
X93235408Y-111635063D01*
X93240723Y-111633639D01*
X93458353Y-111575326D01*
X93458355Y-111575325D01*
X93463663Y-111573903D01*
X93468645Y-111571580D01*
X93672848Y-111476358D01*
X93672851Y-111476356D01*
X93677829Y-111474035D01*
X93871401Y-111338495D01*
X94038495Y-111171401D01*
X94041655Y-111166889D01*
X94170878Y-110982339D01*
X94170881Y-110982334D01*
X94174035Y-110977830D01*
X94176358Y-110972848D01*
X94176361Y-110972843D01*
X94271580Y-110768645D01*
X94271581Y-110768644D01*
X94271897Y-110767966D01*
X105108257Y-110767966D01*
X105138565Y-110902446D01*
X105141645Y-110912275D01*
X105221770Y-111109603D01*
X105226413Y-111118794D01*
X105337694Y-111300388D01*
X105343777Y-111308699D01*
X105483213Y-111469667D01*
X105490580Y-111476883D01*
X105654434Y-111612916D01*
X105662881Y-111618831D01*
X105846756Y-111726279D01*
X105856042Y-111730729D01*
X106055001Y-111806703D01*
X106064899Y-111809579D01*
X106168250Y-111830606D01*
X106182299Y-111829410D01*
X106186000Y-111819065D01*
X106186000Y-111818517D01*
X106694000Y-111818517D01*
X106698064Y-111832359D01*
X106711478Y-111834393D01*
X106718184Y-111833534D01*
X106728262Y-111831392D01*
X106932255Y-111770191D01*
X106941842Y-111766433D01*
X107133095Y-111672739D01*
X107141945Y-111667464D01*
X107315328Y-111543792D01*
X107323200Y-111537139D01*
X107474052Y-111386812D01*
X107480730Y-111378965D01*
X107605003Y-111206020D01*
X107610313Y-111197183D01*
X107704670Y-111006267D01*
X107708469Y-110996672D01*
X107770376Y-110792912D01*
X107773022Y-110780676D01*
X107806969Y-110718321D01*
X107869238Y-110684217D01*
X107940060Y-110689193D01*
X107996949Y-110731668D01*
X108017295Y-110772574D01*
X108045258Y-110870091D01*
X108048076Y-110875574D01*
X108132123Y-111039113D01*
X108132126Y-111039117D01*
X108134944Y-111044601D01*
X108256818Y-111198369D01*
X108261511Y-111202363D01*
X108261512Y-111202364D01*
X108386456Y-111308699D01*
X108406238Y-111325535D01*
X108411616Y-111328541D01*
X108411618Y-111328542D01*
X108447932Y-111348837D01*
X108577513Y-111421257D01*
X108764118Y-111481889D01*
X108958946Y-111505121D01*
X108965081Y-111504649D01*
X108965083Y-111504649D01*
X109148434Y-111490541D01*
X109148438Y-111490540D01*
X109154576Y-111490068D01*
X109343556Y-111437303D01*
X109518689Y-111348837D01*
X109537624Y-111334044D01*
X109668453Y-111231829D01*
X109673303Y-111228040D01*
X109703084Y-111193539D01*
X109797485Y-111084173D01*
X109797485Y-111084172D01*
X109801509Y-111079511D01*
X109898425Y-110908909D01*
X109960358Y-110722732D01*
X109984949Y-110528071D01*
X109985341Y-110500000D01*
X109983965Y-110485963D01*
X110514757Y-110485963D01*
X110531175Y-110681483D01*
X110585258Y-110870091D01*
X110588076Y-110875574D01*
X110672123Y-111039113D01*
X110672126Y-111039117D01*
X110674944Y-111044601D01*
X110796818Y-111198369D01*
X110801511Y-111202363D01*
X110801512Y-111202364D01*
X110926456Y-111308699D01*
X110946238Y-111325535D01*
X110951616Y-111328541D01*
X110951618Y-111328542D01*
X110987932Y-111348837D01*
X111117513Y-111421257D01*
X111304118Y-111481889D01*
X111498946Y-111505121D01*
X111505081Y-111504649D01*
X111505083Y-111504649D01*
X111688434Y-111490541D01*
X111688438Y-111490540D01*
X111694576Y-111490068D01*
X111883556Y-111437303D01*
X112058689Y-111348837D01*
X112077624Y-111334044D01*
X112208453Y-111231829D01*
X112213303Y-111228040D01*
X112243084Y-111193539D01*
X112337485Y-111084173D01*
X112337485Y-111084172D01*
X112341509Y-111079511D01*
X112438425Y-110908909D01*
X112500358Y-110722732D01*
X112524949Y-110528071D01*
X112525341Y-110500000D01*
X112523965Y-110485963D01*
X113054757Y-110485963D01*
X113071175Y-110681483D01*
X113125258Y-110870091D01*
X113128076Y-110875574D01*
X113212123Y-111039113D01*
X113212126Y-111039117D01*
X113214944Y-111044601D01*
X113336818Y-111198369D01*
X113341511Y-111202363D01*
X113341512Y-111202364D01*
X113466456Y-111308699D01*
X113486238Y-111325535D01*
X113491616Y-111328541D01*
X113491618Y-111328542D01*
X113527932Y-111348837D01*
X113657513Y-111421257D01*
X113844118Y-111481889D01*
X114038946Y-111505121D01*
X114045081Y-111504649D01*
X114045083Y-111504649D01*
X114228434Y-111490541D01*
X114228438Y-111490540D01*
X114234576Y-111490068D01*
X114423556Y-111437303D01*
X114598689Y-111348837D01*
X114617624Y-111334044D01*
X114748453Y-111231829D01*
X114753303Y-111228040D01*
X114783084Y-111193539D01*
X114877485Y-111084173D01*
X114877485Y-111084172D01*
X114881509Y-111079511D01*
X114978425Y-110908909D01*
X115040358Y-110722732D01*
X115064949Y-110528071D01*
X115065341Y-110500000D01*
X115063965Y-110485963D01*
X115594757Y-110485963D01*
X115611175Y-110681483D01*
X115665258Y-110870091D01*
X115668076Y-110875574D01*
X115752123Y-111039113D01*
X115752126Y-111039117D01*
X115754944Y-111044601D01*
X115876818Y-111198369D01*
X115881511Y-111202363D01*
X115881512Y-111202364D01*
X116006456Y-111308699D01*
X116026238Y-111325535D01*
X116031616Y-111328541D01*
X116031618Y-111328542D01*
X116067932Y-111348837D01*
X116197513Y-111421257D01*
X116384118Y-111481889D01*
X116578946Y-111505121D01*
X116585081Y-111504649D01*
X116585083Y-111504649D01*
X116768434Y-111490541D01*
X116768438Y-111490540D01*
X116774576Y-111490068D01*
X116963556Y-111437303D01*
X117138689Y-111348837D01*
X117157624Y-111334044D01*
X117288453Y-111231829D01*
X117293303Y-111228040D01*
X117323084Y-111193539D01*
X117417485Y-111084173D01*
X117417485Y-111084172D01*
X117421509Y-111079511D01*
X117518425Y-110908909D01*
X117580358Y-110722732D01*
X117604949Y-110528071D01*
X117605341Y-110500000D01*
X117603965Y-110485963D01*
X118134757Y-110485963D01*
X118151175Y-110681483D01*
X118205258Y-110870091D01*
X118208076Y-110875574D01*
X118292123Y-111039113D01*
X118292126Y-111039117D01*
X118294944Y-111044601D01*
X118416818Y-111198369D01*
X118421511Y-111202363D01*
X118421512Y-111202364D01*
X118546456Y-111308699D01*
X118566238Y-111325535D01*
X118571616Y-111328541D01*
X118571618Y-111328542D01*
X118607932Y-111348837D01*
X118737513Y-111421257D01*
X118924118Y-111481889D01*
X119118946Y-111505121D01*
X119125081Y-111504649D01*
X119125083Y-111504649D01*
X119308434Y-111490541D01*
X119308438Y-111490540D01*
X119314576Y-111490068D01*
X119503556Y-111437303D01*
X119678689Y-111348837D01*
X119697624Y-111334044D01*
X119828453Y-111231829D01*
X119833303Y-111228040D01*
X119863084Y-111193539D01*
X119957485Y-111084173D01*
X119957485Y-111084172D01*
X119961509Y-111079511D01*
X120058425Y-110908909D01*
X120120358Y-110722732D01*
X120144949Y-110528071D01*
X120145341Y-110500000D01*
X120143965Y-110485963D01*
X120674757Y-110485963D01*
X120691175Y-110681483D01*
X120745258Y-110870091D01*
X120748076Y-110875574D01*
X120832123Y-111039113D01*
X120832126Y-111039117D01*
X120834944Y-111044601D01*
X120956818Y-111198369D01*
X120961511Y-111202363D01*
X120961512Y-111202364D01*
X121086456Y-111308699D01*
X121106238Y-111325535D01*
X121111616Y-111328541D01*
X121111618Y-111328542D01*
X121147932Y-111348837D01*
X121277513Y-111421257D01*
X121464118Y-111481889D01*
X121658946Y-111505121D01*
X121665081Y-111504649D01*
X121665083Y-111504649D01*
X121848434Y-111490541D01*
X121848438Y-111490540D01*
X121854576Y-111490068D01*
X122043556Y-111437303D01*
X122218689Y-111348837D01*
X122237624Y-111334044D01*
X122368453Y-111231829D01*
X122373303Y-111228040D01*
X122403084Y-111193539D01*
X122497485Y-111084173D01*
X122497485Y-111084172D01*
X122501509Y-111079511D01*
X122598425Y-110908909D01*
X122660358Y-110722732D01*
X122684949Y-110528071D01*
X122685341Y-110500000D01*
X122683965Y-110485963D01*
X123214757Y-110485963D01*
X123231175Y-110681483D01*
X123285258Y-110870091D01*
X123288076Y-110875574D01*
X123372123Y-111039113D01*
X123372126Y-111039117D01*
X123374944Y-111044601D01*
X123496818Y-111198369D01*
X123501511Y-111202363D01*
X123501512Y-111202364D01*
X123626456Y-111308699D01*
X123646238Y-111325535D01*
X123651616Y-111328541D01*
X123651618Y-111328542D01*
X123687932Y-111348837D01*
X123817513Y-111421257D01*
X124004118Y-111481889D01*
X124198946Y-111505121D01*
X124205081Y-111504649D01*
X124205083Y-111504649D01*
X124388434Y-111490541D01*
X124388438Y-111490540D01*
X124394576Y-111490068D01*
X124583556Y-111437303D01*
X124758689Y-111348837D01*
X124777624Y-111334044D01*
X124908453Y-111231829D01*
X124913303Y-111228040D01*
X124943084Y-111193539D01*
X125037485Y-111084173D01*
X125037485Y-111084172D01*
X125041509Y-111079511D01*
X125138425Y-110908909D01*
X125200358Y-110722732D01*
X125224949Y-110528071D01*
X125225341Y-110500000D01*
X125223965Y-110485963D01*
X125754757Y-110485963D01*
X125771175Y-110681483D01*
X125825258Y-110870091D01*
X125828076Y-110875574D01*
X125912123Y-111039113D01*
X125912126Y-111039117D01*
X125914944Y-111044601D01*
X126036818Y-111198369D01*
X126041511Y-111202363D01*
X126041512Y-111202364D01*
X126166456Y-111308699D01*
X126186238Y-111325535D01*
X126191616Y-111328541D01*
X126191618Y-111328542D01*
X126227932Y-111348837D01*
X126357513Y-111421257D01*
X126544118Y-111481889D01*
X126738946Y-111505121D01*
X126745081Y-111504649D01*
X126745083Y-111504649D01*
X126928434Y-111490541D01*
X126928438Y-111490540D01*
X126934576Y-111490068D01*
X127123556Y-111437303D01*
X127298689Y-111348837D01*
X127317624Y-111334044D01*
X127448453Y-111231829D01*
X127453303Y-111228040D01*
X127483084Y-111193539D01*
X127577485Y-111084173D01*
X127577485Y-111084172D01*
X127581509Y-111079511D01*
X127678425Y-110908909D01*
X127740358Y-110722732D01*
X127764949Y-110528071D01*
X127765341Y-110500000D01*
X127763965Y-110485963D01*
X128294757Y-110485963D01*
X128311175Y-110681483D01*
X128365258Y-110870091D01*
X128368076Y-110875574D01*
X128452123Y-111039113D01*
X128452126Y-111039117D01*
X128454944Y-111044601D01*
X128576818Y-111198369D01*
X128581511Y-111202363D01*
X128581512Y-111202364D01*
X128706456Y-111308699D01*
X128726238Y-111325535D01*
X128731616Y-111328541D01*
X128731618Y-111328542D01*
X128767932Y-111348837D01*
X128897513Y-111421257D01*
X129084118Y-111481889D01*
X129278946Y-111505121D01*
X129285081Y-111504649D01*
X129285083Y-111504649D01*
X129468434Y-111490541D01*
X129468438Y-111490540D01*
X129474576Y-111490068D01*
X129663556Y-111437303D01*
X129838689Y-111348837D01*
X129857624Y-111334044D01*
X129988453Y-111231829D01*
X129993303Y-111228040D01*
X130023084Y-111193539D01*
X130117485Y-111084173D01*
X130117485Y-111084172D01*
X130121509Y-111079511D01*
X130218425Y-110908909D01*
X130280358Y-110722732D01*
X130304949Y-110528071D01*
X130305341Y-110500000D01*
X130303965Y-110485963D01*
X130834757Y-110485963D01*
X130851175Y-110681483D01*
X130905258Y-110870091D01*
X130908076Y-110875574D01*
X130992123Y-111039113D01*
X130992126Y-111039117D01*
X130994944Y-111044601D01*
X131116818Y-111198369D01*
X131121511Y-111202363D01*
X131121512Y-111202364D01*
X131246456Y-111308699D01*
X131266238Y-111325535D01*
X131271616Y-111328541D01*
X131271618Y-111328542D01*
X131307932Y-111348837D01*
X131437513Y-111421257D01*
X131624118Y-111481889D01*
X131818946Y-111505121D01*
X131825081Y-111504649D01*
X131825083Y-111504649D01*
X132008434Y-111490541D01*
X132008438Y-111490540D01*
X132014576Y-111490068D01*
X132203556Y-111437303D01*
X132378689Y-111348837D01*
X132397624Y-111334044D01*
X132528453Y-111231829D01*
X132533303Y-111228040D01*
X132563084Y-111193539D01*
X132657485Y-111084173D01*
X132657485Y-111084172D01*
X132661509Y-111079511D01*
X132758425Y-110908909D01*
X132820358Y-110722732D01*
X132844949Y-110528071D01*
X132845341Y-110500000D01*
X132843965Y-110485963D01*
X133374757Y-110485963D01*
X133391175Y-110681483D01*
X133445258Y-110870091D01*
X133448076Y-110875574D01*
X133532123Y-111039113D01*
X133532126Y-111039117D01*
X133534944Y-111044601D01*
X133656818Y-111198369D01*
X133661511Y-111202363D01*
X133661512Y-111202364D01*
X133786456Y-111308699D01*
X133806238Y-111325535D01*
X133811616Y-111328541D01*
X133811618Y-111328542D01*
X133847932Y-111348837D01*
X133977513Y-111421257D01*
X134164118Y-111481889D01*
X134358946Y-111505121D01*
X134365081Y-111504649D01*
X134365083Y-111504649D01*
X134548434Y-111490541D01*
X134548438Y-111490540D01*
X134554576Y-111490068D01*
X134743556Y-111437303D01*
X134918689Y-111348837D01*
X134937624Y-111334044D01*
X135068453Y-111231829D01*
X135073303Y-111228040D01*
X135103084Y-111193539D01*
X135197485Y-111084173D01*
X135197485Y-111084172D01*
X135201509Y-111079511D01*
X135298425Y-110908909D01*
X135360358Y-110722732D01*
X135384949Y-110528071D01*
X135385341Y-110500000D01*
X135383965Y-110485963D01*
X135914757Y-110485963D01*
X135931175Y-110681483D01*
X135985258Y-110870091D01*
X135988076Y-110875574D01*
X136072123Y-111039113D01*
X136072126Y-111039117D01*
X136074944Y-111044601D01*
X136196818Y-111198369D01*
X136201511Y-111202363D01*
X136201512Y-111202364D01*
X136326456Y-111308699D01*
X136346238Y-111325535D01*
X136351616Y-111328541D01*
X136351618Y-111328542D01*
X136387932Y-111348837D01*
X136517513Y-111421257D01*
X136704118Y-111481889D01*
X136898946Y-111505121D01*
X136905081Y-111504649D01*
X136905083Y-111504649D01*
X137088434Y-111490541D01*
X137088438Y-111490540D01*
X137094576Y-111490068D01*
X137283556Y-111437303D01*
X137458689Y-111348837D01*
X137477624Y-111334044D01*
X137608453Y-111231829D01*
X137613303Y-111228040D01*
X137643084Y-111193539D01*
X137737485Y-111084173D01*
X137737485Y-111084172D01*
X137741509Y-111079511D01*
X137838425Y-110908909D01*
X137900358Y-110722732D01*
X137924949Y-110528071D01*
X137925341Y-110500000D01*
X137923965Y-110485963D01*
X138454757Y-110485963D01*
X138471175Y-110681483D01*
X138525258Y-110870091D01*
X138528076Y-110875574D01*
X138612123Y-111039113D01*
X138612126Y-111039117D01*
X138614944Y-111044601D01*
X138736818Y-111198369D01*
X138741511Y-111202363D01*
X138741512Y-111202364D01*
X138866456Y-111308699D01*
X138886238Y-111325535D01*
X138891616Y-111328541D01*
X138891618Y-111328542D01*
X138927932Y-111348837D01*
X139057513Y-111421257D01*
X139244118Y-111481889D01*
X139438946Y-111505121D01*
X139445081Y-111504649D01*
X139445083Y-111504649D01*
X139628434Y-111490541D01*
X139628438Y-111490540D01*
X139634576Y-111490068D01*
X139823556Y-111437303D01*
X139967048Y-111364820D01*
X140999500Y-111364820D01*
X141008233Y-111408722D01*
X141015127Y-111419040D01*
X141015128Y-111419042D01*
X141027330Y-111437303D01*
X141041496Y-111458504D01*
X141051815Y-111465399D01*
X141080958Y-111484872D01*
X141080960Y-111484873D01*
X141091278Y-111491767D01*
X141135180Y-111500500D01*
X142864820Y-111500500D01*
X142908722Y-111491767D01*
X142919040Y-111484873D01*
X142919042Y-111484872D01*
X142948185Y-111465399D01*
X142958504Y-111458504D01*
X142972670Y-111437303D01*
X142984872Y-111419042D01*
X142984873Y-111419040D01*
X142991767Y-111408722D01*
X143000500Y-111364820D01*
X143000500Y-110300000D01*
X149544341Y-110300000D01*
X149564937Y-110535408D01*
X149566361Y-110540722D01*
X149566361Y-110540723D01*
X149623956Y-110755671D01*
X149626097Y-110763663D01*
X149628419Y-110768643D01*
X149628420Y-110768645D01*
X149696328Y-110914272D01*
X149725965Y-110977829D01*
X149861505Y-111171401D01*
X150028599Y-111338495D01*
X150222171Y-111474035D01*
X150227149Y-111476356D01*
X150227152Y-111476358D01*
X150431355Y-111571580D01*
X150436337Y-111573903D01*
X150441645Y-111575325D01*
X150441647Y-111575326D01*
X150659277Y-111633639D01*
X150664592Y-111635063D01*
X150767682Y-111644082D01*
X150838310Y-111650262D01*
X150838317Y-111650262D01*
X150841034Y-111650500D01*
X150958966Y-111650500D01*
X150961683Y-111650262D01*
X150961690Y-111650262D01*
X151032318Y-111644082D01*
X151135408Y-111635063D01*
X151140723Y-111633639D01*
X151358353Y-111575326D01*
X151358355Y-111575325D01*
X151363663Y-111573903D01*
X151368645Y-111571580D01*
X151572848Y-111476358D01*
X151572851Y-111476356D01*
X151577829Y-111474035D01*
X151771401Y-111338495D01*
X151938495Y-111171401D01*
X151941655Y-111166889D01*
X152070878Y-110982339D01*
X152070881Y-110982334D01*
X152074035Y-110977830D01*
X152076358Y-110972848D01*
X152076361Y-110972843D01*
X152171580Y-110768645D01*
X152171581Y-110768644D01*
X152173903Y-110763663D01*
X152176045Y-110755671D01*
X152233639Y-110540723D01*
X152233639Y-110540722D01*
X152235063Y-110535408D01*
X152255659Y-110300000D01*
X152235063Y-110064592D01*
X152224396Y-110024783D01*
X152175326Y-109841647D01*
X152175325Y-109841645D01*
X152173903Y-109836337D01*
X152096555Y-109670465D01*
X152076358Y-109627152D01*
X152076356Y-109627149D01*
X152074035Y-109622171D01*
X151938495Y-109428599D01*
X151771401Y-109261505D01*
X151577829Y-109125965D01*
X151572851Y-109123644D01*
X151572848Y-109123642D01*
X151368645Y-109028420D01*
X151368643Y-109028419D01*
X151363663Y-109026097D01*
X151358355Y-109024675D01*
X151358353Y-109024674D01*
X151140723Y-108966361D01*
X151140722Y-108966361D01*
X151135408Y-108964937D01*
X151032318Y-108955918D01*
X150961690Y-108949738D01*
X150961683Y-108949738D01*
X150958966Y-108949500D01*
X150841034Y-108949500D01*
X150838317Y-108949738D01*
X150838310Y-108949738D01*
X150767682Y-108955918D01*
X150664592Y-108964937D01*
X150659278Y-108966361D01*
X150659277Y-108966361D01*
X150441647Y-109024674D01*
X150441645Y-109024675D01*
X150436337Y-109026097D01*
X150431357Y-109028419D01*
X150431355Y-109028420D01*
X150227152Y-109123642D01*
X150227149Y-109123644D01*
X150222171Y-109125965D01*
X150028599Y-109261505D01*
X149861505Y-109428599D01*
X149858348Y-109433107D01*
X149858346Y-109433110D01*
X149729122Y-109617661D01*
X149725965Y-109622170D01*
X149723642Y-109627152D01*
X149723639Y-109627157D01*
X149646957Y-109791602D01*
X149626097Y-109836337D01*
X149624675Y-109841645D01*
X149624674Y-109841647D01*
X149575604Y-110024783D01*
X149564937Y-110064592D01*
X149544341Y-110300000D01*
X143000500Y-110300000D01*
X143000500Y-109635180D01*
X142991767Y-109591278D01*
X142984873Y-109580960D01*
X142984872Y-109580958D01*
X142965399Y-109551815D01*
X142958504Y-109541496D01*
X142948185Y-109534601D01*
X142919042Y-109515128D01*
X142919040Y-109515127D01*
X142908722Y-109508233D01*
X142864820Y-109499500D01*
X141135180Y-109499500D01*
X141091278Y-109508233D01*
X141080960Y-109515127D01*
X141080958Y-109515128D01*
X141051815Y-109534601D01*
X141041496Y-109541496D01*
X141034601Y-109551815D01*
X141015128Y-109580958D01*
X141015127Y-109580960D01*
X141008233Y-109591278D01*
X140999500Y-109635180D01*
X140999500Y-111364820D01*
X139967048Y-111364820D01*
X139998689Y-111348837D01*
X140017624Y-111334044D01*
X140148453Y-111231829D01*
X140153303Y-111228040D01*
X140183084Y-111193539D01*
X140277485Y-111084173D01*
X140277485Y-111084172D01*
X140281509Y-111079511D01*
X140378425Y-110908909D01*
X140440358Y-110722732D01*
X140464949Y-110528071D01*
X140465341Y-110500000D01*
X140446194Y-110304728D01*
X140444413Y-110298829D01*
X140444412Y-110298824D01*
X140391265Y-110122793D01*
X140389484Y-110116894D01*
X140297370Y-109943653D01*
X140173361Y-109791602D01*
X140022180Y-109666535D01*
X139849585Y-109573213D01*
X139747124Y-109541496D01*
X139668039Y-109517015D01*
X139668036Y-109517014D01*
X139662152Y-109515193D01*
X139656027Y-109514549D01*
X139656026Y-109514549D01*
X139473147Y-109495327D01*
X139473146Y-109495327D01*
X139467019Y-109494683D01*
X139344733Y-109505812D01*
X139277759Y-109511907D01*
X139277758Y-109511907D01*
X139271618Y-109512466D01*
X139265704Y-109514207D01*
X139265702Y-109514207D01*
X139196410Y-109534601D01*
X139083393Y-109567864D01*
X139077928Y-109570721D01*
X138914972Y-109655912D01*
X138914968Y-109655915D01*
X138909512Y-109658767D01*
X138904712Y-109662627D01*
X138904711Y-109662627D01*
X138891902Y-109672926D01*
X138756600Y-109781711D01*
X138630480Y-109932016D01*
X138627516Y-109937408D01*
X138627513Y-109937412D01*
X138556890Y-110065875D01*
X138535956Y-110103954D01*
X138476628Y-110290978D01*
X138454757Y-110485963D01*
X137923965Y-110485963D01*
X137906194Y-110304728D01*
X137904413Y-110298829D01*
X137904412Y-110298824D01*
X137851265Y-110122793D01*
X137849484Y-110116894D01*
X137757370Y-109943653D01*
X137633361Y-109791602D01*
X137482180Y-109666535D01*
X137309585Y-109573213D01*
X137207124Y-109541496D01*
X137128039Y-109517015D01*
X137128036Y-109517014D01*
X137122152Y-109515193D01*
X137116027Y-109514549D01*
X137116026Y-109514549D01*
X136933147Y-109495327D01*
X136933146Y-109495327D01*
X136927019Y-109494683D01*
X136804733Y-109505812D01*
X136737759Y-109511907D01*
X136737758Y-109511907D01*
X136731618Y-109512466D01*
X136725704Y-109514207D01*
X136725702Y-109514207D01*
X136656410Y-109534601D01*
X136543393Y-109567864D01*
X136537928Y-109570721D01*
X136374972Y-109655912D01*
X136374968Y-109655915D01*
X136369512Y-109658767D01*
X136364712Y-109662627D01*
X136364711Y-109662627D01*
X136351902Y-109672926D01*
X136216600Y-109781711D01*
X136090480Y-109932016D01*
X136087516Y-109937408D01*
X136087513Y-109937412D01*
X136016890Y-110065875D01*
X135995956Y-110103954D01*
X135936628Y-110290978D01*
X135914757Y-110485963D01*
X135383965Y-110485963D01*
X135366194Y-110304728D01*
X135364413Y-110298829D01*
X135364412Y-110298824D01*
X135311265Y-110122793D01*
X135309484Y-110116894D01*
X135217370Y-109943653D01*
X135093361Y-109791602D01*
X134942180Y-109666535D01*
X134769585Y-109573213D01*
X134667124Y-109541496D01*
X134588039Y-109517015D01*
X134588036Y-109517014D01*
X134582152Y-109515193D01*
X134576027Y-109514549D01*
X134576026Y-109514549D01*
X134393147Y-109495327D01*
X134393146Y-109495327D01*
X134387019Y-109494683D01*
X134264733Y-109505812D01*
X134197759Y-109511907D01*
X134197758Y-109511907D01*
X134191618Y-109512466D01*
X134185704Y-109514207D01*
X134185702Y-109514207D01*
X134116410Y-109534601D01*
X134003393Y-109567864D01*
X133997928Y-109570721D01*
X133834972Y-109655912D01*
X133834968Y-109655915D01*
X133829512Y-109658767D01*
X133824712Y-109662627D01*
X133824711Y-109662627D01*
X133811902Y-109672926D01*
X133676600Y-109781711D01*
X133550480Y-109932016D01*
X133547516Y-109937408D01*
X133547513Y-109937412D01*
X133476890Y-110065875D01*
X133455956Y-110103954D01*
X133396628Y-110290978D01*
X133374757Y-110485963D01*
X132843965Y-110485963D01*
X132826194Y-110304728D01*
X132824413Y-110298829D01*
X132824412Y-110298824D01*
X132771265Y-110122793D01*
X132769484Y-110116894D01*
X132677370Y-109943653D01*
X132553361Y-109791602D01*
X132402180Y-109666535D01*
X132229585Y-109573213D01*
X132127124Y-109541496D01*
X132048039Y-109517015D01*
X132048036Y-109517014D01*
X132042152Y-109515193D01*
X132036027Y-109514549D01*
X132036026Y-109514549D01*
X131853147Y-109495327D01*
X131853146Y-109495327D01*
X131847019Y-109494683D01*
X131724733Y-109505812D01*
X131657759Y-109511907D01*
X131657758Y-109511907D01*
X131651618Y-109512466D01*
X131645704Y-109514207D01*
X131645702Y-109514207D01*
X131576410Y-109534601D01*
X131463393Y-109567864D01*
X131457928Y-109570721D01*
X131294972Y-109655912D01*
X131294968Y-109655915D01*
X131289512Y-109658767D01*
X131284712Y-109662627D01*
X131284711Y-109662627D01*
X131271902Y-109672926D01*
X131136600Y-109781711D01*
X131010480Y-109932016D01*
X131007516Y-109937408D01*
X131007513Y-109937412D01*
X130936890Y-110065875D01*
X130915956Y-110103954D01*
X130856628Y-110290978D01*
X130834757Y-110485963D01*
X130303965Y-110485963D01*
X130286194Y-110304728D01*
X130284413Y-110298829D01*
X130284412Y-110298824D01*
X130231265Y-110122793D01*
X130229484Y-110116894D01*
X130137370Y-109943653D01*
X130013361Y-109791602D01*
X129862180Y-109666535D01*
X129689585Y-109573213D01*
X129587124Y-109541496D01*
X129508039Y-109517015D01*
X129508036Y-109517014D01*
X129502152Y-109515193D01*
X129496027Y-109514549D01*
X129496026Y-109514549D01*
X129313147Y-109495327D01*
X129313146Y-109495327D01*
X129307019Y-109494683D01*
X129184733Y-109505812D01*
X129117759Y-109511907D01*
X129117758Y-109511907D01*
X129111618Y-109512466D01*
X129105704Y-109514207D01*
X129105702Y-109514207D01*
X129036410Y-109534601D01*
X128923393Y-109567864D01*
X128917928Y-109570721D01*
X128754972Y-109655912D01*
X128754968Y-109655915D01*
X128749512Y-109658767D01*
X128744712Y-109662627D01*
X128744711Y-109662627D01*
X128731902Y-109672926D01*
X128596600Y-109781711D01*
X128470480Y-109932016D01*
X128467516Y-109937408D01*
X128467513Y-109937412D01*
X128396890Y-110065875D01*
X128375956Y-110103954D01*
X128316628Y-110290978D01*
X128294757Y-110485963D01*
X127763965Y-110485963D01*
X127746194Y-110304728D01*
X127744413Y-110298829D01*
X127744412Y-110298824D01*
X127691265Y-110122793D01*
X127689484Y-110116894D01*
X127597370Y-109943653D01*
X127473361Y-109791602D01*
X127322180Y-109666535D01*
X127149585Y-109573213D01*
X127047124Y-109541496D01*
X126968039Y-109517015D01*
X126968036Y-109517014D01*
X126962152Y-109515193D01*
X126956027Y-109514549D01*
X126956026Y-109514549D01*
X126773147Y-109495327D01*
X126773146Y-109495327D01*
X126767019Y-109494683D01*
X126644733Y-109505812D01*
X126577759Y-109511907D01*
X126577758Y-109511907D01*
X126571618Y-109512466D01*
X126565704Y-109514207D01*
X126565702Y-109514207D01*
X126496410Y-109534601D01*
X126383393Y-109567864D01*
X126377928Y-109570721D01*
X126214972Y-109655912D01*
X126214968Y-109655915D01*
X126209512Y-109658767D01*
X126204712Y-109662627D01*
X126204711Y-109662627D01*
X126191902Y-109672926D01*
X126056600Y-109781711D01*
X125930480Y-109932016D01*
X125927516Y-109937408D01*
X125927513Y-109937412D01*
X125856890Y-110065875D01*
X125835956Y-110103954D01*
X125776628Y-110290978D01*
X125754757Y-110485963D01*
X125223965Y-110485963D01*
X125206194Y-110304728D01*
X125204413Y-110298829D01*
X125204412Y-110298824D01*
X125151265Y-110122793D01*
X125149484Y-110116894D01*
X125057370Y-109943653D01*
X124933361Y-109791602D01*
X124782180Y-109666535D01*
X124609585Y-109573213D01*
X124507124Y-109541496D01*
X124428039Y-109517015D01*
X124428036Y-109517014D01*
X124422152Y-109515193D01*
X124416027Y-109514549D01*
X124416026Y-109514549D01*
X124233147Y-109495327D01*
X124233146Y-109495327D01*
X124227019Y-109494683D01*
X124104733Y-109505812D01*
X124037759Y-109511907D01*
X124037758Y-109511907D01*
X124031618Y-109512466D01*
X124025704Y-109514207D01*
X124025702Y-109514207D01*
X123956410Y-109534601D01*
X123843393Y-109567864D01*
X123837928Y-109570721D01*
X123674972Y-109655912D01*
X123674968Y-109655915D01*
X123669512Y-109658767D01*
X123664712Y-109662627D01*
X123664711Y-109662627D01*
X123651902Y-109672926D01*
X123516600Y-109781711D01*
X123390480Y-109932016D01*
X123387516Y-109937408D01*
X123387513Y-109937412D01*
X123316890Y-110065875D01*
X123295956Y-110103954D01*
X123236628Y-110290978D01*
X123214757Y-110485963D01*
X122683965Y-110485963D01*
X122666194Y-110304728D01*
X122664413Y-110298829D01*
X122664412Y-110298824D01*
X122611265Y-110122793D01*
X122609484Y-110116894D01*
X122517370Y-109943653D01*
X122393361Y-109791602D01*
X122242180Y-109666535D01*
X122069585Y-109573213D01*
X121967124Y-109541496D01*
X121888039Y-109517015D01*
X121888036Y-109517014D01*
X121882152Y-109515193D01*
X121876027Y-109514549D01*
X121876026Y-109514549D01*
X121693147Y-109495327D01*
X121693146Y-109495327D01*
X121687019Y-109494683D01*
X121564733Y-109505812D01*
X121497759Y-109511907D01*
X121497758Y-109511907D01*
X121491618Y-109512466D01*
X121485704Y-109514207D01*
X121485702Y-109514207D01*
X121416410Y-109534601D01*
X121303393Y-109567864D01*
X121297928Y-109570721D01*
X121134972Y-109655912D01*
X121134968Y-109655915D01*
X121129512Y-109658767D01*
X121124712Y-109662627D01*
X121124711Y-109662627D01*
X121111902Y-109672926D01*
X120976600Y-109781711D01*
X120850480Y-109932016D01*
X120847516Y-109937408D01*
X120847513Y-109937412D01*
X120776890Y-110065875D01*
X120755956Y-110103954D01*
X120696628Y-110290978D01*
X120674757Y-110485963D01*
X120143965Y-110485963D01*
X120126194Y-110304728D01*
X120124413Y-110298829D01*
X120124412Y-110298824D01*
X120071265Y-110122793D01*
X120069484Y-110116894D01*
X119977370Y-109943653D01*
X119853361Y-109791602D01*
X119702180Y-109666535D01*
X119529585Y-109573213D01*
X119427124Y-109541496D01*
X119348039Y-109517015D01*
X119348036Y-109517014D01*
X119342152Y-109515193D01*
X119336027Y-109514549D01*
X119336026Y-109514549D01*
X119153147Y-109495327D01*
X119153146Y-109495327D01*
X119147019Y-109494683D01*
X119024733Y-109505812D01*
X118957759Y-109511907D01*
X118957758Y-109511907D01*
X118951618Y-109512466D01*
X118945704Y-109514207D01*
X118945702Y-109514207D01*
X118876410Y-109534601D01*
X118763393Y-109567864D01*
X118757928Y-109570721D01*
X118594972Y-109655912D01*
X118594968Y-109655915D01*
X118589512Y-109658767D01*
X118584712Y-109662627D01*
X118584711Y-109662627D01*
X118571902Y-109672926D01*
X118436600Y-109781711D01*
X118310480Y-109932016D01*
X118307516Y-109937408D01*
X118307513Y-109937412D01*
X118236890Y-110065875D01*
X118215956Y-110103954D01*
X118156628Y-110290978D01*
X118134757Y-110485963D01*
X117603965Y-110485963D01*
X117586194Y-110304728D01*
X117584413Y-110298829D01*
X117584412Y-110298824D01*
X117531265Y-110122793D01*
X117529484Y-110116894D01*
X117437370Y-109943653D01*
X117313361Y-109791602D01*
X117162180Y-109666535D01*
X116989585Y-109573213D01*
X116887124Y-109541496D01*
X116808039Y-109517015D01*
X116808036Y-109517014D01*
X116802152Y-109515193D01*
X116796027Y-109514549D01*
X116796026Y-109514549D01*
X116613147Y-109495327D01*
X116613146Y-109495327D01*
X116607019Y-109494683D01*
X116484733Y-109505812D01*
X116417759Y-109511907D01*
X116417758Y-109511907D01*
X116411618Y-109512466D01*
X116405704Y-109514207D01*
X116405702Y-109514207D01*
X116336410Y-109534601D01*
X116223393Y-109567864D01*
X116217928Y-109570721D01*
X116054972Y-109655912D01*
X116054968Y-109655915D01*
X116049512Y-109658767D01*
X116044712Y-109662627D01*
X116044711Y-109662627D01*
X116031902Y-109672926D01*
X115896600Y-109781711D01*
X115770480Y-109932016D01*
X115767516Y-109937408D01*
X115767513Y-109937412D01*
X115696890Y-110065875D01*
X115675956Y-110103954D01*
X115616628Y-110290978D01*
X115594757Y-110485963D01*
X115063965Y-110485963D01*
X115046194Y-110304728D01*
X115044413Y-110298829D01*
X115044412Y-110298824D01*
X114991265Y-110122793D01*
X114989484Y-110116894D01*
X114897370Y-109943653D01*
X114773361Y-109791602D01*
X114622180Y-109666535D01*
X114449585Y-109573213D01*
X114347124Y-109541496D01*
X114268039Y-109517015D01*
X114268036Y-109517014D01*
X114262152Y-109515193D01*
X114256027Y-109514549D01*
X114256026Y-109514549D01*
X114073147Y-109495327D01*
X114073146Y-109495327D01*
X114067019Y-109494683D01*
X113944733Y-109505812D01*
X113877759Y-109511907D01*
X113877758Y-109511907D01*
X113871618Y-109512466D01*
X113865704Y-109514207D01*
X113865702Y-109514207D01*
X113796410Y-109534601D01*
X113683393Y-109567864D01*
X113677928Y-109570721D01*
X113514972Y-109655912D01*
X113514968Y-109655915D01*
X113509512Y-109658767D01*
X113504712Y-109662627D01*
X113504711Y-109662627D01*
X113491902Y-109672926D01*
X113356600Y-109781711D01*
X113230480Y-109932016D01*
X113227516Y-109937408D01*
X113227513Y-109937412D01*
X113156890Y-110065875D01*
X113135956Y-110103954D01*
X113076628Y-110290978D01*
X113054757Y-110485963D01*
X112523965Y-110485963D01*
X112506194Y-110304728D01*
X112504413Y-110298829D01*
X112504412Y-110298824D01*
X112451265Y-110122793D01*
X112449484Y-110116894D01*
X112357370Y-109943653D01*
X112233361Y-109791602D01*
X112082180Y-109666535D01*
X111909585Y-109573213D01*
X111807124Y-109541496D01*
X111728039Y-109517015D01*
X111728036Y-109517014D01*
X111722152Y-109515193D01*
X111716027Y-109514549D01*
X111716026Y-109514549D01*
X111533147Y-109495327D01*
X111533146Y-109495327D01*
X111527019Y-109494683D01*
X111404733Y-109505812D01*
X111337759Y-109511907D01*
X111337758Y-109511907D01*
X111331618Y-109512466D01*
X111325704Y-109514207D01*
X111325702Y-109514207D01*
X111256410Y-109534601D01*
X111143393Y-109567864D01*
X111137928Y-109570721D01*
X110974972Y-109655912D01*
X110974968Y-109655915D01*
X110969512Y-109658767D01*
X110964712Y-109662627D01*
X110964711Y-109662627D01*
X110951902Y-109672926D01*
X110816600Y-109781711D01*
X110690480Y-109932016D01*
X110687516Y-109937408D01*
X110687513Y-109937412D01*
X110616890Y-110065875D01*
X110595956Y-110103954D01*
X110536628Y-110290978D01*
X110514757Y-110485963D01*
X109983965Y-110485963D01*
X109966194Y-110304728D01*
X109964413Y-110298829D01*
X109964412Y-110298824D01*
X109911265Y-110122793D01*
X109909484Y-110116894D01*
X109817370Y-109943653D01*
X109693361Y-109791602D01*
X109542180Y-109666535D01*
X109369585Y-109573213D01*
X109267124Y-109541496D01*
X109188039Y-109517015D01*
X109188036Y-109517014D01*
X109182152Y-109515193D01*
X109176027Y-109514549D01*
X109176026Y-109514549D01*
X108993147Y-109495327D01*
X108993146Y-109495327D01*
X108987019Y-109494683D01*
X108864733Y-109505812D01*
X108797759Y-109511907D01*
X108797758Y-109511907D01*
X108791618Y-109512466D01*
X108785704Y-109514207D01*
X108785702Y-109514207D01*
X108716410Y-109534601D01*
X108603393Y-109567864D01*
X108597928Y-109570721D01*
X108434972Y-109655912D01*
X108434968Y-109655915D01*
X108429512Y-109658767D01*
X108424712Y-109662627D01*
X108424711Y-109662627D01*
X108411902Y-109672926D01*
X108276600Y-109781711D01*
X108150480Y-109932016D01*
X108147516Y-109937408D01*
X108147513Y-109937412D01*
X108076890Y-110065875D01*
X108055956Y-110103954D01*
X108054095Y-110109821D01*
X108054094Y-110109823D01*
X108014250Y-110235428D01*
X107974587Y-110294312D01*
X107909384Y-110322404D01*
X107839345Y-110310787D01*
X107786705Y-110263147D01*
X107771944Y-110228025D01*
X107731214Y-110065875D01*
X107727894Y-110056124D01*
X107642972Y-109860814D01*
X107638105Y-109851739D01*
X107522426Y-109672926D01*
X107516136Y-109664757D01*
X107372806Y-109507240D01*
X107365273Y-109500215D01*
X107198139Y-109368222D01*
X107189552Y-109362517D01*
X107003117Y-109259599D01*
X106993705Y-109255369D01*
X106792959Y-109184280D01*
X106782988Y-109181646D01*
X106711837Y-109168972D01*
X106698540Y-109170432D01*
X106694000Y-109184989D01*
X106694000Y-111818517D01*
X106186000Y-111818517D01*
X106186000Y-110772115D01*
X106181525Y-110756876D01*
X106180135Y-110755671D01*
X106172452Y-110754000D01*
X105123225Y-110754000D01*
X105109694Y-110757973D01*
X105108257Y-110767966D01*
X94271897Y-110767966D01*
X94273903Y-110763663D01*
X94276045Y-110755671D01*
X94333639Y-110540723D01*
X94333639Y-110540722D01*
X94335063Y-110535408D01*
X94355659Y-110300000D01*
X94349901Y-110234183D01*
X105104389Y-110234183D01*
X105105912Y-110242607D01*
X105118292Y-110246000D01*
X106167885Y-110246000D01*
X106183124Y-110241525D01*
X106184329Y-110240135D01*
X106186000Y-110232452D01*
X106186000Y-109183102D01*
X106182082Y-109169758D01*
X106167806Y-109167771D01*
X106129324Y-109173660D01*
X106119288Y-109176051D01*
X105916868Y-109242212D01*
X105907359Y-109246209D01*
X105718463Y-109344542D01*
X105709738Y-109350036D01*
X105539433Y-109477905D01*
X105531726Y-109484748D01*
X105384590Y-109638717D01*
X105378104Y-109646727D01*
X105258098Y-109822649D01*
X105253000Y-109831623D01*
X105163338Y-110024783D01*
X105159775Y-110034470D01*
X105104389Y-110234183D01*
X94349901Y-110234183D01*
X94335063Y-110064592D01*
X94324396Y-110024783D01*
X94275326Y-109841647D01*
X94275325Y-109841645D01*
X94273903Y-109836337D01*
X94196555Y-109670465D01*
X94176358Y-109627152D01*
X94176356Y-109627149D01*
X94174035Y-109622171D01*
X94038495Y-109428599D01*
X93871401Y-109261505D01*
X93677829Y-109125965D01*
X93672851Y-109123644D01*
X93672848Y-109123642D01*
X93468645Y-109028420D01*
X93468643Y-109028419D01*
X93463663Y-109026097D01*
X93458355Y-109024675D01*
X93458353Y-109024674D01*
X93240723Y-108966361D01*
X93240722Y-108966361D01*
X93235408Y-108964937D01*
X93132318Y-108955918D01*
X93061690Y-108949738D01*
X93061683Y-108949738D01*
X93058966Y-108949500D01*
X92941034Y-108949500D01*
X92938317Y-108949738D01*
X92938310Y-108949738D01*
X92867682Y-108955918D01*
X92764592Y-108964937D01*
X92759278Y-108966361D01*
X92759277Y-108966361D01*
X92541647Y-109024674D01*
X92541645Y-109024675D01*
X92536337Y-109026097D01*
X92531357Y-109028419D01*
X92531355Y-109028420D01*
X92327152Y-109123642D01*
X92327149Y-109123644D01*
X92322171Y-109125965D01*
X92128599Y-109261505D01*
X91961505Y-109428599D01*
X91958348Y-109433107D01*
X91958346Y-109433110D01*
X91829122Y-109617661D01*
X91825965Y-109622170D01*
X91823642Y-109627152D01*
X91823639Y-109627157D01*
X91746957Y-109791602D01*
X91726097Y-109836337D01*
X91724675Y-109841645D01*
X91724674Y-109841647D01*
X91675604Y-110024783D01*
X91664937Y-110064592D01*
X91644341Y-110300000D01*
X90224824Y-110300000D01*
X90274738Y-104870975D01*
X99177601Y-104870975D01*
X99206552Y-104971941D01*
X99211067Y-104983345D01*
X99295794Y-105148207D01*
X99302435Y-105158512D01*
X99417568Y-105303772D01*
X99426091Y-105312598D01*
X99542968Y-105412068D01*
X99581881Y-105471451D01*
X99582512Y-105542445D01*
X99574255Y-105562853D01*
X99572501Y-105565348D01*
X99515309Y-105712039D01*
X99494758Y-105868138D01*
X99512035Y-106024633D01*
X99566143Y-106172490D01*
X99570380Y-106178796D01*
X99570382Y-106178799D01*
X99610709Y-106238811D01*
X99653958Y-106303172D01*
X99770410Y-106409135D01*
X99777085Y-106412759D01*
X99902099Y-106480637D01*
X99902101Y-106480638D01*
X99908776Y-106484262D01*
X99916125Y-106486190D01*
X100053719Y-106522287D01*
X100053721Y-106522287D01*
X100061069Y-106524215D01*
X100144380Y-106525524D01*
X100210898Y-106526569D01*
X100210901Y-106526569D01*
X100218495Y-106526688D01*
X100371968Y-106491538D01*
X100512625Y-106420795D01*
X100538869Y-106398381D01*
X100626574Y-106323474D01*
X100626576Y-106323471D01*
X100632348Y-106318542D01*
X100724224Y-106190683D01*
X100782950Y-106044598D01*
X100805134Y-105888723D01*
X100805278Y-105875000D01*
X100786363Y-105718694D01*
X100730710Y-105571412D01*
X100726408Y-105565153D01*
X100726321Y-105564986D01*
X100712486Y-105495351D01*
X100738495Y-105429290D01*
X100760409Y-105407321D01*
X100843639Y-105342295D01*
X100852527Y-105333831D01*
X100973643Y-105193517D01*
X100980711Y-105183497D01*
X101072262Y-105022337D01*
X101077256Y-105011121D01*
X101122142Y-104876190D01*
X101122643Y-104862097D01*
X101116454Y-104859000D01*
X99192282Y-104859000D01*
X99178751Y-104862973D01*
X99177601Y-104870975D01*
X90274738Y-104870975D01*
X90279548Y-104347831D01*
X99178202Y-104347831D01*
X99184763Y-104351000D01*
X101108183Y-104351000D01*
X101121714Y-104347027D01*
X101122806Y-104339433D01*
X101088231Y-104224919D01*
X101083560Y-104213586D01*
X100996540Y-104049923D01*
X100989751Y-104039706D01*
X100872603Y-103896067D01*
X100863963Y-103887367D01*
X100846183Y-103872658D01*
X100806446Y-103813823D01*
X100800500Y-103775574D01*
X100800500Y-102820180D01*
X100791767Y-102776278D01*
X100784873Y-102765960D01*
X100784872Y-102765958D01*
X100765399Y-102736815D01*
X100758504Y-102726496D01*
X100748185Y-102719601D01*
X100719042Y-102700128D01*
X100719040Y-102700127D01*
X100708722Y-102693233D01*
X100664820Y-102684500D01*
X99635180Y-102684500D01*
X99591278Y-102693233D01*
X99580960Y-102700127D01*
X99580958Y-102700128D01*
X99551815Y-102719601D01*
X99541496Y-102726496D01*
X99534601Y-102736815D01*
X99515128Y-102765958D01*
X99515127Y-102765960D01*
X99508233Y-102776278D01*
X99499500Y-102820180D01*
X99499500Y-103774185D01*
X99479498Y-103842306D01*
X99452454Y-103872380D01*
X99446130Y-103877465D01*
X99437368Y-103886046D01*
X99318222Y-104028039D01*
X99311292Y-104038159D01*
X99221998Y-104200585D01*
X99217166Y-104211858D01*
X99178506Y-104333731D01*
X99178202Y-104347831D01*
X90279548Y-104347831D01*
X90357998Y-95815040D01*
X96174901Y-95815040D01*
X96176065Y-95823942D01*
X96176065Y-95823945D01*
X96190468Y-95934089D01*
X96190469Y-95934093D01*
X96191633Y-95942994D01*
X96195250Y-95951214D01*
X96238552Y-96049625D01*
X96243605Y-96061110D01*
X96326639Y-96159891D01*
X96346319Y-96172991D01*
X96391941Y-96227388D01*
X96402500Y-96277878D01*
X96402500Y-96670764D01*
X96402327Y-96677357D01*
X96400975Y-96703158D01*
X96400282Y-96716384D01*
X96405027Y-96728746D01*
X96405028Y-96728751D01*
X96407642Y-96735561D01*
X96413256Y-96754511D01*
X96417526Y-96774600D01*
X96425310Y-96785314D01*
X96427399Y-96790006D01*
X96430194Y-96794311D01*
X96434940Y-96806673D01*
X96449458Y-96821191D01*
X96462299Y-96836225D01*
X96474372Y-96852842D01*
X96485839Y-96859463D01*
X96495682Y-96868325D01*
X96495379Y-96868662D01*
X96502043Y-96873776D01*
X97882587Y-98254321D01*
X97887128Y-98259105D01*
X97913292Y-98288163D01*
X97925390Y-98293549D01*
X97925391Y-98293550D01*
X97932049Y-98296514D01*
X97949427Y-98305949D01*
X97955544Y-98309922D01*
X97955546Y-98309923D01*
X97966650Y-98317134D01*
X97979729Y-98319205D01*
X97984526Y-98321047D01*
X97989546Y-98322114D01*
X98001643Y-98327500D01*
X98022182Y-98327500D01*
X98041891Y-98329051D01*
X98062172Y-98332263D01*
X98074961Y-98328836D01*
X98088189Y-98328143D01*
X98088213Y-98328596D01*
X98096537Y-98327500D01*
X103790764Y-98327500D01*
X103797357Y-98327673D01*
X103823158Y-98329025D01*
X103836384Y-98329718D01*
X103848746Y-98324973D01*
X103848751Y-98324972D01*
X103855561Y-98322358D01*
X103874512Y-98316744D01*
X103894600Y-98312474D01*
X103905314Y-98304690D01*
X103910006Y-98302601D01*
X103914311Y-98299806D01*
X103926673Y-98295060D01*
X103941191Y-98280542D01*
X103956225Y-98267701D01*
X103962130Y-98263411D01*
X103962131Y-98263410D01*
X103972842Y-98255628D01*
X103979463Y-98244161D01*
X103988325Y-98234318D01*
X103988662Y-98234621D01*
X103993776Y-98227957D01*
X105454321Y-96767413D01*
X105459105Y-96762872D01*
X105488163Y-96736708D01*
X105496514Y-96717951D01*
X105505949Y-96700573D01*
X105509922Y-96694456D01*
X105509923Y-96694454D01*
X105517134Y-96683350D01*
X105519205Y-96670271D01*
X105521047Y-96665474D01*
X105522114Y-96660454D01*
X105527500Y-96648357D01*
X105527500Y-96627818D01*
X105529051Y-96608107D01*
X105530192Y-96600904D01*
X105532263Y-96587828D01*
X105528836Y-96575039D01*
X105528143Y-96561811D01*
X105528596Y-96561787D01*
X105527500Y-96553463D01*
X105527500Y-92705768D01*
X147935302Y-92705768D01*
X147972554Y-92832342D01*
X147977147Y-92843710D01*
X148067566Y-93016666D01*
X148074282Y-93026928D01*
X148196568Y-93179020D01*
X148205152Y-93187786D01*
X148354656Y-93313236D01*
X148364767Y-93320160D01*
X148535798Y-93414184D01*
X148547062Y-93419012D01*
X148733095Y-93478025D01*
X148745084Y-93480573D01*
X148891357Y-93496980D01*
X148903124Y-93493525D01*
X148904329Y-93492135D01*
X148906000Y-93484452D01*
X148906000Y-93479709D01*
X149414000Y-93479709D01*
X149418236Y-93494136D01*
X149430589Y-93496197D01*
X149560361Y-93483473D01*
X149572396Y-93481090D01*
X149759223Y-93424683D01*
X149770565Y-93420008D01*
X149942879Y-93328388D01*
X149953095Y-93321601D01*
X150104335Y-93198253D01*
X150113039Y-93189609D01*
X150237438Y-93039237D01*
X150244297Y-93029069D01*
X150247729Y-93022722D01*
X150831439Y-93022722D01*
X150836435Y-93051798D01*
X150839415Y-93062918D01*
X150910669Y-93256060D01*
X150915619Y-93266438D01*
X151020877Y-93443361D01*
X151027643Y-93452673D01*
X151163381Y-93607453D01*
X151171724Y-93615370D01*
X151333394Y-93742820D01*
X151343050Y-93749091D01*
X151525229Y-93844940D01*
X151535863Y-93849345D01*
X151732470Y-93910393D01*
X151743724Y-93912785D01*
X151888012Y-93929863D01*
X151902431Y-93927421D01*
X151906000Y-93914679D01*
X151906000Y-93912694D01*
X152414000Y-93912694D01*
X152418271Y-93927239D01*
X152430405Y-93929302D01*
X152545754Y-93918703D01*
X152557068Y-93916606D01*
X152755206Y-93860725D01*
X152765945Y-93856603D01*
X152950583Y-93765549D01*
X152960392Y-93759538D01*
X153125349Y-93636360D01*
X153133889Y-93628671D01*
X153273639Y-93477490D01*
X153280640Y-93468365D01*
X153390495Y-93294255D01*
X153395716Y-93284008D01*
X153472003Y-93092793D01*
X153475270Y-93081767D01*
X153487203Y-93021770D01*
X153486051Y-93008894D01*
X153470898Y-93004000D01*
X152432115Y-93004000D01*
X152416876Y-93008475D01*
X152415671Y-93009865D01*
X152414000Y-93017548D01*
X152414000Y-93912694D01*
X151906000Y-93912694D01*
X151906000Y-93022115D01*
X151901525Y-93006876D01*
X151900135Y-93005671D01*
X151892452Y-93004000D01*
X150846337Y-93004000D01*
X150833375Y-93007806D01*
X150831439Y-93022722D01*
X150247729Y-93022722D01*
X150337121Y-92857393D01*
X150341871Y-92846093D01*
X150383595Y-92711307D01*
X150383801Y-92697205D01*
X150377045Y-92694000D01*
X149432115Y-92694000D01*
X149416876Y-92698475D01*
X149415671Y-92699865D01*
X149414000Y-92707548D01*
X149414000Y-93479709D01*
X148906000Y-93479709D01*
X148906000Y-92712115D01*
X148901525Y-92696876D01*
X148900135Y-92695671D01*
X148892452Y-92694000D01*
X147949953Y-92694000D01*
X147936422Y-92697973D01*
X147935302Y-92705768D01*
X105527500Y-92705768D01*
X105527500Y-92478230D01*
X150832797Y-92478230D01*
X150833949Y-92491106D01*
X150849102Y-92496000D01*
X151887885Y-92496000D01*
X151903124Y-92491525D01*
X151904329Y-92490135D01*
X151906000Y-92482452D01*
X151906000Y-92477885D01*
X152414000Y-92477885D01*
X152418475Y-92493124D01*
X152419865Y-92494329D01*
X152427548Y-92496000D01*
X153473663Y-92496000D01*
X153486625Y-92492194D01*
X153488561Y-92477278D01*
X153483565Y-92448202D01*
X153480585Y-92437082D01*
X153409331Y-92243940D01*
X153404381Y-92233562D01*
X153299123Y-92056639D01*
X153292357Y-92047327D01*
X153156619Y-91892547D01*
X153148276Y-91884630D01*
X152986606Y-91757180D01*
X152976950Y-91750909D01*
X152794771Y-91655060D01*
X152784137Y-91650655D01*
X152587530Y-91589607D01*
X152576276Y-91587215D01*
X152431988Y-91570137D01*
X152417569Y-91572579D01*
X152414000Y-91585321D01*
X152414000Y-92477885D01*
X151906000Y-92477885D01*
X151906000Y-91587306D01*
X151901729Y-91572761D01*
X151889595Y-91570698D01*
X151774246Y-91581297D01*
X151762932Y-91583394D01*
X151564794Y-91639275D01*
X151554055Y-91643397D01*
X151369417Y-91734451D01*
X151359608Y-91740462D01*
X151194651Y-91863640D01*
X151186111Y-91871329D01*
X151046361Y-92022510D01*
X151039360Y-92031635D01*
X150929505Y-92205745D01*
X150924284Y-92215992D01*
X150847997Y-92407207D01*
X150844730Y-92418233D01*
X150832797Y-92478230D01*
X105527500Y-92478230D01*
X105527500Y-92182795D01*
X147936199Y-92182795D01*
X147942955Y-92186000D01*
X148887885Y-92186000D01*
X148903124Y-92181525D01*
X148904329Y-92180135D01*
X148906000Y-92172452D01*
X148906000Y-92167885D01*
X149414000Y-92167885D01*
X149418475Y-92183124D01*
X149419865Y-92184329D01*
X149427548Y-92186000D01*
X150370047Y-92186000D01*
X150383578Y-92182027D01*
X150384698Y-92174232D01*
X150347446Y-92047658D01*
X150342853Y-92036290D01*
X150252434Y-91863334D01*
X150245718Y-91853072D01*
X150123432Y-91700980D01*
X150114848Y-91692214D01*
X149965344Y-91566764D01*
X149955233Y-91559840D01*
X149784202Y-91465816D01*
X149772938Y-91460988D01*
X149586905Y-91401975D01*
X149574916Y-91399427D01*
X149428643Y-91383020D01*
X149416876Y-91386475D01*
X149415671Y-91387865D01*
X149414000Y-91395548D01*
X149414000Y-92167885D01*
X148906000Y-92167885D01*
X148906000Y-91400291D01*
X148901764Y-91385864D01*
X148889411Y-91383803D01*
X148759639Y-91396527D01*
X148747604Y-91398910D01*
X148560777Y-91455317D01*
X148549435Y-91459992D01*
X148377121Y-91551612D01*
X148366905Y-91558399D01*
X148215665Y-91681747D01*
X148206961Y-91690391D01*
X148082562Y-91840763D01*
X148075703Y-91850931D01*
X147982879Y-92022607D01*
X147978129Y-92033907D01*
X147936405Y-92168693D01*
X147936199Y-92182795D01*
X105527500Y-92182795D01*
X105527500Y-90069440D01*
X117869901Y-90069440D01*
X117871065Y-90078342D01*
X117871065Y-90078345D01*
X117885468Y-90188489D01*
X117885469Y-90188493D01*
X117886633Y-90197394D01*
X117899936Y-90227628D01*
X117931494Y-90299348D01*
X117938605Y-90315510D01*
X117944382Y-90322383D01*
X117944383Y-90322384D01*
X117968839Y-90351478D01*
X118021639Y-90414291D01*
X118129060Y-90485796D01*
X118252233Y-90524278D01*
X118261203Y-90524442D01*
X118261207Y-90524443D01*
X118319942Y-90525519D01*
X118381255Y-90526643D01*
X118443505Y-90509672D01*
X118497092Y-90495062D01*
X118497093Y-90495062D01*
X118505755Y-90492700D01*
X118513405Y-90488003D01*
X118513407Y-90488002D01*
X118608072Y-90429878D01*
X118608075Y-90429875D01*
X118615724Y-90425179D01*
X118621750Y-90418522D01*
X118696300Y-90336161D01*
X118696303Y-90336157D01*
X118702322Y-90329507D01*
X118758588Y-90213375D01*
X118772514Y-90130596D01*
X118803540Y-90066738D01*
X118864165Y-90029791D01*
X118896768Y-90025500D01*
X121982048Y-90025500D01*
X122050169Y-90045502D01*
X122065916Y-90057482D01*
X122071639Y-90064291D01*
X122079110Y-90069264D01*
X122079111Y-90069265D01*
X122171586Y-90130821D01*
X122179060Y-90135796D01*
X122302233Y-90174278D01*
X122311203Y-90174442D01*
X122311207Y-90174443D01*
X122369942Y-90175519D01*
X122431255Y-90176643D01*
X122510130Y-90155139D01*
X122547092Y-90145062D01*
X122547093Y-90145062D01*
X122555755Y-90142700D01*
X122563405Y-90138003D01*
X122563407Y-90138002D01*
X122658072Y-90079878D01*
X122658075Y-90079875D01*
X122665724Y-90075179D01*
X122671750Y-90068522D01*
X122746300Y-89986161D01*
X122746303Y-89986157D01*
X122752322Y-89979507D01*
X122793537Y-89894440D01*
X126094403Y-89894440D01*
X126095567Y-89903342D01*
X126095567Y-89903345D01*
X126109970Y-90013489D01*
X126109971Y-90013493D01*
X126111135Y-90022394D01*
X126163107Y-90140510D01*
X126168884Y-90147383D01*
X126168885Y-90147384D01*
X126224356Y-90213375D01*
X126246141Y-90239291D01*
X126353562Y-90310796D01*
X126476735Y-90349278D01*
X126485705Y-90349442D01*
X126485709Y-90349443D01*
X126544444Y-90350519D01*
X126605757Y-90351643D01*
X126710458Y-90323098D01*
X126721594Y-90320062D01*
X126721595Y-90320062D01*
X126730257Y-90317700D01*
X126737907Y-90313003D01*
X126737909Y-90313002D01*
X126832574Y-90254878D01*
X126832577Y-90254875D01*
X126840226Y-90250179D01*
X126846252Y-90243522D01*
X126920802Y-90161161D01*
X126920805Y-90161157D01*
X126926824Y-90154507D01*
X126983090Y-90038375D01*
X127004499Y-89911120D01*
X127004504Y-89910712D01*
X127030069Y-89845787D01*
X127040458Y-89834016D01*
X127175456Y-89699018D01*
X127177487Y-89697264D01*
X127182269Y-89694927D01*
X127215585Y-89659012D01*
X127218841Y-89655633D01*
X127232248Y-89642226D01*
X127234978Y-89638247D01*
X127237286Y-89635618D01*
X127258401Y-89612856D01*
X127262711Y-89602053D01*
X127265234Y-89598062D01*
X127270994Y-89587275D01*
X127272911Y-89582950D01*
X127279492Y-89573356D01*
X127285183Y-89549375D01*
X127290748Y-89531778D01*
X127296588Y-89517140D01*
X127296589Y-89517137D01*
X127299883Y-89508880D01*
X127300500Y-89502587D01*
X127300500Y-89499508D01*
X127300650Y-89496435D01*
X127300866Y-89496446D01*
X127302198Y-89485071D01*
X127302654Y-89475756D01*
X127305340Y-89464436D01*
X127303747Y-89452727D01*
X127301651Y-89437329D01*
X127300500Y-89420338D01*
X127300500Y-89351500D01*
X127320502Y-89283379D01*
X127374158Y-89236886D01*
X127426500Y-89225500D01*
X129430059Y-89225500D01*
X129452755Y-89221273D01*
X129494229Y-89220785D01*
X129500789Y-89222834D01*
X129509762Y-89222998D01*
X129509765Y-89222999D01*
X129566409Y-89224037D01*
X129629811Y-89225199D01*
X129709119Y-89203577D01*
X129745648Y-89193618D01*
X129745649Y-89193618D01*
X129754311Y-89191256D01*
X129761961Y-89186559D01*
X129761963Y-89186558D01*
X129856628Y-89128434D01*
X129856631Y-89128431D01*
X129864280Y-89123735D01*
X129870306Y-89117078D01*
X129944856Y-89034717D01*
X129944859Y-89034713D01*
X129950878Y-89028063D01*
X130007144Y-88911931D01*
X130012141Y-88882232D01*
X130027746Y-88789473D01*
X130028553Y-88784676D01*
X130028689Y-88773556D01*
X130016742Y-88690134D01*
X130011668Y-88654701D01*
X130011667Y-88654698D01*
X130010395Y-88645815D01*
X130001260Y-88625724D01*
X129960701Y-88536518D01*
X129960699Y-88536515D01*
X129956984Y-88528344D01*
X129906594Y-88469863D01*
X129878607Y-88437382D01*
X129878605Y-88437380D01*
X129872749Y-88430584D01*
X129764462Y-88360397D01*
X129755867Y-88357827D01*
X129755866Y-88357826D01*
X129649430Y-88325994D01*
X129649428Y-88325994D01*
X129640829Y-88323422D01*
X129631854Y-88323367D01*
X129631853Y-88323367D01*
X129577197Y-88323033D01*
X129511787Y-88322634D01*
X129454453Y-88339020D01*
X129396342Y-88355628D01*
X129396340Y-88355629D01*
X129387711Y-88358095D01*
X129278575Y-88426955D01*
X129272632Y-88433684D01*
X129272631Y-88433685D01*
X129241175Y-88469302D01*
X129193152Y-88523678D01*
X129189337Y-88531803D01*
X129189336Y-88531805D01*
X129179832Y-88552048D01*
X129132776Y-88605211D01*
X129065777Y-88624500D01*
X127052374Y-88624500D01*
X127040817Y-88623935D01*
X127029832Y-88620754D01*
X126992006Y-88624030D01*
X126981134Y-88624500D01*
X126972052Y-88624500D01*
X126966351Y-88625562D01*
X126966349Y-88625562D01*
X126965479Y-88625724D01*
X126953280Y-88627384D01*
X126929895Y-88629409D01*
X126929894Y-88629409D01*
X126918304Y-88630413D01*
X126907855Y-88635520D01*
X126904567Y-88636432D01*
X126901383Y-88637661D01*
X126889947Y-88639791D01*
X126866675Y-88654136D01*
X126860048Y-88658221D01*
X126849265Y-88664160D01*
X126817731Y-88679575D01*
X126809822Y-88688101D01*
X126807084Y-88690134D01*
X126804554Y-88692428D01*
X126794652Y-88698532D01*
X126787613Y-88707788D01*
X126787608Y-88707793D01*
X126773393Y-88726487D01*
X126765474Y-88735908D01*
X126741599Y-88761646D01*
X126737290Y-88772447D01*
X126735471Y-88775324D01*
X126733934Y-88778381D01*
X126726892Y-88787641D01*
X126720096Y-88811110D01*
X126717126Y-88821367D01*
X126713129Y-88833008D01*
X126700117Y-88865622D01*
X126699500Y-88871915D01*
X126699500Y-88874997D01*
X126699350Y-88878067D01*
X126699234Y-88878061D01*
X126698935Y-88884183D01*
X126695754Y-88895168D01*
X126696758Y-88906759D01*
X126699030Y-88932994D01*
X126699500Y-88943866D01*
X126699500Y-89272841D01*
X126679498Y-89340962D01*
X126662595Y-89361936D01*
X126612145Y-89412386D01*
X126549833Y-89446412D01*
X126522282Y-89449289D01*
X126487733Y-89449078D01*
X126433996Y-89464436D01*
X126372288Y-89482072D01*
X126372286Y-89482073D01*
X126363657Y-89484539D01*
X126254521Y-89553399D01*
X126248578Y-89560128D01*
X126248577Y-89560129D01*
X126223000Y-89589090D01*
X126169098Y-89650122D01*
X126165284Y-89658245D01*
X126165283Y-89658247D01*
X126162428Y-89664328D01*
X126114256Y-89766932D01*
X126112876Y-89775798D01*
X126095784Y-89885567D01*
X126095784Y-89885571D01*
X126094403Y-89894440D01*
X122793537Y-89894440D01*
X122808588Y-89863375D01*
X122816156Y-89818394D01*
X122829190Y-89740917D01*
X122829997Y-89736120D01*
X122830133Y-89725000D01*
X122811839Y-89597259D01*
X122791677Y-89552915D01*
X122762145Y-89487962D01*
X122762143Y-89487959D01*
X122758428Y-89479788D01*
X122718415Y-89433350D01*
X122680051Y-89388826D01*
X122680049Y-89388824D01*
X122674193Y-89382028D01*
X122565906Y-89311841D01*
X122557311Y-89309271D01*
X122557310Y-89309270D01*
X122450874Y-89277438D01*
X122450872Y-89277438D01*
X122442273Y-89274866D01*
X122433298Y-89274811D01*
X122433297Y-89274811D01*
X122378641Y-89274477D01*
X122313231Y-89274078D01*
X122251193Y-89291809D01*
X122197786Y-89307072D01*
X122197784Y-89307073D01*
X122189155Y-89309539D01*
X122080019Y-89378399D01*
X122074075Y-89385129D01*
X122067243Y-89390944D01*
X122065611Y-89389026D01*
X122016835Y-89419726D01*
X121982479Y-89424500D01*
X118727370Y-89424500D01*
X118724695Y-89424304D01*
X118719658Y-89422574D01*
X118670730Y-89424411D01*
X118666003Y-89424500D01*
X118647052Y-89424500D01*
X118642319Y-89425382D01*
X118638792Y-89425610D01*
X118619420Y-89426337D01*
X118619418Y-89426338D01*
X118607792Y-89426774D01*
X118597100Y-89431368D01*
X118592497Y-89432405D01*
X118580786Y-89435962D01*
X118576383Y-89437661D01*
X118564947Y-89439791D01*
X118543961Y-89452727D01*
X118527589Y-89461231D01*
X118513109Y-89467452D01*
X118513104Y-89467455D01*
X118504937Y-89470964D01*
X118500051Y-89474977D01*
X118497868Y-89477160D01*
X118495592Y-89479224D01*
X118495446Y-89479063D01*
X118486461Y-89486165D01*
X118479553Y-89492429D01*
X118469652Y-89498532D01*
X118462612Y-89507791D01*
X118462610Y-89507792D01*
X118453093Y-89520308D01*
X118441892Y-89533136D01*
X118387642Y-89587386D01*
X118325330Y-89621412D01*
X118297779Y-89624289D01*
X118263231Y-89624078D01*
X118204876Y-89640756D01*
X118147786Y-89657072D01*
X118147784Y-89657073D01*
X118139155Y-89659539D01*
X118030019Y-89728399D01*
X118024076Y-89735128D01*
X118024075Y-89735129D01*
X117956351Y-89811812D01*
X117944596Y-89825122D01*
X117889754Y-89941932D01*
X117888374Y-89950798D01*
X117871282Y-90060567D01*
X117871282Y-90060571D01*
X117869901Y-90069440D01*
X105527500Y-90069440D01*
X105527500Y-87865768D01*
X147935302Y-87865768D01*
X147972554Y-87992342D01*
X147977147Y-88003710D01*
X148067566Y-88176666D01*
X148074282Y-88186928D01*
X148196568Y-88339020D01*
X148205152Y-88347786D01*
X148354656Y-88473236D01*
X148364767Y-88480160D01*
X148535798Y-88574184D01*
X148547062Y-88579012D01*
X148733095Y-88638025D01*
X148745084Y-88640573D01*
X148891357Y-88656980D01*
X148903124Y-88653525D01*
X148904329Y-88652135D01*
X148906000Y-88644452D01*
X148906000Y-87872115D01*
X148901525Y-87856876D01*
X148900135Y-87855671D01*
X148892452Y-87854000D01*
X147949953Y-87854000D01*
X147936422Y-87857973D01*
X147935302Y-87865768D01*
X105527500Y-87865768D01*
X105527500Y-87342795D01*
X147936199Y-87342795D01*
X147942955Y-87346000D01*
X148887885Y-87346000D01*
X148903124Y-87341525D01*
X148904329Y-87340135D01*
X148906000Y-87332452D01*
X148906000Y-86560291D01*
X148901764Y-86545864D01*
X148889411Y-86543803D01*
X148759639Y-86556527D01*
X148747604Y-86558910D01*
X148560777Y-86615317D01*
X148549435Y-86619992D01*
X148377121Y-86711612D01*
X148366905Y-86718399D01*
X148215665Y-86841747D01*
X148206961Y-86850391D01*
X148082562Y-87000763D01*
X148075703Y-87010931D01*
X147982879Y-87182607D01*
X147978129Y-87193907D01*
X147936405Y-87328693D01*
X147936199Y-87342795D01*
X105527500Y-87342795D01*
X105527500Y-77021423D01*
X105547502Y-76953302D01*
X105564405Y-76932328D01*
X105707328Y-76789405D01*
X105769640Y-76755379D01*
X105796423Y-76752500D01*
X113503577Y-76752500D01*
X113571698Y-76772502D01*
X113592672Y-76789405D01*
X115910595Y-79107329D01*
X115944621Y-79169641D01*
X115947500Y-79196424D01*
X115947500Y-83431474D01*
X115946810Y-83444644D01*
X115943692Y-83474311D01*
X115947785Y-83486908D01*
X115952909Y-83502678D01*
X115956322Y-83515415D01*
X115962526Y-83544600D01*
X115969202Y-83553788D01*
X115969209Y-83553807D01*
X115970056Y-83555470D01*
X115970069Y-83555490D01*
X115973578Y-83566291D01*
X115982438Y-83576131D01*
X115982439Y-83576133D01*
X115988561Y-83582931D01*
X115993545Y-83588468D01*
X116001831Y-83598700D01*
X116019372Y-83622842D01*
X116029211Y-83628522D01*
X116029225Y-83628536D01*
X116030676Y-83629712D01*
X116030694Y-83629724D01*
X116038292Y-83638163D01*
X116050390Y-83643550D01*
X116050391Y-83643550D01*
X116065543Y-83650296D01*
X116077296Y-83656284D01*
X116103128Y-83671199D01*
X116114426Y-83672386D01*
X116114451Y-83672396D01*
X116116238Y-83672876D01*
X116116269Y-83672881D01*
X116126643Y-83677500D01*
X116156474Y-83677500D01*
X116169644Y-83678190D01*
X116186139Y-83679924D01*
X116186141Y-83679924D01*
X116199311Y-83681308D01*
X116210114Y-83677798D01*
X116215804Y-83677500D01*
X117267481Y-83677500D01*
X117335602Y-83697502D01*
X117363930Y-83722422D01*
X117420139Y-83789291D01*
X117527560Y-83860796D01*
X117650733Y-83899278D01*
X117659703Y-83899442D01*
X117659707Y-83899443D01*
X117718442Y-83900519D01*
X117779755Y-83901643D01*
X117863358Y-83878850D01*
X117934341Y-83880230D01*
X117993310Y-83919767D01*
X118021542Y-83984908D01*
X118022500Y-84000413D01*
X118022500Y-84916338D01*
X118002498Y-84984459D01*
X117969190Y-85017491D01*
X117969446Y-85017792D01*
X117965496Y-85021154D01*
X117963736Y-85022899D01*
X117955019Y-85028399D01*
X117869596Y-85125122D01*
X117814754Y-85241932D01*
X117813374Y-85250798D01*
X117796282Y-85360567D01*
X117796282Y-85360571D01*
X117794901Y-85369440D01*
X117796065Y-85378342D01*
X117796065Y-85378345D01*
X117810468Y-85488489D01*
X117810469Y-85488493D01*
X117811633Y-85497394D01*
X117863605Y-85615510D01*
X117946639Y-85714291D01*
X118054060Y-85785796D01*
X118177233Y-85824278D01*
X118186203Y-85824442D01*
X118186207Y-85824443D01*
X118244942Y-85825519D01*
X118306255Y-85826643D01*
X118388721Y-85804160D01*
X118422092Y-85795062D01*
X118422093Y-85795062D01*
X118430755Y-85792700D01*
X118505574Y-85746761D01*
X118574088Y-85728164D01*
X118641784Y-85749561D01*
X118687165Y-85804160D01*
X118697500Y-85854137D01*
X118697500Y-86266338D01*
X118677498Y-86334459D01*
X118644190Y-86367491D01*
X118644446Y-86367792D01*
X118640496Y-86371154D01*
X118638736Y-86372899D01*
X118630019Y-86378399D01*
X118624077Y-86385128D01*
X118624076Y-86385128D01*
X118589189Y-86424630D01*
X118544596Y-86475122D01*
X118540782Y-86483245D01*
X118540781Y-86483247D01*
X118514794Y-86538598D01*
X118489754Y-86591932D01*
X118488374Y-86600798D01*
X118471282Y-86710567D01*
X118471282Y-86710571D01*
X118469901Y-86719440D01*
X118471065Y-86728342D01*
X118471065Y-86728345D01*
X118485468Y-86838489D01*
X118485469Y-86838493D01*
X118486633Y-86847394D01*
X118538605Y-86965510D01*
X118544382Y-86972383D01*
X118544383Y-86972384D01*
X118568238Y-87000763D01*
X118621639Y-87064291D01*
X118729060Y-87135796D01*
X118852233Y-87174278D01*
X118861203Y-87174442D01*
X118861207Y-87174443D01*
X118919942Y-87175519D01*
X118981255Y-87176643D01*
X119043505Y-87159671D01*
X119097092Y-87145062D01*
X119097093Y-87145062D01*
X119105755Y-87142700D01*
X119113405Y-87138003D01*
X119113407Y-87138002D01*
X119208072Y-87079878D01*
X119208075Y-87079875D01*
X119215724Y-87075179D01*
X119221750Y-87068522D01*
X119296300Y-86986161D01*
X119296303Y-86986157D01*
X119302322Y-86979507D01*
X119358588Y-86863375D01*
X119360773Y-86850391D01*
X119379190Y-86740917D01*
X119379997Y-86736120D01*
X119380133Y-86725000D01*
X119365929Y-86625816D01*
X119363112Y-86606145D01*
X119363111Y-86606142D01*
X119361839Y-86597259D01*
X119355724Y-86583809D01*
X119312145Y-86487962D01*
X119312143Y-86487959D01*
X119308428Y-86479788D01*
X119224193Y-86382028D01*
X119209971Y-86372810D01*
X119163685Y-86318975D01*
X119152500Y-86267076D01*
X119152500Y-77254316D01*
X119152673Y-77247723D01*
X119154025Y-77221922D01*
X119154718Y-77208696D01*
X119147357Y-77189519D01*
X119141745Y-77170572D01*
X119140228Y-77163433D01*
X119140227Y-77163431D01*
X119137474Y-77150480D01*
X119129689Y-77139765D01*
X119127600Y-77135074D01*
X119124806Y-77130772D01*
X119120060Y-77118406D01*
X119105539Y-77103885D01*
X119092698Y-77088851D01*
X119088410Y-77082949D01*
X119080628Y-77072238D01*
X119069163Y-77065618D01*
X119059318Y-77056754D01*
X119059621Y-77056417D01*
X119052958Y-77051304D01*
X115443333Y-73441679D01*
X115438792Y-73436895D01*
X115425806Y-73422473D01*
X115412628Y-73407837D01*
X115400530Y-73402451D01*
X115400529Y-73402450D01*
X115393871Y-73399486D01*
X115376493Y-73390051D01*
X115370376Y-73386078D01*
X115370374Y-73386077D01*
X115359270Y-73378866D01*
X115346191Y-73376795D01*
X115341394Y-73374953D01*
X115336374Y-73373886D01*
X115324277Y-73368500D01*
X115303738Y-73368500D01*
X115284029Y-73366949D01*
X115263748Y-73363737D01*
X115250959Y-73367164D01*
X115237731Y-73367857D01*
X115237707Y-73367404D01*
X115229383Y-73368500D01*
X104138236Y-73368500D01*
X104131643Y-73368327D01*
X104105842Y-73366975D01*
X104092616Y-73366282D01*
X104080254Y-73371027D01*
X104080249Y-73371028D01*
X104073439Y-73373642D01*
X104054489Y-73379256D01*
X104034400Y-73383526D01*
X104023686Y-73391310D01*
X104018994Y-73393399D01*
X104014689Y-73396194D01*
X104002327Y-73400940D01*
X103987809Y-73415458D01*
X103972775Y-73428299D01*
X103956158Y-73440372D01*
X103949537Y-73451839D01*
X103940675Y-73461682D01*
X103940338Y-73461378D01*
X103935226Y-73468041D01*
X102995669Y-74407597D01*
X102990885Y-74412137D01*
X102961837Y-74438292D01*
X102956451Y-74450390D01*
X102956450Y-74450391D01*
X102953486Y-74457049D01*
X102944051Y-74474427D01*
X102940078Y-74480544D01*
X102940077Y-74480546D01*
X102932866Y-74491650D01*
X102930795Y-74504729D01*
X102928953Y-74509526D01*
X102927886Y-74514546D01*
X102922500Y-74526643D01*
X102922500Y-74547182D01*
X102920949Y-74566891D01*
X102917737Y-74587172D01*
X102921164Y-74599961D01*
X102921857Y-74613189D01*
X102921404Y-74613213D01*
X102922500Y-74621537D01*
X102922500Y-87578576D01*
X102902498Y-87646697D01*
X102885593Y-87667674D01*
X102867668Y-87685598D01*
X102805355Y-87719621D01*
X102778575Y-87722500D01*
X102259848Y-87722500D01*
X102253253Y-87722327D01*
X102227443Y-87720974D01*
X102227442Y-87720974D01*
X102214216Y-87720281D01*
X102195037Y-87727643D01*
X102176094Y-87733255D01*
X102156000Y-87737526D01*
X102145283Y-87745313D01*
X102140591Y-87747402D01*
X102136292Y-87750194D01*
X102123927Y-87754940D01*
X102109409Y-87769458D01*
X102094375Y-87782299D01*
X102077758Y-87794372D01*
X102071137Y-87805839D01*
X102062275Y-87815682D01*
X102061938Y-87815379D01*
X102056824Y-87822043D01*
X101794242Y-88084625D01*
X101731930Y-88118651D01*
X101697277Y-88119792D01*
X101697273Y-88120466D01*
X101568231Y-88119678D01*
X101516233Y-88134539D01*
X101452786Y-88152672D01*
X101452784Y-88152673D01*
X101444155Y-88155139D01*
X101436565Y-88159928D01*
X101350225Y-88214405D01*
X101335019Y-88223999D01*
X101329076Y-88230728D01*
X101329075Y-88230729D01*
X101283070Y-88282820D01*
X101249596Y-88320722D01*
X101245782Y-88328845D01*
X101245781Y-88328847D01*
X101219794Y-88384198D01*
X101194754Y-88437532D01*
X101189720Y-88469863D01*
X101176282Y-88556167D01*
X101176282Y-88556171D01*
X101174901Y-88565040D01*
X101176065Y-88573942D01*
X101176065Y-88573945D01*
X101190468Y-88684089D01*
X101190469Y-88684093D01*
X101191633Y-88692994D01*
X101195250Y-88701214D01*
X101234085Y-88789473D01*
X101243605Y-88811110D01*
X101249382Y-88817983D01*
X101249383Y-88817984D01*
X101289427Y-88865622D01*
X101326639Y-88909891D01*
X101434060Y-88981396D01*
X101557233Y-89019878D01*
X101566203Y-89020042D01*
X101566207Y-89020043D01*
X101624942Y-89021119D01*
X101686255Y-89022243D01*
X101748505Y-89005272D01*
X101802092Y-88990662D01*
X101802093Y-88990662D01*
X101810755Y-88988300D01*
X101818405Y-88983603D01*
X101818407Y-88983602D01*
X101913072Y-88925478D01*
X101913075Y-88925475D01*
X101920724Y-88920779D01*
X101928733Y-88911931D01*
X102001300Y-88831761D01*
X102001303Y-88831757D01*
X102007322Y-88825107D01*
X102063588Y-88708975D01*
X102066676Y-88690623D01*
X102084190Y-88586517D01*
X102084997Y-88581720D01*
X102085133Y-88570600D01*
X102077357Y-88516302D01*
X102087500Y-88446034D01*
X102112989Y-88409345D01*
X102307929Y-88214405D01*
X102370241Y-88180379D01*
X102397024Y-88177500D01*
X102915764Y-88177500D01*
X102922357Y-88177673D01*
X102948158Y-88179025D01*
X102961384Y-88179718D01*
X102973746Y-88174973D01*
X102973751Y-88174972D01*
X102980561Y-88172358D01*
X102999512Y-88166744D01*
X103019600Y-88162474D01*
X103030314Y-88154690D01*
X103035006Y-88152601D01*
X103039311Y-88149806D01*
X103051673Y-88145060D01*
X103066191Y-88130542D01*
X103081225Y-88117701D01*
X103087130Y-88113411D01*
X103087131Y-88113410D01*
X103097842Y-88105628D01*
X103104463Y-88094161D01*
X103113325Y-88084318D01*
X103113662Y-88084622D01*
X103118774Y-88077959D01*
X103304330Y-87892404D01*
X103309114Y-87887864D01*
X103328321Y-87870570D01*
X103338163Y-87861708D01*
X103346514Y-87842951D01*
X103355949Y-87825573D01*
X103359922Y-87819456D01*
X103359923Y-87819454D01*
X103367134Y-87808350D01*
X103369205Y-87795271D01*
X103371047Y-87790474D01*
X103372114Y-87785454D01*
X103377500Y-87773357D01*
X103377500Y-87752818D01*
X103379051Y-87733107D01*
X103380192Y-87725904D01*
X103382263Y-87712828D01*
X103378836Y-87700039D01*
X103378143Y-87686811D01*
X103378596Y-87686787D01*
X103377500Y-87678463D01*
X103377500Y-74721424D01*
X103397502Y-74653303D01*
X103414405Y-74632328D01*
X104186330Y-73860404D01*
X104248642Y-73826379D01*
X104275425Y-73823500D01*
X115129497Y-73823500D01*
X115197618Y-73843502D01*
X115218592Y-73860405D01*
X115614086Y-74255899D01*
X115648112Y-74318211D01*
X115643047Y-74389026D01*
X115600500Y-74445862D01*
X115539408Y-74467987D01*
X115537828Y-74467737D01*
X115525039Y-74471164D01*
X115511809Y-74471857D01*
X115511785Y-74471404D01*
X115503463Y-74472500D01*
X104934236Y-74472500D01*
X104927643Y-74472327D01*
X104901842Y-74470975D01*
X104888616Y-74470282D01*
X104876254Y-74475027D01*
X104876249Y-74475028D01*
X104869439Y-74477642D01*
X104850489Y-74483256D01*
X104830400Y-74487526D01*
X104819686Y-74495310D01*
X104814994Y-74497399D01*
X104810689Y-74500194D01*
X104798327Y-74504940D01*
X104783809Y-74519458D01*
X104768775Y-74532299D01*
X104752158Y-74544372D01*
X104745537Y-74555839D01*
X104736675Y-74565682D01*
X104736338Y-74565378D01*
X104731226Y-74572041D01*
X103795669Y-75507597D01*
X103790885Y-75512137D01*
X103761837Y-75538292D01*
X103756451Y-75550390D01*
X103756450Y-75550391D01*
X103753486Y-75557049D01*
X103744051Y-75574427D01*
X103740078Y-75580544D01*
X103740077Y-75580546D01*
X103732866Y-75591650D01*
X103730795Y-75604729D01*
X103728953Y-75609526D01*
X103727886Y-75614546D01*
X103722500Y-75626643D01*
X103722500Y-75647182D01*
X103720949Y-75666891D01*
X103717737Y-75687172D01*
X103721164Y-75699961D01*
X103721857Y-75713189D01*
X103721404Y-75713213D01*
X103722500Y-75721537D01*
X103722500Y-89203577D01*
X103702498Y-89271698D01*
X103685595Y-89292672D01*
X102672071Y-90306195D01*
X102609759Y-90340221D01*
X102582976Y-90343100D01*
X102086444Y-90343100D01*
X102018323Y-90323098D01*
X101990991Y-90299348D01*
X101935051Y-90234426D01*
X101935049Y-90234424D01*
X101929193Y-90227628D01*
X101820906Y-90157441D01*
X101812311Y-90154871D01*
X101812310Y-90154870D01*
X101705874Y-90123038D01*
X101705872Y-90123038D01*
X101697273Y-90120466D01*
X101688298Y-90120411D01*
X101688297Y-90120411D01*
X101633641Y-90120077D01*
X101568231Y-90119678D01*
X101511835Y-90135796D01*
X101452786Y-90152672D01*
X101452784Y-90152673D01*
X101444155Y-90155139D01*
X101335019Y-90223999D01*
X101329076Y-90230728D01*
X101329075Y-90230729D01*
X101268473Y-90299348D01*
X101249596Y-90320722D01*
X101245782Y-90328845D01*
X101245781Y-90328847D01*
X101219794Y-90384198D01*
X101194754Y-90437532D01*
X101186164Y-90492700D01*
X101176282Y-90556167D01*
X101176282Y-90556171D01*
X101174901Y-90565040D01*
X101176065Y-90573942D01*
X101176065Y-90573945D01*
X101190468Y-90684089D01*
X101190469Y-90684093D01*
X101191633Y-90692994D01*
X101195250Y-90701214D01*
X101238552Y-90799625D01*
X101243605Y-90811110D01*
X101326639Y-90909891D01*
X101434060Y-90981396D01*
X101557233Y-91019878D01*
X101566203Y-91020042D01*
X101566207Y-91020043D01*
X101624942Y-91021119D01*
X101686255Y-91022243D01*
X101748505Y-91005272D01*
X101802092Y-90990662D01*
X101802093Y-90990662D01*
X101810755Y-90988300D01*
X101818405Y-90983603D01*
X101818407Y-90983602D01*
X101913072Y-90925478D01*
X101913075Y-90925475D01*
X101920724Y-90920779D01*
X101930580Y-90909891D01*
X101994253Y-90839545D01*
X102054796Y-90802464D01*
X102087668Y-90798100D01*
X102720164Y-90798100D01*
X102726757Y-90798273D01*
X102752558Y-90799625D01*
X102765784Y-90800318D01*
X102778146Y-90795573D01*
X102778151Y-90795572D01*
X102784961Y-90792958D01*
X102803912Y-90787344D01*
X102824000Y-90783074D01*
X102834714Y-90775290D01*
X102839406Y-90773201D01*
X102843711Y-90770406D01*
X102856073Y-90765660D01*
X102870591Y-90751142D01*
X102885625Y-90738301D01*
X102891530Y-90734011D01*
X102891531Y-90734010D01*
X102902242Y-90726228D01*
X102908863Y-90714761D01*
X102917725Y-90704918D01*
X102918062Y-90705221D01*
X102923176Y-90698557D01*
X104082405Y-89539329D01*
X104144717Y-89505303D01*
X104215533Y-89510368D01*
X104272368Y-89552915D01*
X104297179Y-89619435D01*
X104297500Y-89628424D01*
X104297500Y-93228576D01*
X104277498Y-93296697D01*
X104260595Y-93317671D01*
X102022071Y-95556195D01*
X101959759Y-95590221D01*
X101932976Y-95593100D01*
X99086444Y-95593100D01*
X99018323Y-95573098D01*
X98990991Y-95549348D01*
X98935051Y-95484426D01*
X98935049Y-95484424D01*
X98929193Y-95477628D01*
X98820906Y-95407441D01*
X98812311Y-95404871D01*
X98812310Y-95404870D01*
X98705874Y-95373038D01*
X98705872Y-95373038D01*
X98697273Y-95370466D01*
X98688298Y-95370411D01*
X98688297Y-95370411D01*
X98633641Y-95370077D01*
X98568231Y-95369678D01*
X98556475Y-95373038D01*
X98452786Y-95402672D01*
X98452784Y-95402673D01*
X98444155Y-95405139D01*
X98335019Y-95473999D01*
X98249596Y-95570722D01*
X98245782Y-95578845D01*
X98245781Y-95578847D01*
X98219794Y-95634198D01*
X98194754Y-95687532D01*
X98193374Y-95696398D01*
X98176282Y-95806167D01*
X98176282Y-95806171D01*
X98174901Y-95815040D01*
X98176065Y-95823942D01*
X98176065Y-95823945D01*
X98190468Y-95934089D01*
X98190469Y-95934093D01*
X98191633Y-95942994D01*
X98195250Y-95951214D01*
X98238552Y-96049625D01*
X98243605Y-96061110D01*
X98326639Y-96159891D01*
X98434060Y-96231396D01*
X98557233Y-96269878D01*
X98566203Y-96270042D01*
X98566207Y-96270043D01*
X98624942Y-96271119D01*
X98686255Y-96272243D01*
X98748505Y-96255272D01*
X98802092Y-96240662D01*
X98802093Y-96240662D01*
X98810755Y-96238300D01*
X98818405Y-96233603D01*
X98818407Y-96233602D01*
X98913072Y-96175478D01*
X98913075Y-96175475D01*
X98920724Y-96170779D01*
X98930580Y-96159891D01*
X98994253Y-96089545D01*
X99054796Y-96052464D01*
X99087668Y-96048100D01*
X102070164Y-96048100D01*
X102076757Y-96048273D01*
X102102558Y-96049625D01*
X102115784Y-96050318D01*
X102128146Y-96045573D01*
X102128151Y-96045572D01*
X102134961Y-96042958D01*
X102153912Y-96037344D01*
X102174000Y-96033074D01*
X102184714Y-96025290D01*
X102189406Y-96023201D01*
X102193711Y-96020406D01*
X102206073Y-96015660D01*
X102220591Y-96001142D01*
X102235625Y-95988301D01*
X102241530Y-95984011D01*
X102241531Y-95984010D01*
X102252242Y-95976228D01*
X102258863Y-95964761D01*
X102267725Y-95954918D01*
X102268062Y-95955221D01*
X102273176Y-95948557D01*
X104679311Y-93542422D01*
X104684095Y-93537881D01*
X104703323Y-93520568D01*
X104713163Y-93511708D01*
X104721518Y-93492944D01*
X104730950Y-93475571D01*
X104734922Y-93469455D01*
X104734922Y-93469454D01*
X104742134Y-93458349D01*
X104744205Y-93445271D01*
X104746047Y-93440474D01*
X104747114Y-93435454D01*
X104752500Y-93423357D01*
X104752500Y-93402825D01*
X104754051Y-93383113D01*
X104755193Y-93375905D01*
X104755193Y-93375904D01*
X104757264Y-93362828D01*
X104753837Y-93350039D01*
X104753144Y-93336812D01*
X104753596Y-93336788D01*
X104752500Y-93328460D01*
X104752500Y-76521424D01*
X104772502Y-76453303D01*
X104789405Y-76432328D01*
X105257330Y-75964404D01*
X105319642Y-75930379D01*
X105346425Y-75927500D01*
X115378577Y-75927500D01*
X115446698Y-75947502D01*
X115467672Y-75964405D01*
X117060595Y-77557329D01*
X117094621Y-77619641D01*
X117097500Y-77646424D01*
X117097500Y-81585696D01*
X117077498Y-81653817D01*
X117057217Y-81677012D01*
X117055019Y-81678399D01*
X117049081Y-81685122D01*
X117049078Y-81685125D01*
X117045808Y-81688828D01*
X116969596Y-81775122D01*
X116965782Y-81783245D01*
X116965781Y-81783247D01*
X116941942Y-81834023D01*
X116914754Y-81891932D01*
X116913374Y-81900798D01*
X116896282Y-82010567D01*
X116896282Y-82010571D01*
X116894901Y-82019440D01*
X116896065Y-82028342D01*
X116896065Y-82028345D01*
X116910468Y-82138489D01*
X116910469Y-82138493D01*
X116911633Y-82147394D01*
X116963605Y-82265510D01*
X117046639Y-82364291D01*
X117154060Y-82435796D01*
X117277233Y-82474278D01*
X117286203Y-82474442D01*
X117286207Y-82474443D01*
X117344942Y-82475519D01*
X117406255Y-82476643D01*
X117468505Y-82459671D01*
X117522092Y-82445062D01*
X117522093Y-82445062D01*
X117530755Y-82442700D01*
X117538405Y-82438003D01*
X117538407Y-82438002D01*
X117633072Y-82379878D01*
X117633075Y-82379875D01*
X117640724Y-82375179D01*
X117646750Y-82368522D01*
X117721300Y-82286161D01*
X117721303Y-82286157D01*
X117727322Y-82279507D01*
X117783108Y-82164366D01*
X117830811Y-82111783D01*
X117899369Y-82093338D01*
X117967017Y-82114886D01*
X118012276Y-82169586D01*
X118022500Y-82219305D01*
X118022500Y-82899971D01*
X118002498Y-82968092D01*
X117948842Y-83014585D01*
X117878568Y-83024689D01*
X117860398Y-83020688D01*
X117799376Y-83002439D01*
X117799377Y-83002439D01*
X117790773Y-82999866D01*
X117781798Y-82999811D01*
X117781797Y-82999811D01*
X117727141Y-82999477D01*
X117661731Y-82999078D01*
X117607473Y-83014585D01*
X117546286Y-83032072D01*
X117546284Y-83032073D01*
X117537655Y-83034539D01*
X117428519Y-83103399D01*
X117388385Y-83148842D01*
X117360948Y-83179908D01*
X117300862Y-83217726D01*
X117266507Y-83222500D01*
X116528500Y-83222500D01*
X116460379Y-83202498D01*
X116413886Y-83148842D01*
X116402500Y-83096500D01*
X116402500Y-79059236D01*
X116402673Y-79052643D01*
X116404025Y-79026842D01*
X116404718Y-79013616D01*
X116399973Y-79001254D01*
X116399972Y-79001249D01*
X116397358Y-78994439D01*
X116391744Y-78975488D01*
X116390227Y-78968353D01*
X116387474Y-78955400D01*
X116379690Y-78944686D01*
X116377601Y-78939994D01*
X116374806Y-78935689D01*
X116370060Y-78923327D01*
X116355542Y-78908809D01*
X116342701Y-78893775D01*
X116338411Y-78887870D01*
X116338410Y-78887869D01*
X116330628Y-78877158D01*
X116319161Y-78870537D01*
X116309318Y-78861675D01*
X116309621Y-78861338D01*
X116302957Y-78856224D01*
X113817413Y-76370679D01*
X113812872Y-76365895D01*
X113808996Y-76361590D01*
X113786708Y-76336837D01*
X113774610Y-76331451D01*
X113774609Y-76331450D01*
X113767951Y-76328486D01*
X113750573Y-76319051D01*
X113744456Y-76315078D01*
X113744454Y-76315077D01*
X113733350Y-76307866D01*
X113720271Y-76305795D01*
X113715474Y-76303953D01*
X113710454Y-76302886D01*
X113698357Y-76297500D01*
X113677818Y-76297500D01*
X113658109Y-76295949D01*
X113637828Y-76292737D01*
X113625039Y-76296164D01*
X113611811Y-76296857D01*
X113611787Y-76296404D01*
X113603463Y-76297500D01*
X105659248Y-76297500D01*
X105652653Y-76297327D01*
X105626843Y-76295974D01*
X105626842Y-76295974D01*
X105613616Y-76295281D01*
X105601250Y-76300028D01*
X105594439Y-76302642D01*
X105575482Y-76308258D01*
X105555400Y-76312526D01*
X105544684Y-76320311D01*
X105539991Y-76322401D01*
X105535693Y-76325192D01*
X105523327Y-76329939D01*
X105508805Y-76344461D01*
X105493772Y-76357301D01*
X105477158Y-76369372D01*
X105470538Y-76380837D01*
X105461674Y-76390682D01*
X105461337Y-76390379D01*
X105456224Y-76397042D01*
X105145679Y-76707587D01*
X105140895Y-76712128D01*
X105111837Y-76738292D01*
X105106451Y-76750390D01*
X105106450Y-76750391D01*
X105103486Y-76757049D01*
X105094051Y-76774427D01*
X105090078Y-76780544D01*
X105090077Y-76780546D01*
X105082866Y-76791650D01*
X105080795Y-76804729D01*
X105078953Y-76809526D01*
X105077886Y-76814546D01*
X105072500Y-76826643D01*
X105072500Y-76847182D01*
X105070949Y-76866891D01*
X105067737Y-76887172D01*
X105071164Y-76899961D01*
X105071857Y-76913189D01*
X105071404Y-76913213D01*
X105072500Y-76921537D01*
X105072500Y-96453577D01*
X105052498Y-96521698D01*
X105035595Y-96542672D01*
X103742671Y-97835595D01*
X103680359Y-97869621D01*
X103653576Y-97872500D01*
X98196423Y-97872500D01*
X98128302Y-97852498D01*
X98107328Y-97835595D01*
X96894405Y-96622671D01*
X96860379Y-96560359D01*
X96857500Y-96533576D01*
X96857500Y-96280090D01*
X96877502Y-96211969D01*
X96907392Y-96182687D01*
X96906167Y-96181211D01*
X96913076Y-96175475D01*
X96920724Y-96170779D01*
X96926750Y-96164122D01*
X97001300Y-96081761D01*
X97001303Y-96081757D01*
X97007322Y-96075107D01*
X97063588Y-95958975D01*
X97084997Y-95831720D01*
X97085133Y-95820600D01*
X97066839Y-95692859D01*
X97060724Y-95679409D01*
X97017145Y-95583562D01*
X97017143Y-95583559D01*
X97013428Y-95575388D01*
X96929193Y-95477628D01*
X96820906Y-95407441D01*
X96812311Y-95404871D01*
X96812310Y-95404870D01*
X96705874Y-95373038D01*
X96705872Y-95373038D01*
X96697273Y-95370466D01*
X96688298Y-95370411D01*
X96688297Y-95370411D01*
X96633641Y-95370077D01*
X96568231Y-95369678D01*
X96556475Y-95373038D01*
X96452786Y-95402672D01*
X96452784Y-95402673D01*
X96444155Y-95405139D01*
X96335019Y-95473999D01*
X96249596Y-95570722D01*
X96245782Y-95578845D01*
X96245781Y-95578847D01*
X96219794Y-95634198D01*
X96194754Y-95687532D01*
X96193374Y-95696398D01*
X96176282Y-95806167D01*
X96176282Y-95806171D01*
X96174901Y-95815040D01*
X90357998Y-95815040D01*
X90469621Y-83674052D01*
X90613727Y-68000000D01*
X91644341Y-68000000D01*
X91664937Y-68235408D01*
X91666361Y-68240722D01*
X91666361Y-68240723D01*
X91685155Y-68310862D01*
X91726097Y-68463663D01*
X91728419Y-68468643D01*
X91728420Y-68468645D01*
X91733640Y-68479838D01*
X91825965Y-68677829D01*
X91961505Y-68871401D01*
X92128599Y-69038495D01*
X92322171Y-69174035D01*
X92327149Y-69176356D01*
X92327152Y-69176358D01*
X92531355Y-69271580D01*
X92536337Y-69273903D01*
X92541645Y-69275325D01*
X92541647Y-69275326D01*
X92759277Y-69333639D01*
X92764592Y-69335063D01*
X92867682Y-69344082D01*
X92938310Y-69350262D01*
X92938317Y-69350262D01*
X92941034Y-69350500D01*
X93058966Y-69350500D01*
X93061683Y-69350262D01*
X93061690Y-69350262D01*
X93132318Y-69344082D01*
X93235408Y-69335063D01*
X93240723Y-69333639D01*
X93458353Y-69275326D01*
X93458355Y-69275325D01*
X93463663Y-69273903D01*
X93468645Y-69271580D01*
X93672848Y-69176358D01*
X93672851Y-69176356D01*
X93677829Y-69174035D01*
X93871401Y-69038495D01*
X94038495Y-68871401D01*
X94041655Y-68866889D01*
X94110921Y-68767966D01*
X105108257Y-68767966D01*
X105138565Y-68902446D01*
X105141645Y-68912275D01*
X105221770Y-69109603D01*
X105226413Y-69118794D01*
X105337694Y-69300388D01*
X105343777Y-69308699D01*
X105483213Y-69469667D01*
X105490580Y-69476883D01*
X105654434Y-69612916D01*
X105662881Y-69618831D01*
X105846756Y-69726279D01*
X105856042Y-69730729D01*
X106055001Y-69806703D01*
X106064899Y-69809579D01*
X106168250Y-69830606D01*
X106182299Y-69829410D01*
X106186000Y-69819065D01*
X106186000Y-69818517D01*
X106694000Y-69818517D01*
X106698064Y-69832359D01*
X106711478Y-69834393D01*
X106718184Y-69833534D01*
X106728262Y-69831392D01*
X106932255Y-69770191D01*
X106941842Y-69766433D01*
X107133095Y-69672739D01*
X107141945Y-69667464D01*
X107315328Y-69543792D01*
X107323200Y-69537139D01*
X107474052Y-69386812D01*
X107480730Y-69378965D01*
X107608022Y-69201819D01*
X107609147Y-69202627D01*
X107656669Y-69158876D01*
X107726607Y-69146661D01*
X107792046Y-69174197D01*
X107819870Y-69206028D01*
X107877690Y-69300383D01*
X107883777Y-69308699D01*
X108023213Y-69469667D01*
X108030580Y-69476883D01*
X108194434Y-69612916D01*
X108202881Y-69618831D01*
X108386756Y-69726279D01*
X108396042Y-69730729D01*
X108595001Y-69806703D01*
X108604899Y-69809579D01*
X108708250Y-69830606D01*
X108722299Y-69829410D01*
X108726000Y-69819065D01*
X108726000Y-69818517D01*
X109234000Y-69818517D01*
X109238064Y-69832359D01*
X109251478Y-69834393D01*
X109258184Y-69833534D01*
X109268262Y-69831392D01*
X109472255Y-69770191D01*
X109481842Y-69766433D01*
X109673095Y-69672739D01*
X109681945Y-69667464D01*
X109855328Y-69543792D01*
X109863200Y-69537139D01*
X110014052Y-69386812D01*
X110020730Y-69378965D01*
X110148022Y-69201819D01*
X110149147Y-69202627D01*
X110196669Y-69158876D01*
X110266607Y-69146661D01*
X110332046Y-69174197D01*
X110359870Y-69206028D01*
X110417690Y-69300383D01*
X110423777Y-69308699D01*
X110563213Y-69469667D01*
X110570580Y-69476883D01*
X110734434Y-69612916D01*
X110742881Y-69618831D01*
X110926756Y-69726279D01*
X110936042Y-69730729D01*
X111135001Y-69806703D01*
X111144899Y-69809579D01*
X111248250Y-69830606D01*
X111262299Y-69829410D01*
X111266000Y-69819065D01*
X111266000Y-69818517D01*
X111774000Y-69818517D01*
X111778064Y-69832359D01*
X111791478Y-69834393D01*
X111798184Y-69833534D01*
X111808262Y-69831392D01*
X112012255Y-69770191D01*
X112021842Y-69766433D01*
X112213095Y-69672739D01*
X112221945Y-69667464D01*
X112395328Y-69543792D01*
X112403200Y-69537139D01*
X112554052Y-69386812D01*
X112560730Y-69378965D01*
X112685003Y-69206020D01*
X112690313Y-69197183D01*
X112784670Y-69006267D01*
X112788469Y-68996672D01*
X112850376Y-68792912D01*
X112853022Y-68780676D01*
X112886969Y-68718321D01*
X112949238Y-68684217D01*
X113020060Y-68689193D01*
X113076949Y-68731668D01*
X113097295Y-68772574D01*
X113125258Y-68870091D01*
X113128076Y-68875574D01*
X113212123Y-69039113D01*
X113212126Y-69039117D01*
X113214944Y-69044601D01*
X113336818Y-69198369D01*
X113341511Y-69202363D01*
X113341512Y-69202364D01*
X113466456Y-69308699D01*
X113486238Y-69325535D01*
X113491616Y-69328541D01*
X113491618Y-69328542D01*
X113556530Y-69364820D01*
X113657513Y-69421257D01*
X113844118Y-69481889D01*
X114038946Y-69505121D01*
X114045081Y-69504649D01*
X114045083Y-69504649D01*
X114228434Y-69490541D01*
X114228438Y-69490540D01*
X114234576Y-69490068D01*
X114423556Y-69437303D01*
X114598689Y-69348837D01*
X114628515Y-69325535D01*
X114748453Y-69231829D01*
X114753303Y-69228040D01*
X114775937Y-69201819D01*
X114877485Y-69084173D01*
X114877485Y-69084172D01*
X114881509Y-69079511D01*
X114904810Y-69038495D01*
X114975378Y-68914272D01*
X114978425Y-68908909D01*
X115040358Y-68722732D01*
X115064949Y-68528071D01*
X115065341Y-68500000D01*
X115063965Y-68485963D01*
X115594757Y-68485963D01*
X115611175Y-68681483D01*
X115665258Y-68870091D01*
X115668076Y-68875574D01*
X115752123Y-69039113D01*
X115752126Y-69039117D01*
X115754944Y-69044601D01*
X115876818Y-69198369D01*
X115881511Y-69202363D01*
X115881512Y-69202364D01*
X116006456Y-69308699D01*
X116026238Y-69325535D01*
X116031616Y-69328541D01*
X116031618Y-69328542D01*
X116096530Y-69364820D01*
X116197513Y-69421257D01*
X116384118Y-69481889D01*
X116578946Y-69505121D01*
X116585081Y-69504649D01*
X116585083Y-69504649D01*
X116768434Y-69490541D01*
X116768438Y-69490540D01*
X116774576Y-69490068D01*
X116963556Y-69437303D01*
X117138689Y-69348837D01*
X117168515Y-69325535D01*
X117288453Y-69231829D01*
X117293303Y-69228040D01*
X117315937Y-69201819D01*
X117417485Y-69084173D01*
X117417485Y-69084172D01*
X117421509Y-69079511D01*
X117444810Y-69038495D01*
X117515378Y-68914272D01*
X117518425Y-68908909D01*
X117580358Y-68722732D01*
X117604949Y-68528071D01*
X117605341Y-68500000D01*
X117603965Y-68485963D01*
X118134757Y-68485963D01*
X118151175Y-68681483D01*
X118205258Y-68870091D01*
X118208076Y-68875574D01*
X118292123Y-69039113D01*
X118292126Y-69039117D01*
X118294944Y-69044601D01*
X118416818Y-69198369D01*
X118421511Y-69202363D01*
X118421512Y-69202364D01*
X118546456Y-69308699D01*
X118566238Y-69325535D01*
X118571616Y-69328541D01*
X118571618Y-69328542D01*
X118636530Y-69364820D01*
X118737513Y-69421257D01*
X118924118Y-69481889D01*
X119118946Y-69505121D01*
X119125081Y-69504649D01*
X119125083Y-69504649D01*
X119308434Y-69490541D01*
X119308438Y-69490540D01*
X119314576Y-69490068D01*
X119503556Y-69437303D01*
X119678689Y-69348837D01*
X119708515Y-69325535D01*
X119828453Y-69231829D01*
X119833303Y-69228040D01*
X119855937Y-69201819D01*
X119957485Y-69084173D01*
X119957485Y-69084172D01*
X119961509Y-69079511D01*
X119984810Y-69038495D01*
X120055378Y-68914272D01*
X120058425Y-68908909D01*
X120120358Y-68722732D01*
X120144949Y-68528071D01*
X120145341Y-68500000D01*
X120143965Y-68485963D01*
X120674757Y-68485963D01*
X120691175Y-68681483D01*
X120745258Y-68870091D01*
X120748076Y-68875574D01*
X120832123Y-69039113D01*
X120832126Y-69039117D01*
X120834944Y-69044601D01*
X120956818Y-69198369D01*
X120961511Y-69202363D01*
X120961512Y-69202364D01*
X121086456Y-69308699D01*
X121106238Y-69325535D01*
X121111616Y-69328541D01*
X121111618Y-69328542D01*
X121176530Y-69364820D01*
X121277513Y-69421257D01*
X121464118Y-69481889D01*
X121658946Y-69505121D01*
X121665081Y-69504649D01*
X121665083Y-69504649D01*
X121848434Y-69490541D01*
X121848438Y-69490540D01*
X121854576Y-69490068D01*
X122043556Y-69437303D01*
X122218689Y-69348837D01*
X122248515Y-69325535D01*
X122368453Y-69231829D01*
X122373303Y-69228040D01*
X122395937Y-69201819D01*
X122497485Y-69084173D01*
X122497485Y-69084172D01*
X122501509Y-69079511D01*
X122524810Y-69038495D01*
X122595378Y-68914272D01*
X122598425Y-68908909D01*
X122660358Y-68722732D01*
X122684949Y-68528071D01*
X122685341Y-68500000D01*
X122683965Y-68485963D01*
X123214757Y-68485963D01*
X123231175Y-68681483D01*
X123285258Y-68870091D01*
X123288076Y-68875574D01*
X123372123Y-69039113D01*
X123372126Y-69039117D01*
X123374944Y-69044601D01*
X123496818Y-69198369D01*
X123501511Y-69202363D01*
X123501512Y-69202364D01*
X123626456Y-69308699D01*
X123646238Y-69325535D01*
X123651616Y-69328541D01*
X123651618Y-69328542D01*
X123716530Y-69364820D01*
X123817513Y-69421257D01*
X124004118Y-69481889D01*
X124198946Y-69505121D01*
X124205081Y-69504649D01*
X124205083Y-69504649D01*
X124388434Y-69490541D01*
X124388438Y-69490540D01*
X124394576Y-69490068D01*
X124583556Y-69437303D01*
X124758689Y-69348837D01*
X124788515Y-69325535D01*
X124908453Y-69231829D01*
X124913303Y-69228040D01*
X124935937Y-69201819D01*
X125037485Y-69084173D01*
X125037485Y-69084172D01*
X125041509Y-69079511D01*
X125064810Y-69038495D01*
X125135378Y-68914272D01*
X125138425Y-68908909D01*
X125200358Y-68722732D01*
X125224949Y-68528071D01*
X125225341Y-68500000D01*
X125223965Y-68485963D01*
X125754757Y-68485963D01*
X125771175Y-68681483D01*
X125825258Y-68870091D01*
X125828076Y-68875574D01*
X125912123Y-69039113D01*
X125912126Y-69039117D01*
X125914944Y-69044601D01*
X126036818Y-69198369D01*
X126041511Y-69202363D01*
X126041512Y-69202364D01*
X126166456Y-69308699D01*
X126186238Y-69325535D01*
X126191616Y-69328541D01*
X126191618Y-69328542D01*
X126256530Y-69364820D01*
X126357513Y-69421257D01*
X126544118Y-69481889D01*
X126738946Y-69505121D01*
X126745081Y-69504649D01*
X126745083Y-69504649D01*
X126928434Y-69490541D01*
X126928438Y-69490540D01*
X126934576Y-69490068D01*
X127123556Y-69437303D01*
X127298689Y-69348837D01*
X127328515Y-69325535D01*
X127448453Y-69231829D01*
X127453303Y-69228040D01*
X127475937Y-69201819D01*
X127577485Y-69084173D01*
X127577485Y-69084172D01*
X127581509Y-69079511D01*
X127604810Y-69038495D01*
X127675378Y-68914272D01*
X127678425Y-68908909D01*
X127740358Y-68722732D01*
X127764949Y-68528071D01*
X127765341Y-68500000D01*
X127763965Y-68485963D01*
X128294757Y-68485963D01*
X128311175Y-68681483D01*
X128365258Y-68870091D01*
X128368076Y-68875574D01*
X128452123Y-69039113D01*
X128452126Y-69039117D01*
X128454944Y-69044601D01*
X128576818Y-69198369D01*
X128581511Y-69202363D01*
X128581512Y-69202364D01*
X128706456Y-69308699D01*
X128726238Y-69325535D01*
X128731616Y-69328541D01*
X128731618Y-69328542D01*
X128796530Y-69364820D01*
X128897513Y-69421257D01*
X129084118Y-69481889D01*
X129278946Y-69505121D01*
X129285081Y-69504649D01*
X129285083Y-69504649D01*
X129468434Y-69490541D01*
X129468438Y-69490540D01*
X129474576Y-69490068D01*
X129663556Y-69437303D01*
X129838689Y-69348837D01*
X129868515Y-69325535D01*
X129988453Y-69231829D01*
X129993303Y-69228040D01*
X130015937Y-69201819D01*
X130117485Y-69084173D01*
X130117485Y-69084172D01*
X130121509Y-69079511D01*
X130144810Y-69038495D01*
X130215378Y-68914272D01*
X130218425Y-68908909D01*
X130280358Y-68722732D01*
X130304949Y-68528071D01*
X130305341Y-68500000D01*
X130303965Y-68485963D01*
X130834757Y-68485963D01*
X130851175Y-68681483D01*
X130905258Y-68870091D01*
X130908076Y-68875574D01*
X130992123Y-69039113D01*
X130992126Y-69039117D01*
X130994944Y-69044601D01*
X131116818Y-69198369D01*
X131121511Y-69202363D01*
X131121512Y-69202364D01*
X131246456Y-69308699D01*
X131266238Y-69325535D01*
X131271616Y-69328541D01*
X131271618Y-69328542D01*
X131336530Y-69364820D01*
X131437513Y-69421257D01*
X131624118Y-69481889D01*
X131818946Y-69505121D01*
X131825081Y-69504649D01*
X131825083Y-69504649D01*
X132008434Y-69490541D01*
X132008438Y-69490540D01*
X132014576Y-69490068D01*
X132203556Y-69437303D01*
X132378689Y-69348837D01*
X132408515Y-69325535D01*
X132528453Y-69231829D01*
X132533303Y-69228040D01*
X132555937Y-69201819D01*
X132657485Y-69084173D01*
X132657485Y-69084172D01*
X132661509Y-69079511D01*
X132684810Y-69038495D01*
X132755378Y-68914272D01*
X132758425Y-68908909D01*
X132820358Y-68722732D01*
X132844949Y-68528071D01*
X132845341Y-68500000D01*
X132843965Y-68485963D01*
X133374757Y-68485963D01*
X133391175Y-68681483D01*
X133445258Y-68870091D01*
X133448076Y-68875574D01*
X133532123Y-69039113D01*
X133532126Y-69039117D01*
X133534944Y-69044601D01*
X133656818Y-69198369D01*
X133661511Y-69202363D01*
X133661512Y-69202364D01*
X133786456Y-69308699D01*
X133806238Y-69325535D01*
X133811616Y-69328541D01*
X133811618Y-69328542D01*
X133876530Y-69364820D01*
X133977513Y-69421257D01*
X134164118Y-69481889D01*
X134358946Y-69505121D01*
X134365081Y-69504649D01*
X134365083Y-69504649D01*
X134548434Y-69490541D01*
X134548438Y-69490540D01*
X134554576Y-69490068D01*
X134743556Y-69437303D01*
X134918689Y-69348837D01*
X134948515Y-69325535D01*
X135068453Y-69231829D01*
X135073303Y-69228040D01*
X135095937Y-69201819D01*
X135197485Y-69084173D01*
X135197485Y-69084172D01*
X135201509Y-69079511D01*
X135224810Y-69038495D01*
X135295378Y-68914272D01*
X135298425Y-68908909D01*
X135360358Y-68722732D01*
X135384949Y-68528071D01*
X135385341Y-68500000D01*
X135383965Y-68485963D01*
X135914757Y-68485963D01*
X135931175Y-68681483D01*
X135985258Y-68870091D01*
X135988076Y-68875574D01*
X136072123Y-69039113D01*
X136072126Y-69039117D01*
X136074944Y-69044601D01*
X136196818Y-69198369D01*
X136201511Y-69202363D01*
X136201512Y-69202364D01*
X136326456Y-69308699D01*
X136346238Y-69325535D01*
X136351616Y-69328541D01*
X136351618Y-69328542D01*
X136416530Y-69364820D01*
X136517513Y-69421257D01*
X136704118Y-69481889D01*
X136898946Y-69505121D01*
X136905081Y-69504649D01*
X136905083Y-69504649D01*
X137088434Y-69490541D01*
X137088438Y-69490540D01*
X137094576Y-69490068D01*
X137283556Y-69437303D01*
X137458689Y-69348837D01*
X137488515Y-69325535D01*
X137608453Y-69231829D01*
X137613303Y-69228040D01*
X137635937Y-69201819D01*
X137737485Y-69084173D01*
X137737485Y-69084172D01*
X137741509Y-69079511D01*
X137764810Y-69038495D01*
X137835378Y-68914272D01*
X137838425Y-68908909D01*
X137900358Y-68722732D01*
X137924949Y-68528071D01*
X137925341Y-68500000D01*
X137923965Y-68485963D01*
X138454757Y-68485963D01*
X138471175Y-68681483D01*
X138525258Y-68870091D01*
X138528076Y-68875574D01*
X138612123Y-69039113D01*
X138612126Y-69039117D01*
X138614944Y-69044601D01*
X138736818Y-69198369D01*
X138741511Y-69202363D01*
X138741512Y-69202364D01*
X138866456Y-69308699D01*
X138886238Y-69325535D01*
X138891616Y-69328541D01*
X138891618Y-69328542D01*
X138956530Y-69364820D01*
X139057513Y-69421257D01*
X139244118Y-69481889D01*
X139438946Y-69505121D01*
X139445081Y-69504649D01*
X139445083Y-69504649D01*
X139628434Y-69490541D01*
X139628438Y-69490540D01*
X139634576Y-69490068D01*
X139823556Y-69437303D01*
X139967048Y-69364820D01*
X140999500Y-69364820D01*
X141008233Y-69408722D01*
X141015127Y-69419040D01*
X141015128Y-69419042D01*
X141027330Y-69437303D01*
X141041496Y-69458504D01*
X141051815Y-69465399D01*
X141080958Y-69484872D01*
X141080960Y-69484873D01*
X141091278Y-69491767D01*
X141135180Y-69500500D01*
X142864820Y-69500500D01*
X142908722Y-69491767D01*
X142919040Y-69484873D01*
X142919042Y-69484872D01*
X142948185Y-69465399D01*
X142958504Y-69458504D01*
X142986805Y-69416149D01*
X143041278Y-69370622D01*
X143111721Y-69361773D01*
X143180663Y-69397056D01*
X150132595Y-76348988D01*
X150166621Y-76411300D01*
X150169500Y-76438083D01*
X150169500Y-86627863D01*
X150149498Y-86695984D01*
X150095842Y-86742477D01*
X150025568Y-86752581D01*
X149971647Y-86728474D01*
X149970432Y-86730248D01*
X149955233Y-86719840D01*
X149784202Y-86625816D01*
X149772938Y-86620988D01*
X149586905Y-86561975D01*
X149574916Y-86559427D01*
X149428643Y-86543020D01*
X149416876Y-86546475D01*
X149415671Y-86547865D01*
X149414000Y-86555548D01*
X149414000Y-88639709D01*
X149418236Y-88654136D01*
X149430589Y-88656197D01*
X149560361Y-88643473D01*
X149572396Y-88641090D01*
X149759223Y-88584683D01*
X149770565Y-88580008D01*
X149942879Y-88488388D01*
X149953095Y-88481600D01*
X149963863Y-88472818D01*
X150029294Y-88445263D01*
X150099235Y-88457458D01*
X150151481Y-88505529D01*
X150169500Y-88570460D01*
X150169500Y-90511809D01*
X150157555Y-90565357D01*
X150119256Y-90646932D01*
X150117875Y-90655800D01*
X150117875Y-90655801D01*
X150100784Y-90765567D01*
X150100784Y-90765571D01*
X150099403Y-90774440D01*
X150100567Y-90783342D01*
X150100567Y-90783345D01*
X150114970Y-90893489D01*
X150114971Y-90893493D01*
X150116135Y-90902394D01*
X150121624Y-90914868D01*
X150150897Y-90981396D01*
X150168107Y-91020510D01*
X150251141Y-91119291D01*
X150358562Y-91190796D01*
X150481735Y-91229278D01*
X150490705Y-91229442D01*
X150490709Y-91229443D01*
X150549444Y-91230519D01*
X150610757Y-91231643D01*
X150673007Y-91214671D01*
X150726594Y-91200062D01*
X150726595Y-91200062D01*
X150735257Y-91197700D01*
X150742907Y-91193003D01*
X150742909Y-91193002D01*
X150837574Y-91134878D01*
X150837577Y-91134875D01*
X150845226Y-91130179D01*
X150851252Y-91123522D01*
X150925802Y-91041161D01*
X150925805Y-91041157D01*
X150931824Y-91034507D01*
X150988090Y-90918375D01*
X151004980Y-90817984D01*
X151008692Y-90795917D01*
X151009499Y-90791120D01*
X151009635Y-90780000D01*
X150991341Y-90652259D01*
X150987626Y-90644089D01*
X150987624Y-90644081D01*
X150981800Y-90631273D01*
X150970500Y-90579121D01*
X150970500Y-88256513D01*
X150990502Y-88188392D01*
X151044158Y-88141899D01*
X151114432Y-88131795D01*
X151174506Y-88157563D01*
X151333394Y-88282820D01*
X151343050Y-88289091D01*
X151525229Y-88384940D01*
X151535863Y-88389345D01*
X151732470Y-88450393D01*
X151743724Y-88452785D01*
X151888012Y-88469863D01*
X151902431Y-88467421D01*
X151906000Y-88454679D01*
X151906000Y-88452694D01*
X152414000Y-88452694D01*
X152418271Y-88467239D01*
X152430405Y-88469302D01*
X152545754Y-88458703D01*
X152557068Y-88456606D01*
X152755206Y-88400725D01*
X152765945Y-88396603D01*
X152950583Y-88305549D01*
X152960392Y-88299538D01*
X153125349Y-88176360D01*
X153133889Y-88168671D01*
X153273639Y-88017490D01*
X153280640Y-88008365D01*
X153390495Y-87834255D01*
X153395716Y-87824008D01*
X153472003Y-87632793D01*
X153475270Y-87621767D01*
X153487203Y-87561770D01*
X153486051Y-87548894D01*
X153470898Y-87544000D01*
X152432115Y-87544000D01*
X152416876Y-87548475D01*
X152415671Y-87549865D01*
X152414000Y-87557548D01*
X152414000Y-88452694D01*
X151906000Y-88452694D01*
X151906000Y-87017885D01*
X152414000Y-87017885D01*
X152418475Y-87033124D01*
X152419865Y-87034329D01*
X152427548Y-87036000D01*
X153473663Y-87036000D01*
X153486625Y-87032194D01*
X153488561Y-87017278D01*
X153483565Y-86988202D01*
X153480585Y-86977082D01*
X153409331Y-86783940D01*
X153404381Y-86773562D01*
X153299123Y-86596639D01*
X153292357Y-86587327D01*
X153156619Y-86432547D01*
X153148276Y-86424630D01*
X152986606Y-86297180D01*
X152976950Y-86290909D01*
X152794771Y-86195060D01*
X152784137Y-86190655D01*
X152587530Y-86129607D01*
X152576276Y-86127215D01*
X152431988Y-86110137D01*
X152417569Y-86112579D01*
X152414000Y-86125321D01*
X152414000Y-87017885D01*
X151906000Y-87017885D01*
X151906000Y-86127306D01*
X151901729Y-86112761D01*
X151889595Y-86110698D01*
X151774246Y-86121297D01*
X151762932Y-86123394D01*
X151564794Y-86179275D01*
X151554055Y-86183397D01*
X151369417Y-86274451D01*
X151359608Y-86280462D01*
X151194651Y-86403640D01*
X151181811Y-86415201D01*
X151180225Y-86413440D01*
X151128099Y-86444621D01*
X151057139Y-86442342D01*
X150998676Y-86402061D01*
X150971271Y-86336566D01*
X150970500Y-86322648D01*
X150970500Y-76156567D01*
X150967436Y-76147136D01*
X150967435Y-76147132D01*
X150963703Y-76135647D01*
X150959087Y-76116422D01*
X150957197Y-76104488D01*
X150957197Y-76104487D01*
X150955646Y-76094696D01*
X150951145Y-76085863D01*
X150951144Y-76085859D01*
X150945658Y-76075092D01*
X150938092Y-76056828D01*
X150934360Y-76045342D01*
X150931296Y-76035911D01*
X150918365Y-76018113D01*
X150908037Y-76001258D01*
X150902555Y-75990499D01*
X150902554Y-75990497D01*
X150898050Y-75981658D01*
X150875487Y-75959095D01*
X150875484Y-75959091D01*
X143110909Y-68194516D01*
X143110905Y-68194513D01*
X143088342Y-68171950D01*
X143069297Y-68162247D01*
X143017683Y-68113501D01*
X143000500Y-68049980D01*
X143000500Y-68000000D01*
X149544341Y-68000000D01*
X149564937Y-68235408D01*
X149566361Y-68240722D01*
X149566361Y-68240723D01*
X149585155Y-68310862D01*
X149626097Y-68463663D01*
X149628419Y-68468643D01*
X149628420Y-68468645D01*
X149633640Y-68479838D01*
X149725965Y-68677829D01*
X149861505Y-68871401D01*
X150028599Y-69038495D01*
X150222171Y-69174035D01*
X150227149Y-69176356D01*
X150227152Y-69176358D01*
X150431355Y-69271580D01*
X150436337Y-69273903D01*
X150441645Y-69275325D01*
X150441647Y-69275326D01*
X150659277Y-69333639D01*
X150664592Y-69335063D01*
X150767682Y-69344082D01*
X150838310Y-69350262D01*
X150838317Y-69350262D01*
X150841034Y-69350500D01*
X150958966Y-69350500D01*
X150961683Y-69350262D01*
X150961690Y-69350262D01*
X151032318Y-69344082D01*
X151135408Y-69335063D01*
X151140723Y-69333639D01*
X151358353Y-69275326D01*
X151358355Y-69275325D01*
X151363663Y-69273903D01*
X151368645Y-69271580D01*
X151572848Y-69176358D01*
X151572851Y-69176356D01*
X151577829Y-69174035D01*
X151771401Y-69038495D01*
X151938495Y-68871401D01*
X151941655Y-68866889D01*
X152070878Y-68682339D01*
X152070881Y-68682334D01*
X152074035Y-68677830D01*
X152076358Y-68672848D01*
X152076361Y-68672843D01*
X152171580Y-68468645D01*
X152171581Y-68468644D01*
X152173903Y-68463663D01*
X152214846Y-68310862D01*
X152233639Y-68240723D01*
X152233639Y-68240722D01*
X152235063Y-68235408D01*
X152255659Y-68000000D01*
X152235063Y-67764592D01*
X152217185Y-67697870D01*
X152175326Y-67541647D01*
X152175325Y-67541645D01*
X152173903Y-67536337D01*
X152159669Y-67505812D01*
X152076358Y-67327152D01*
X152076356Y-67327149D01*
X152074035Y-67322171D01*
X151938495Y-67128599D01*
X151771401Y-66961505D01*
X151577829Y-66825965D01*
X151572851Y-66823644D01*
X151572848Y-66823642D01*
X151368645Y-66728420D01*
X151368643Y-66728419D01*
X151363663Y-66726097D01*
X151358355Y-66724675D01*
X151358353Y-66724674D01*
X151140723Y-66666361D01*
X151140722Y-66666361D01*
X151135408Y-66664937D01*
X151032318Y-66655918D01*
X150961690Y-66649738D01*
X150961683Y-66649738D01*
X150958966Y-66649500D01*
X150841034Y-66649500D01*
X150838317Y-66649738D01*
X150838310Y-66649738D01*
X150767682Y-66655918D01*
X150664592Y-66664937D01*
X150659278Y-66666361D01*
X150659277Y-66666361D01*
X150441647Y-66724674D01*
X150441645Y-66724675D01*
X150436337Y-66726097D01*
X150431357Y-66728419D01*
X150431355Y-66728420D01*
X150227152Y-66823642D01*
X150227149Y-66823644D01*
X150222171Y-66825965D01*
X150028599Y-66961505D01*
X149861505Y-67128599D01*
X149858348Y-67133107D01*
X149858346Y-67133110D01*
X149729184Y-67317573D01*
X149725965Y-67322170D01*
X149723642Y-67327152D01*
X149723639Y-67327157D01*
X149635107Y-67517015D01*
X149626097Y-67536337D01*
X149624675Y-67541645D01*
X149624674Y-67541647D01*
X149582815Y-67697870D01*
X149564937Y-67764592D01*
X149544341Y-68000000D01*
X143000500Y-68000000D01*
X143000500Y-67635180D01*
X142991767Y-67591278D01*
X142984873Y-67580960D01*
X142984872Y-67580958D01*
X142965399Y-67551815D01*
X142958504Y-67541496D01*
X142943327Y-67531355D01*
X142919042Y-67515128D01*
X142919040Y-67515127D01*
X142908722Y-67508233D01*
X142864820Y-67499500D01*
X141135180Y-67499500D01*
X141091278Y-67508233D01*
X141080960Y-67515127D01*
X141080958Y-67515128D01*
X141056673Y-67531355D01*
X141041496Y-67541496D01*
X141034601Y-67551815D01*
X141015128Y-67580958D01*
X141015127Y-67580960D01*
X141008233Y-67591278D01*
X140999500Y-67635180D01*
X140999500Y-69364820D01*
X139967048Y-69364820D01*
X139998689Y-69348837D01*
X140028515Y-69325535D01*
X140148453Y-69231829D01*
X140153303Y-69228040D01*
X140175937Y-69201819D01*
X140277485Y-69084173D01*
X140277485Y-69084172D01*
X140281509Y-69079511D01*
X140304810Y-69038495D01*
X140375378Y-68914272D01*
X140378425Y-68908909D01*
X140440358Y-68722732D01*
X140464949Y-68528071D01*
X140465341Y-68500000D01*
X140446194Y-68304728D01*
X140444413Y-68298829D01*
X140444412Y-68298824D01*
X140391265Y-68122793D01*
X140389484Y-68116894D01*
X140297370Y-67943653D01*
X140173361Y-67791602D01*
X140022180Y-67666535D01*
X139849585Y-67573213D01*
X139747124Y-67541496D01*
X139668039Y-67517015D01*
X139668036Y-67517014D01*
X139662152Y-67515193D01*
X139656027Y-67514549D01*
X139656026Y-67514549D01*
X139473147Y-67495327D01*
X139473146Y-67495327D01*
X139467019Y-67494683D01*
X139344733Y-67505812D01*
X139277759Y-67511907D01*
X139277758Y-67511907D01*
X139271618Y-67512466D01*
X139265704Y-67514207D01*
X139265702Y-67514207D01*
X139207439Y-67531355D01*
X139083393Y-67567864D01*
X139077928Y-67570721D01*
X138914972Y-67655912D01*
X138914968Y-67655915D01*
X138909512Y-67658767D01*
X138904712Y-67662627D01*
X138904711Y-67662627D01*
X138894170Y-67671102D01*
X138756600Y-67781711D01*
X138630480Y-67932016D01*
X138627516Y-67937408D01*
X138627513Y-67937412D01*
X138562251Y-68056124D01*
X138535956Y-68103954D01*
X138534095Y-68109821D01*
X138534094Y-68109823D01*
X138518982Y-68157463D01*
X138476628Y-68290978D01*
X138454757Y-68485963D01*
X137923965Y-68485963D01*
X137906194Y-68304728D01*
X137904413Y-68298829D01*
X137904412Y-68298824D01*
X137851265Y-68122793D01*
X137849484Y-68116894D01*
X137757370Y-67943653D01*
X137633361Y-67791602D01*
X137482180Y-67666535D01*
X137309585Y-67573213D01*
X137207124Y-67541496D01*
X137128039Y-67517015D01*
X137128036Y-67517014D01*
X137122152Y-67515193D01*
X137116027Y-67514549D01*
X137116026Y-67514549D01*
X136933147Y-67495327D01*
X136933146Y-67495327D01*
X136927019Y-67494683D01*
X136804733Y-67505812D01*
X136737759Y-67511907D01*
X136737758Y-67511907D01*
X136731618Y-67512466D01*
X136725704Y-67514207D01*
X136725702Y-67514207D01*
X136667439Y-67531355D01*
X136543393Y-67567864D01*
X136537928Y-67570721D01*
X136374972Y-67655912D01*
X136374968Y-67655915D01*
X136369512Y-67658767D01*
X136364712Y-67662627D01*
X136364711Y-67662627D01*
X136354170Y-67671102D01*
X136216600Y-67781711D01*
X136090480Y-67932016D01*
X136087516Y-67937408D01*
X136087513Y-67937412D01*
X136022251Y-68056124D01*
X135995956Y-68103954D01*
X135994095Y-68109821D01*
X135994094Y-68109823D01*
X135978982Y-68157463D01*
X135936628Y-68290978D01*
X135914757Y-68485963D01*
X135383965Y-68485963D01*
X135366194Y-68304728D01*
X135364413Y-68298829D01*
X135364412Y-68298824D01*
X135311265Y-68122793D01*
X135309484Y-68116894D01*
X135217370Y-67943653D01*
X135093361Y-67791602D01*
X134942180Y-67666535D01*
X134769585Y-67573213D01*
X134667124Y-67541496D01*
X134588039Y-67517015D01*
X134588036Y-67517014D01*
X134582152Y-67515193D01*
X134576027Y-67514549D01*
X134576026Y-67514549D01*
X134393147Y-67495327D01*
X134393146Y-67495327D01*
X134387019Y-67494683D01*
X134264733Y-67505812D01*
X134197759Y-67511907D01*
X134197758Y-67511907D01*
X134191618Y-67512466D01*
X134185704Y-67514207D01*
X134185702Y-67514207D01*
X134127439Y-67531355D01*
X134003393Y-67567864D01*
X133997928Y-67570721D01*
X133834972Y-67655912D01*
X133834968Y-67655915D01*
X133829512Y-67658767D01*
X133824712Y-67662627D01*
X133824711Y-67662627D01*
X133814170Y-67671102D01*
X133676600Y-67781711D01*
X133550480Y-67932016D01*
X133547516Y-67937408D01*
X133547513Y-67937412D01*
X133482251Y-68056124D01*
X133455956Y-68103954D01*
X133454095Y-68109821D01*
X133454094Y-68109823D01*
X133438982Y-68157463D01*
X133396628Y-68290978D01*
X133374757Y-68485963D01*
X132843965Y-68485963D01*
X132826194Y-68304728D01*
X132824413Y-68298829D01*
X132824412Y-68298824D01*
X132771265Y-68122793D01*
X132769484Y-68116894D01*
X132677370Y-67943653D01*
X132553361Y-67791602D01*
X132402180Y-67666535D01*
X132229585Y-67573213D01*
X132127124Y-67541496D01*
X132048039Y-67517015D01*
X132048036Y-67517014D01*
X132042152Y-67515193D01*
X132036027Y-67514549D01*
X132036026Y-67514549D01*
X131853147Y-67495327D01*
X131853146Y-67495327D01*
X131847019Y-67494683D01*
X131724733Y-67505812D01*
X131657759Y-67511907D01*
X131657758Y-67511907D01*
X131651618Y-67512466D01*
X131645704Y-67514207D01*
X131645702Y-67514207D01*
X131587439Y-67531355D01*
X131463393Y-67567864D01*
X131457928Y-67570721D01*
X131294972Y-67655912D01*
X131294968Y-67655915D01*
X131289512Y-67658767D01*
X131284712Y-67662627D01*
X131284711Y-67662627D01*
X131274170Y-67671102D01*
X131136600Y-67781711D01*
X131010480Y-67932016D01*
X131007516Y-67937408D01*
X131007513Y-67937412D01*
X130942251Y-68056124D01*
X130915956Y-68103954D01*
X130914095Y-68109821D01*
X130914094Y-68109823D01*
X130898982Y-68157463D01*
X130856628Y-68290978D01*
X130834757Y-68485963D01*
X130303965Y-68485963D01*
X130286194Y-68304728D01*
X130284413Y-68298829D01*
X130284412Y-68298824D01*
X130231265Y-68122793D01*
X130229484Y-68116894D01*
X130137370Y-67943653D01*
X130013361Y-67791602D01*
X129862180Y-67666535D01*
X129689585Y-67573213D01*
X129587124Y-67541496D01*
X129508039Y-67517015D01*
X129508036Y-67517014D01*
X129502152Y-67515193D01*
X129496027Y-67514549D01*
X129496026Y-67514549D01*
X129313147Y-67495327D01*
X129313146Y-67495327D01*
X129307019Y-67494683D01*
X129184733Y-67505812D01*
X129117759Y-67511907D01*
X129117758Y-67511907D01*
X129111618Y-67512466D01*
X129105704Y-67514207D01*
X129105702Y-67514207D01*
X129047439Y-67531355D01*
X128923393Y-67567864D01*
X128917928Y-67570721D01*
X128754972Y-67655912D01*
X128754968Y-67655915D01*
X128749512Y-67658767D01*
X128744712Y-67662627D01*
X128744711Y-67662627D01*
X128734170Y-67671102D01*
X128596600Y-67781711D01*
X128470480Y-67932016D01*
X128467516Y-67937408D01*
X128467513Y-67937412D01*
X128402251Y-68056124D01*
X128375956Y-68103954D01*
X128374095Y-68109821D01*
X128374094Y-68109823D01*
X128358982Y-68157463D01*
X128316628Y-68290978D01*
X128294757Y-68485963D01*
X127763965Y-68485963D01*
X127746194Y-68304728D01*
X127744413Y-68298829D01*
X127744412Y-68298824D01*
X127691265Y-68122793D01*
X127689484Y-68116894D01*
X127597370Y-67943653D01*
X127473361Y-67791602D01*
X127322180Y-67666535D01*
X127149585Y-67573213D01*
X127047124Y-67541496D01*
X126968039Y-67517015D01*
X126968036Y-67517014D01*
X126962152Y-67515193D01*
X126956027Y-67514549D01*
X126956026Y-67514549D01*
X126773147Y-67495327D01*
X126773146Y-67495327D01*
X126767019Y-67494683D01*
X126644733Y-67505812D01*
X126577759Y-67511907D01*
X126577758Y-67511907D01*
X126571618Y-67512466D01*
X126565704Y-67514207D01*
X126565702Y-67514207D01*
X126507439Y-67531355D01*
X126383393Y-67567864D01*
X126377928Y-67570721D01*
X126214972Y-67655912D01*
X126214968Y-67655915D01*
X126209512Y-67658767D01*
X126204712Y-67662627D01*
X126204711Y-67662627D01*
X126194170Y-67671102D01*
X126056600Y-67781711D01*
X125930480Y-67932016D01*
X125927516Y-67937408D01*
X125927513Y-67937412D01*
X125862251Y-68056124D01*
X125835956Y-68103954D01*
X125834095Y-68109821D01*
X125834094Y-68109823D01*
X125818982Y-68157463D01*
X125776628Y-68290978D01*
X125754757Y-68485963D01*
X125223965Y-68485963D01*
X125206194Y-68304728D01*
X125204413Y-68298829D01*
X125204412Y-68298824D01*
X125151265Y-68122793D01*
X125149484Y-68116894D01*
X125057370Y-67943653D01*
X124933361Y-67791602D01*
X124782180Y-67666535D01*
X124609585Y-67573213D01*
X124507124Y-67541496D01*
X124428039Y-67517015D01*
X124428036Y-67517014D01*
X124422152Y-67515193D01*
X124416027Y-67514549D01*
X124416026Y-67514549D01*
X124233147Y-67495327D01*
X124233146Y-67495327D01*
X124227019Y-67494683D01*
X124104733Y-67505812D01*
X124037759Y-67511907D01*
X124037758Y-67511907D01*
X124031618Y-67512466D01*
X124025704Y-67514207D01*
X124025702Y-67514207D01*
X123967439Y-67531355D01*
X123843393Y-67567864D01*
X123837928Y-67570721D01*
X123674972Y-67655912D01*
X123674968Y-67655915D01*
X123669512Y-67658767D01*
X123664712Y-67662627D01*
X123664711Y-67662627D01*
X123654170Y-67671102D01*
X123516600Y-67781711D01*
X123390480Y-67932016D01*
X123387516Y-67937408D01*
X123387513Y-67937412D01*
X123322251Y-68056124D01*
X123295956Y-68103954D01*
X123294095Y-68109821D01*
X123294094Y-68109823D01*
X123278982Y-68157463D01*
X123236628Y-68290978D01*
X123214757Y-68485963D01*
X122683965Y-68485963D01*
X122666194Y-68304728D01*
X122664413Y-68298829D01*
X122664412Y-68298824D01*
X122611265Y-68122793D01*
X122609484Y-68116894D01*
X122517370Y-67943653D01*
X122393361Y-67791602D01*
X122242180Y-67666535D01*
X122069585Y-67573213D01*
X121967124Y-67541496D01*
X121888039Y-67517015D01*
X121888036Y-67517014D01*
X121882152Y-67515193D01*
X121876027Y-67514549D01*
X121876026Y-67514549D01*
X121693147Y-67495327D01*
X121693146Y-67495327D01*
X121687019Y-67494683D01*
X121564733Y-67505812D01*
X121497759Y-67511907D01*
X121497758Y-67511907D01*
X121491618Y-67512466D01*
X121485704Y-67514207D01*
X121485702Y-67514207D01*
X121427439Y-67531355D01*
X121303393Y-67567864D01*
X121297928Y-67570721D01*
X121134972Y-67655912D01*
X121134968Y-67655915D01*
X121129512Y-67658767D01*
X121124712Y-67662627D01*
X121124711Y-67662627D01*
X121114170Y-67671102D01*
X120976600Y-67781711D01*
X120850480Y-67932016D01*
X120847516Y-67937408D01*
X120847513Y-67937412D01*
X120782251Y-68056124D01*
X120755956Y-68103954D01*
X120754095Y-68109821D01*
X120754094Y-68109823D01*
X120738982Y-68157463D01*
X120696628Y-68290978D01*
X120674757Y-68485963D01*
X120143965Y-68485963D01*
X120126194Y-68304728D01*
X120124413Y-68298829D01*
X120124412Y-68298824D01*
X120071265Y-68122793D01*
X120069484Y-68116894D01*
X119977370Y-67943653D01*
X119853361Y-67791602D01*
X119702180Y-67666535D01*
X119529585Y-67573213D01*
X119427124Y-67541496D01*
X119348039Y-67517015D01*
X119348036Y-67517014D01*
X119342152Y-67515193D01*
X119336027Y-67514549D01*
X119336026Y-67514549D01*
X119153147Y-67495327D01*
X119153146Y-67495327D01*
X119147019Y-67494683D01*
X119024733Y-67505812D01*
X118957759Y-67511907D01*
X118957758Y-67511907D01*
X118951618Y-67512466D01*
X118945704Y-67514207D01*
X118945702Y-67514207D01*
X118887439Y-67531355D01*
X118763393Y-67567864D01*
X118757928Y-67570721D01*
X118594972Y-67655912D01*
X118594968Y-67655915D01*
X118589512Y-67658767D01*
X118584712Y-67662627D01*
X118584711Y-67662627D01*
X118574170Y-67671102D01*
X118436600Y-67781711D01*
X118310480Y-67932016D01*
X118307516Y-67937408D01*
X118307513Y-67937412D01*
X118242251Y-68056124D01*
X118215956Y-68103954D01*
X118214095Y-68109821D01*
X118214094Y-68109823D01*
X118198982Y-68157463D01*
X118156628Y-68290978D01*
X118134757Y-68485963D01*
X117603965Y-68485963D01*
X117586194Y-68304728D01*
X117584413Y-68298829D01*
X117584412Y-68298824D01*
X117531265Y-68122793D01*
X117529484Y-68116894D01*
X117437370Y-67943653D01*
X117313361Y-67791602D01*
X117162180Y-67666535D01*
X116989585Y-67573213D01*
X116887124Y-67541496D01*
X116808039Y-67517015D01*
X116808036Y-67517014D01*
X116802152Y-67515193D01*
X116796027Y-67514549D01*
X116796026Y-67514549D01*
X116613147Y-67495327D01*
X116613146Y-67495327D01*
X116607019Y-67494683D01*
X116484733Y-67505812D01*
X116417759Y-67511907D01*
X116417758Y-67511907D01*
X116411618Y-67512466D01*
X116405704Y-67514207D01*
X116405702Y-67514207D01*
X116347439Y-67531355D01*
X116223393Y-67567864D01*
X116217928Y-67570721D01*
X116054972Y-67655912D01*
X116054968Y-67655915D01*
X116049512Y-67658767D01*
X116044712Y-67662627D01*
X116044711Y-67662627D01*
X116034170Y-67671102D01*
X115896600Y-67781711D01*
X115770480Y-67932016D01*
X115767516Y-67937408D01*
X115767513Y-67937412D01*
X115702251Y-68056124D01*
X115675956Y-68103954D01*
X115674095Y-68109821D01*
X115674094Y-68109823D01*
X115658982Y-68157463D01*
X115616628Y-68290978D01*
X115594757Y-68485963D01*
X115063965Y-68485963D01*
X115046194Y-68304728D01*
X115044413Y-68298829D01*
X115044412Y-68298824D01*
X114991265Y-68122793D01*
X114989484Y-68116894D01*
X114897370Y-67943653D01*
X114773361Y-67791602D01*
X114622180Y-67666535D01*
X114449585Y-67573213D01*
X114347124Y-67541496D01*
X114268039Y-67517015D01*
X114268036Y-67517014D01*
X114262152Y-67515193D01*
X114256027Y-67514549D01*
X114256026Y-67514549D01*
X114073147Y-67495327D01*
X114073146Y-67495327D01*
X114067019Y-67494683D01*
X113944733Y-67505812D01*
X113877759Y-67511907D01*
X113877758Y-67511907D01*
X113871618Y-67512466D01*
X113865704Y-67514207D01*
X113865702Y-67514207D01*
X113807439Y-67531355D01*
X113683393Y-67567864D01*
X113677928Y-67570721D01*
X113514972Y-67655912D01*
X113514968Y-67655915D01*
X113509512Y-67658767D01*
X113504712Y-67662627D01*
X113504711Y-67662627D01*
X113494170Y-67671102D01*
X113356600Y-67781711D01*
X113230480Y-67932016D01*
X113227516Y-67937408D01*
X113227513Y-67937412D01*
X113162251Y-68056124D01*
X113135956Y-68103954D01*
X113134095Y-68109821D01*
X113134094Y-68109823D01*
X113118982Y-68157463D01*
X113095995Y-68229928D01*
X113094250Y-68235428D01*
X113054587Y-68294312D01*
X112989384Y-68322404D01*
X112919345Y-68310787D01*
X112866705Y-68263147D01*
X112851944Y-68228025D01*
X112811214Y-68065875D01*
X112807894Y-68056124D01*
X112722972Y-67860814D01*
X112718105Y-67851739D01*
X112602426Y-67672926D01*
X112596136Y-67664757D01*
X112452806Y-67507240D01*
X112445273Y-67500215D01*
X112278139Y-67368222D01*
X112269552Y-67362517D01*
X112083117Y-67259599D01*
X112073705Y-67255369D01*
X111872959Y-67184280D01*
X111862988Y-67181646D01*
X111791837Y-67168972D01*
X111778540Y-67170432D01*
X111774000Y-67184989D01*
X111774000Y-69818517D01*
X111266000Y-69818517D01*
X111266000Y-68772115D01*
X111261525Y-68756876D01*
X111260135Y-68755671D01*
X111252452Y-68754000D01*
X109252115Y-68754000D01*
X109236876Y-68758475D01*
X109235671Y-68759865D01*
X109234000Y-68767548D01*
X109234000Y-69818517D01*
X108726000Y-69818517D01*
X108726000Y-68772115D01*
X108721525Y-68756876D01*
X108720135Y-68755671D01*
X108712452Y-68754000D01*
X106712115Y-68754000D01*
X106696876Y-68758475D01*
X106695671Y-68759865D01*
X106694000Y-68767548D01*
X106694000Y-69818517D01*
X106186000Y-69818517D01*
X106186000Y-68772115D01*
X106181525Y-68756876D01*
X106180135Y-68755671D01*
X106172452Y-68754000D01*
X105123225Y-68754000D01*
X105109694Y-68757973D01*
X105108257Y-68767966D01*
X94110921Y-68767966D01*
X94170878Y-68682339D01*
X94170881Y-68682334D01*
X94174035Y-68677830D01*
X94176358Y-68672848D01*
X94176361Y-68672843D01*
X94271580Y-68468645D01*
X94271581Y-68468644D01*
X94273903Y-68463663D01*
X94314846Y-68310862D01*
X94333639Y-68240723D01*
X94333639Y-68240722D01*
X94335063Y-68235408D01*
X94335170Y-68234183D01*
X105104389Y-68234183D01*
X105105912Y-68242607D01*
X105118292Y-68246000D01*
X106167885Y-68246000D01*
X106183124Y-68241525D01*
X106184329Y-68240135D01*
X106186000Y-68232452D01*
X106186000Y-68227885D01*
X106694000Y-68227885D01*
X106698475Y-68243124D01*
X106699865Y-68244329D01*
X106707548Y-68246000D01*
X108707885Y-68246000D01*
X108723124Y-68241525D01*
X108724329Y-68240135D01*
X108726000Y-68232452D01*
X108726000Y-68227885D01*
X109234000Y-68227885D01*
X109238475Y-68243124D01*
X109239865Y-68244329D01*
X109247548Y-68246000D01*
X111247885Y-68246000D01*
X111263124Y-68241525D01*
X111264329Y-68240135D01*
X111266000Y-68232452D01*
X111266000Y-67183102D01*
X111262082Y-67169758D01*
X111247806Y-67167771D01*
X111209324Y-67173660D01*
X111199288Y-67176051D01*
X110996868Y-67242212D01*
X110987359Y-67246209D01*
X110798463Y-67344542D01*
X110789738Y-67350036D01*
X110619433Y-67477905D01*
X110611726Y-67484748D01*
X110464590Y-67638717D01*
X110458104Y-67646727D01*
X110353193Y-67800521D01*
X110298282Y-67845524D01*
X110227757Y-67853695D01*
X110164010Y-67822441D01*
X110143313Y-67797957D01*
X110062427Y-67672926D01*
X110056136Y-67664757D01*
X109912806Y-67507240D01*
X109905273Y-67500215D01*
X109738139Y-67368222D01*
X109729552Y-67362517D01*
X109543117Y-67259599D01*
X109533705Y-67255369D01*
X109332959Y-67184280D01*
X109322988Y-67181646D01*
X109251837Y-67168972D01*
X109238540Y-67170432D01*
X109234000Y-67184989D01*
X109234000Y-68227885D01*
X108726000Y-68227885D01*
X108726000Y-67183102D01*
X108722082Y-67169758D01*
X108707806Y-67167771D01*
X108669324Y-67173660D01*
X108659288Y-67176051D01*
X108456868Y-67242212D01*
X108447359Y-67246209D01*
X108258463Y-67344542D01*
X108249738Y-67350036D01*
X108079433Y-67477905D01*
X108071726Y-67484748D01*
X107924590Y-67638717D01*
X107918104Y-67646727D01*
X107813193Y-67800521D01*
X107758282Y-67845524D01*
X107687757Y-67853695D01*
X107624010Y-67822441D01*
X107603313Y-67797957D01*
X107522427Y-67672926D01*
X107516136Y-67664757D01*
X107372806Y-67507240D01*
X107365273Y-67500215D01*
X107198139Y-67368222D01*
X107189552Y-67362517D01*
X107003117Y-67259599D01*
X106993705Y-67255369D01*
X106792959Y-67184280D01*
X106782988Y-67181646D01*
X106711837Y-67168972D01*
X106698540Y-67170432D01*
X106694000Y-67184989D01*
X106694000Y-68227885D01*
X106186000Y-68227885D01*
X106186000Y-67183102D01*
X106182082Y-67169758D01*
X106167806Y-67167771D01*
X106129324Y-67173660D01*
X106119288Y-67176051D01*
X105916868Y-67242212D01*
X105907359Y-67246209D01*
X105718463Y-67344542D01*
X105709738Y-67350036D01*
X105539433Y-67477905D01*
X105531726Y-67484748D01*
X105384590Y-67638717D01*
X105378104Y-67646727D01*
X105258098Y-67822649D01*
X105253000Y-67831623D01*
X105163338Y-68024783D01*
X105159775Y-68034470D01*
X105104389Y-68234183D01*
X94335170Y-68234183D01*
X94355659Y-68000000D01*
X94335063Y-67764592D01*
X94317185Y-67697870D01*
X94275326Y-67541647D01*
X94275325Y-67541645D01*
X94273903Y-67536337D01*
X94259669Y-67505812D01*
X94176358Y-67327152D01*
X94176356Y-67327149D01*
X94174035Y-67322171D01*
X94038495Y-67128599D01*
X93871401Y-66961505D01*
X93677829Y-66825965D01*
X93672851Y-66823644D01*
X93672848Y-66823642D01*
X93468645Y-66728420D01*
X93468643Y-66728419D01*
X93463663Y-66726097D01*
X93458355Y-66724675D01*
X93458353Y-66724674D01*
X93240723Y-66666361D01*
X93240722Y-66666361D01*
X93235408Y-66664937D01*
X93132318Y-66655918D01*
X93061690Y-66649738D01*
X93061683Y-66649738D01*
X93058966Y-66649500D01*
X92941034Y-66649500D01*
X92938317Y-66649738D01*
X92938310Y-66649738D01*
X92867682Y-66655918D01*
X92764592Y-66664937D01*
X92759278Y-66666361D01*
X92759277Y-66666361D01*
X92541647Y-66724674D01*
X92541645Y-66724675D01*
X92536337Y-66726097D01*
X92531357Y-66728419D01*
X92531355Y-66728420D01*
X92327152Y-66823642D01*
X92327149Y-66823644D01*
X92322171Y-66825965D01*
X92128599Y-66961505D01*
X91961505Y-67128599D01*
X91958348Y-67133107D01*
X91958346Y-67133110D01*
X91829184Y-67317573D01*
X91825965Y-67322170D01*
X91823642Y-67327152D01*
X91823639Y-67327157D01*
X91735107Y-67517015D01*
X91726097Y-67536337D01*
X91724675Y-67541645D01*
X91724674Y-67541647D01*
X91682815Y-67697870D01*
X91664937Y-67764592D01*
X91644341Y-68000000D01*
X90613727Y-68000000D01*
X90627023Y-66553850D01*
X90649905Y-66482594D01*
X90783525Y-66292327D01*
X90791521Y-66282105D01*
X90802909Y-66268997D01*
X90862685Y-66230691D01*
X90895965Y-66225650D01*
X128236512Y-65614871D01*
X151613829Y-65232488D01*
X151649947Y-65237161D01*
G37*
%TD.AperFunction*%
%TD*%
M02*
