M48
; DRILL file {KiCad (6.0.6)} date Sat Aug 27 21:29:36 2022
; FORMAT={-:-/ absolute / inch / decimal}
; #@! TF.CreationDate,2022-08-27T21:29:36+05:30
; #@! TF.GenerationSoftware,Kicad,Pcbnew,(6.0.6)
; #@! TF.FileFunction,Plated,1,2,PTH
FMAT,2
INCH
; #@! TA.AperFunction,Plated,PTH,ViaDrill
T1C0.0157
; #@! TA.AperFunction,Plated,PTH,ComponentDrill
T2C0.0256
; #@! TA.AperFunction,Plated,PTH,ComponentDrill
T3C0.0276
; #@! TA.AperFunction,Plated,PTH,ComponentDrill
T4C0.0394
%
G90
G05
T1
X3.7146Y-4.1339
X3.8012Y-3.6299
X3.8406Y-3.378
X3.872Y-3.6378
X3.8957Y-3.685
X3.9193Y-3.4094
X4.0079Y-3.7559
X4.0079Y-3.8346
X4.0925Y-3.9134
X4.2264Y-3.8189
X4.2657Y-3.748
X4.378Y-3.0472
X4.378Y-3.1024
X4.378Y-3.1496
X4.4803Y-4.6535
X4.6142Y-4.6535
X4.7087Y-3.8031
X4.7087Y-3.9055
X4.811Y-3.8504
X4.811Y-3.8976
X4.8583Y-3.9764
X5.063Y-3.4567
X5.0709Y-4.2598
X5.1496Y-4.1181
X5.1811Y-3.8268
X5.1811Y-3.9134
X5.189Y-3.4488
X5.2205Y-3.874
X5.2677Y-3.8268
X5.2677Y-3.9134
X5.3465Y-4.5118
X5.3858Y-3.6772
X5.4173Y-4.1811
X5.4331Y-3.5906
X5.4409Y-4.0866
X5.4882Y-4.189
X5.5039Y-3.8425
X5.5268Y-4.0707
X5.622Y-3.7953
X5.622Y-4.0315
X5.6378Y-3.126
X5.6535Y-3.8425
X5.6614Y-3.6457
X5.7087Y-4.1722
X5.7244Y-4.5039
X5.7402Y-3.4252
X5.8661Y-3.1969
X6.0315Y-3.5197
X6.126Y-3.8898
X6.126Y-3.9685
X6.3701Y-4.4409
T2
X4.1969Y-4.4699
X4.1969Y-4.5199
X4.1969Y-4.5699
T4
X4.5055Y-2.8976
X4.5055Y-4.8199
X4.6055Y-2.8976
X4.6055Y-4.8199
X4.7055Y-2.8976
X4.7055Y-4.8199
X4.8055Y-2.8976
X4.8055Y-4.8199
X4.9055Y-2.8976
X4.9055Y-4.8199
X5.0055Y-2.8976
X5.0055Y-4.8199
X5.1055Y-2.8976
X5.1055Y-4.8199
X5.2055Y-2.8976
X5.2055Y-4.8199
X5.3055Y-2.8976
X5.3055Y-4.8199
X5.4055Y-2.8976
X5.4055Y-4.8199
X5.5055Y-2.8976
X5.5055Y-4.8199
X5.6055Y-2.8976
X5.6055Y-4.8199
X5.7055Y-2.8976
X5.7055Y-4.8199
X5.8055Y-2.8976
X5.8055Y-4.8199
X5.9055Y-2.8976
X5.9055Y-4.8199
T2
G00X6.3037Y-3.8112
M15
G01X6.288Y-3.8112
M16
G05
G00X6.3037Y-4.0018
M15
G01X6.288Y-4.0018
M16
G05
T3
G00X6.4238Y-3.799
M15
G01X6.4041Y-3.799
M16
G05
G00X6.4238Y-4.014
M15
G01X6.4041Y-4.014
M16
G05
T0
M30
