%TF.GenerationSoftware,KiCad,Pcbnew,(6.0.6)*%
%TF.CreationDate,2022-08-27T21:29:47+05:30*%
%TF.ProjectId,rp2040-ble,72703230-3430-42d6-926c-652e6b696361,rev?*%
%TF.SameCoordinates,Original*%
%TF.FileFunction,Soldermask,Bot*%
%TF.FilePolarity,Negative*%
%FSLAX46Y46*%
G04 Gerber Fmt 4.6, Leading zero omitted, Abs format (unit mm)*
G04 Created by KiCad (PCBNEW (6.0.6)) date 2022-08-27 21:29:47*
%MOMM*%
%LPD*%
G01*
G04 APERTURE LIST*
%ADD10R,1.700000X1.700000*%
%ADD11O,1.700000X1.700000*%
%ADD12C,2.200000*%
%ADD13R,1.000000X1.000000*%
%ADD14O,1.000000X1.000000*%
%ADD15O,1.700000X1.350000*%
%ADD16O,1.500000X1.100000*%
G04 APERTURE END LIST*
D10*
%TO.C,J1*%
X150000000Y-73600000D03*
D11*
X147460000Y-73600000D03*
X144920000Y-73600000D03*
X142380000Y-73600000D03*
X139840000Y-73600000D03*
X137300000Y-73600000D03*
X134760000Y-73600000D03*
X132220000Y-73600000D03*
X129680000Y-73600000D03*
X127140000Y-73600000D03*
X124600000Y-73600000D03*
X122060000Y-73600000D03*
X119520000Y-73600000D03*
X116980000Y-73600000D03*
X114440000Y-73600000D03*
%TD*%
D12*
%TO.C,H4*%
X95000000Y-124000000D03*
%TD*%
D10*
%TO.C,J2*%
X150000000Y-122425000D03*
D11*
X147460000Y-122425000D03*
X144920000Y-122425000D03*
X142380000Y-122425000D03*
X139840000Y-122425000D03*
X137300000Y-122425000D03*
X134760000Y-122425000D03*
X132220000Y-122425000D03*
X129680000Y-122425000D03*
X127140000Y-122425000D03*
X124600000Y-122425000D03*
X122060000Y-122425000D03*
X119520000Y-122425000D03*
X116980000Y-122425000D03*
X114440000Y-122425000D03*
%TD*%
D13*
%TO.C,J4*%
X106600000Y-116075000D03*
D14*
X106600000Y-114805000D03*
X106600000Y-113535000D03*
%TD*%
D15*
%TO.C,J3*%
X162915000Y-101955000D03*
X162915000Y-96495000D03*
D16*
X159915000Y-101645000D03*
X159915000Y-96805000D03*
%TD*%
D12*
%TO.C,H1*%
X160000000Y-124000000D03*
%TD*%
%TO.C,H2*%
X95000000Y-72000000D03*
%TD*%
%TO.C,H3*%
X160000000Y-72000000D03*
%TD*%
M02*
