%TF.GenerationSoftware,KiCad,Pcbnew,(6.0.6)*%
%TF.CreationDate,2022-08-27T21:29:47+05:30*%
%TF.ProjectId,rp2040-ble,72703230-3430-42d6-926c-652e6b696361,rev?*%
%TF.SameCoordinates,Original*%
%TF.FileFunction,Copper,L1,Top*%
%TF.FilePolarity,Positive*%
%FSLAX46Y46*%
G04 Gerber Fmt 4.6, Leading zero omitted, Abs format (unit mm)*
G04 Created by KiCad (PCBNEW (6.0.6)) date 2022-08-27 21:29:47*
%MOMM*%
%LPD*%
G01*
G04 APERTURE LIST*
G04 Aperture macros list*
%AMRoundRect*
0 Rectangle with rounded corners*
0 $1 Rounding radius*
0 $2 $3 $4 $5 $6 $7 $8 $9 X,Y pos of 4 corners*
0 Add a 4 corners polygon primitive as box body*
4,1,4,$2,$3,$4,$5,$6,$7,$8,$9,$2,$3,0*
0 Add four circle primitives for the rounded corners*
1,1,$1+$1,$2,$3*
1,1,$1+$1,$4,$5*
1,1,$1+$1,$6,$7*
1,1,$1+$1,$8,$9*
0 Add four rect primitives between the rounded corners*
20,1,$1+$1,$2,$3,$4,$5,0*
20,1,$1+$1,$4,$5,$6,$7,0*
20,1,$1+$1,$6,$7,$8,$9,0*
20,1,$1+$1,$8,$9,$2,$3,0*%
G04 Aperture macros list end*
%TA.AperFunction,SMDPad,CuDef*%
%ADD10RoundRect,0.200000X0.200000X0.275000X-0.200000X0.275000X-0.200000X-0.275000X0.200000X-0.275000X0*%
%TD*%
%TA.AperFunction,SMDPad,CuDef*%
%ADD11RoundRect,0.200000X-0.275000X0.200000X-0.275000X-0.200000X0.275000X-0.200000X0.275000X0.200000X0*%
%TD*%
%TA.AperFunction,SMDPad,CuDef*%
%ADD12RoundRect,0.200000X0.275000X-0.200000X0.275000X0.200000X-0.275000X0.200000X-0.275000X-0.200000X0*%
%TD*%
%TA.AperFunction,SMDPad,CuDef*%
%ADD13RoundRect,0.200000X-0.200000X-0.275000X0.200000X-0.275000X0.200000X0.275000X-0.200000X0.275000X0*%
%TD*%
%TA.AperFunction,SMDPad,CuDef*%
%ADD14C,1.600000*%
%TD*%
%TA.AperFunction,SMDPad,CuDef*%
%ADD15RoundRect,0.225000X0.250000X-0.225000X0.250000X0.225000X-0.250000X0.225000X-0.250000X-0.225000X0*%
%TD*%
%TA.AperFunction,SMDPad,CuDef*%
%ADD16RoundRect,0.140000X-0.170000X0.140000X-0.170000X-0.140000X0.170000X-0.140000X0.170000X0.140000X0*%
%TD*%
%TA.AperFunction,ComponentPad*%
%ADD17R,1.700000X1.700000*%
%TD*%
%TA.AperFunction,ComponentPad*%
%ADD18O,1.700000X1.700000*%
%TD*%
%TA.AperFunction,SMDPad,CuDef*%
%ADD19RoundRect,0.150000X-0.650000X-0.150000X0.650000X-0.150000X0.650000X0.150000X-0.650000X0.150000X0*%
%TD*%
%TA.AperFunction,SMDPad,CuDef*%
%ADD20R,2.100000X5.600000*%
%TD*%
%TA.AperFunction,SMDPad,CuDef*%
%ADD21R,3.000000X1.600000*%
%TD*%
%TA.AperFunction,SMDPad,CuDef*%
%ADD22R,6.200000X5.800000*%
%TD*%
%TA.AperFunction,ComponentPad*%
%ADD23R,1.000000X1.000000*%
%TD*%
%TA.AperFunction,ComponentPad*%
%ADD24O,1.000000X1.000000*%
%TD*%
%TA.AperFunction,SMDPad,CuDef*%
%ADD25RoundRect,0.140000X0.170000X-0.140000X0.170000X0.140000X-0.170000X0.140000X-0.170000X-0.140000X0*%
%TD*%
%TA.AperFunction,SMDPad,CuDef*%
%ADD26RoundRect,0.218750X0.256250X-0.218750X0.256250X0.218750X-0.256250X0.218750X-0.256250X-0.218750X0*%
%TD*%
%TA.AperFunction,SMDPad,CuDef*%
%ADD27RoundRect,0.140000X-0.140000X-0.170000X0.140000X-0.170000X0.140000X0.170000X-0.140000X0.170000X0*%
%TD*%
%TA.AperFunction,SMDPad,CuDef*%
%ADD28R,0.900000X1.200000*%
%TD*%
%TA.AperFunction,SMDPad,CuDef*%
%ADD29RoundRect,0.140000X0.140000X0.170000X-0.140000X0.170000X-0.140000X-0.170000X0.140000X-0.170000X0*%
%TD*%
%TA.AperFunction,SMDPad,CuDef*%
%ADD30R,1.650000X0.400000*%
%TD*%
%TA.AperFunction,SMDPad,CuDef*%
%ADD31R,0.700000X1.825000*%
%TD*%
%TA.AperFunction,SMDPad,CuDef*%
%ADD32R,2.500000X1.430000*%
%TD*%
%TA.AperFunction,SMDPad,CuDef*%
%ADD33R,2.000000X1.350000*%
%TD*%
%TA.AperFunction,ComponentPad*%
%ADD34O,1.700000X1.350000*%
%TD*%
%TA.AperFunction,SMDPad,CuDef*%
%ADD35R,1.500000X2.000000*%
%TD*%
%TA.AperFunction,ComponentPad*%
%ADD36O,1.500000X1.100000*%
%TD*%
%TA.AperFunction,SMDPad,CuDef*%
%ADD37R,1.041400X0.660400*%
%TD*%
%TA.AperFunction,SMDPad,CuDef*%
%ADD38R,3.200000X3.200000*%
%TD*%
%TA.AperFunction,SMDPad,CuDef*%
%ADD39RoundRect,0.050000X-0.387500X0.050000X-0.387500X-0.050000X0.387500X-0.050000X0.387500X0.050000X0*%
%TD*%
%TA.AperFunction,SMDPad,CuDef*%
%ADD40RoundRect,0.050000X-0.050000X0.387500X-0.050000X-0.387500X0.050000X-0.387500X0.050000X0.387500X0*%
%TD*%
%TA.AperFunction,ViaPad*%
%ADD41C,0.800000*%
%TD*%
%TA.AperFunction,Conductor*%
%ADD42C,0.200000*%
%TD*%
%TA.AperFunction,Conductor*%
%ADD43C,0.300000*%
%TD*%
%TA.AperFunction,Conductor*%
%ADD44C,0.154000*%
%TD*%
%TA.AperFunction,Conductor*%
%ADD45C,0.500000*%
%TD*%
G04 APERTURE END LIST*
D10*
%TO.P,R8,1*%
%TO.N,+3.3V*%
X143225000Y-87000000D03*
%TO.P,R8,2*%
%TO.N,/QSPI_SS*%
X141575000Y-87000000D03*
%TD*%
D11*
%TO.P,R7,1*%
%TO.N,+3.3V*%
X143400000Y-108775000D03*
%TO.P,R7,2*%
%TO.N,Net-(D2-Pad2)*%
X143400000Y-110425000D03*
%TD*%
D12*
%TO.P,R6,1*%
%TO.N,/QSPI_SS*%
X139600000Y-87625000D03*
%TO.P,R6,2*%
%TO.N,/USB_BOOT*%
X139600000Y-85975000D03*
%TD*%
D13*
%TO.P,R5,1*%
%TO.N,/GPIO25*%
X133575000Y-109000000D03*
%TO.P,R5,2*%
%TO.N,Net-(D1-Pad2)*%
X135225000Y-109000000D03*
%TD*%
D12*
%TO.P,R4,1*%
%TO.N,/XOUT*%
X119600000Y-104425000D03*
%TO.P,R4,2*%
%TO.N,Net-(C13-Pad1)*%
X119600000Y-102775000D03*
%TD*%
D10*
%TO.P,R2,1*%
%TO.N,/USB_CONN_D-*%
X144450000Y-100800000D03*
%TO.P,R2,2*%
%TO.N,/USB_D-*%
X142800000Y-100800000D03*
%TD*%
%TO.P,R1,1*%
%TO.N,/USB_CONN_D+*%
X144425000Y-99000000D03*
%TO.P,R1,2*%
%TO.N,/USB_D+*%
X142775000Y-99000000D03*
%TD*%
D14*
%TO.P,U3,11,NC*%
%TO.N,unconnected-(U3-Pad11)*%
X92800000Y-102650000D03*
%TO.P,U3,10,GND*%
%TO.N,GND*%
X94800000Y-102650000D03*
%TO.P,U3,9,TXD*%
%TO.N,/BLE_TX*%
X96800000Y-102650000D03*
%TO.P,U3,8,RXD*%
%TO.N,/BLE_RX*%
X98800000Y-102650000D03*
%TO.P,U3,7,VDD*%
%TO.N,+3.3V*%
X101800000Y-99400000D03*
%TO.P,U3,6,WAKEUP*%
%TO.N,/BLE_WAKEUP*%
X101800000Y-97400000D03*
%TO.P,U3,5,PDN*%
%TO.N,/BLE_POWER_DOWN*%
X101800000Y-95400000D03*
%TO.P,U3,4,GND*%
%TO.N,GND*%
X101800000Y-93400000D03*
%TO.P,U3,3,GND*%
X98800000Y-90150000D03*
%TO.P,U3,2,GND*%
X96800000Y-90150000D03*
%TO.P,U3,1,INT*%
%TO.N,/BLE_INT*%
X94800000Y-90150000D03*
%TD*%
D15*
%TO.P,C16,1*%
%TO.N,+3.3V*%
X143400000Y-106950000D03*
%TO.P,C16,2*%
%TO.N,GND*%
X143400000Y-105400000D03*
%TD*%
D16*
%TO.P,C5,1*%
%TO.N,+3.3V*%
X140000000Y-101120000D03*
%TO.P,C5,2*%
%TO.N,GND*%
X140000000Y-102080000D03*
%TD*%
D17*
%TO.P,J1,1,Pin_1*%
%TO.N,/VBUS*%
X150000000Y-73600000D03*
D18*
%TO.P,J1,2,Pin_2*%
%TO.N,/GPIO0*%
X147460000Y-73600000D03*
%TO.P,J1,3,Pin_3*%
%TO.N,/GPIO1*%
X144920000Y-73600000D03*
%TO.P,J1,4,Pin_4*%
%TO.N,/GPIO2*%
X142380000Y-73600000D03*
%TO.P,J1,5,Pin_5*%
%TO.N,/GPIO3*%
X139840000Y-73600000D03*
%TO.P,J1,6,Pin_6*%
%TO.N,/GPIO4*%
X137300000Y-73600000D03*
%TO.P,J1,7,Pin_7*%
%TO.N,/GPIO5*%
X134760000Y-73600000D03*
%TO.P,J1,8,Pin_8*%
%TO.N,/GPIO6*%
X132220000Y-73600000D03*
%TO.P,J1,9,Pin_9*%
%TO.N,/GPIO7*%
X129680000Y-73600000D03*
%TO.P,J1,10,Pin_10*%
%TO.N,/GPIO8*%
X127140000Y-73600000D03*
%TO.P,J1,11,Pin_11*%
%TO.N,/GPIO9*%
X124600000Y-73600000D03*
%TO.P,J1,12,Pin_12*%
%TO.N,/GPIO10*%
X122060000Y-73600000D03*
%TO.P,J1,13,Pin_13*%
%TO.N,GND*%
X119520000Y-73600000D03*
%TO.P,J1,14,Pin_14*%
X116980000Y-73600000D03*
%TO.P,J1,15,Pin_15*%
X114440000Y-73600000D03*
%TD*%
D19*
%TO.P,U2,1,~{CS}*%
%TO.N,/QSPI_SS*%
X141600000Y-89695000D03*
%TO.P,U2,2,DO(IO1)*%
%TO.N,/QSPI_SD1*%
X141600000Y-90965000D03*
%TO.P,U2,3,IO2*%
%TO.N,/QSPI_SD2*%
X141600000Y-92235000D03*
%TO.P,U2,4,GND*%
%TO.N,GND*%
X141600000Y-93505000D03*
%TO.P,U2,5,DI(IO0)*%
%TO.N,/QSPI_SD0*%
X148800000Y-93505000D03*
%TO.P,U2,6,CLK*%
%TO.N,/QSPI_SCLK*%
X148800000Y-92235000D03*
%TO.P,U2,7,IO3*%
%TO.N,/QSPI_SD3*%
X148800000Y-90965000D03*
%TO.P,U2,8,VCC*%
%TO.N,+3.3V*%
X148800000Y-89695000D03*
%TD*%
D20*
%TO.P,Y1,1*%
%TO.N,/XIN*%
X115600000Y-93850000D03*
%TO.P,Y1,2*%
%TO.N,Net-(C13-Pad1)*%
X115600000Y-103350000D03*
%TD*%
D21*
%TO.P,U4,1,GND*%
%TO.N,GND*%
X158180000Y-112485000D03*
%TO.P,U4,3,IN*%
%TO.N,Net-(C15-Pad1)*%
X158180000Y-107915000D03*
D22*
%TO.P,U4,4,OUT*%
%TO.N,+3.3V*%
X151000000Y-110200000D03*
%TD*%
D17*
%TO.P,J2,1,Pin_1*%
%TO.N,+3.3V*%
X150000000Y-122425000D03*
D18*
%TO.P,J2,2,Pin_2*%
%TO.N,/GPIO29*%
X147460000Y-122425000D03*
%TO.P,J2,3,Pin_3*%
%TO.N,/GPIO28*%
X144920000Y-122425000D03*
%TO.P,J2,4,Pin_4*%
%TO.N,/GPIO27*%
X142380000Y-122425000D03*
%TO.P,J2,5,Pin_5*%
%TO.N,/GPIO26*%
X139840000Y-122425000D03*
%TO.P,J2,6,Pin_6*%
%TO.N,/GPIO24*%
X137300000Y-122425000D03*
%TO.P,J2,7,Pin_7*%
%TO.N,/GPIO23*%
X134760000Y-122425000D03*
%TO.P,J2,8,Pin_8*%
%TO.N,/GPIO22*%
X132220000Y-122425000D03*
%TO.P,J2,9,Pin_9*%
%TO.N,/GPIO21*%
X129680000Y-122425000D03*
%TO.P,J2,10,Pin_10*%
%TO.N,/GPIO20*%
X127140000Y-122425000D03*
%TO.P,J2,11,Pin_11*%
%TO.N,/GPIO19*%
X124600000Y-122425000D03*
%TO.P,J2,12,Pin_12*%
%TO.N,/GPIO18*%
X122060000Y-122425000D03*
%TO.P,J2,13,Pin_13*%
%TO.N,/GPIO17*%
X119520000Y-122425000D03*
%TO.P,J2,14,Pin_14*%
%TO.N,/GPIO16*%
X116980000Y-122425000D03*
%TO.P,J2,15,Pin_15*%
%TO.N,GND*%
X114440000Y-122425000D03*
%TD*%
D23*
%TO.P,J4,1,Pin_1*%
%TO.N,/SWD*%
X106600000Y-116075000D03*
D24*
%TO.P,J4,2,Pin_2*%
%TO.N,GND*%
X106600000Y-114805000D03*
%TO.P,J4,3,Pin_3*%
%TO.N,/SWCLK*%
X106600000Y-113535000D03*
%TD*%
D15*
%TO.P,C15,1*%
%TO.N,Net-(C15-Pad1)*%
X157800000Y-104775000D03*
%TO.P,C15,2*%
%TO.N,GND*%
X157800000Y-103225000D03*
%TD*%
D25*
%TO.P,C4,1*%
%TO.N,+3.3V*%
X123800000Y-98680000D03*
%TO.P,C4,2*%
%TO.N,GND*%
X123800000Y-97720000D03*
%TD*%
D26*
%TO.P,D2,1,K*%
%TO.N,GND*%
X143400000Y-113787500D03*
%TO.P,D2,2,A*%
%TO.N,Net-(D2-Pad2)*%
X143400000Y-112212500D03*
%TD*%
D27*
%TO.P,C12,1*%
%TO.N,+1V1*%
X140520000Y-96400000D03*
%TO.P,C12,2*%
%TO.N,GND*%
X141480000Y-96400000D03*
%TD*%
%TO.P,C14,1*%
%TO.N,+3.3V*%
X150920000Y-89400000D03*
%TO.P,C14,2*%
%TO.N,GND*%
X151880000Y-89400000D03*
%TD*%
D16*
%TO.P,C7,1*%
%TO.N,+3.3V*%
X136000000Y-103320000D03*
%TO.P,C7,2*%
%TO.N,GND*%
X136000000Y-104280000D03*
%TD*%
D26*
%TO.P,D1,1,K*%
%TO.N,GND*%
X135400000Y-112787500D03*
%TO.P,D1,2,A*%
%TO.N,Net-(D1-Pad2)*%
X135400000Y-111212500D03*
%TD*%
D25*
%TO.P,C9,1*%
%TO.N,+3.3V*%
X141200000Y-98480000D03*
%TO.P,C9,2*%
%TO.N,GND*%
X141200000Y-97520000D03*
%TD*%
D27*
%TO.P,C3,1*%
%TO.N,+3.3V*%
X131320000Y-89000000D03*
%TO.P,C3,2*%
%TO.N,GND*%
X132280000Y-89000000D03*
%TD*%
D28*
%TO.P,D3,1,K*%
%TO.N,Net-(C15-Pad1)*%
X149750000Y-102200000D03*
%TO.P,D3,2,A*%
%TO.N,/VBUS*%
X153050000Y-102200000D03*
%TD*%
D29*
%TO.P,C11,1*%
%TO.N,+1V1*%
X124680000Y-100000000D03*
%TO.P,C11,2*%
%TO.N,GND*%
X123720000Y-100000000D03*
%TD*%
D25*
%TO.P,C6,1*%
%TO.N,+3.3V*%
X130200000Y-106480000D03*
%TO.P,C6,2*%
%TO.N,GND*%
X130200000Y-105520000D03*
%TD*%
D30*
%TO.P,J3,1,VBUS*%
%TO.N,/VBUS*%
X160035000Y-100525000D03*
%TO.P,J3,2,D-*%
%TO.N,/USB_CONN_D-*%
X160035000Y-99875000D03*
%TO.P,J3,3,D+*%
%TO.N,/USB_CONN_D+*%
X160035000Y-99225000D03*
%TO.P,J3,4,ID*%
%TO.N,unconnected-(J3-Pad4)*%
X160035000Y-98575000D03*
%TO.P,J3,5,GND*%
%TO.N,GND*%
X160035000Y-97925000D03*
D31*
%TO.P,J3,6,Shield*%
X161235000Y-102175000D03*
D32*
X163185000Y-98265000D03*
D33*
X161985000Y-101955000D03*
D34*
X162915000Y-101955000D03*
D35*
X159915000Y-96325000D03*
D34*
X162915000Y-96495000D03*
D31*
X161235000Y-96225000D03*
D36*
X159915000Y-101645000D03*
X159915000Y-96805000D03*
D35*
X159935000Y-102075000D03*
D32*
X163185000Y-100185000D03*
D33*
X161985000Y-96475000D03*
%TD*%
D16*
%TO.P,C10,1*%
%TO.N,/XIN*%
X119600000Y-94520000D03*
%TO.P,C10,2*%
%TO.N,GND*%
X119600000Y-95480000D03*
%TD*%
D37*
%TO.P,SW2,1,1*%
%TO.N,/RUN*%
X114243300Y-113878401D03*
%TO.P,SW2,2,2*%
X118393300Y-113878401D03*
%TO.P,SW2,3,3*%
%TO.N,GND*%
X114243300Y-116028399D03*
%TO.P,SW2,4,4*%
X118393300Y-116028399D03*
%TD*%
D27*
%TO.P,C1,1*%
%TO.N,+3.3V*%
X137120000Y-92400000D03*
%TO.P,C1,2*%
%TO.N,GND*%
X138080000Y-92400000D03*
%TD*%
D37*
%TO.P,SW1,1,1*%
%TO.N,/USB_BOOT*%
X147075000Y-83274999D03*
%TO.P,SW1,2,2*%
X142925000Y-83274999D03*
%TO.P,SW1,3,3*%
%TO.N,GND*%
X147075000Y-81125001D03*
%TO.P,SW1,4,4*%
X142925000Y-81125001D03*
%TD*%
D16*
%TO.P,C2,1*%
%TO.N,+3.3V*%
X137800000Y-101520000D03*
%TO.P,C2,2*%
%TO.N,GND*%
X137800000Y-102480000D03*
%TD*%
D25*
%TO.P,C13,1*%
%TO.N,Net-(C13-Pad1)*%
X119600000Y-101480000D03*
%TO.P,C13,2*%
%TO.N,GND*%
X119600000Y-100520000D03*
%TD*%
D16*
%TO.P,C8,1*%
%TO.N,+1V1*%
X141200000Y-101120000D03*
%TO.P,C8,2*%
%TO.N,GND*%
X141200000Y-102080000D03*
%TD*%
D38*
%TO.P,U1,57,GND*%
%TO.N,GND*%
X132600000Y-98200000D03*
D39*
%TO.P,U1,56,QSPI_SS*%
%TO.N,/QSPI_SS*%
X136037500Y-95600000D03*
%TO.P,U1,55,QSPI_SD1*%
%TO.N,/QSPI_SD1*%
X136037500Y-96000000D03*
%TO.P,U1,54,QSPI_SD2*%
%TO.N,/QSPI_SD2*%
X136037500Y-96400000D03*
%TO.P,U1,53,QSPI_SD0*%
%TO.N,/QSPI_SD0*%
X136037500Y-96800000D03*
%TO.P,U1,52,QSPI_SCLK*%
%TO.N,/QSPI_SCLK*%
X136037500Y-97200000D03*
%TO.P,U1,51,QSPI_SD3*%
%TO.N,/QSPI_SD3*%
X136037500Y-97600000D03*
%TO.P,U1,50,DVDD*%
%TO.N,+1V1*%
X136037500Y-98000000D03*
%TO.P,U1,49,IOVDD*%
%TO.N,+3.3V*%
X136037500Y-98400000D03*
%TO.P,U1,48,USB_VDD*%
X136037500Y-98800000D03*
%TO.P,U1,47,USB_DP*%
%TO.N,/USB_D+*%
X136037500Y-99200000D03*
%TO.P,U1,46,USB_DM*%
%TO.N,/USB_D-*%
X136037500Y-99600000D03*
%TO.P,U1,45,VREG_VOUT*%
%TO.N,+1V1*%
X136037500Y-100000000D03*
%TO.P,U1,44,VREG_IN*%
%TO.N,+3.3V*%
X136037500Y-100400000D03*
%TO.P,U1,43,ADC_AVDD*%
X136037500Y-100800000D03*
D40*
%TO.P,U1,42,IOVDD*%
X135200000Y-101637500D03*
%TO.P,U1,41,GPIO29_ADC3*%
%TO.N,/GPIO29*%
X134800000Y-101637500D03*
%TO.P,U1,40,GPIO28_ADC2*%
%TO.N,/GPIO28*%
X134400000Y-101637500D03*
%TO.P,U1,39,GPIO27_ADC1*%
%TO.N,/GPIO27*%
X134000000Y-101637500D03*
%TO.P,U1,38,GPIO26_ADC0*%
%TO.N,/GPIO26*%
X133600000Y-101637500D03*
%TO.P,U1,37,GPIO25*%
%TO.N,/GPIO25*%
X133200000Y-101637500D03*
%TO.P,U1,36,GPIO24*%
%TO.N,/GPIO24*%
X132800000Y-101637500D03*
%TO.P,U1,35,GPIO23*%
%TO.N,/GPIO23*%
X132400000Y-101637500D03*
%TO.P,U1,34,GPIO22*%
%TO.N,/GPIO22*%
X132000000Y-101637500D03*
%TO.P,U1,33,IOVDD*%
%TO.N,+3.3V*%
X131600000Y-101637500D03*
%TO.P,U1,32,GPIO21*%
%TO.N,/GPIO21*%
X131200000Y-101637500D03*
%TO.P,U1,31,GPIO20*%
%TO.N,/GPIO20*%
X130800000Y-101637500D03*
%TO.P,U1,30,GPIO19*%
%TO.N,/GPIO19*%
X130400000Y-101637500D03*
%TO.P,U1,29,GPIO18*%
%TO.N,/GPIO18*%
X130000000Y-101637500D03*
D39*
%TO.P,U1,28,GPIO17*%
%TO.N,/GPIO17*%
X129162500Y-100800000D03*
%TO.P,U1,27,GPIO16*%
%TO.N,/GPIO16*%
X129162500Y-100400000D03*
%TO.P,U1,26,RUN*%
%TO.N,/RUN*%
X129162500Y-100000000D03*
%TO.P,U1,25,SWD*%
%TO.N,/SWD*%
X129162500Y-99600000D03*
%TO.P,U1,24,SWCLK*%
%TO.N,/SWCLK*%
X129162500Y-99200000D03*
%TO.P,U1,23,DVDD*%
%TO.N,+1V1*%
X129162500Y-98800000D03*
%TO.P,U1,22,IOVDD*%
%TO.N,+3.3V*%
X129162500Y-98400000D03*
%TO.P,U1,21,XOUT*%
%TO.N,/XOUT*%
X129162500Y-98000000D03*
%TO.P,U1,20,XIN*%
%TO.N,/XIN*%
X129162500Y-97600000D03*
%TO.P,U1,19,TESTEN*%
%TO.N,GND*%
X129162500Y-97200000D03*
%TO.P,U1,18,GPIO15*%
%TO.N,/BLE_POWER_DOWN*%
X129162500Y-96800000D03*
%TO.P,U1,17,GPIO14*%
%TO.N,/BLE_WAKEUP*%
X129162500Y-96400000D03*
%TO.P,U1,16,GPIO13*%
%TO.N,/BLE_TX*%
X129162500Y-96000000D03*
%TO.P,U1,15,GPIO12*%
%TO.N,/BLE_RX*%
X129162500Y-95600000D03*
D40*
%TO.P,U1,14,GPIO11*%
%TO.N,/BLE_INT*%
X130000000Y-94762500D03*
%TO.P,U1,13,GPIO10*%
%TO.N,/GPIO10*%
X130400000Y-94762500D03*
%TO.P,U1,12,GPIO9*%
%TO.N,/GPIO9*%
X130800000Y-94762500D03*
%TO.P,U1,11,GPIO8*%
%TO.N,/GPIO8*%
X131200000Y-94762500D03*
%TO.P,U1,10,IOVDD*%
%TO.N,+3.3V*%
X131600000Y-94762500D03*
%TO.P,U1,9,GPIO7*%
%TO.N,/GPIO7*%
X132000000Y-94762500D03*
%TO.P,U1,8,GPIO6*%
%TO.N,/GPIO6*%
X132400000Y-94762500D03*
%TO.P,U1,7,GPIO5*%
%TO.N,/GPIO5*%
X132800000Y-94762500D03*
%TO.P,U1,6,GPIO4*%
%TO.N,/GPIO4*%
X133200000Y-94762500D03*
%TO.P,U1,5,GPIO3*%
%TO.N,/GPIO3*%
X133600000Y-94762500D03*
%TO.P,U1,4,GPIO2*%
%TO.N,/GPIO2*%
X134000000Y-94762500D03*
%TO.P,U1,3,GPIO1*%
%TO.N,/GPIO1*%
X134400000Y-94762500D03*
%TO.P,U1,2,GPIO0*%
%TO.N,/GPIO0*%
X134800000Y-94762500D03*
%TO.P,U1,1,IOVDD*%
%TO.N,+3.3V*%
X135200000Y-94762500D03*
%TD*%
D41*
%TO.N,GND*%
X145400000Y-114400000D03*
%TO.N,+3.3V*%
X128600000Y-87800000D03*
X128800000Y-108200000D03*
X139400000Y-106400000D03*
X143600000Y-97600000D03*
X145800000Y-87000000D03*
X103950000Y-99400000D03*
X136800000Y-93400000D03*
X122200000Y-99000000D03*
%TO.N,GND*%
X137600000Y-106200000D03*
X99550000Y-86600000D03*
X145000000Y-105975000D03*
X130800000Y-104600000D03*
X111200000Y-80000000D03*
X96550000Y-92200000D03*
X111200000Y-77400000D03*
X119600000Y-99200000D03*
X138200000Y-103800000D03*
X98350000Y-92400000D03*
X117200000Y-118200000D03*
X161800000Y-112800000D03*
X149000000Y-81200000D03*
X139800000Y-97600000D03*
X111200000Y-78800000D03*
X122200000Y-97800000D03*
X133800000Y-97200000D03*
X138000000Y-91200000D03*
X97550000Y-85800000D03*
X142800000Y-96400000D03*
X131600000Y-97200000D03*
X131600000Y-99400000D03*
X140380697Y-103396783D03*
X131800000Y-87600000D03*
X98950000Y-93600000D03*
X143800000Y-92600000D03*
X143200000Y-79400000D03*
X113800000Y-118200000D03*
X142800000Y-102400000D03*
X135800000Y-114600000D03*
X123400000Y-101000000D03*
X94350000Y-105000000D03*
X153200000Y-89400000D03*
X119600000Y-96600000D03*
X133800000Y-99400000D03*
X132600000Y-98400000D03*
%TO.N,/VBUS*%
X155600000Y-100800000D03*
X155600000Y-98800000D03*
%TO.N,/BLE_WAKEUP*%
X107350000Y-97000000D03*
X101800000Y-97400000D03*
%TO.N,/BLE_POWER_DOWN*%
X108350000Y-95200000D03*
X101800000Y-95400000D03*
%TD*%
D42*
%TO.N,/USB_CONN_D+*%
X159885000Y-99375000D02*
X160035000Y-99225000D01*
X158910000Y-99575019D02*
X158910000Y-99375000D01*
X158910000Y-99375000D02*
X159885000Y-99375000D01*
X155198661Y-99575019D02*
X158910000Y-99575019D01*
X155086182Y-99687499D02*
X155198661Y-99575019D01*
X145112499Y-99687499D02*
X155086182Y-99687499D01*
X144425000Y-99000000D02*
X145112499Y-99687499D01*
%TO.N,/USB_CONN_D-*%
X159871397Y-100025000D02*
X160021397Y-99875000D01*
X160021397Y-99875000D02*
X160035000Y-99875000D01*
X155272549Y-100137501D02*
X155385050Y-100025000D01*
X145112499Y-100137501D02*
X155272549Y-100137501D01*
X155385050Y-100025000D02*
X159871397Y-100025000D01*
X144450000Y-100800000D02*
X145112499Y-100137501D01*
D43*
%TO.N,/VBUS*%
X155200000Y-102200000D02*
X153050000Y-102200000D01*
X155600000Y-101800000D02*
X155200000Y-102200000D01*
%TO.N,Net-(C15-Pad1)*%
X157625000Y-104600000D02*
X157800000Y-104775000D01*
X150625000Y-104600000D02*
X157625000Y-104600000D01*
X149750000Y-103725000D02*
X150625000Y-104600000D01*
X149750000Y-102200000D02*
X149750000Y-103725000D01*
D44*
%TO.N,/USB_D-*%
X142400000Y-100800000D02*
X142800000Y-100800000D01*
X141200000Y-99600000D02*
X142400000Y-100800000D01*
X136037500Y-99600000D02*
X141200000Y-99600000D01*
%TO.N,/GPIO25*%
X133200000Y-108625000D02*
X133575000Y-109000000D01*
X133200000Y-101637500D02*
X133200000Y-108625000D01*
%TO.N,Net-(D1-Pad2)*%
X135225000Y-111037500D02*
X135400000Y-111212500D01*
X135225000Y-109000000D02*
X135225000Y-111037500D01*
D45*
%TO.N,GND*%
X135400000Y-112787500D02*
X135400000Y-114200000D01*
D44*
X144012500Y-114400000D02*
X145400000Y-114400000D01*
X143400000Y-113787500D02*
X144012500Y-114400000D01*
D42*
%TO.N,Net-(D2-Pad2)*%
X143400000Y-110110000D02*
X143400000Y-112212500D01*
D44*
%TO.N,+1V1*%
X141200000Y-100400000D02*
X141200000Y-101120000D01*
X140800000Y-100000000D02*
X141200000Y-100400000D01*
X140800000Y-100000000D02*
X136037500Y-100000000D01*
%TO.N,/BLE_INT*%
X95400000Y-89550000D02*
X94800000Y-90150000D01*
X95400000Y-83700000D02*
X95400000Y-89550000D01*
X119200000Y-81200000D02*
X97900000Y-81200000D01*
X97900000Y-81200000D02*
X95400000Y-83700000D01*
X125400000Y-87400000D02*
X119200000Y-81200000D01*
X125400000Y-89400000D02*
X125400000Y-87400000D01*
X130000000Y-94762500D02*
X130000000Y-94000000D01*
X130000000Y-94000000D02*
X125400000Y-89400000D01*
%TO.N,+3.3V*%
X137400000Y-100800000D02*
X137720000Y-101120000D01*
D43*
X143400000Y-106950000D02*
X142150000Y-106950000D01*
D44*
X136920000Y-92200000D02*
X137120000Y-92400000D01*
X135520000Y-103320000D02*
X136000000Y-103320000D01*
D43*
X151000000Y-121425000D02*
X150000000Y-122425000D01*
D44*
X123920000Y-98800000D02*
X123800000Y-98680000D01*
X131600000Y-89280000D02*
X131320000Y-89000000D01*
D43*
X129800000Y-89000000D02*
X131320000Y-89000000D01*
X136920000Y-103320000D02*
X136000000Y-103320000D01*
X145800000Y-87000000D02*
X150200000Y-87000000D01*
X139200000Y-105200000D02*
X137400000Y-105200000D01*
D44*
X129162500Y-98400000D02*
X126200000Y-98400000D01*
X140000000Y-100600000D02*
X140000000Y-101120000D01*
D43*
X143600000Y-97600000D02*
X142200000Y-97600000D01*
X150200000Y-87000000D02*
X150920000Y-87720000D01*
D44*
X141120000Y-98400000D02*
X141200000Y-98480000D01*
X135200000Y-93500632D02*
X136500632Y-92200000D01*
D43*
X137400000Y-105200000D02*
X137000000Y-104800000D01*
X128800000Y-108200000D02*
X128800000Y-107880000D01*
D44*
X135200000Y-101637500D02*
X135200000Y-103000000D01*
D43*
X139480000Y-101120000D02*
X140000000Y-101120000D01*
D44*
X131600000Y-106000000D02*
X131120000Y-106480000D01*
X131600000Y-94762500D02*
X131600000Y-89280000D01*
D43*
X141100000Y-105900000D02*
X139800000Y-104600000D01*
X140600000Y-106400000D02*
X139400000Y-106400000D01*
X142200000Y-97600000D02*
X141320000Y-98480000D01*
D44*
X131600000Y-101637500D02*
X131600000Y-106000000D01*
D43*
X103950000Y-99400000D02*
X101800000Y-99400000D01*
D44*
X136500632Y-92200000D02*
X136920000Y-92200000D01*
X136037500Y-100800000D02*
X137400000Y-100800000D01*
X138920000Y-98800000D02*
X139320000Y-98400000D01*
X135200000Y-103000000D02*
X135520000Y-103320000D01*
X136037500Y-100400000D02*
X139800000Y-100400000D01*
D43*
X141320000Y-98480000D02*
X141200000Y-98480000D01*
X123480000Y-99000000D02*
X123800000Y-98680000D01*
X143600000Y-107150000D02*
X143400000Y-106950000D01*
X145800000Y-87000000D02*
X142910000Y-87000000D01*
X141100000Y-105900000D02*
X140600000Y-106400000D01*
X142150000Y-106950000D02*
X141100000Y-105900000D01*
X139800000Y-104600000D02*
X139000000Y-103800000D01*
D44*
X125800000Y-98800000D02*
X123920000Y-98800000D01*
D43*
X138920000Y-101520000D02*
X137800000Y-101520000D01*
D44*
X136037500Y-98400000D02*
X139320000Y-98400000D01*
X148800000Y-89695000D02*
X150625000Y-89695000D01*
D43*
X128800000Y-107880000D02*
X130200000Y-106480000D01*
X139000000Y-103800000D02*
X139000000Y-101600000D01*
X139000000Y-101600000D02*
X138920000Y-101520000D01*
X136800000Y-92720000D02*
X137120000Y-92400000D01*
D44*
X137720000Y-101120000D02*
X137720000Y-101600000D01*
X150625000Y-89695000D02*
X150920000Y-89400000D01*
X139320000Y-98400000D02*
X141120000Y-98400000D01*
X135200000Y-94762500D02*
X135200000Y-93500632D01*
D43*
X136800000Y-93400000D02*
X136800000Y-92720000D01*
D44*
X126200000Y-98400000D02*
X125800000Y-98800000D01*
D43*
X150920000Y-87720000D02*
X150920000Y-89400000D01*
D44*
X136037500Y-98800000D02*
X138920000Y-98800000D01*
D43*
X151000000Y-110200000D02*
X147800000Y-107000000D01*
X122200000Y-99000000D02*
X123480000Y-99000000D01*
X137000000Y-103400000D02*
X136920000Y-103320000D01*
X147800000Y-107000000D02*
X143775000Y-107000000D01*
X143400000Y-109090000D02*
X144510000Y-110200000D01*
X137000000Y-104800000D02*
X137000000Y-103400000D01*
D44*
X139800000Y-100400000D02*
X140000000Y-100600000D01*
D43*
X139800000Y-104600000D02*
X139200000Y-105200000D01*
X139000000Y-101600000D02*
X139480000Y-101120000D01*
D44*
X131120000Y-106480000D02*
X130200000Y-106480000D01*
D43*
X151000000Y-110200000D02*
X151000000Y-121425000D01*
X128600000Y-87800000D02*
X129800000Y-89000000D01*
X144510000Y-110200000D02*
X151000000Y-110200000D01*
D45*
%TO.N,GND*%
X123720000Y-100680000D02*
X123400000Y-101000000D01*
X132280000Y-88080000D02*
X131800000Y-87600000D01*
X135400000Y-114200000D02*
X135800000Y-114600000D01*
X116980000Y-76620000D02*
X116980000Y-73600000D01*
X98800000Y-90150000D02*
X98800000Y-91950000D01*
X158335000Y-103225000D02*
X159915000Y-101645000D01*
X130200000Y-105520000D02*
X130200000Y-105200000D01*
D44*
X131600000Y-97200000D02*
X132600000Y-98200000D01*
D45*
X142925000Y-81125001D02*
X147075000Y-81125001D01*
X137800000Y-103400000D02*
X138200000Y-103800000D01*
X96800000Y-90150000D02*
X96800000Y-91950000D01*
X119600000Y-100520000D02*
X119600000Y-99200000D01*
X160035000Y-96925000D02*
X159915000Y-96805000D01*
X114440000Y-73600000D02*
X114440000Y-75760000D01*
X101800000Y-93400000D02*
X99150000Y-93400000D01*
X112800000Y-77400000D02*
X111200000Y-77400000D01*
X160035000Y-97925000D02*
X160035000Y-96925000D01*
X143400000Y-105400000D02*
X144425000Y-105400000D01*
X118393300Y-116028399D02*
X118393300Y-117006700D01*
X114243300Y-116028399D02*
X118393300Y-116028399D01*
X139880000Y-97520000D02*
X139800000Y-97600000D01*
X163185000Y-96765000D02*
X162915000Y-96495000D01*
X123800000Y-97720000D02*
X122280000Y-97720000D01*
X163185000Y-101685000D02*
X162915000Y-101955000D01*
X96800000Y-90150000D02*
X96800000Y-86550000D01*
X114243300Y-117756700D02*
X113800000Y-118200000D01*
X111200000Y-80000000D02*
X117000000Y-80000000D01*
X132280000Y-89000000D02*
X132280000Y-88080000D01*
X158180000Y-112485000D02*
X161485000Y-112485000D01*
X136000000Y-104280000D02*
X136000000Y-104648528D01*
X163185000Y-98265000D02*
X163185000Y-96765000D01*
X94800000Y-104550000D02*
X94350000Y-105000000D01*
X142925000Y-79675000D02*
X143200000Y-79400000D01*
X142480000Y-102080000D02*
X142800000Y-102400000D01*
X142895000Y-93505000D02*
X143800000Y-92600000D01*
X138080000Y-91280000D02*
X138000000Y-91200000D01*
X141480000Y-96400000D02*
X142800000Y-96400000D01*
X140000000Y-102080000D02*
X140000000Y-103016086D01*
X119520000Y-77480000D02*
X119520000Y-73600000D01*
X117000000Y-80000000D02*
X119520000Y-77480000D01*
X96800000Y-91950000D02*
X96550000Y-92200000D01*
X111200000Y-78800000D02*
X114800000Y-78800000D01*
X144425000Y-105400000D02*
X145000000Y-105975000D01*
X147075000Y-81125001D02*
X148925001Y-81125001D01*
X137800000Y-102480000D02*
X137800000Y-103400000D01*
X141200000Y-97520000D02*
X139880000Y-97520000D01*
X141600000Y-93505000D02*
X142895000Y-93505000D01*
X123720000Y-100000000D02*
X123720000Y-100680000D01*
X98800000Y-87350000D02*
X99550000Y-86600000D01*
X141600000Y-102080000D02*
X142480000Y-102080000D01*
X163185000Y-100185000D02*
X163185000Y-101685000D01*
X98800000Y-91950000D02*
X98350000Y-92400000D01*
X122280000Y-97720000D02*
X122200000Y-97800000D01*
X157400000Y-103225000D02*
X158335000Y-103225000D01*
X151880000Y-89400000D02*
X153200000Y-89400000D01*
X161485000Y-112485000D02*
X161800000Y-112800000D01*
X138080000Y-92400000D02*
X138080000Y-91280000D01*
X118393300Y-117006700D02*
X117200000Y-118200000D01*
X148925001Y-81125001D02*
X149000000Y-81200000D01*
X130200000Y-105200000D02*
X130800000Y-104600000D01*
X114440000Y-75760000D02*
X112800000Y-77400000D01*
X99150000Y-93400000D02*
X98950000Y-93600000D01*
D44*
X129162500Y-97200000D02*
X131600000Y-97200000D01*
D45*
X96800000Y-86550000D02*
X97550000Y-85800000D01*
X114800000Y-78800000D02*
X116980000Y-76620000D01*
X119600000Y-95480000D02*
X119600000Y-96600000D01*
X140000000Y-103016086D02*
X140380697Y-103396783D01*
X136000000Y-104648528D02*
X137551472Y-106200000D01*
X142925000Y-81125001D02*
X142925000Y-79675000D01*
X137551472Y-106200000D02*
X137600000Y-106200000D01*
X98800000Y-90150000D02*
X98800000Y-87350000D01*
X114243300Y-116028399D02*
X114243300Y-117756700D01*
X94800000Y-102650000D02*
X94800000Y-104550000D01*
D44*
%TO.N,+1V1*%
X126800000Y-98800000D02*
X125600000Y-100000000D01*
X130800000Y-100600000D02*
X130200000Y-100000000D01*
X129162500Y-98800000D02*
X126800000Y-98800000D01*
X136037500Y-100000000D02*
X135000000Y-100000000D01*
X138200000Y-98000000D02*
X139800000Y-96400000D01*
X139800000Y-96400000D02*
X140520000Y-96400000D01*
X135000000Y-100000000D02*
X134400000Y-100600000D01*
X136037500Y-98000000D02*
X138200000Y-98000000D01*
X129800000Y-98800000D02*
X129162500Y-98800000D01*
X135400000Y-98000000D02*
X135000000Y-98400000D01*
X130200000Y-100000000D02*
X130200000Y-99200000D01*
X135000000Y-98400000D02*
X135000000Y-100000000D01*
X136037500Y-98000000D02*
X135400000Y-98000000D01*
X130200000Y-99200000D02*
X129800000Y-98800000D01*
X125600000Y-100000000D02*
X124880000Y-100000000D01*
X134400000Y-100600000D02*
X130800000Y-100600000D01*
%TO.N,/XIN*%
X122520000Y-94520000D02*
X119600000Y-94520000D01*
X125600000Y-97600000D02*
X122520000Y-94520000D01*
X119600000Y-94520000D02*
X118930000Y-93850000D01*
X118930000Y-93850000D02*
X115600000Y-93850000D01*
X129162500Y-97600000D02*
X125600000Y-97600000D01*
D43*
%TO.N,Net-(C13-Pad1)*%
X119340000Y-103350000D02*
X119600000Y-103090000D01*
D44*
X119600000Y-101480000D02*
X119600000Y-103090000D01*
D43*
X115600000Y-103350000D02*
X119340000Y-103350000D01*
%TO.N,Net-(C15-Pad1)*%
X158180000Y-105155000D02*
X157800000Y-104775000D01*
X158180000Y-107915000D02*
X158180000Y-105155000D01*
D44*
%TO.N,Net-(D1-Pad2)*%
X135110000Y-110922500D02*
X135400000Y-111212500D01*
D43*
%TO.N,/VBUS*%
X157875000Y-100525000D02*
X156600000Y-101800000D01*
X155600000Y-101800000D02*
X155600000Y-100800000D01*
X155600000Y-79200000D02*
X150000000Y-73600000D01*
X156600000Y-101800000D02*
X155600000Y-101800000D01*
X155600000Y-98800000D02*
X155600000Y-79200000D01*
X157875000Y-100525000D02*
X160035000Y-100525000D01*
D44*
%TO.N,/GPIO5*%
X134000000Y-74360000D02*
X134760000Y-73600000D01*
X134000000Y-91000000D02*
X134000000Y-74360000D01*
X132800000Y-94762500D02*
X132800000Y-92200000D01*
X132800000Y-92200000D02*
X134000000Y-91000000D01*
%TO.N,/GPIO6*%
X133600000Y-84200000D02*
X132000000Y-82600000D01*
X132400000Y-94762500D02*
X132400000Y-92000000D01*
X132000000Y-82600000D02*
X132000000Y-72800000D01*
X132400000Y-92000000D02*
X133600000Y-90800000D01*
X133600000Y-90800000D02*
X133600000Y-84200000D01*
%TO.N,/GPIO7*%
X129460000Y-81660000D02*
X129460000Y-72800000D01*
X133000000Y-85200000D02*
X129460000Y-81660000D01*
X132000000Y-91800000D02*
X133000000Y-90800000D01*
X132000000Y-94762500D02*
X132000000Y-91800000D01*
X133000000Y-90800000D02*
X133000000Y-85200000D01*
%TO.N,/GPIO8*%
X131200000Y-91800000D02*
X126920000Y-87520000D01*
X126920000Y-87520000D02*
X126920000Y-72800000D01*
X131200000Y-94762500D02*
X131200000Y-91800000D01*
%TO.N,/GPIO9*%
X126400000Y-80000000D02*
X124380000Y-77980000D01*
X130800000Y-94762500D02*
X130800000Y-92200000D01*
X126400000Y-87800000D02*
X126400000Y-80000000D01*
X130800000Y-92200000D02*
X126400000Y-87800000D01*
X124380000Y-77980000D02*
X124380000Y-72800000D01*
%TO.N,/GPIO10*%
X130400000Y-94762500D02*
X130400000Y-92800000D01*
X130400000Y-92800000D02*
X126000000Y-88400000D01*
X121840000Y-80040000D02*
X121840000Y-72800000D01*
X126000000Y-88400000D02*
X126000000Y-84200000D01*
X126000000Y-84200000D02*
X121840000Y-80040000D01*
%TO.N,/GPIO0*%
X138000000Y-80200000D02*
X142000000Y-76200000D01*
X134800000Y-93400000D02*
X138000000Y-90200000D01*
X138000000Y-90200000D02*
X138000000Y-80200000D01*
X147460000Y-74340000D02*
X147460000Y-73600000D01*
X142000000Y-76200000D02*
X145600000Y-76200000D01*
X134800000Y-94762500D02*
X134800000Y-93400000D01*
X145600000Y-76200000D02*
X147460000Y-74340000D01*
%TO.N,/GPIO1*%
X134400000Y-94762500D02*
X134400000Y-93000000D01*
X137400000Y-79000000D02*
X140800000Y-75600000D01*
X134400000Y-93000000D02*
X137400000Y-90000000D01*
X143600000Y-75600000D02*
X144920000Y-74280000D01*
X140800000Y-75600000D02*
X143600000Y-75600000D01*
X144920000Y-74280000D02*
X144920000Y-73600000D01*
X137400000Y-90000000D02*
X137400000Y-79000000D01*
%TO.N,/GPIO2*%
X142200000Y-73600000D02*
X142380000Y-73600000D01*
X134000000Y-94762500D02*
X134000000Y-92700632D01*
X134000000Y-92700632D02*
X136800000Y-89900632D01*
X136800000Y-76800000D02*
X137000000Y-76600000D01*
X137000000Y-76600000D02*
X139200000Y-76600000D01*
X139200000Y-76600000D02*
X142200000Y-73600000D01*
X136800000Y-89900632D02*
X136800000Y-76800000D01*
%TO.N,/GPIO3*%
X135800000Y-90400000D02*
X135800000Y-76600000D01*
X135800000Y-76600000D02*
X136600000Y-75800000D01*
X133600000Y-92600000D02*
X135800000Y-90400000D01*
X136600000Y-75800000D02*
X138800000Y-75800000D01*
X139840000Y-74760000D02*
X139840000Y-73600000D01*
X138800000Y-75800000D02*
X139840000Y-74760000D01*
X133600000Y-94762500D02*
X133600000Y-92600000D01*
%TO.N,/GPIO17*%
X128800000Y-100800000D02*
X120600000Y-109000000D01*
X120600000Y-118200000D02*
X119520000Y-119280000D01*
X129162500Y-100800000D02*
X128800000Y-100800000D01*
X119520000Y-119280000D02*
X119520000Y-122425000D01*
X120600000Y-109000000D02*
X120600000Y-118200000D01*
%TO.N,/GPIO18*%
X122060000Y-109577500D02*
X122060000Y-122425000D01*
X130000000Y-101637500D02*
X122060000Y-109577500D01*
%TO.N,/GPIO19*%
X124600000Y-108200000D02*
X130400000Y-102400000D01*
X130400000Y-102400000D02*
X130400000Y-101637500D01*
X124600000Y-122425000D02*
X124600000Y-108200000D01*
%TO.N,/GPIO20*%
X130800000Y-103000000D02*
X126200000Y-107600000D01*
X126200000Y-107600000D02*
X126200000Y-121485000D01*
X130800000Y-101637500D02*
X130800000Y-103000000D01*
X126200000Y-121485000D02*
X127140000Y-122425000D01*
%TO.N,/GPIO21*%
X131200000Y-103200000D02*
X127200000Y-107200000D01*
X131200000Y-101637500D02*
X131200000Y-103200000D01*
X129680000Y-118680000D02*
X129680000Y-122425000D01*
X127200000Y-116200000D02*
X129680000Y-118680000D01*
X127200000Y-107200000D02*
X127200000Y-116200000D01*
%TO.N,/GPIO22*%
X132000000Y-101637500D02*
X132000000Y-106200000D01*
X132220000Y-119220000D02*
X132220000Y-122425000D01*
X129200000Y-109000000D02*
X129200000Y-116200000D01*
X129200000Y-116200000D02*
X132220000Y-119220000D01*
X132000000Y-106200000D02*
X129200000Y-109000000D01*
%TO.N,/GPIO23*%
X132400000Y-101637500D02*
X132400000Y-106400000D01*
X132400000Y-106400000D02*
X130000000Y-108800000D01*
X130000000Y-108800000D02*
X130000000Y-115200000D01*
X130000000Y-115200000D02*
X134760000Y-119960000D01*
X134760000Y-119960000D02*
X134760000Y-122425000D01*
%TO.N,/GPIO24*%
X131600000Y-113600000D02*
X134200000Y-116200000D01*
X134200000Y-116200000D02*
X135400000Y-116200000D01*
X137300000Y-118100000D02*
X137300000Y-122425000D01*
X135400000Y-116200000D02*
X137300000Y-118100000D01*
X131600000Y-108000000D02*
X131600000Y-113600000D01*
X132800000Y-106800000D02*
X131600000Y-108000000D01*
X132800000Y-101637500D02*
X132800000Y-106800000D01*
%TO.N,/GPIO26*%
X133600000Y-105200000D02*
X138200000Y-109800000D01*
X133600000Y-101637500D02*
X133600000Y-105200000D01*
X138200000Y-120785000D02*
X139840000Y-122425000D01*
X138200000Y-109800000D02*
X138200000Y-120785000D01*
%TO.N,/GPIO27*%
X140200000Y-117200000D02*
X142380000Y-119380000D01*
X140200000Y-111000000D02*
X140200000Y-117200000D01*
X134000000Y-101637500D02*
X134000000Y-104800000D01*
X134000000Y-104800000D02*
X140200000Y-111000000D01*
X142380000Y-119380000D02*
X142380000Y-122425000D01*
%TO.N,/GPIO28*%
X139400000Y-109600000D02*
X140600000Y-109600000D01*
X140600000Y-109600000D02*
X141600000Y-110600000D01*
X141600000Y-115800000D02*
X144920000Y-119120000D01*
X134400000Y-104600000D02*
X139400000Y-109600000D01*
X144920000Y-119120000D02*
X144920000Y-122425000D01*
X141600000Y-110600000D02*
X141600000Y-115800000D01*
X134400000Y-101637500D02*
X134400000Y-104600000D01*
%TO.N,/GPIO29*%
X142000000Y-115000000D02*
X143000000Y-116000000D01*
X147460000Y-118860000D02*
X147460000Y-122425000D01*
X134800000Y-101637500D02*
X134800000Y-104400000D01*
X134800000Y-104400000D02*
X138600000Y-108200000D01*
X138600000Y-108200000D02*
X140200000Y-108200000D01*
X144600000Y-116000000D02*
X147460000Y-118860000D01*
X143000000Y-116000000D02*
X144600000Y-116000000D01*
X140200000Y-108200000D02*
X142000000Y-110000000D01*
X142000000Y-110000000D02*
X142000000Y-115000000D01*
%TO.N,/USB_D+*%
X136037500Y-99200000D02*
X142890000Y-99200000D01*
%TO.N,/SWCLK*%
X106600000Y-110600000D02*
X106600000Y-113535000D01*
X107800000Y-109400000D02*
X106600000Y-110600000D01*
X127000000Y-99200000D02*
X116800000Y-109400000D01*
X116800000Y-109400000D02*
X107800000Y-109400000D01*
X129162500Y-99200000D02*
X127000000Y-99200000D01*
%TO.N,/SWD*%
X129162500Y-99600000D02*
X127200000Y-99600000D01*
X109400000Y-115000000D02*
X108325000Y-116075000D01*
X108325000Y-116075000D02*
X106600000Y-116075000D01*
X109400000Y-110200000D02*
X109400000Y-115000000D01*
X116600000Y-110200000D02*
X109400000Y-110200000D01*
X127200000Y-99600000D02*
X116600000Y-110200000D01*
D42*
%TO.N,/USB_CONN_D-*%
X160035000Y-99875000D02*
X159935001Y-99974999D01*
D44*
%TO.N,/XOUT*%
X129162500Y-98000000D02*
X125499368Y-98000000D01*
X121400000Y-97000000D02*
X120800000Y-97600000D01*
X120800000Y-97600000D02*
X120800000Y-103000000D01*
X120800000Y-103000000D02*
X119690000Y-104110000D01*
X124499368Y-97000000D02*
X121400000Y-97000000D01*
X125499368Y-98000000D02*
X124499368Y-97000000D01*
X119690000Y-104110000D02*
X119600000Y-104110000D01*
%TO.N,/QSPI_SS*%
X138800000Y-90400000D02*
X139505000Y-89695000D01*
X141800000Y-87310000D02*
X141800000Y-88000000D01*
X138800000Y-92837500D02*
X138800000Y-90400000D01*
X139600000Y-88200000D02*
X139600000Y-89400000D01*
X141600000Y-88200000D02*
X139600000Y-88200000D01*
X139895000Y-89695000D02*
X141600000Y-89695000D01*
X139600000Y-89400000D02*
X139895000Y-89695000D01*
X136037500Y-95600000D02*
X138800000Y-92837500D01*
X139505000Y-89695000D02*
X139895000Y-89695000D01*
X139600000Y-87310000D02*
X139600000Y-88200000D01*
X141800000Y-88000000D02*
X141600000Y-88200000D01*
%TO.N,/USB_BOOT*%
X139600000Y-86290000D02*
X139600000Y-84400000D01*
X139600000Y-84400000D02*
X140725001Y-83274999D01*
X140725001Y-83274999D02*
X142925000Y-83274999D01*
X142925000Y-83274999D02*
X147075000Y-83274999D01*
%TO.N,/RUN*%
X114243300Y-113878401D02*
X118393300Y-113878401D01*
X118393300Y-109406700D02*
X118393300Y-113878401D01*
X127800000Y-100000000D02*
X118393300Y-109406700D01*
X129162500Y-100000000D02*
X127800000Y-100000000D01*
%TO.N,/BLE_RX*%
X124000000Y-91200000D02*
X124000000Y-87800000D01*
X98800000Y-106450000D02*
X98800000Y-102650000D01*
X120000000Y-83800000D02*
X106350000Y-83800000D01*
X129162500Y-95600000D02*
X128400000Y-95600000D01*
X105550000Y-103800000D02*
X102750000Y-106600000D01*
X105550000Y-84600000D02*
X105550000Y-103800000D01*
X102750000Y-106600000D02*
X98950000Y-106600000D01*
X98950000Y-106600000D02*
X98800000Y-106450000D01*
X128400000Y-95600000D02*
X124000000Y-91200000D01*
X106350000Y-83800000D02*
X105550000Y-84600000D01*
X124000000Y-87800000D02*
X120000000Y-83800000D01*
%TO.N,/BLE_TX*%
X96800000Y-107500000D02*
X96800000Y-107350000D01*
X123000000Y-88400000D02*
X119800000Y-85200000D01*
X96950000Y-107800000D02*
X96800000Y-107650000D01*
X123000000Y-91400000D02*
X123000000Y-88400000D01*
X119800000Y-85200000D02*
X107150000Y-85200000D01*
X106350000Y-86000000D02*
X106350000Y-104200000D01*
X107150000Y-85200000D02*
X106350000Y-86000000D01*
X127600000Y-96000000D02*
X123000000Y-91400000D01*
X102750000Y-107800000D02*
X96950000Y-107800000D01*
X106350000Y-104200000D02*
X102750000Y-107800000D01*
X129162500Y-96000000D02*
X127600000Y-96000000D01*
X96800000Y-107650000D02*
X96800000Y-107350000D01*
X96800000Y-107350000D02*
X96800000Y-102650000D01*
%TO.N,/BLE_WAKEUP*%
X122000000Y-89000000D02*
X119600000Y-86600000D01*
X119600000Y-86600000D02*
X107950000Y-86600000D01*
X122000000Y-91600000D02*
X122000000Y-89000000D01*
X126800000Y-96400000D02*
X122000000Y-91600000D01*
X129162500Y-96400000D02*
X126800000Y-96400000D01*
X107950000Y-86600000D02*
X107350000Y-87200000D01*
X107350000Y-87200000D02*
X107350000Y-97000000D01*
%TO.N,/BLE_POWER_DOWN*%
X121400000Y-89400000D02*
X119800000Y-87800000D01*
X108550000Y-87800000D02*
X108350000Y-88000000D01*
X129162500Y-96800000D02*
X126200000Y-96800000D01*
X108350000Y-88000000D02*
X108350000Y-95200000D01*
X121400000Y-92000000D02*
X121400000Y-89400000D01*
X126200000Y-96800000D02*
X121400000Y-92000000D01*
X119800000Y-87800000D02*
X108550000Y-87800000D01*
%TO.N,/GPIO4*%
X134800000Y-90800000D02*
X134800000Y-76200000D01*
X133200000Y-92400000D02*
X134800000Y-90800000D01*
X137300000Y-73700000D02*
X137300000Y-73600000D01*
X134800000Y-76200000D02*
X137300000Y-73700000D01*
X133200000Y-94762500D02*
X133200000Y-92400000D01*
%TO.N,/QSPI_SD3*%
X136037500Y-97600000D02*
X137800000Y-97600000D01*
X150765000Y-90965000D02*
X148800000Y-90965000D01*
X139800000Y-95600000D02*
X152200000Y-95600000D01*
X152200000Y-95600000D02*
X152200000Y-92400000D01*
X137800000Y-97600000D02*
X139800000Y-95600000D01*
X152200000Y-92400000D02*
X150765000Y-90965000D01*
%TO.N,/QSPI_SCLK*%
X137600000Y-97200000D02*
X139600000Y-95200000D01*
X136037500Y-97200000D02*
X137600000Y-97200000D01*
X150235000Y-92235000D02*
X148800000Y-92235000D01*
X139600000Y-95200000D02*
X150800000Y-95200000D01*
X151200000Y-93200000D02*
X150235000Y-92235000D01*
X151200000Y-94800000D02*
X151200000Y-93200000D01*
X150800000Y-95200000D02*
X151200000Y-94800000D01*
%TO.N,/QSPI_SD0*%
X139200000Y-94800000D02*
X148000000Y-94800000D01*
X148800000Y-94000000D02*
X148800000Y-93505000D01*
X136037500Y-96800000D02*
X137200000Y-96800000D01*
X137200000Y-96800000D02*
X139200000Y-94800000D01*
X148000000Y-94800000D02*
X148800000Y-94000000D01*
%TO.N,/QSPI_SD2*%
X136037500Y-96400000D02*
X137000000Y-96400000D01*
X140000000Y-93400000D02*
X140000000Y-92800000D01*
X137000000Y-96400000D02*
X140000000Y-93400000D01*
X140000000Y-92800000D02*
X140565000Y-92235000D01*
X140565000Y-92235000D02*
X141600000Y-92235000D01*
%TO.N,/QSPI_SD1*%
X136600000Y-96000000D02*
X139400000Y-93200000D01*
X139400000Y-91200000D02*
X139635000Y-90965000D01*
X139400000Y-93200000D02*
X139400000Y-91200000D01*
X136037500Y-96000000D02*
X136600000Y-96000000D01*
X139635000Y-90965000D02*
X141600000Y-90965000D01*
%TO.N,/GPIO16*%
X120000000Y-117000000D02*
X116980000Y-120020000D01*
X116980000Y-120020000D02*
X116980000Y-122425000D01*
X129162500Y-100400000D02*
X128600000Y-100400000D01*
X120000000Y-109000000D02*
X120000000Y-117000000D01*
X128600000Y-100400000D02*
X120000000Y-109000000D01*
%TD*%
M02*
