%TF.GenerationSoftware,KiCad,Pcbnew,(6.0.6)*%
%TF.CreationDate,2022-09-04T20:55:43+05:30*%
%TF.ProjectId,rp2040-ble,72703230-3430-42d6-926c-652e6b696361,rev?*%
%TF.SameCoordinates,Original*%
%TF.FileFunction,Paste,Top*%
%TF.FilePolarity,Positive*%
%FSLAX46Y46*%
G04 Gerber Fmt 4.6, Leading zero omitted, Abs format (unit mm)*
G04 Created by KiCad (PCBNEW (6.0.6)) date 2022-09-04 20:55:43*
%MOMM*%
%LPD*%
G01*
G04 APERTURE LIST*
G04 Aperture macros list*
%AMRoundRect*
0 Rectangle with rounded corners*
0 $1 Rounding radius*
0 $2 $3 $4 $5 $6 $7 $8 $9 X,Y pos of 4 corners*
0 Add a 4 corners polygon primitive as box body*
4,1,4,$2,$3,$4,$5,$6,$7,$8,$9,$2,$3,0*
0 Add four circle primitives for the rounded corners*
1,1,$1+$1,$2,$3*
1,1,$1+$1,$4,$5*
1,1,$1+$1,$6,$7*
1,1,$1+$1,$8,$9*
0 Add four rect primitives between the rounded corners*
20,1,$1+$1,$2,$3,$4,$5,0*
20,1,$1+$1,$4,$5,$6,$7,0*
20,1,$1+$1,$6,$7,$8,$9,0*
20,1,$1+$1,$8,$9,$2,$3,0*%
G04 Aperture macros list end*
%ADD10RoundRect,0.218750X0.256250X-0.218750X0.256250X0.218750X-0.256250X0.218750X-0.256250X-0.218750X0*%
%ADD11RoundRect,0.140000X-0.140000X-0.170000X0.140000X-0.170000X0.140000X0.170000X-0.140000X0.170000X0*%
%ADD12RoundRect,0.218750X-0.218750X-0.256250X0.218750X-0.256250X0.218750X0.256250X-0.218750X0.256250X0*%
%ADD13RoundRect,0.135000X0.185000X-0.135000X0.185000X0.135000X-0.185000X0.135000X-0.185000X-0.135000X0*%
%ADD14RoundRect,0.150000X-0.150000X0.650000X-0.150000X-0.650000X0.150000X-0.650000X0.150000X0.650000X0*%
%ADD15RoundRect,0.249999X-0.395001X0.395001X-0.395001X-0.395001X0.395001X-0.395001X0.395001X0.395001X0*%
%ADD16RoundRect,0.050000X-0.050000X0.387500X-0.050000X-0.387500X0.050000X-0.387500X0.050000X0.387500X0*%
%ADD17RoundRect,0.050000X-0.387500X0.050000X-0.387500X-0.050000X0.387500X-0.050000X0.387500X0.050000X0*%
%ADD18RoundRect,0.140000X-0.170000X0.140000X-0.170000X-0.140000X0.170000X-0.140000X0.170000X0.140000X0*%
%ADD19R,1.200000X0.900000*%
%ADD20R,0.660400X1.041400*%
%ADD21RoundRect,0.140000X0.170000X-0.140000X0.170000X0.140000X-0.170000X0.140000X-0.170000X-0.140000X0*%
%ADD22R,1.650000X0.400000*%
%ADD23R,2.500000X1.430000*%
%ADD24R,2.000000X1.350000*%
%ADD25R,0.700000X1.825000*%
%ADD26R,1.500000X2.000000*%
%ADD27C,1.600000*%
%ADD28RoundRect,0.135000X-0.135000X-0.185000X0.135000X-0.185000X0.135000X0.185000X-0.135000X0.185000X0*%
%ADD29RoundRect,0.225000X0.225000X0.250000X-0.225000X0.250000X-0.225000X-0.250000X0.225000X-0.250000X0*%
%ADD30RoundRect,0.135000X0.135000X0.185000X-0.135000X0.185000X-0.135000X-0.185000X0.135000X-0.185000X0*%
%ADD31R,2.100000X5.600000*%
%ADD32RoundRect,0.135000X-0.185000X0.135000X-0.185000X-0.135000X0.185000X-0.135000X0.185000X0.135000X0*%
%ADD33RoundRect,0.140000X0.140000X0.170000X-0.140000X0.170000X-0.140000X-0.170000X0.140000X-0.170000X0*%
%ADD34R,3.000000X1.600000*%
%ADD35R,6.200000X5.800000*%
%ADD36RoundRect,0.225000X-0.225000X-0.250000X0.225000X-0.250000X0.225000X0.250000X-0.225000X0.250000X0*%
%ADD37R,1.041400X0.660400*%
G04 APERTURE END LIST*
D10*
%TO.C,F1*%
X146600000Y-94057500D03*
X146600000Y-92482500D03*
%TD*%
D11*
%TO.C,C2*%
X130620000Y-94300000D03*
X131580000Y-94300000D03*
%TD*%
%TO.C,C12*%
X131920000Y-87400000D03*
X132880000Y-87400000D03*
%TD*%
D12*
%TO.C,D2*%
X137712500Y-93400000D03*
X139287500Y-93400000D03*
%TD*%
D13*
%TO.C,R7*%
X139400000Y-96210000D03*
X139400000Y-95190000D03*
%TD*%
D14*
%TO.C,U2*%
X140305000Y-77500000D03*
X139035000Y-77500000D03*
X137765000Y-77500000D03*
X136495000Y-77500000D03*
X136495000Y-84700000D03*
X137765000Y-84700000D03*
X139035000Y-84700000D03*
X140305000Y-84700000D03*
%TD*%
D15*
%TO.C,U1*%
X123700000Y-89900000D03*
X125300000Y-89900000D03*
X125300000Y-88300000D03*
X123700000Y-88300000D03*
D16*
X127100000Y-85662500D03*
X126700000Y-85662500D03*
X126300000Y-85662500D03*
X125900000Y-85662500D03*
X125500000Y-85662500D03*
X125100000Y-85662500D03*
X124700000Y-85662500D03*
X124300000Y-85662500D03*
X123900000Y-85662500D03*
X123500000Y-85662500D03*
X123100000Y-85662500D03*
X122700000Y-85662500D03*
X122300000Y-85662500D03*
X121900000Y-85662500D03*
D17*
X121062500Y-86500000D03*
X121062500Y-86900000D03*
X121062500Y-87300000D03*
X121062500Y-87700000D03*
X121062500Y-88100000D03*
X121062500Y-88500000D03*
X121062500Y-88900000D03*
X121062500Y-89300000D03*
X121062500Y-89700000D03*
X121062500Y-90100000D03*
X121062500Y-90500000D03*
X121062500Y-90900000D03*
X121062500Y-91300000D03*
X121062500Y-91700000D03*
D16*
X121900000Y-92537500D03*
X122300000Y-92537500D03*
X122700000Y-92537500D03*
X123100000Y-92537500D03*
X123500000Y-92537500D03*
X123900000Y-92537500D03*
X124300000Y-92537500D03*
X124700000Y-92537500D03*
X125100000Y-92537500D03*
X125500000Y-92537500D03*
X125900000Y-92537500D03*
X126300000Y-92537500D03*
X126700000Y-92537500D03*
X127100000Y-92537500D03*
D17*
X127937500Y-91700000D03*
X127937500Y-91300000D03*
X127937500Y-90900000D03*
X127937500Y-90500000D03*
X127937500Y-90100000D03*
X127937500Y-89700000D03*
X127937500Y-89300000D03*
X127937500Y-88900000D03*
X127937500Y-88500000D03*
X127937500Y-88100000D03*
X127937500Y-87700000D03*
X127937500Y-87300000D03*
X127937500Y-86900000D03*
X127937500Y-86500000D03*
%TD*%
D11*
%TO.C,C9*%
X131920000Y-88500000D03*
X132880000Y-88500000D03*
%TD*%
D18*
%TO.C,C11*%
X118210000Y-91290000D03*
X118210000Y-92250000D03*
%TD*%
D19*
%TO.C,D3*%
X143050000Y-95725000D03*
X143050000Y-92425000D03*
%TD*%
D20*
%TO.C,SW1*%
X144825001Y-81775000D03*
X144825001Y-77625000D03*
X146974999Y-81775000D03*
X146974999Y-77625000D03*
%TD*%
D21*
%TO.C,C3*%
X123200000Y-82680000D03*
X123200000Y-81720000D03*
%TD*%
D18*
%TO.C,C13*%
X113550000Y-93800000D03*
X113550000Y-94760000D03*
%TD*%
D22*
%TO.C,J3*%
X149280000Y-91320000D03*
X149280000Y-90670000D03*
X149280000Y-90020000D03*
X149280000Y-89370000D03*
X149280000Y-88720000D03*
D23*
X152430000Y-89060000D03*
D24*
X151230000Y-87270000D03*
D25*
X150480000Y-87020000D03*
D24*
X151230000Y-92750000D03*
D23*
X152430000Y-90980000D03*
D25*
X150480000Y-92970000D03*
D26*
X149180000Y-92870000D03*
X149160000Y-87120000D03*
%TD*%
D27*
%TO.C,U3*%
X94630000Y-83320600D03*
X96630000Y-83320600D03*
X98630000Y-83320600D03*
X101630000Y-86570600D03*
X101630000Y-88570600D03*
X101630000Y-90570600D03*
X101630000Y-92570600D03*
X98630000Y-95820600D03*
X96630000Y-95820600D03*
X94630000Y-95820600D03*
X92630000Y-95820600D03*
%TD*%
D13*
%TO.C,R8*%
X142500000Y-86010000D03*
X142500000Y-84990000D03*
%TD*%
D18*
%TO.C,C4*%
X116900000Y-91295000D03*
X116900000Y-92255000D03*
%TD*%
D10*
%TO.C,D1*%
X127300000Y-102687500D03*
X127300000Y-101112500D03*
%TD*%
D28*
%TO.C,R6*%
X142090000Y-77600000D03*
X143110000Y-77600000D03*
%TD*%
D18*
%TO.C,C6*%
X123800000Y-96320000D03*
X123800000Y-97280000D03*
%TD*%
D29*
%TO.C,C16*%
X139175000Y-100700000D03*
X137625000Y-100700000D03*
%TD*%
D30*
%TO.C,R2*%
X132910000Y-90800000D03*
X131890000Y-90800000D03*
%TD*%
D31*
%TO.C,Y1*%
X109525000Y-85700000D03*
X109525000Y-95200000D03*
%TD*%
D21*
%TO.C,C1*%
X128000000Y-83480000D03*
X128000000Y-82520000D03*
%TD*%
D32*
%TO.C,R5*%
X127000000Y-98590000D03*
X127000000Y-99610000D03*
%TD*%
D11*
%TO.C,C8*%
X130720000Y-92000000D03*
X131680000Y-92000000D03*
%TD*%
D33*
%TO.C,C14*%
X140170000Y-87590000D03*
X139210000Y-87590000D03*
%TD*%
D32*
%TO.C,R4*%
X113725000Y-89015000D03*
X113725000Y-90035000D03*
%TD*%
D21*
%TO.C,C10*%
X113625000Y-85730000D03*
X113625000Y-84770000D03*
%TD*%
D30*
%TO.C,R1*%
X132910000Y-89700000D03*
X131890000Y-89700000D03*
%TD*%
D34*
%TO.C,U4*%
X151680000Y-103285000D03*
X151680000Y-98715000D03*
D35*
X144500000Y-101000000D03*
%TD*%
D11*
%TO.C,C5*%
X130720000Y-93200000D03*
X131680000Y-93200000D03*
%TD*%
D36*
%TO.C,C15*%
X149405000Y-95990000D03*
X150955000Y-95990000D03*
%TD*%
D11*
%TO.C,C7*%
X130620000Y-95500000D03*
X131580000Y-95500000D03*
%TD*%
D37*
%TO.C,SW2*%
X109118300Y-105353399D03*
X104968300Y-105353399D03*
X109118300Y-103203401D03*
X104968300Y-103203401D03*
%TD*%
M02*
