%TF.GenerationSoftware,KiCad,Pcbnew,(6.0.6)*%
%TF.CreationDate,2022-08-27T21:29:47+05:30*%
%TF.ProjectId,rp2040-ble,72703230-3430-42d6-926c-652e6b696361,rev?*%
%TF.SameCoordinates,Original*%
%TF.FileFunction,Copper,L2,Bot*%
%TF.FilePolarity,Positive*%
%FSLAX46Y46*%
G04 Gerber Fmt 4.6, Leading zero omitted, Abs format (unit mm)*
G04 Created by KiCad (PCBNEW (6.0.6)) date 2022-08-27 21:29:47*
%MOMM*%
%LPD*%
G01*
G04 APERTURE LIST*
%TA.AperFunction,ComponentPad*%
%ADD10R,1.700000X1.700000*%
%TD*%
%TA.AperFunction,ComponentPad*%
%ADD11O,1.700000X1.700000*%
%TD*%
%TA.AperFunction,ComponentPad*%
%ADD12R,1.000000X1.000000*%
%TD*%
%TA.AperFunction,ComponentPad*%
%ADD13O,1.000000X1.000000*%
%TD*%
%TA.AperFunction,ComponentPad*%
%ADD14O,1.700000X1.350000*%
%TD*%
%TA.AperFunction,ComponentPad*%
%ADD15O,1.500000X1.100000*%
%TD*%
%TA.AperFunction,ViaPad*%
%ADD16C,0.800000*%
%TD*%
%TA.AperFunction,Conductor*%
%ADD17C,0.300000*%
%TD*%
%TA.AperFunction,Conductor*%
%ADD18C,0.154000*%
%TD*%
G04 APERTURE END LIST*
D10*
%TO.P,J1,1,Pin_1*%
%TO.N,/VBUS*%
X150000000Y-73600000D03*
D11*
%TO.P,J1,2,Pin_2*%
%TO.N,/GPIO0*%
X147460000Y-73600000D03*
%TO.P,J1,3,Pin_3*%
%TO.N,/GPIO1*%
X144920000Y-73600000D03*
%TO.P,J1,4,Pin_4*%
%TO.N,/GPIO2*%
X142380000Y-73600000D03*
%TO.P,J1,5,Pin_5*%
%TO.N,/GPIO3*%
X139840000Y-73600000D03*
%TO.P,J1,6,Pin_6*%
%TO.N,/GPIO4*%
X137300000Y-73600000D03*
%TO.P,J1,7,Pin_7*%
%TO.N,/GPIO5*%
X134760000Y-73600000D03*
%TO.P,J1,8,Pin_8*%
%TO.N,/GPIO6*%
X132220000Y-73600000D03*
%TO.P,J1,9,Pin_9*%
%TO.N,/GPIO7*%
X129680000Y-73600000D03*
%TO.P,J1,10,Pin_10*%
%TO.N,/GPIO8*%
X127140000Y-73600000D03*
%TO.P,J1,11,Pin_11*%
%TO.N,/GPIO9*%
X124600000Y-73600000D03*
%TO.P,J1,12,Pin_12*%
%TO.N,/GPIO10*%
X122060000Y-73600000D03*
%TO.P,J1,13,Pin_13*%
%TO.N,GND*%
X119520000Y-73600000D03*
%TO.P,J1,14,Pin_14*%
X116980000Y-73600000D03*
%TO.P,J1,15,Pin_15*%
X114440000Y-73600000D03*
%TD*%
D10*
%TO.P,J2,1,Pin_1*%
%TO.N,+3.3V*%
X150000000Y-122425000D03*
D11*
%TO.P,J2,2,Pin_2*%
%TO.N,/GPIO29*%
X147460000Y-122425000D03*
%TO.P,J2,3,Pin_3*%
%TO.N,/GPIO28*%
X144920000Y-122425000D03*
%TO.P,J2,4,Pin_4*%
%TO.N,/GPIO27*%
X142380000Y-122425000D03*
%TO.P,J2,5,Pin_5*%
%TO.N,/GPIO26*%
X139840000Y-122425000D03*
%TO.P,J2,6,Pin_6*%
%TO.N,/GPIO24*%
X137300000Y-122425000D03*
%TO.P,J2,7,Pin_7*%
%TO.N,/GPIO23*%
X134760000Y-122425000D03*
%TO.P,J2,8,Pin_8*%
%TO.N,/GPIO22*%
X132220000Y-122425000D03*
%TO.P,J2,9,Pin_9*%
%TO.N,/GPIO21*%
X129680000Y-122425000D03*
%TO.P,J2,10,Pin_10*%
%TO.N,/GPIO20*%
X127140000Y-122425000D03*
%TO.P,J2,11,Pin_11*%
%TO.N,/GPIO19*%
X124600000Y-122425000D03*
%TO.P,J2,12,Pin_12*%
%TO.N,/GPIO18*%
X122060000Y-122425000D03*
%TO.P,J2,13,Pin_13*%
%TO.N,/GPIO17*%
X119520000Y-122425000D03*
%TO.P,J2,14,Pin_14*%
%TO.N,/GPIO16*%
X116980000Y-122425000D03*
%TO.P,J2,15,Pin_15*%
%TO.N,GND*%
X114440000Y-122425000D03*
%TD*%
D12*
%TO.P,J4,1,Pin_1*%
%TO.N,/SWD*%
X106600000Y-116075000D03*
D13*
%TO.P,J4,2,Pin_2*%
%TO.N,GND*%
X106600000Y-114805000D03*
%TO.P,J4,3,Pin_3*%
%TO.N,/SWCLK*%
X106600000Y-113535000D03*
%TD*%
D14*
%TO.P,J3,6,Shield*%
%TO.N,GND*%
X162915000Y-101955000D03*
X162915000Y-96495000D03*
D15*
X159915000Y-101645000D03*
X159915000Y-96805000D03*
%TD*%
D16*
%TO.N,GND*%
X145400000Y-114400000D03*
%TO.N,+3.3V*%
X128600000Y-87800000D03*
X128800000Y-108200000D03*
X139400000Y-106400000D03*
X143600000Y-97600000D03*
X145800000Y-87000000D03*
X103950000Y-99400000D03*
X136800000Y-93400000D03*
X122200000Y-99000000D03*
%TO.N,GND*%
X137600000Y-106200000D03*
X99550000Y-86600000D03*
X145000000Y-105975000D03*
X130800000Y-104600000D03*
X111200000Y-80000000D03*
X96550000Y-92200000D03*
X111200000Y-77400000D03*
X119600000Y-99200000D03*
X138200000Y-103800000D03*
X98350000Y-92400000D03*
X117200000Y-118200000D03*
X161800000Y-112800000D03*
X149000000Y-81200000D03*
X139800000Y-97600000D03*
X111200000Y-78800000D03*
X122200000Y-97800000D03*
X133800000Y-97200000D03*
X138000000Y-91200000D03*
X97550000Y-85800000D03*
X142800000Y-96400000D03*
X131600000Y-97200000D03*
X131600000Y-99400000D03*
X140380697Y-103396783D03*
X131800000Y-87600000D03*
X98950000Y-93600000D03*
X143800000Y-92600000D03*
X143200000Y-79400000D03*
X113800000Y-118200000D03*
X142800000Y-102400000D03*
X135800000Y-114600000D03*
X123400000Y-101000000D03*
X94350000Y-105000000D03*
X153200000Y-89400000D03*
X119600000Y-96600000D03*
X133800000Y-99400000D03*
X132600000Y-98400000D03*
%TO.N,/VBUS*%
X155600000Y-100800000D03*
X155600000Y-98800000D03*
%TO.N,/BLE_WAKEUP*%
X107350000Y-97000000D03*
X101800000Y-97400000D03*
%TO.N,/BLE_POWER_DOWN*%
X108350000Y-95200000D03*
X101800000Y-95400000D03*
%TD*%
D17*
%TO.N,+3.3V*%
X142460661Y-103800000D02*
X143600000Y-102660661D01*
X122200000Y-99000000D02*
X122200000Y-101600000D01*
X121650000Y-98450000D02*
X121450000Y-98250000D01*
X138700000Y-107100000D02*
X136600000Y-109200000D01*
X121450000Y-94950000D02*
X128600000Y-87800000D01*
X122200000Y-99000000D02*
X121650000Y-98450000D01*
X143600000Y-102660661D02*
X143600000Y-98200000D01*
X139400000Y-106400000D02*
X138700000Y-107100000D01*
X129800000Y-109200000D02*
X128800000Y-108200000D01*
X143600000Y-96000000D02*
X143600000Y-98200000D01*
X142000000Y-103800000D02*
X142460661Y-103800000D01*
X121450000Y-98250000D02*
X121450000Y-94950000D01*
X121650000Y-98450000D02*
X104900000Y-98450000D01*
X138700000Y-107100000D02*
X142000000Y-103800000D01*
X136600000Y-109200000D02*
X129800000Y-109200000D01*
X122200000Y-101600000D02*
X128800000Y-108200000D01*
X141600000Y-98200000D02*
X136800000Y-93400000D01*
X145800000Y-93800000D02*
X143600000Y-96000000D01*
X143600000Y-98200000D02*
X143600000Y-97600000D01*
X145800000Y-87000000D02*
X145800000Y-93800000D01*
X143600000Y-98200000D02*
X141600000Y-98200000D01*
X104900000Y-98450000D02*
X103950000Y-99400000D01*
%TO.N,/VBUS*%
X155600000Y-100800000D02*
X155600000Y-98800000D01*
D18*
%TO.N,/BLE_WAKEUP*%
X107350000Y-97000000D02*
X102200000Y-97000000D01*
X102200000Y-97000000D02*
X101800000Y-97400000D01*
%TO.N,/BLE_POWER_DOWN*%
X102000000Y-95200000D02*
X101800000Y-95400000D01*
X108350000Y-95200000D02*
X102000000Y-95200000D01*
%TD*%
%TA.AperFunction,Conductor*%
%TO.N,GND*%
G36*
X110567594Y-67813703D02*
G01*
X162952120Y-68380023D01*
X163018941Y-68400430D01*
X163034545Y-68412587D01*
X163319080Y-68673316D01*
X163326695Y-68680932D01*
X163373519Y-68732031D01*
X163596366Y-68975226D01*
X163603313Y-68983503D01*
X163846323Y-69300200D01*
X163852504Y-69309029D01*
X164066988Y-69645700D01*
X164072383Y-69655046D01*
X164256692Y-70009100D01*
X164261261Y-70018897D01*
X164411902Y-70382575D01*
X164414014Y-70387675D01*
X164417710Y-70397831D01*
X164537739Y-70778512D01*
X164540536Y-70788950D01*
X164626934Y-71178661D01*
X164628811Y-71189307D01*
X164653623Y-71377778D01*
X164680910Y-71585042D01*
X164681853Y-71595818D01*
X164696829Y-71938804D01*
X164697988Y-71965359D01*
X164696748Y-71984270D01*
X164696748Y-71989316D01*
X164694864Y-72000000D01*
X164696748Y-72010683D01*
X164697616Y-72015606D01*
X164699500Y-72037139D01*
X164699500Y-78348854D01*
X164699494Y-78350106D01*
X164464715Y-101593174D01*
X164444354Y-101660012D01*
X164391091Y-101705231D01*
X164321835Y-101714475D01*
X164258576Y-101684810D01*
X164224385Y-101634840D01*
X164157047Y-101452312D01*
X164152177Y-101442101D01*
X164047574Y-101266277D01*
X164040920Y-101257119D01*
X163906029Y-101103306D01*
X163897820Y-101095516D01*
X163737157Y-100968859D01*
X163727664Y-100962694D01*
X163546608Y-100867437D01*
X163536147Y-100863104D01*
X163340776Y-100802440D01*
X163329694Y-100800084D01*
X163182707Y-100782687D01*
X163168512Y-100785091D01*
X163165000Y-100797629D01*
X163165000Y-103110312D01*
X163169204Y-103124629D01*
X163181144Y-103126659D01*
X163299384Y-103115794D01*
X163310514Y-103113731D01*
X163507417Y-103058199D01*
X163517984Y-103054143D01*
X163701463Y-102963660D01*
X163711123Y-102957741D01*
X163875045Y-102835335D01*
X163883455Y-102827763D01*
X164022324Y-102677534D01*
X164029219Y-102668549D01*
X164138384Y-102495533D01*
X164143525Y-102485442D01*
X164217944Y-102298911D01*
X164261069Y-102243938D01*
X164327069Y-102221008D01*
X164394988Y-102237399D01*
X164443264Y-102287909D01*
X164457110Y-102346111D01*
X164221881Y-125633761D01*
X164217813Y-126036484D01*
X164203808Y-126092488D01*
X164072383Y-126344954D01*
X164066988Y-126354300D01*
X163852504Y-126690971D01*
X163846323Y-126699800D01*
X163603313Y-127016497D01*
X163596366Y-127024774D01*
X163326695Y-127319068D01*
X163319068Y-127326695D01*
X163070320Y-127554631D01*
X163024774Y-127596366D01*
X163016487Y-127603320D01*
X162782906Y-127782553D01*
X162717737Y-127807747D01*
X162708099Y-127808175D01*
X114217268Y-128073878D01*
X92913186Y-128190613D01*
X92855254Y-128176605D01*
X92655046Y-128072383D01*
X92645700Y-128066988D01*
X92309029Y-127852504D01*
X92300200Y-127846323D01*
X91983503Y-127603313D01*
X91975226Y-127596366D01*
X91929680Y-127554631D01*
X91680932Y-127326695D01*
X91673305Y-127319068D01*
X91403634Y-127024774D01*
X91396687Y-127016497D01*
X91153677Y-126699800D01*
X91147496Y-126690971D01*
X90933012Y-126354300D01*
X90927617Y-126344954D01*
X90743305Y-125990894D01*
X90738736Y-125981096D01*
X90631639Y-125722541D01*
X90614693Y-125681628D01*
X90605255Y-125633761D01*
X90606023Y-125405078D01*
X90610961Y-123933562D01*
X93591185Y-123933562D01*
X93600132Y-124171882D01*
X93601209Y-124177017D01*
X93601210Y-124177022D01*
X93648025Y-124400142D01*
X93649105Y-124405288D01*
X93651034Y-124410172D01*
X93651035Y-124410176D01*
X93691515Y-124512677D01*
X93736705Y-124627105D01*
X93860426Y-124830991D01*
X94016732Y-125011117D01*
X94201151Y-125162332D01*
X94408413Y-125280312D01*
X94632589Y-125361684D01*
X94867271Y-125404122D01*
X94892252Y-125405300D01*
X95059880Y-125405300D01*
X95062496Y-125405078D01*
X95062497Y-125405078D01*
X95232401Y-125390661D01*
X95237634Y-125390217D01*
X95468474Y-125330303D01*
X95685918Y-125232352D01*
X95883750Y-125099163D01*
X96056313Y-124934547D01*
X96198673Y-124743208D01*
X96257703Y-124627105D01*
X96304376Y-124535306D01*
X96304378Y-124535301D01*
X96306758Y-124530620D01*
X96377480Y-124302859D01*
X96408815Y-124066438D01*
X96403827Y-123933562D01*
X158591185Y-123933562D01*
X158600132Y-124171882D01*
X158601209Y-124177017D01*
X158601210Y-124177022D01*
X158648025Y-124400142D01*
X158649105Y-124405288D01*
X158651034Y-124410172D01*
X158651035Y-124410176D01*
X158691515Y-124512677D01*
X158736705Y-124627105D01*
X158860426Y-124830991D01*
X159016732Y-125011117D01*
X159201151Y-125162332D01*
X159408413Y-125280312D01*
X159632589Y-125361684D01*
X159867271Y-125404122D01*
X159892252Y-125405300D01*
X160059880Y-125405300D01*
X160062496Y-125405078D01*
X160062497Y-125405078D01*
X160232401Y-125390661D01*
X160237634Y-125390217D01*
X160468474Y-125330303D01*
X160685918Y-125232352D01*
X160883750Y-125099163D01*
X161056313Y-124934547D01*
X161198673Y-124743208D01*
X161257703Y-124627105D01*
X161304376Y-124535306D01*
X161304378Y-124535301D01*
X161306758Y-124530620D01*
X161377480Y-124302859D01*
X161408815Y-124066438D01*
X161399868Y-123828118D01*
X161383623Y-123750691D01*
X161351975Y-123599858D01*
X161351974Y-123599855D01*
X161350895Y-123594712D01*
X161344630Y-123578846D01*
X161288710Y-123437250D01*
X161263295Y-123372895D01*
X161139574Y-123169009D01*
X160983268Y-122988883D01*
X160798849Y-122837668D01*
X160591587Y-122719688D01*
X160367411Y-122638316D01*
X160132729Y-122595878D01*
X160107748Y-122594700D01*
X159940120Y-122594700D01*
X159937504Y-122594922D01*
X159937503Y-122594922D01*
X159926237Y-122595878D01*
X159762366Y-122609783D01*
X159531526Y-122669697D01*
X159314082Y-122767648D01*
X159116250Y-122900837D01*
X158943687Y-123065453D01*
X158801327Y-123256792D01*
X158798948Y-123261470D01*
X158798948Y-123261471D01*
X158698378Y-123459279D01*
X158693242Y-123469380D01*
X158691683Y-123474400D01*
X158691682Y-123474403D01*
X158673926Y-123531586D01*
X158622520Y-123697141D01*
X158615423Y-123750691D01*
X158596212Y-123895637D01*
X158591185Y-123933562D01*
X96403827Y-123933562D01*
X96399868Y-123828118D01*
X96383623Y-123750691D01*
X96351975Y-123599858D01*
X96351974Y-123599855D01*
X96350895Y-123594712D01*
X96344630Y-123578846D01*
X96288710Y-123437250D01*
X96263295Y-123372895D01*
X96139574Y-123169009D01*
X95983268Y-122988883D01*
X95798849Y-122837668D01*
X95591587Y-122719688D01*
X95502431Y-122687326D01*
X113112667Y-122687326D01*
X113165168Y-122883264D01*
X113168857Y-122893397D01*
X113264110Y-123097667D01*
X113269508Y-123107017D01*
X113398784Y-123291643D01*
X113405719Y-123299907D01*
X113565091Y-123459279D01*
X113573357Y-123466215D01*
X113757992Y-123595498D01*
X113767324Y-123600886D01*
X113971603Y-123696143D01*
X113981736Y-123699832D01*
X114172779Y-123751022D01*
X114186653Y-123750691D01*
X114190000Y-123742875D01*
X114190000Y-123737806D01*
X114690000Y-123737806D01*
X114693910Y-123751123D01*
X114702326Y-123752333D01*
X114898264Y-123699832D01*
X114908397Y-123696143D01*
X115112676Y-123600886D01*
X115122008Y-123595498D01*
X115306643Y-123466215D01*
X115314909Y-123459279D01*
X115474281Y-123299907D01*
X115481216Y-123291643D01*
X115610492Y-123107017D01*
X115615890Y-123097667D01*
X115707656Y-122900876D01*
X115753829Y-122848437D01*
X115821022Y-122829285D01*
X115887903Y-122849501D01*
X115932648Y-122901368D01*
X115971458Y-122985553D01*
X115979369Y-123002714D01*
X115982647Y-123007352D01*
X116096895Y-123169009D01*
X116101405Y-123175391D01*
X116252865Y-123322937D01*
X116257588Y-123326093D01*
X116257592Y-123326096D01*
X116327632Y-123372895D01*
X116428677Y-123440411D01*
X116622953Y-123523878D01*
X116658277Y-123531871D01*
X116823638Y-123569289D01*
X116823642Y-123569290D01*
X116829186Y-123570544D01*
X116955315Y-123575500D01*
X117034789Y-123578623D01*
X117034791Y-123578623D01*
X117040470Y-123578846D01*
X117046090Y-123578031D01*
X117046092Y-123578031D01*
X117244103Y-123549320D01*
X117244104Y-123549320D01*
X117249730Y-123548504D01*
X117268588Y-123542103D01*
X117444565Y-123482367D01*
X117444568Y-123482366D01*
X117449955Y-123480537D01*
X117454916Y-123477759D01*
X117454922Y-123477756D01*
X117561530Y-123418052D01*
X117634442Y-123377219D01*
X117645038Y-123368407D01*
X117792645Y-123245644D01*
X117797012Y-123242012D01*
X117800644Y-123237645D01*
X117928584Y-123083813D01*
X117928585Y-123083811D01*
X117932219Y-123079442D01*
X117984800Y-122985553D01*
X118032756Y-122899922D01*
X118032759Y-122899916D01*
X118035537Y-122894955D01*
X118066009Y-122805189D01*
X118101675Y-122700118D01*
X118103504Y-122694730D01*
X118105954Y-122677831D01*
X118127820Y-122527033D01*
X118156921Y-122463512D01*
X118210225Y-122429346D01*
X118290974Y-122429346D01*
X118344347Y-122463736D01*
X118373296Y-122527327D01*
X118374271Y-122536707D01*
X118378796Y-122605749D01*
X118430845Y-122810690D01*
X118433219Y-122815841D01*
X118433221Y-122815845D01*
X118471052Y-122897906D01*
X118519369Y-123002714D01*
X118522647Y-123007352D01*
X118636895Y-123169009D01*
X118641405Y-123175391D01*
X118792865Y-123322937D01*
X118797588Y-123326093D01*
X118797592Y-123326096D01*
X118867632Y-123372895D01*
X118968677Y-123440411D01*
X119162953Y-123523878D01*
X119198277Y-123531871D01*
X119363638Y-123569289D01*
X119363642Y-123569290D01*
X119369186Y-123570544D01*
X119495315Y-123575500D01*
X119574789Y-123578623D01*
X119574791Y-123578623D01*
X119580470Y-123578846D01*
X119586090Y-123578031D01*
X119586092Y-123578031D01*
X119784103Y-123549320D01*
X119784104Y-123549320D01*
X119789730Y-123548504D01*
X119808588Y-123542103D01*
X119984565Y-123482367D01*
X119984568Y-123482366D01*
X119989955Y-123480537D01*
X119994916Y-123477759D01*
X119994922Y-123477756D01*
X120101530Y-123418052D01*
X120174442Y-123377219D01*
X120185038Y-123368407D01*
X120332645Y-123245644D01*
X120337012Y-123242012D01*
X120340644Y-123237645D01*
X120468584Y-123083813D01*
X120468585Y-123083811D01*
X120472219Y-123079442D01*
X120524800Y-122985553D01*
X120572756Y-122899922D01*
X120572759Y-122899916D01*
X120575537Y-122894955D01*
X120606009Y-122805189D01*
X120641675Y-122700118D01*
X120643504Y-122694730D01*
X120645954Y-122677831D01*
X120667820Y-122527033D01*
X120696921Y-122463512D01*
X120750225Y-122429346D01*
X120830974Y-122429346D01*
X120884347Y-122463736D01*
X120913296Y-122527327D01*
X120914271Y-122536707D01*
X120918796Y-122605749D01*
X120970845Y-122810690D01*
X120973219Y-122815841D01*
X120973221Y-122815845D01*
X121011052Y-122897906D01*
X121059369Y-123002714D01*
X121062647Y-123007352D01*
X121176895Y-123169009D01*
X121181405Y-123175391D01*
X121332865Y-123322937D01*
X121337588Y-123326093D01*
X121337592Y-123326096D01*
X121407632Y-123372895D01*
X121508677Y-123440411D01*
X121702953Y-123523878D01*
X121738277Y-123531871D01*
X121903638Y-123569289D01*
X121903642Y-123569290D01*
X121909186Y-123570544D01*
X122035315Y-123575500D01*
X122114789Y-123578623D01*
X122114791Y-123578623D01*
X122120470Y-123578846D01*
X122126090Y-123578031D01*
X122126092Y-123578031D01*
X122324103Y-123549320D01*
X122324104Y-123549320D01*
X122329730Y-123548504D01*
X122348588Y-123542103D01*
X122524565Y-123482367D01*
X122524568Y-123482366D01*
X122529955Y-123480537D01*
X122534916Y-123477759D01*
X122534922Y-123477756D01*
X122641530Y-123418052D01*
X122714442Y-123377219D01*
X122725038Y-123368407D01*
X122872645Y-123245644D01*
X122877012Y-123242012D01*
X122880644Y-123237645D01*
X123008584Y-123083813D01*
X123008585Y-123083811D01*
X123012219Y-123079442D01*
X123064800Y-122985553D01*
X123112756Y-122899922D01*
X123112759Y-122899916D01*
X123115537Y-122894955D01*
X123146009Y-122805189D01*
X123181675Y-122700118D01*
X123183504Y-122694730D01*
X123185954Y-122677831D01*
X123207820Y-122527033D01*
X123236921Y-122463512D01*
X123290225Y-122429346D01*
X123370974Y-122429346D01*
X123424347Y-122463736D01*
X123453296Y-122527327D01*
X123454271Y-122536707D01*
X123458796Y-122605749D01*
X123510845Y-122810690D01*
X123513219Y-122815841D01*
X123513221Y-122815845D01*
X123551052Y-122897906D01*
X123599369Y-123002714D01*
X123602647Y-123007352D01*
X123716895Y-123169009D01*
X123721405Y-123175391D01*
X123872865Y-123322937D01*
X123877588Y-123326093D01*
X123877592Y-123326096D01*
X123947632Y-123372895D01*
X124048677Y-123440411D01*
X124242953Y-123523878D01*
X124278277Y-123531871D01*
X124443638Y-123569289D01*
X124443642Y-123569290D01*
X124449186Y-123570544D01*
X124575315Y-123575500D01*
X124654789Y-123578623D01*
X124654791Y-123578623D01*
X124660470Y-123578846D01*
X124666090Y-123578031D01*
X124666092Y-123578031D01*
X124864103Y-123549320D01*
X124864104Y-123549320D01*
X124869730Y-123548504D01*
X124888588Y-123542103D01*
X125064565Y-123482367D01*
X125064568Y-123482366D01*
X125069955Y-123480537D01*
X125074916Y-123477759D01*
X125074922Y-123477756D01*
X125181530Y-123418052D01*
X125254442Y-123377219D01*
X125265038Y-123368407D01*
X125412645Y-123245644D01*
X125417012Y-123242012D01*
X125420644Y-123237645D01*
X125548584Y-123083813D01*
X125548585Y-123083811D01*
X125552219Y-123079442D01*
X125604800Y-122985553D01*
X125652756Y-122899922D01*
X125652759Y-122899916D01*
X125655537Y-122894955D01*
X125686009Y-122805189D01*
X125721675Y-122700118D01*
X125723504Y-122694730D01*
X125725954Y-122677831D01*
X125747820Y-122527033D01*
X125776921Y-122463512D01*
X125830225Y-122429346D01*
X125910974Y-122429346D01*
X125964347Y-122463736D01*
X125993296Y-122527327D01*
X125994271Y-122536707D01*
X125998796Y-122605749D01*
X126050845Y-122810690D01*
X126053219Y-122815841D01*
X126053221Y-122815845D01*
X126091052Y-122897906D01*
X126139369Y-123002714D01*
X126142647Y-123007352D01*
X126256895Y-123169009D01*
X126261405Y-123175391D01*
X126412865Y-123322937D01*
X126417588Y-123326093D01*
X126417592Y-123326096D01*
X126487632Y-123372895D01*
X126588677Y-123440411D01*
X126782953Y-123523878D01*
X126818277Y-123531871D01*
X126983638Y-123569289D01*
X126983642Y-123569290D01*
X126989186Y-123570544D01*
X127115315Y-123575500D01*
X127194789Y-123578623D01*
X127194791Y-123578623D01*
X127200470Y-123578846D01*
X127206090Y-123578031D01*
X127206092Y-123578031D01*
X127404103Y-123549320D01*
X127404104Y-123549320D01*
X127409730Y-123548504D01*
X127428588Y-123542103D01*
X127604565Y-123482367D01*
X127604568Y-123482366D01*
X127609955Y-123480537D01*
X127614916Y-123477759D01*
X127614922Y-123477756D01*
X127721530Y-123418052D01*
X127794442Y-123377219D01*
X127805038Y-123368407D01*
X127952645Y-123245644D01*
X127957012Y-123242012D01*
X127960644Y-123237645D01*
X128088584Y-123083813D01*
X128088585Y-123083811D01*
X128092219Y-123079442D01*
X128144800Y-122985553D01*
X128192756Y-122899922D01*
X128192759Y-122899916D01*
X128195537Y-122894955D01*
X128226009Y-122805189D01*
X128261675Y-122700118D01*
X128263504Y-122694730D01*
X128265954Y-122677831D01*
X128287820Y-122527033D01*
X128316921Y-122463512D01*
X128370225Y-122429346D01*
X128450974Y-122429346D01*
X128504347Y-122463736D01*
X128533296Y-122527327D01*
X128534271Y-122536707D01*
X128538796Y-122605749D01*
X128590845Y-122810690D01*
X128593219Y-122815841D01*
X128593221Y-122815845D01*
X128631052Y-122897906D01*
X128679369Y-123002714D01*
X128682647Y-123007352D01*
X128796895Y-123169009D01*
X128801405Y-123175391D01*
X128952865Y-123322937D01*
X128957588Y-123326093D01*
X128957592Y-123326096D01*
X129027632Y-123372895D01*
X129128677Y-123440411D01*
X129322953Y-123523878D01*
X129358277Y-123531871D01*
X129523638Y-123569289D01*
X129523642Y-123569290D01*
X129529186Y-123570544D01*
X129655315Y-123575500D01*
X129734789Y-123578623D01*
X129734791Y-123578623D01*
X129740470Y-123578846D01*
X129746090Y-123578031D01*
X129746092Y-123578031D01*
X129944103Y-123549320D01*
X129944104Y-123549320D01*
X129949730Y-123548504D01*
X129968588Y-123542103D01*
X130144565Y-123482367D01*
X130144568Y-123482366D01*
X130149955Y-123480537D01*
X130154916Y-123477759D01*
X130154922Y-123477756D01*
X130261530Y-123418052D01*
X130334442Y-123377219D01*
X130345038Y-123368407D01*
X130492645Y-123245644D01*
X130497012Y-123242012D01*
X130500644Y-123237645D01*
X130628584Y-123083813D01*
X130628585Y-123083811D01*
X130632219Y-123079442D01*
X130684800Y-122985553D01*
X130732756Y-122899922D01*
X130732759Y-122899916D01*
X130735537Y-122894955D01*
X130766009Y-122805189D01*
X130801675Y-122700118D01*
X130803504Y-122694730D01*
X130805954Y-122677831D01*
X130827820Y-122527033D01*
X130856921Y-122463512D01*
X130910225Y-122429346D01*
X130990974Y-122429346D01*
X131044347Y-122463736D01*
X131073296Y-122527327D01*
X131074271Y-122536707D01*
X131078796Y-122605749D01*
X131130845Y-122810690D01*
X131133219Y-122815841D01*
X131133221Y-122815845D01*
X131171052Y-122897906D01*
X131219369Y-123002714D01*
X131222647Y-123007352D01*
X131336895Y-123169009D01*
X131341405Y-123175391D01*
X131492865Y-123322937D01*
X131497588Y-123326093D01*
X131497592Y-123326096D01*
X131567632Y-123372895D01*
X131668677Y-123440411D01*
X131862953Y-123523878D01*
X131898277Y-123531871D01*
X132063638Y-123569289D01*
X132063642Y-123569290D01*
X132069186Y-123570544D01*
X132195315Y-123575500D01*
X132274789Y-123578623D01*
X132274791Y-123578623D01*
X132280470Y-123578846D01*
X132286090Y-123578031D01*
X132286092Y-123578031D01*
X132484103Y-123549320D01*
X132484104Y-123549320D01*
X132489730Y-123548504D01*
X132508588Y-123542103D01*
X132684565Y-123482367D01*
X132684568Y-123482366D01*
X132689955Y-123480537D01*
X132694916Y-123477759D01*
X132694922Y-123477756D01*
X132801530Y-123418052D01*
X132874442Y-123377219D01*
X132885038Y-123368407D01*
X133032645Y-123245644D01*
X133037012Y-123242012D01*
X133040644Y-123237645D01*
X133168584Y-123083813D01*
X133168585Y-123083811D01*
X133172219Y-123079442D01*
X133224800Y-122985553D01*
X133272756Y-122899922D01*
X133272759Y-122899916D01*
X133275537Y-122894955D01*
X133306009Y-122805189D01*
X133341675Y-122700118D01*
X133343504Y-122694730D01*
X133345954Y-122677831D01*
X133367820Y-122527033D01*
X133396921Y-122463512D01*
X133450225Y-122429346D01*
X133530974Y-122429346D01*
X133584347Y-122463736D01*
X133613296Y-122527327D01*
X133614271Y-122536707D01*
X133618796Y-122605749D01*
X133670845Y-122810690D01*
X133673219Y-122815841D01*
X133673221Y-122815845D01*
X133711052Y-122897906D01*
X133759369Y-123002714D01*
X133762647Y-123007352D01*
X133876895Y-123169009D01*
X133881405Y-123175391D01*
X134032865Y-123322937D01*
X134037588Y-123326093D01*
X134037592Y-123326096D01*
X134107632Y-123372895D01*
X134208677Y-123440411D01*
X134402953Y-123523878D01*
X134438277Y-123531871D01*
X134603638Y-123569289D01*
X134603642Y-123569290D01*
X134609186Y-123570544D01*
X134735315Y-123575500D01*
X134814789Y-123578623D01*
X134814791Y-123578623D01*
X134820470Y-123578846D01*
X134826090Y-123578031D01*
X134826092Y-123578031D01*
X135024103Y-123549320D01*
X135024104Y-123549320D01*
X135029730Y-123548504D01*
X135048588Y-123542103D01*
X135224565Y-123482367D01*
X135224568Y-123482366D01*
X135229955Y-123480537D01*
X135234916Y-123477759D01*
X135234922Y-123477756D01*
X135341530Y-123418052D01*
X135414442Y-123377219D01*
X135425038Y-123368407D01*
X135572645Y-123245644D01*
X135577012Y-123242012D01*
X135580644Y-123237645D01*
X135708584Y-123083813D01*
X135708585Y-123083811D01*
X135712219Y-123079442D01*
X135764800Y-122985553D01*
X135812756Y-122899922D01*
X135812759Y-122899916D01*
X135815537Y-122894955D01*
X135846009Y-122805189D01*
X135881675Y-122700118D01*
X135883504Y-122694730D01*
X135885954Y-122677831D01*
X135907820Y-122527033D01*
X135936921Y-122463512D01*
X135990225Y-122429346D01*
X136070974Y-122429346D01*
X136124347Y-122463736D01*
X136153296Y-122527327D01*
X136154271Y-122536707D01*
X136158796Y-122605749D01*
X136210845Y-122810690D01*
X136213219Y-122815841D01*
X136213221Y-122815845D01*
X136251052Y-122897906D01*
X136299369Y-123002714D01*
X136302647Y-123007352D01*
X136416895Y-123169009D01*
X136421405Y-123175391D01*
X136572865Y-123322937D01*
X136577588Y-123326093D01*
X136577592Y-123326096D01*
X136647632Y-123372895D01*
X136748677Y-123440411D01*
X136942953Y-123523878D01*
X136978277Y-123531871D01*
X137143638Y-123569289D01*
X137143642Y-123569290D01*
X137149186Y-123570544D01*
X137275315Y-123575500D01*
X137354789Y-123578623D01*
X137354791Y-123578623D01*
X137360470Y-123578846D01*
X137366090Y-123578031D01*
X137366092Y-123578031D01*
X137564103Y-123549320D01*
X137564104Y-123549320D01*
X137569730Y-123548504D01*
X137588588Y-123542103D01*
X137764565Y-123482367D01*
X137764568Y-123482366D01*
X137769955Y-123480537D01*
X137774916Y-123477759D01*
X137774922Y-123477756D01*
X137881530Y-123418052D01*
X137954442Y-123377219D01*
X137965038Y-123368407D01*
X138112645Y-123245644D01*
X138117012Y-123242012D01*
X138120644Y-123237645D01*
X138248584Y-123083813D01*
X138248585Y-123083811D01*
X138252219Y-123079442D01*
X138304800Y-122985553D01*
X138352756Y-122899922D01*
X138352759Y-122899916D01*
X138355537Y-122894955D01*
X138386009Y-122805189D01*
X138421675Y-122700118D01*
X138423504Y-122694730D01*
X138425954Y-122677831D01*
X138447820Y-122527033D01*
X138476921Y-122463512D01*
X138530225Y-122429346D01*
X138610974Y-122429346D01*
X138664347Y-122463736D01*
X138693296Y-122527327D01*
X138694271Y-122536707D01*
X138698796Y-122605749D01*
X138750845Y-122810690D01*
X138753219Y-122815841D01*
X138753221Y-122815845D01*
X138791052Y-122897906D01*
X138839369Y-123002714D01*
X138842647Y-123007352D01*
X138956895Y-123169009D01*
X138961405Y-123175391D01*
X139112865Y-123322937D01*
X139117588Y-123326093D01*
X139117592Y-123326096D01*
X139187632Y-123372895D01*
X139288677Y-123440411D01*
X139482953Y-123523878D01*
X139518277Y-123531871D01*
X139683638Y-123569289D01*
X139683642Y-123569290D01*
X139689186Y-123570544D01*
X139815315Y-123575500D01*
X139894789Y-123578623D01*
X139894791Y-123578623D01*
X139900470Y-123578846D01*
X139906090Y-123578031D01*
X139906092Y-123578031D01*
X140104103Y-123549320D01*
X140104104Y-123549320D01*
X140109730Y-123548504D01*
X140128588Y-123542103D01*
X140304565Y-123482367D01*
X140304568Y-123482366D01*
X140309955Y-123480537D01*
X140314916Y-123477759D01*
X140314922Y-123477756D01*
X140421530Y-123418052D01*
X140494442Y-123377219D01*
X140505038Y-123368407D01*
X140652645Y-123245644D01*
X140657012Y-123242012D01*
X140660644Y-123237645D01*
X140788584Y-123083813D01*
X140788585Y-123083811D01*
X140792219Y-123079442D01*
X140844800Y-122985553D01*
X140892756Y-122899922D01*
X140892759Y-122899916D01*
X140895537Y-122894955D01*
X140926009Y-122805189D01*
X140961675Y-122700118D01*
X140963504Y-122694730D01*
X140965954Y-122677831D01*
X140987820Y-122527033D01*
X141016921Y-122463512D01*
X141070225Y-122429346D01*
X141150974Y-122429346D01*
X141204347Y-122463736D01*
X141233296Y-122527327D01*
X141234271Y-122536707D01*
X141238796Y-122605749D01*
X141290845Y-122810690D01*
X141293219Y-122815841D01*
X141293221Y-122815845D01*
X141331052Y-122897906D01*
X141379369Y-123002714D01*
X141382647Y-123007352D01*
X141496895Y-123169009D01*
X141501405Y-123175391D01*
X141652865Y-123322937D01*
X141657588Y-123326093D01*
X141657592Y-123326096D01*
X141727632Y-123372895D01*
X141828677Y-123440411D01*
X142022953Y-123523878D01*
X142058277Y-123531871D01*
X142223638Y-123569289D01*
X142223642Y-123569290D01*
X142229186Y-123570544D01*
X142355315Y-123575500D01*
X142434789Y-123578623D01*
X142434791Y-123578623D01*
X142440470Y-123578846D01*
X142446090Y-123578031D01*
X142446092Y-123578031D01*
X142644103Y-123549320D01*
X142644104Y-123549320D01*
X142649730Y-123548504D01*
X142668588Y-123542103D01*
X142844565Y-123482367D01*
X142844568Y-123482366D01*
X142849955Y-123480537D01*
X142854916Y-123477759D01*
X142854922Y-123477756D01*
X142961530Y-123418052D01*
X143034442Y-123377219D01*
X143045038Y-123368407D01*
X143192645Y-123245644D01*
X143197012Y-123242012D01*
X143200644Y-123237645D01*
X143328584Y-123083813D01*
X143328585Y-123083811D01*
X143332219Y-123079442D01*
X143384800Y-122985553D01*
X143432756Y-122899922D01*
X143432759Y-122899916D01*
X143435537Y-122894955D01*
X143466009Y-122805189D01*
X143501675Y-122700118D01*
X143503504Y-122694730D01*
X143505954Y-122677831D01*
X143527820Y-122527033D01*
X143556921Y-122463512D01*
X143610225Y-122429346D01*
X143690974Y-122429346D01*
X143744347Y-122463736D01*
X143773296Y-122527327D01*
X143774271Y-122536707D01*
X143778796Y-122605749D01*
X143830845Y-122810690D01*
X143833219Y-122815841D01*
X143833221Y-122815845D01*
X143871052Y-122897906D01*
X143919369Y-123002714D01*
X143922647Y-123007352D01*
X144036895Y-123169009D01*
X144041405Y-123175391D01*
X144192865Y-123322937D01*
X144197588Y-123326093D01*
X144197592Y-123326096D01*
X144267632Y-123372895D01*
X144368677Y-123440411D01*
X144562953Y-123523878D01*
X144598277Y-123531871D01*
X144763638Y-123569289D01*
X144763642Y-123569290D01*
X144769186Y-123570544D01*
X144895315Y-123575500D01*
X144974789Y-123578623D01*
X144974791Y-123578623D01*
X144980470Y-123578846D01*
X144986090Y-123578031D01*
X144986092Y-123578031D01*
X145184103Y-123549320D01*
X145184104Y-123549320D01*
X145189730Y-123548504D01*
X145208588Y-123542103D01*
X145384565Y-123482367D01*
X145384568Y-123482366D01*
X145389955Y-123480537D01*
X145394916Y-123477759D01*
X145394922Y-123477756D01*
X145501530Y-123418052D01*
X145574442Y-123377219D01*
X145585038Y-123368407D01*
X145732645Y-123245644D01*
X145737012Y-123242012D01*
X145740644Y-123237645D01*
X145868584Y-123083813D01*
X145868585Y-123083811D01*
X145872219Y-123079442D01*
X145924800Y-122985553D01*
X145972756Y-122899922D01*
X145972759Y-122899916D01*
X145975537Y-122894955D01*
X146006009Y-122805189D01*
X146041675Y-122700118D01*
X146043504Y-122694730D01*
X146045954Y-122677831D01*
X146067820Y-122527033D01*
X146096921Y-122463512D01*
X146150225Y-122429346D01*
X146230974Y-122429346D01*
X146284347Y-122463736D01*
X146313296Y-122527327D01*
X146314271Y-122536707D01*
X146318796Y-122605749D01*
X146370845Y-122810690D01*
X146373219Y-122815841D01*
X146373221Y-122815845D01*
X146411052Y-122897906D01*
X146459369Y-123002714D01*
X146462647Y-123007352D01*
X146576895Y-123169009D01*
X146581405Y-123175391D01*
X146732865Y-123322937D01*
X146737588Y-123326093D01*
X146737592Y-123326096D01*
X146807632Y-123372895D01*
X146908677Y-123440411D01*
X147102953Y-123523878D01*
X147138277Y-123531871D01*
X147303638Y-123569289D01*
X147303642Y-123569290D01*
X147309186Y-123570544D01*
X147435315Y-123575500D01*
X147514789Y-123578623D01*
X147514791Y-123578623D01*
X147520470Y-123578846D01*
X147526090Y-123578031D01*
X147526092Y-123578031D01*
X147724103Y-123549320D01*
X147724104Y-123549320D01*
X147729730Y-123548504D01*
X147748588Y-123542103D01*
X147924565Y-123482367D01*
X147924568Y-123482366D01*
X147929955Y-123480537D01*
X147934916Y-123477759D01*
X147934922Y-123477756D01*
X148041530Y-123418052D01*
X148114442Y-123377219D01*
X148125038Y-123368407D01*
X148272645Y-123245644D01*
X148277012Y-123242012D01*
X148280644Y-123237645D01*
X148408584Y-123083813D01*
X148408585Y-123083811D01*
X148412219Y-123079442D01*
X148464800Y-122985553D01*
X148512756Y-122899922D01*
X148512759Y-122899916D01*
X148515537Y-122894955D01*
X148546009Y-122805189D01*
X148581675Y-122700118D01*
X148583504Y-122694730D01*
X148596406Y-122605749D01*
X148602783Y-122561769D01*
X148631884Y-122498248D01*
X148690707Y-122460543D01*
X148760577Y-122460627D01*
X148819310Y-122498471D01*
X148848259Y-122562061D01*
X148849500Y-122579562D01*
X148849500Y-123319646D01*
X148852618Y-123345846D01*
X148898061Y-123448153D01*
X148977287Y-123527241D01*
X148987758Y-123531870D01*
X148987759Y-123531871D01*
X149071147Y-123568737D01*
X149071149Y-123568738D01*
X149079673Y-123572506D01*
X149105354Y-123575500D01*
X150894646Y-123575500D01*
X150898300Y-123575065D01*
X150898302Y-123575065D01*
X150903266Y-123574474D01*
X150920846Y-123572382D01*
X151023153Y-123526939D01*
X151102241Y-123447713D01*
X151132178Y-123379998D01*
X151143737Y-123353853D01*
X151143738Y-123353851D01*
X151147506Y-123345327D01*
X151150500Y-123319646D01*
X151150500Y-121530354D01*
X151147382Y-121504154D01*
X151101939Y-121401847D01*
X151022713Y-121322759D01*
X151012242Y-121318130D01*
X151012241Y-121318129D01*
X150928853Y-121281263D01*
X150928851Y-121281262D01*
X150920327Y-121277494D01*
X150894646Y-121274500D01*
X149105354Y-121274500D01*
X149101700Y-121274935D01*
X149101698Y-121274935D01*
X149096734Y-121275526D01*
X149079154Y-121277618D01*
X148976847Y-121323061D01*
X148897759Y-121402287D01*
X148893130Y-121412758D01*
X148893129Y-121412759D01*
X148858876Y-121490238D01*
X148852494Y-121504673D01*
X148849500Y-121530354D01*
X148849500Y-122267727D01*
X148829815Y-122334766D01*
X148777011Y-122380521D01*
X148707853Y-122390465D01*
X148644297Y-122361440D01*
X148606523Y-122302662D01*
X148602020Y-122279073D01*
X148596601Y-122220101D01*
X148596601Y-122220100D01*
X148596081Y-122214440D01*
X148538686Y-122010931D01*
X148445165Y-121821290D01*
X148318651Y-121651867D01*
X148314481Y-121648012D01*
X148314478Y-121648009D01*
X148208552Y-121550093D01*
X148163381Y-121508337D01*
X148157574Y-121504673D01*
X147989363Y-121398539D01*
X147989361Y-121398538D01*
X147984554Y-121395505D01*
X147788160Y-121317152D01*
X147782579Y-121316042D01*
X147782576Y-121316041D01*
X147684468Y-121296527D01*
X147580775Y-121275901D01*
X147575088Y-121275827D01*
X147575083Y-121275826D01*
X147375034Y-121273207D01*
X147375029Y-121273207D01*
X147369346Y-121273133D01*
X147363742Y-121274096D01*
X147363741Y-121274096D01*
X147166550Y-121307979D01*
X147166547Y-121307980D01*
X147160953Y-121308941D01*
X146962575Y-121382127D01*
X146957697Y-121385029D01*
X146957695Y-121385030D01*
X146785740Y-121487332D01*
X146785737Y-121487334D01*
X146780856Y-121490238D01*
X146621881Y-121629655D01*
X146618362Y-121634119D01*
X146618359Y-121634122D01*
X146600782Y-121656419D01*
X146490976Y-121795708D01*
X146392523Y-121982836D01*
X146329820Y-122184773D01*
X146312851Y-122328140D01*
X146285425Y-122392398D01*
X146230974Y-122429346D01*
X146150225Y-122429346D01*
X146150667Y-122429063D01*
X146098057Y-122397081D01*
X146067453Y-122334271D01*
X146066232Y-122324909D01*
X146056601Y-122220100D01*
X146056081Y-122214440D01*
X145998686Y-122010931D01*
X145905165Y-121821290D01*
X145778651Y-121651867D01*
X145774481Y-121648012D01*
X145774478Y-121648009D01*
X145668552Y-121550093D01*
X145623381Y-121508337D01*
X145617574Y-121504673D01*
X145449363Y-121398539D01*
X145449361Y-121398538D01*
X145444554Y-121395505D01*
X145248160Y-121317152D01*
X145242579Y-121316042D01*
X145242576Y-121316041D01*
X145144468Y-121296527D01*
X145040775Y-121275901D01*
X145035088Y-121275827D01*
X145035083Y-121275826D01*
X144835034Y-121273207D01*
X144835029Y-121273207D01*
X144829346Y-121273133D01*
X144823742Y-121274096D01*
X144823741Y-121274096D01*
X144626550Y-121307979D01*
X144626547Y-121307980D01*
X144620953Y-121308941D01*
X144422575Y-121382127D01*
X144417697Y-121385029D01*
X144417695Y-121385030D01*
X144245740Y-121487332D01*
X144245737Y-121487334D01*
X144240856Y-121490238D01*
X144081881Y-121629655D01*
X144078362Y-121634119D01*
X144078359Y-121634122D01*
X144060782Y-121656419D01*
X143950976Y-121795708D01*
X143852523Y-121982836D01*
X143789820Y-122184773D01*
X143772851Y-122328140D01*
X143745425Y-122392398D01*
X143690974Y-122429346D01*
X143610225Y-122429346D01*
X143610667Y-122429063D01*
X143558057Y-122397081D01*
X143527453Y-122334271D01*
X143526232Y-122324909D01*
X143516601Y-122220100D01*
X143516081Y-122214440D01*
X143458686Y-122010931D01*
X143365165Y-121821290D01*
X143238651Y-121651867D01*
X143234481Y-121648012D01*
X143234478Y-121648009D01*
X143128552Y-121550093D01*
X143083381Y-121508337D01*
X143077574Y-121504673D01*
X142909363Y-121398539D01*
X142909361Y-121398538D01*
X142904554Y-121395505D01*
X142708160Y-121317152D01*
X142702579Y-121316042D01*
X142702576Y-121316041D01*
X142604468Y-121296527D01*
X142500775Y-121275901D01*
X142495088Y-121275827D01*
X142495083Y-121275826D01*
X142295034Y-121273207D01*
X142295029Y-121273207D01*
X142289346Y-121273133D01*
X142283742Y-121274096D01*
X142283741Y-121274096D01*
X142086550Y-121307979D01*
X142086547Y-121307980D01*
X142080953Y-121308941D01*
X141882575Y-121382127D01*
X141877697Y-121385029D01*
X141877695Y-121385030D01*
X141705740Y-121487332D01*
X141705737Y-121487334D01*
X141700856Y-121490238D01*
X141541881Y-121629655D01*
X141538362Y-121634119D01*
X141538359Y-121634122D01*
X141520782Y-121656419D01*
X141410976Y-121795708D01*
X141312523Y-121982836D01*
X141249820Y-122184773D01*
X141232851Y-122328140D01*
X141205425Y-122392398D01*
X141150974Y-122429346D01*
X141070225Y-122429346D01*
X141070667Y-122429063D01*
X141018057Y-122397081D01*
X140987453Y-122334271D01*
X140986232Y-122324909D01*
X140976601Y-122220100D01*
X140976081Y-122214440D01*
X140918686Y-122010931D01*
X140825165Y-121821290D01*
X140698651Y-121651867D01*
X140694481Y-121648012D01*
X140694478Y-121648009D01*
X140588552Y-121550093D01*
X140543381Y-121508337D01*
X140537574Y-121504673D01*
X140369363Y-121398539D01*
X140369361Y-121398538D01*
X140364554Y-121395505D01*
X140168160Y-121317152D01*
X140162579Y-121316042D01*
X140162576Y-121316041D01*
X140064468Y-121296527D01*
X139960775Y-121275901D01*
X139955088Y-121275827D01*
X139955083Y-121275826D01*
X139755034Y-121273207D01*
X139755029Y-121273207D01*
X139749346Y-121273133D01*
X139743742Y-121274096D01*
X139743741Y-121274096D01*
X139546550Y-121307979D01*
X139546547Y-121307980D01*
X139540953Y-121308941D01*
X139342575Y-121382127D01*
X139337697Y-121385029D01*
X139337695Y-121385030D01*
X139165740Y-121487332D01*
X139165737Y-121487334D01*
X139160856Y-121490238D01*
X139001881Y-121629655D01*
X138998362Y-121634119D01*
X138998359Y-121634122D01*
X138980782Y-121656419D01*
X138870976Y-121795708D01*
X138772523Y-121982836D01*
X138709820Y-122184773D01*
X138692851Y-122328140D01*
X138665425Y-122392398D01*
X138610974Y-122429346D01*
X138530225Y-122429346D01*
X138530667Y-122429063D01*
X138478057Y-122397081D01*
X138447453Y-122334271D01*
X138446232Y-122324909D01*
X138436601Y-122220100D01*
X138436081Y-122214440D01*
X138378686Y-122010931D01*
X138285165Y-121821290D01*
X138158651Y-121651867D01*
X138154481Y-121648012D01*
X138154478Y-121648009D01*
X138048552Y-121550093D01*
X138003381Y-121508337D01*
X137997574Y-121504673D01*
X137829363Y-121398539D01*
X137829361Y-121398538D01*
X137824554Y-121395505D01*
X137628160Y-121317152D01*
X137622579Y-121316042D01*
X137622576Y-121316041D01*
X137524468Y-121296527D01*
X137420775Y-121275901D01*
X137415088Y-121275827D01*
X137415083Y-121275826D01*
X137215034Y-121273207D01*
X137215029Y-121273207D01*
X137209346Y-121273133D01*
X137203742Y-121274096D01*
X137203741Y-121274096D01*
X137006550Y-121307979D01*
X137006547Y-121307980D01*
X137000953Y-121308941D01*
X136802575Y-121382127D01*
X136797697Y-121385029D01*
X136797695Y-121385030D01*
X136625740Y-121487332D01*
X136625737Y-121487334D01*
X136620856Y-121490238D01*
X136461881Y-121629655D01*
X136458362Y-121634119D01*
X136458359Y-121634122D01*
X136440782Y-121656419D01*
X136330976Y-121795708D01*
X136232523Y-121982836D01*
X136169820Y-122184773D01*
X136152851Y-122328140D01*
X136125425Y-122392398D01*
X136070974Y-122429346D01*
X135990225Y-122429346D01*
X135990667Y-122429063D01*
X135938057Y-122397081D01*
X135907453Y-122334271D01*
X135906232Y-122324909D01*
X135896601Y-122220100D01*
X135896081Y-122214440D01*
X135838686Y-122010931D01*
X135745165Y-121821290D01*
X135618651Y-121651867D01*
X135614481Y-121648012D01*
X135614478Y-121648009D01*
X135508552Y-121550093D01*
X135463381Y-121508337D01*
X135457574Y-121504673D01*
X135289363Y-121398539D01*
X135289361Y-121398538D01*
X135284554Y-121395505D01*
X135088160Y-121317152D01*
X135082579Y-121316042D01*
X135082576Y-121316041D01*
X134984468Y-121296527D01*
X134880775Y-121275901D01*
X134875088Y-121275827D01*
X134875083Y-121275826D01*
X134675034Y-121273207D01*
X134675029Y-121273207D01*
X134669346Y-121273133D01*
X134663742Y-121274096D01*
X134663741Y-121274096D01*
X134466550Y-121307979D01*
X134466547Y-121307980D01*
X134460953Y-121308941D01*
X134262575Y-121382127D01*
X134257697Y-121385029D01*
X134257695Y-121385030D01*
X134085740Y-121487332D01*
X134085737Y-121487334D01*
X134080856Y-121490238D01*
X133921881Y-121629655D01*
X133918362Y-121634119D01*
X133918359Y-121634122D01*
X133900782Y-121656419D01*
X133790976Y-121795708D01*
X133692523Y-121982836D01*
X133629820Y-122184773D01*
X133612851Y-122328140D01*
X133585425Y-122392398D01*
X133530974Y-122429346D01*
X133450225Y-122429346D01*
X133450667Y-122429063D01*
X133398057Y-122397081D01*
X133367453Y-122334271D01*
X133366232Y-122324909D01*
X133356601Y-122220100D01*
X133356081Y-122214440D01*
X133298686Y-122010931D01*
X133205165Y-121821290D01*
X133078651Y-121651867D01*
X133074481Y-121648012D01*
X133074478Y-121648009D01*
X132968552Y-121550093D01*
X132923381Y-121508337D01*
X132917574Y-121504673D01*
X132749363Y-121398539D01*
X132749361Y-121398538D01*
X132744554Y-121395505D01*
X132548160Y-121317152D01*
X132542579Y-121316042D01*
X132542576Y-121316041D01*
X132444468Y-121296527D01*
X132340775Y-121275901D01*
X132335088Y-121275827D01*
X132335083Y-121275826D01*
X132135034Y-121273207D01*
X132135029Y-121273207D01*
X132129346Y-121273133D01*
X132123742Y-121274096D01*
X132123741Y-121274096D01*
X131926550Y-121307979D01*
X131926547Y-121307980D01*
X131920953Y-121308941D01*
X131722575Y-121382127D01*
X131717697Y-121385029D01*
X131717695Y-121385030D01*
X131545740Y-121487332D01*
X131545737Y-121487334D01*
X131540856Y-121490238D01*
X131381881Y-121629655D01*
X131378362Y-121634119D01*
X131378359Y-121634122D01*
X131360782Y-121656419D01*
X131250976Y-121795708D01*
X131152523Y-121982836D01*
X131089820Y-122184773D01*
X131072851Y-122328140D01*
X131045425Y-122392398D01*
X130990974Y-122429346D01*
X130910225Y-122429346D01*
X130910667Y-122429063D01*
X130858057Y-122397081D01*
X130827453Y-122334271D01*
X130826232Y-122324909D01*
X130816601Y-122220100D01*
X130816081Y-122214440D01*
X130758686Y-122010931D01*
X130665165Y-121821290D01*
X130538651Y-121651867D01*
X130534481Y-121648012D01*
X130534478Y-121648009D01*
X130428552Y-121550093D01*
X130383381Y-121508337D01*
X130377574Y-121504673D01*
X130209363Y-121398539D01*
X130209361Y-121398538D01*
X130204554Y-121395505D01*
X130008160Y-121317152D01*
X130002579Y-121316042D01*
X130002576Y-121316041D01*
X129904468Y-121296527D01*
X129800775Y-121275901D01*
X129795088Y-121275827D01*
X129795083Y-121275826D01*
X129595034Y-121273207D01*
X129595029Y-121273207D01*
X129589346Y-121273133D01*
X129583742Y-121274096D01*
X129583741Y-121274096D01*
X129386550Y-121307979D01*
X129386547Y-121307980D01*
X129380953Y-121308941D01*
X129182575Y-121382127D01*
X129177697Y-121385029D01*
X129177695Y-121385030D01*
X129005740Y-121487332D01*
X129005737Y-121487334D01*
X129000856Y-121490238D01*
X128841881Y-121629655D01*
X128838362Y-121634119D01*
X128838359Y-121634122D01*
X128820782Y-121656419D01*
X128710976Y-121795708D01*
X128612523Y-121982836D01*
X128549820Y-122184773D01*
X128532851Y-122328140D01*
X128505425Y-122392398D01*
X128450974Y-122429346D01*
X128370225Y-122429346D01*
X128370667Y-122429063D01*
X128318057Y-122397081D01*
X128287453Y-122334271D01*
X128286232Y-122324909D01*
X128276601Y-122220100D01*
X128276081Y-122214440D01*
X128218686Y-122010931D01*
X128125165Y-121821290D01*
X127998651Y-121651867D01*
X127994481Y-121648012D01*
X127994478Y-121648009D01*
X127888552Y-121550093D01*
X127843381Y-121508337D01*
X127837574Y-121504673D01*
X127669363Y-121398539D01*
X127669361Y-121398538D01*
X127664554Y-121395505D01*
X127468160Y-121317152D01*
X127462579Y-121316042D01*
X127462576Y-121316041D01*
X127364468Y-121296527D01*
X127260775Y-121275901D01*
X127255088Y-121275827D01*
X127255083Y-121275826D01*
X127055034Y-121273207D01*
X127055029Y-121273207D01*
X127049346Y-121273133D01*
X127043742Y-121274096D01*
X127043741Y-121274096D01*
X126846550Y-121307979D01*
X126846547Y-121307980D01*
X126840953Y-121308941D01*
X126642575Y-121382127D01*
X126637697Y-121385029D01*
X126637695Y-121385030D01*
X126465740Y-121487332D01*
X126465737Y-121487334D01*
X126460856Y-121490238D01*
X126301881Y-121629655D01*
X126298362Y-121634119D01*
X126298359Y-121634122D01*
X126280782Y-121656419D01*
X126170976Y-121795708D01*
X126072523Y-121982836D01*
X126009820Y-122184773D01*
X125992851Y-122328140D01*
X125965425Y-122392398D01*
X125910974Y-122429346D01*
X125830225Y-122429346D01*
X125830667Y-122429063D01*
X125778057Y-122397081D01*
X125747453Y-122334271D01*
X125746232Y-122324909D01*
X125736601Y-122220100D01*
X125736081Y-122214440D01*
X125678686Y-122010931D01*
X125585165Y-121821290D01*
X125458651Y-121651867D01*
X125454481Y-121648012D01*
X125454478Y-121648009D01*
X125348552Y-121550093D01*
X125303381Y-121508337D01*
X125297574Y-121504673D01*
X125129363Y-121398539D01*
X125129361Y-121398538D01*
X125124554Y-121395505D01*
X124928160Y-121317152D01*
X124922579Y-121316042D01*
X124922576Y-121316041D01*
X124824468Y-121296527D01*
X124720775Y-121275901D01*
X124715088Y-121275827D01*
X124715083Y-121275826D01*
X124515034Y-121273207D01*
X124515029Y-121273207D01*
X124509346Y-121273133D01*
X124503742Y-121274096D01*
X124503741Y-121274096D01*
X124306550Y-121307979D01*
X124306547Y-121307980D01*
X124300953Y-121308941D01*
X124102575Y-121382127D01*
X124097697Y-121385029D01*
X124097695Y-121385030D01*
X123925740Y-121487332D01*
X123925737Y-121487334D01*
X123920856Y-121490238D01*
X123761881Y-121629655D01*
X123758362Y-121634119D01*
X123758359Y-121634122D01*
X123740782Y-121656419D01*
X123630976Y-121795708D01*
X123532523Y-121982836D01*
X123469820Y-122184773D01*
X123452851Y-122328140D01*
X123425425Y-122392398D01*
X123370974Y-122429346D01*
X123290225Y-122429346D01*
X123290667Y-122429063D01*
X123238057Y-122397081D01*
X123207453Y-122334271D01*
X123206232Y-122324909D01*
X123196601Y-122220100D01*
X123196081Y-122214440D01*
X123138686Y-122010931D01*
X123045165Y-121821290D01*
X122918651Y-121651867D01*
X122914481Y-121648012D01*
X122914478Y-121648009D01*
X122808552Y-121550093D01*
X122763381Y-121508337D01*
X122757574Y-121504673D01*
X122589363Y-121398539D01*
X122589361Y-121398538D01*
X122584554Y-121395505D01*
X122388160Y-121317152D01*
X122382579Y-121316042D01*
X122382576Y-121316041D01*
X122284468Y-121296527D01*
X122180775Y-121275901D01*
X122175088Y-121275827D01*
X122175083Y-121275826D01*
X121975034Y-121273207D01*
X121975029Y-121273207D01*
X121969346Y-121273133D01*
X121963742Y-121274096D01*
X121963741Y-121274096D01*
X121766550Y-121307979D01*
X121766547Y-121307980D01*
X121760953Y-121308941D01*
X121562575Y-121382127D01*
X121557697Y-121385029D01*
X121557695Y-121385030D01*
X121385740Y-121487332D01*
X121385737Y-121487334D01*
X121380856Y-121490238D01*
X121221881Y-121629655D01*
X121218362Y-121634119D01*
X121218359Y-121634122D01*
X121200782Y-121656419D01*
X121090976Y-121795708D01*
X120992523Y-121982836D01*
X120929820Y-122184773D01*
X120912851Y-122328140D01*
X120885425Y-122392398D01*
X120830974Y-122429346D01*
X120750225Y-122429346D01*
X120750667Y-122429063D01*
X120698057Y-122397081D01*
X120667453Y-122334271D01*
X120666232Y-122324909D01*
X120656601Y-122220100D01*
X120656081Y-122214440D01*
X120598686Y-122010931D01*
X120505165Y-121821290D01*
X120378651Y-121651867D01*
X120374481Y-121648012D01*
X120374478Y-121648009D01*
X120268552Y-121550093D01*
X120223381Y-121508337D01*
X120217574Y-121504673D01*
X120049363Y-121398539D01*
X120049361Y-121398538D01*
X120044554Y-121395505D01*
X119848160Y-121317152D01*
X119842579Y-121316042D01*
X119842576Y-121316041D01*
X119744468Y-121296527D01*
X119640775Y-121275901D01*
X119635088Y-121275827D01*
X119635083Y-121275826D01*
X119435034Y-121273207D01*
X119435029Y-121273207D01*
X119429346Y-121273133D01*
X119423742Y-121274096D01*
X119423741Y-121274096D01*
X119226550Y-121307979D01*
X119226547Y-121307980D01*
X119220953Y-121308941D01*
X119022575Y-121382127D01*
X119017697Y-121385029D01*
X119017695Y-121385030D01*
X118845740Y-121487332D01*
X118845737Y-121487334D01*
X118840856Y-121490238D01*
X118681881Y-121629655D01*
X118678362Y-121634119D01*
X118678359Y-121634122D01*
X118660782Y-121656419D01*
X118550976Y-121795708D01*
X118452523Y-121982836D01*
X118389820Y-122184773D01*
X118372851Y-122328140D01*
X118345425Y-122392398D01*
X118290974Y-122429346D01*
X118210225Y-122429346D01*
X118210667Y-122429063D01*
X118158057Y-122397081D01*
X118127453Y-122334271D01*
X118126232Y-122324909D01*
X118116601Y-122220100D01*
X118116081Y-122214440D01*
X118058686Y-122010931D01*
X117965165Y-121821290D01*
X117838651Y-121651867D01*
X117834481Y-121648012D01*
X117834478Y-121648009D01*
X117728552Y-121550093D01*
X117683381Y-121508337D01*
X117677574Y-121504673D01*
X117509363Y-121398539D01*
X117509361Y-121398538D01*
X117504554Y-121395505D01*
X117308160Y-121317152D01*
X117302579Y-121316042D01*
X117302576Y-121316041D01*
X117204468Y-121296527D01*
X117100775Y-121275901D01*
X117095088Y-121275827D01*
X117095083Y-121275826D01*
X116895034Y-121273207D01*
X116895029Y-121273207D01*
X116889346Y-121273133D01*
X116883742Y-121274096D01*
X116883741Y-121274096D01*
X116686550Y-121307979D01*
X116686547Y-121307980D01*
X116680953Y-121308941D01*
X116482575Y-121382127D01*
X116477697Y-121385029D01*
X116477695Y-121385030D01*
X116305740Y-121487332D01*
X116305737Y-121487334D01*
X116300856Y-121490238D01*
X116141881Y-121629655D01*
X116138362Y-121634119D01*
X116138359Y-121634122D01*
X116120782Y-121656419D01*
X116010976Y-121795708D01*
X116008325Y-121800747D01*
X115928685Y-121952117D01*
X115880050Y-122002281D01*
X115812015Y-122018187D01*
X115746181Y-121994786D01*
X115706565Y-121946786D01*
X115615890Y-121752333D01*
X115610492Y-121742983D01*
X115481216Y-121558357D01*
X115474281Y-121550093D01*
X115314909Y-121390721D01*
X115306643Y-121383785D01*
X115122008Y-121254502D01*
X115112676Y-121249114D01*
X114908397Y-121153857D01*
X114898264Y-121150168D01*
X114707221Y-121098978D01*
X114693347Y-121099309D01*
X114690000Y-121107125D01*
X114690000Y-123737806D01*
X114190000Y-123737806D01*
X114190000Y-122692830D01*
X114185596Y-122677831D01*
X114184226Y-122676644D01*
X114176668Y-122675000D01*
X113127194Y-122675000D01*
X113113877Y-122678910D01*
X113112667Y-122687326D01*
X95502431Y-122687326D01*
X95367411Y-122638316D01*
X95132729Y-122595878D01*
X95107748Y-122594700D01*
X94940120Y-122594700D01*
X94937504Y-122594922D01*
X94937503Y-122594922D01*
X94926237Y-122595878D01*
X94762366Y-122609783D01*
X94531526Y-122669697D01*
X94314082Y-122767648D01*
X94116250Y-122900837D01*
X93943687Y-123065453D01*
X93801327Y-123256792D01*
X93798948Y-123261470D01*
X93798948Y-123261471D01*
X93698378Y-123459279D01*
X93693242Y-123469380D01*
X93691683Y-123474400D01*
X93691682Y-123474403D01*
X93673926Y-123531586D01*
X93622520Y-123697141D01*
X93615423Y-123750691D01*
X93596212Y-123895637D01*
X93591185Y-123933562D01*
X90610961Y-123933562D01*
X90616920Y-122157779D01*
X113113978Y-122157779D01*
X113114309Y-122171653D01*
X113122125Y-122175000D01*
X114172170Y-122175000D01*
X114187169Y-122170596D01*
X114188356Y-122169226D01*
X114190000Y-122161668D01*
X114190000Y-121112194D01*
X114186090Y-121098877D01*
X114177674Y-121097667D01*
X113981736Y-121150168D01*
X113971603Y-121153857D01*
X113767333Y-121249110D01*
X113757983Y-121254508D01*
X113573357Y-121383784D01*
X113565093Y-121390719D01*
X113405719Y-121550093D01*
X113398784Y-121558357D01*
X113269508Y-121742983D01*
X113264110Y-121752333D01*
X113168857Y-121956603D01*
X113165168Y-121966736D01*
X113113978Y-122157779D01*
X90616920Y-122157779D01*
X90640715Y-115066788D01*
X105634722Y-115066788D01*
X105664054Y-115169082D01*
X105668494Y-115180296D01*
X105752594Y-115343936D01*
X105759135Y-115354085D01*
X105784070Y-115385545D01*
X105810286Y-115450310D01*
X105806526Y-115495186D01*
X105806265Y-115496143D01*
X105802494Y-115504673D01*
X105799500Y-115530354D01*
X105799500Y-116619646D01*
X105802618Y-116645846D01*
X105848061Y-116748153D01*
X105927287Y-116827241D01*
X105937758Y-116831870D01*
X105937759Y-116831871D01*
X106021147Y-116868737D01*
X106021149Y-116868738D01*
X106029673Y-116872506D01*
X106055354Y-116875500D01*
X107144646Y-116875500D01*
X107148300Y-116875065D01*
X107148302Y-116875065D01*
X107153266Y-116874474D01*
X107170846Y-116872382D01*
X107273153Y-116826939D01*
X107352241Y-116747713D01*
X107397506Y-116645327D01*
X107400500Y-116619646D01*
X107400500Y-115530354D01*
X107397382Y-115504154D01*
X107394573Y-115497830D01*
X107395764Y-115429235D01*
X107414972Y-115394711D01*
X107413639Y-115393771D01*
X107424096Y-115378947D01*
X107514969Y-115218980D01*
X107519880Y-115207950D01*
X107565132Y-115071917D01*
X107565625Y-115058048D01*
X107559534Y-115055000D01*
X105649172Y-115055000D01*
X105635855Y-115058910D01*
X105634722Y-115066788D01*
X90640715Y-115066788D01*
X90642443Y-114551881D01*
X105635242Y-114551881D01*
X105641700Y-114555000D01*
X107551319Y-114555000D01*
X107564636Y-114551090D01*
X107565711Y-114543614D01*
X107530773Y-114427892D01*
X107526172Y-114416731D01*
X107439799Y-114254285D01*
X107433119Y-114244232D01*
X107316839Y-114101659D01*
X107308897Y-114093661D01*
X107275625Y-114032222D01*
X107280851Y-113962548D01*
X107293596Y-113937669D01*
X107316483Y-113903222D01*
X107380257Y-113735336D01*
X107405251Y-113557493D01*
X107405565Y-113535000D01*
X107385546Y-113356528D01*
X107326485Y-113186927D01*
X107231316Y-113034625D01*
X107104770Y-112907193D01*
X106953136Y-112810963D01*
X106933219Y-112803871D01*
X106790479Y-112753043D01*
X106790475Y-112753042D01*
X106783951Y-112750719D01*
X106605624Y-112729455D01*
X106598735Y-112730179D01*
X106598732Y-112730179D01*
X106433913Y-112747502D01*
X106433911Y-112747502D01*
X106427017Y-112748227D01*
X106420456Y-112750461D01*
X106420454Y-112750461D01*
X106333718Y-112779989D01*
X106257007Y-112806103D01*
X106104045Y-112900206D01*
X105975732Y-113025859D01*
X105878446Y-113176817D01*
X105817022Y-113345578D01*
X105794514Y-113523753D01*
X105812039Y-113702486D01*
X105868726Y-113872896D01*
X105907951Y-113937664D01*
X105910057Y-113941141D01*
X105927947Y-114008682D01*
X105906482Y-114075173D01*
X105896701Y-114086860D01*
X105896951Y-114087070D01*
X105774791Y-114232655D01*
X105767971Y-114242616D01*
X105679342Y-114403832D01*
X105674582Y-114414936D01*
X105635541Y-114538007D01*
X105635242Y-114551881D01*
X90642443Y-114551881D01*
X90693288Y-99400041D01*
X90693313Y-99392611D01*
X103244394Y-99392611D01*
X103245214Y-99400039D01*
X103245214Y-99400041D01*
X103254316Y-99482487D01*
X103262999Y-99561135D01*
X103265565Y-99568147D01*
X103265566Y-99568151D01*
X103274903Y-99593665D01*
X103321266Y-99720356D01*
X103325433Y-99726558D01*
X103325435Y-99726561D01*
X103338510Y-99746018D01*
X103415830Y-99861083D01*
X103421360Y-99866115D01*
X103535702Y-99970159D01*
X103535706Y-99970162D01*
X103541233Y-99975191D01*
X103690235Y-100056092D01*
X103785585Y-100081107D01*
X103847005Y-100097220D01*
X103847007Y-100097220D01*
X103854233Y-100099116D01*
X103937178Y-100100419D01*
X104016290Y-100101662D01*
X104016293Y-100101662D01*
X104023760Y-100101779D01*
X104146209Y-100073735D01*
X104181738Y-100065598D01*
X104181739Y-100065598D01*
X104189029Y-100063928D01*
X104264111Y-100026166D01*
X104333820Y-99991106D01*
X104333822Y-99991105D01*
X104340498Y-99987747D01*
X104346180Y-99982894D01*
X104346183Y-99982892D01*
X104463741Y-99882487D01*
X104469423Y-99877634D01*
X104568361Y-99739947D01*
X104631601Y-99582634D01*
X104639572Y-99526626D01*
X104654918Y-99418800D01*
X104654918Y-99418794D01*
X104655490Y-99414778D01*
X104655645Y-99400000D01*
X104655157Y-99395965D01*
X104654934Y-99391914D01*
X104656666Y-99391819D01*
X104666960Y-99329895D01*
X104690916Y-99296187D01*
X105050284Y-98936819D01*
X105111607Y-98903334D01*
X105137965Y-98900500D01*
X121373161Y-98900500D01*
X121440200Y-98920185D01*
X121485955Y-98972989D01*
X121496412Y-99010893D01*
X121503325Y-99073506D01*
X121512999Y-99161135D01*
X121515565Y-99168147D01*
X121515566Y-99168151D01*
X121555632Y-99277634D01*
X121571266Y-99320356D01*
X121575433Y-99326558D01*
X121575435Y-99326561D01*
X121588510Y-99346018D01*
X121665830Y-99461083D01*
X121689353Y-99482487D01*
X121708954Y-99500323D01*
X121745290Y-99560001D01*
X121749500Y-99592037D01*
X121749500Y-101565897D01*
X121748641Y-101580471D01*
X121747138Y-101593174D01*
X121744636Y-101614310D01*
X121751332Y-101650974D01*
X121755176Y-101672022D01*
X121755816Y-101675864D01*
X121760197Y-101705000D01*
X121764551Y-101733962D01*
X121767679Y-101740475D01*
X121768975Y-101747573D01*
X121773248Y-101755799D01*
X121796033Y-101799663D01*
X121797769Y-101803137D01*
X121823191Y-101856079D01*
X121828016Y-101861299D01*
X121828165Y-101861520D01*
X121831421Y-101867788D01*
X121835725Y-101872828D01*
X121872994Y-101910097D01*
X121876369Y-101913607D01*
X121908853Y-101948749D01*
X121908856Y-101948751D01*
X121915146Y-101955556D01*
X121921484Y-101959237D01*
X121927725Y-101964828D01*
X128059058Y-108096161D01*
X128092543Y-108157484D01*
X128095370Y-108185139D01*
X128095369Y-108185203D01*
X128094394Y-108192611D01*
X128095214Y-108200039D01*
X128095214Y-108200040D01*
X128096841Y-108214778D01*
X128112999Y-108361135D01*
X128115565Y-108368147D01*
X128115566Y-108368151D01*
X128168697Y-108513336D01*
X128171266Y-108520356D01*
X128175433Y-108526558D01*
X128175435Y-108526561D01*
X128236421Y-108617317D01*
X128265830Y-108661083D01*
X128271360Y-108666115D01*
X128385702Y-108770159D01*
X128385706Y-108770162D01*
X128391233Y-108775191D01*
X128540235Y-108856092D01*
X128635585Y-108881107D01*
X128697005Y-108897220D01*
X128697007Y-108897220D01*
X128704233Y-108899116D01*
X128814313Y-108900845D01*
X128881034Y-108921580D01*
X128900046Y-108937149D01*
X129457333Y-109494436D01*
X129467031Y-109505349D01*
X129488128Y-109532110D01*
X129495753Y-109537380D01*
X129495754Y-109537381D01*
X129536397Y-109565471D01*
X129539566Y-109567735D01*
X129586817Y-109602635D01*
X129593634Y-109605029D01*
X129599569Y-109609131D01*
X129608408Y-109611926D01*
X129608409Y-109611927D01*
X129655519Y-109626826D01*
X129659162Y-109628041D01*
X129714631Y-109647520D01*
X129721733Y-109647799D01*
X129721995Y-109647851D01*
X129728730Y-109649980D01*
X129735337Y-109650500D01*
X129788043Y-109650500D01*
X129792912Y-109650596D01*
X129849994Y-109652839D01*
X129857078Y-109650960D01*
X129865443Y-109650500D01*
X136565897Y-109650500D01*
X136580471Y-109651359D01*
X136605105Y-109654275D01*
X136605108Y-109654275D01*
X136614310Y-109655364D01*
X136650975Y-109648668D01*
X136672022Y-109644824D01*
X136675864Y-109644184D01*
X136709017Y-109639199D01*
X136733962Y-109635449D01*
X136740475Y-109632321D01*
X136747573Y-109631025D01*
X136784339Y-109611927D01*
X136799663Y-109603967D01*
X136803146Y-109602227D01*
X136856079Y-109576809D01*
X136861299Y-109571984D01*
X136861520Y-109571835D01*
X136867788Y-109568579D01*
X136872828Y-109564275D01*
X136910097Y-109527006D01*
X136913607Y-109523631D01*
X136948749Y-109491147D01*
X136948751Y-109491144D01*
X136955556Y-109484854D01*
X136959237Y-109478516D01*
X136964828Y-109472275D01*
X139300336Y-107136767D01*
X139361659Y-107103282D01*
X139389964Y-107100463D01*
X139466290Y-107101662D01*
X139466293Y-107101662D01*
X139473760Y-107101779D01*
X139596209Y-107073735D01*
X139631738Y-107065598D01*
X139631739Y-107065598D01*
X139639029Y-107063928D01*
X139714111Y-107026166D01*
X139783820Y-106991106D01*
X139783822Y-106991105D01*
X139790498Y-106987747D01*
X139796180Y-106982894D01*
X139796183Y-106982892D01*
X139913741Y-106882487D01*
X139919423Y-106877634D01*
X140018361Y-106739947D01*
X140081601Y-106582634D01*
X140105490Y-106414778D01*
X140105645Y-106400000D01*
X140105157Y-106395965D01*
X140104934Y-106391914D01*
X140106666Y-106391819D01*
X140116960Y-106329895D01*
X140140916Y-106296187D01*
X142150284Y-104286819D01*
X142211607Y-104253334D01*
X142237965Y-104250500D01*
X142426558Y-104250500D01*
X142441132Y-104251359D01*
X142465766Y-104254275D01*
X142465769Y-104254275D01*
X142474971Y-104255364D01*
X142511636Y-104248668D01*
X142532683Y-104244824D01*
X142536525Y-104244184D01*
X142569678Y-104239199D01*
X142594623Y-104235449D01*
X142601136Y-104232321D01*
X142608234Y-104231025D01*
X142616460Y-104226752D01*
X142660324Y-104203967D01*
X142663807Y-104202227D01*
X142716740Y-104176809D01*
X142721960Y-104171984D01*
X142722181Y-104171835D01*
X142728449Y-104168579D01*
X142733489Y-104164275D01*
X142770758Y-104127006D01*
X142774268Y-104123631D01*
X142809410Y-104091147D01*
X142809412Y-104091144D01*
X142816217Y-104084854D01*
X142819898Y-104078516D01*
X142825489Y-104072275D01*
X143894436Y-103003328D01*
X143905349Y-102993630D01*
X143924830Y-102978272D01*
X143932110Y-102972533D01*
X143942334Y-102957741D01*
X143965471Y-102924264D01*
X143967735Y-102921095D01*
X143997132Y-102881294D01*
X144002635Y-102873844D01*
X144005029Y-102867027D01*
X144009131Y-102861092D01*
X144023872Y-102814484D01*
X144026826Y-102805142D01*
X144028041Y-102801499D01*
X144047520Y-102746030D01*
X144047799Y-102738928D01*
X144047851Y-102738666D01*
X144049980Y-102731931D01*
X144050500Y-102725324D01*
X144050500Y-102672602D01*
X144050596Y-102667734D01*
X144052838Y-102610667D01*
X144050960Y-102603586D01*
X144050500Y-102595223D01*
X144050500Y-101906584D01*
X158697408Y-101906584D01*
X158735034Y-102034425D01*
X158739555Y-102045614D01*
X158829338Y-102217352D01*
X158835944Y-102227447D01*
X158957373Y-102378475D01*
X158965820Y-102387100D01*
X159114267Y-102511662D01*
X159124231Y-102518485D01*
X159294039Y-102611837D01*
X159305143Y-102616597D01*
X159489857Y-102675192D01*
X159501664Y-102677701D01*
X159649580Y-102694292D01*
X159662169Y-102690596D01*
X159663356Y-102689226D01*
X159665000Y-102681668D01*
X159665000Y-102677170D01*
X160165000Y-102677170D01*
X160169404Y-102692169D01*
X160170774Y-102693356D01*
X160174755Y-102694222D01*
X160313897Y-102680579D01*
X160325736Y-102678235D01*
X160511260Y-102622222D01*
X160522413Y-102617625D01*
X160693518Y-102526646D01*
X160703574Y-102519965D01*
X160853741Y-102397492D01*
X160862313Y-102388981D01*
X160985841Y-102239661D01*
X160992584Y-102229664D01*
X160995956Y-102223427D01*
X161593819Y-102223427D01*
X161599212Y-102254812D01*
X161602143Y-102265748D01*
X161672953Y-102457688D01*
X161677823Y-102467899D01*
X161782426Y-102643723D01*
X161789080Y-102652881D01*
X161923971Y-102806694D01*
X161932180Y-102814484D01*
X162092843Y-102941141D01*
X162102336Y-102947306D01*
X162283392Y-103042563D01*
X162293853Y-103046896D01*
X162489224Y-103107560D01*
X162500306Y-103109916D01*
X162647293Y-103127313D01*
X162661488Y-103124909D01*
X162665000Y-103112371D01*
X162665000Y-102222830D01*
X162660596Y-102207831D01*
X162659226Y-102206644D01*
X162651668Y-102205000D01*
X161608483Y-102205000D01*
X161595725Y-102208746D01*
X161593819Y-102223427D01*
X160995956Y-102223427D01*
X161084756Y-102059195D01*
X161089433Y-102048068D01*
X161131543Y-101912031D01*
X161131745Y-101898154D01*
X161125097Y-101895000D01*
X160182830Y-101895000D01*
X160167831Y-101899404D01*
X160166644Y-101900774D01*
X160165000Y-101908332D01*
X160165000Y-102677170D01*
X159665000Y-102677170D01*
X159665000Y-101912830D01*
X159660596Y-101897831D01*
X159659226Y-101896644D01*
X159651668Y-101895000D01*
X158711829Y-101895000D01*
X158698512Y-101898910D01*
X158697408Y-101906584D01*
X144050500Y-101906584D01*
X144050500Y-101687512D01*
X161595102Y-101687512D01*
X161596236Y-101700184D01*
X161611148Y-101705000D01*
X162647170Y-101705000D01*
X162662169Y-101700596D01*
X162663356Y-101699226D01*
X162665000Y-101691668D01*
X162665000Y-100799688D01*
X162660796Y-100785371D01*
X162648856Y-100783341D01*
X162530616Y-100794206D01*
X162519486Y-100796269D01*
X162322583Y-100851801D01*
X162312016Y-100855857D01*
X162128537Y-100946340D01*
X162118877Y-100952259D01*
X161954955Y-101074665D01*
X161946545Y-101082237D01*
X161807676Y-101232466D01*
X161800781Y-101241451D01*
X161691616Y-101414467D01*
X161686475Y-101424558D01*
X161610670Y-101614564D01*
X161607449Y-101625436D01*
X161595102Y-101687512D01*
X144050500Y-101687512D01*
X144050500Y-100792611D01*
X154894394Y-100792611D01*
X154895214Y-100800039D01*
X154895214Y-100800041D01*
X154901376Y-100855857D01*
X154912999Y-100961135D01*
X154915565Y-100968147D01*
X154915566Y-100968151D01*
X154968697Y-101113336D01*
X154971266Y-101120356D01*
X154975433Y-101126558D01*
X154975435Y-101126561D01*
X154988510Y-101146018D01*
X155065830Y-101261083D01*
X155071360Y-101266115D01*
X155185702Y-101370159D01*
X155185706Y-101370162D01*
X155191233Y-101375191D01*
X155340235Y-101456092D01*
X155435585Y-101481107D01*
X155497005Y-101497220D01*
X155497007Y-101497220D01*
X155504233Y-101499116D01*
X155587178Y-101500419D01*
X155666290Y-101501662D01*
X155666293Y-101501662D01*
X155673760Y-101501779D01*
X155796209Y-101473735D01*
X155831738Y-101465598D01*
X155831739Y-101465598D01*
X155839029Y-101463928D01*
X155939499Y-101413397D01*
X155982349Y-101391846D01*
X158698255Y-101391846D01*
X158704903Y-101395000D01*
X159647170Y-101395000D01*
X159662169Y-101390596D01*
X159663356Y-101389226D01*
X159665000Y-101381668D01*
X159665000Y-101377170D01*
X160165000Y-101377170D01*
X160169404Y-101392169D01*
X160170774Y-101393356D01*
X160178332Y-101395000D01*
X161118171Y-101395000D01*
X161131488Y-101391090D01*
X161132592Y-101383416D01*
X161094966Y-101255575D01*
X161090445Y-101244386D01*
X161000662Y-101072648D01*
X160994056Y-101062553D01*
X160872627Y-100911525D01*
X160864180Y-100902900D01*
X160715733Y-100778338D01*
X160705769Y-100771515D01*
X160535961Y-100678163D01*
X160524857Y-100673403D01*
X160340143Y-100614808D01*
X160328336Y-100612299D01*
X160180420Y-100595708D01*
X160167831Y-100599404D01*
X160166644Y-100600774D01*
X160165000Y-100608332D01*
X160165000Y-101377170D01*
X159665000Y-101377170D01*
X159665000Y-100612830D01*
X159660596Y-100597831D01*
X159659226Y-100596644D01*
X159655245Y-100595778D01*
X159516103Y-100609421D01*
X159504264Y-100611765D01*
X159318740Y-100667778D01*
X159307587Y-100672375D01*
X159136482Y-100763354D01*
X159126426Y-100770035D01*
X158976259Y-100892508D01*
X158967687Y-100901019D01*
X158844159Y-101050339D01*
X158837416Y-101060336D01*
X158745244Y-101230805D01*
X158740567Y-101241932D01*
X158698457Y-101377969D01*
X158698255Y-101391846D01*
X155982349Y-101391846D01*
X155983820Y-101391106D01*
X155983822Y-101391105D01*
X155990498Y-101387747D01*
X155996180Y-101382894D01*
X155996183Y-101382892D01*
X156113741Y-101282487D01*
X156119423Y-101277634D01*
X156218361Y-101139947D01*
X156281601Y-100982634D01*
X156282654Y-100975237D01*
X156304918Y-100818800D01*
X156304918Y-100818794D01*
X156305490Y-100814778D01*
X156305645Y-100800000D01*
X156290201Y-100672375D01*
X156286175Y-100639105D01*
X156286174Y-100639101D01*
X156285276Y-100631680D01*
X156225345Y-100473077D01*
X156216657Y-100460436D01*
X156133549Y-100339513D01*
X156133546Y-100339510D01*
X156129312Y-100333349D01*
X156092011Y-100300115D01*
X156055052Y-100240821D01*
X156050500Y-100207532D01*
X156050500Y-99393665D01*
X156070185Y-99326626D01*
X156093968Y-99299375D01*
X156113741Y-99282487D01*
X156119423Y-99277634D01*
X156218361Y-99139947D01*
X156281601Y-98982634D01*
X156287867Y-98938607D01*
X156304918Y-98818800D01*
X156304918Y-98818794D01*
X156305490Y-98814778D01*
X156305645Y-98800000D01*
X156296326Y-98722989D01*
X156286175Y-98639105D01*
X156286174Y-98639101D01*
X156285276Y-98631680D01*
X156225345Y-98473077D01*
X156186846Y-98417061D01*
X156133549Y-98339513D01*
X156133546Y-98339510D01*
X156129312Y-98333349D01*
X156037608Y-98251643D01*
X156008303Y-98225533D01*
X156008301Y-98225532D01*
X156002721Y-98220560D01*
X155988347Y-98212949D01*
X155921820Y-98177725D01*
X155852881Y-98141224D01*
X155688441Y-98099919D01*
X155602248Y-98099468D01*
X155526368Y-98099070D01*
X155526367Y-98099070D01*
X155518895Y-98099031D01*
X155507449Y-98101779D01*
X155361295Y-98136868D01*
X155361293Y-98136869D01*
X155354032Y-98138612D01*
X155347399Y-98142035D01*
X155347395Y-98142037D01*
X155302623Y-98165146D01*
X155203369Y-98216375D01*
X155197737Y-98221288D01*
X155105513Y-98301740D01*
X155075604Y-98327831D01*
X154978113Y-98466547D01*
X154916524Y-98624513D01*
X154915548Y-98631923D01*
X154915548Y-98631925D01*
X154907023Y-98696683D01*
X154894394Y-98792611D01*
X154895214Y-98800039D01*
X154895214Y-98800041D01*
X154897285Y-98818800D01*
X154912999Y-98961135D01*
X154915565Y-98968147D01*
X154915566Y-98968151D01*
X154954121Y-99073506D01*
X154971266Y-99120356D01*
X154975433Y-99126558D01*
X154975435Y-99126561D01*
X155036421Y-99217317D01*
X155065830Y-99261083D01*
X155089353Y-99282487D01*
X155108954Y-99300323D01*
X155145290Y-99360001D01*
X155149500Y-99392037D01*
X155149500Y-100206989D01*
X155129815Y-100274028D01*
X155107015Y-100300430D01*
X155075604Y-100327831D01*
X154978113Y-100466547D01*
X154916524Y-100624513D01*
X154894394Y-100792611D01*
X144050500Y-100792611D01*
X144050500Y-98265824D01*
X144051847Y-98254054D01*
X144051364Y-98254016D01*
X144052091Y-98244779D01*
X144054185Y-98235745D01*
X144052862Y-98217061D01*
X144051768Y-98201604D01*
X144066669Y-98133342D01*
X144094925Y-98098558D01*
X144113740Y-98082488D01*
X144113741Y-98082487D01*
X144119423Y-98077634D01*
X144218361Y-97939947D01*
X144281601Y-97782634D01*
X144289118Y-97729815D01*
X144304918Y-97618800D01*
X144304918Y-97618794D01*
X144305490Y-97614778D01*
X144305645Y-97600000D01*
X144303575Y-97582892D01*
X144286175Y-97439105D01*
X144286174Y-97439101D01*
X144285276Y-97431680D01*
X144270513Y-97392611D01*
X144227989Y-97280073D01*
X144227987Y-97280070D01*
X144225345Y-97273077D01*
X144180996Y-97208549D01*
X144133549Y-97139513D01*
X144133546Y-97139510D01*
X144129312Y-97133349D01*
X144092011Y-97100115D01*
X144071111Y-97066584D01*
X158697408Y-97066584D01*
X158735034Y-97194425D01*
X158739555Y-97205614D01*
X158829338Y-97377352D01*
X158835944Y-97387447D01*
X158957373Y-97538475D01*
X158965820Y-97547100D01*
X159114267Y-97671662D01*
X159124231Y-97678485D01*
X159294039Y-97771837D01*
X159305143Y-97776597D01*
X159489857Y-97835192D01*
X159501664Y-97837701D01*
X159649580Y-97854292D01*
X159662169Y-97850596D01*
X159663356Y-97849226D01*
X159665000Y-97841668D01*
X159665000Y-97837170D01*
X160165000Y-97837170D01*
X160169404Y-97852169D01*
X160170774Y-97853356D01*
X160174755Y-97854222D01*
X160313897Y-97840579D01*
X160325736Y-97838235D01*
X160511260Y-97782222D01*
X160522413Y-97777625D01*
X160693518Y-97686646D01*
X160703574Y-97679965D01*
X160853741Y-97557492D01*
X160862313Y-97548981D01*
X160985841Y-97399661D01*
X160992584Y-97389664D01*
X161084756Y-97219195D01*
X161089433Y-97208068D01*
X161131543Y-97072031D01*
X161131745Y-97058154D01*
X161125097Y-97055000D01*
X160182830Y-97055000D01*
X160167831Y-97059404D01*
X160166644Y-97060774D01*
X160165000Y-97068332D01*
X160165000Y-97837170D01*
X159665000Y-97837170D01*
X159665000Y-97072830D01*
X159660596Y-97057831D01*
X159659226Y-97056644D01*
X159651668Y-97055000D01*
X158711829Y-97055000D01*
X158698512Y-97058910D01*
X158697408Y-97066584D01*
X144071111Y-97066584D01*
X144055052Y-97040821D01*
X144050500Y-97007532D01*
X144050500Y-96763427D01*
X161593819Y-96763427D01*
X161599212Y-96794812D01*
X161602143Y-96805748D01*
X161672953Y-96997688D01*
X161677823Y-97007899D01*
X161782426Y-97183723D01*
X161789080Y-97192881D01*
X161923971Y-97346694D01*
X161932180Y-97354484D01*
X162092843Y-97481141D01*
X162102336Y-97487306D01*
X162283392Y-97582563D01*
X162293853Y-97586896D01*
X162489224Y-97647560D01*
X162500306Y-97649916D01*
X162647293Y-97667313D01*
X162661488Y-97664909D01*
X162665000Y-97652371D01*
X162665000Y-97650312D01*
X163165000Y-97650312D01*
X163169204Y-97664629D01*
X163181144Y-97666659D01*
X163299384Y-97655794D01*
X163310514Y-97653731D01*
X163507417Y-97598199D01*
X163517984Y-97594143D01*
X163701463Y-97503660D01*
X163711123Y-97497741D01*
X163875045Y-97375335D01*
X163883455Y-97367763D01*
X164022324Y-97217534D01*
X164029219Y-97208549D01*
X164138384Y-97035533D01*
X164143525Y-97025442D01*
X164219330Y-96835436D01*
X164222551Y-96824564D01*
X164234898Y-96762488D01*
X164233764Y-96749816D01*
X164218852Y-96745000D01*
X163182830Y-96745000D01*
X163167831Y-96749404D01*
X163166644Y-96750774D01*
X163165000Y-96758332D01*
X163165000Y-97650312D01*
X162665000Y-97650312D01*
X162665000Y-96762830D01*
X162660596Y-96747831D01*
X162659226Y-96746644D01*
X162651668Y-96745000D01*
X161608483Y-96745000D01*
X161595725Y-96748746D01*
X161593819Y-96763427D01*
X144050500Y-96763427D01*
X144050500Y-96551846D01*
X158698255Y-96551846D01*
X158704903Y-96555000D01*
X159647170Y-96555000D01*
X159662169Y-96550596D01*
X159663356Y-96549226D01*
X159665000Y-96541668D01*
X159665000Y-96537170D01*
X160165000Y-96537170D01*
X160169404Y-96552169D01*
X160170774Y-96553356D01*
X160178332Y-96555000D01*
X161118171Y-96555000D01*
X161131488Y-96551090D01*
X161132592Y-96543416D01*
X161094966Y-96415575D01*
X161090445Y-96404386D01*
X161000662Y-96232648D01*
X160997301Y-96227512D01*
X161595102Y-96227512D01*
X161596236Y-96240184D01*
X161611148Y-96245000D01*
X162647170Y-96245000D01*
X162662169Y-96240596D01*
X162663356Y-96239226D01*
X162665000Y-96231668D01*
X162665000Y-96227170D01*
X163165000Y-96227170D01*
X163169404Y-96242169D01*
X163170774Y-96243356D01*
X163178332Y-96245000D01*
X164221517Y-96245000D01*
X164234275Y-96241254D01*
X164236181Y-96226573D01*
X164230788Y-96195188D01*
X164227857Y-96184252D01*
X164157047Y-95992312D01*
X164152177Y-95982101D01*
X164047574Y-95806277D01*
X164040920Y-95797119D01*
X163906029Y-95643306D01*
X163897820Y-95635516D01*
X163737157Y-95508859D01*
X163727664Y-95502694D01*
X163546608Y-95407437D01*
X163536147Y-95403104D01*
X163340776Y-95342440D01*
X163329694Y-95340084D01*
X163182707Y-95322687D01*
X163168512Y-95325091D01*
X163165000Y-95337629D01*
X163165000Y-96227170D01*
X162665000Y-96227170D01*
X162665000Y-95339688D01*
X162660796Y-95325371D01*
X162648856Y-95323341D01*
X162530616Y-95334206D01*
X162519486Y-95336269D01*
X162322583Y-95391801D01*
X162312016Y-95395857D01*
X162128537Y-95486340D01*
X162118877Y-95492259D01*
X161954955Y-95614665D01*
X161946545Y-95622237D01*
X161807676Y-95772466D01*
X161800781Y-95781451D01*
X161691616Y-95954467D01*
X161686475Y-95964558D01*
X161610670Y-96154564D01*
X161607449Y-96165436D01*
X161595102Y-96227512D01*
X160997301Y-96227512D01*
X160994056Y-96222553D01*
X160872627Y-96071525D01*
X160864180Y-96062900D01*
X160715733Y-95938338D01*
X160705769Y-95931515D01*
X160535961Y-95838163D01*
X160524857Y-95833403D01*
X160340143Y-95774808D01*
X160328336Y-95772299D01*
X160180420Y-95755708D01*
X160167831Y-95759404D01*
X160166644Y-95760774D01*
X160165000Y-95768332D01*
X160165000Y-96537170D01*
X159665000Y-96537170D01*
X159665000Y-95772830D01*
X159660596Y-95757831D01*
X159659226Y-95756644D01*
X159655245Y-95755778D01*
X159516103Y-95769421D01*
X159504264Y-95771765D01*
X159318740Y-95827778D01*
X159307587Y-95832375D01*
X159136482Y-95923354D01*
X159126426Y-95930035D01*
X158976259Y-96052508D01*
X158967687Y-96061019D01*
X158844159Y-96210339D01*
X158837416Y-96220336D01*
X158745244Y-96390805D01*
X158740567Y-96401932D01*
X158698457Y-96537969D01*
X158698255Y-96551846D01*
X144050500Y-96551846D01*
X144050500Y-96237965D01*
X144070185Y-96170926D01*
X144086819Y-96150284D01*
X146094436Y-94142667D01*
X146105349Y-94132969D01*
X146113105Y-94126855D01*
X146132110Y-94111872D01*
X146139732Y-94100845D01*
X146165473Y-94063600D01*
X146167737Y-94060432D01*
X146197125Y-94020644D01*
X146197129Y-94020636D01*
X146202634Y-94013183D01*
X146205027Y-94006369D01*
X146209131Y-94000431D01*
X146226827Y-93944478D01*
X146228059Y-93940784D01*
X146247520Y-93885369D01*
X146247799Y-93878267D01*
X146247851Y-93878005D01*
X146249980Y-93871270D01*
X146250500Y-93864663D01*
X146250500Y-93811941D01*
X146250596Y-93807073D01*
X146252474Y-93759266D01*
X146252838Y-93750006D01*
X146250960Y-93742925D01*
X146250500Y-93734562D01*
X146250500Y-87593665D01*
X146270185Y-87526626D01*
X146293968Y-87499375D01*
X146313741Y-87482487D01*
X146319423Y-87477634D01*
X146418361Y-87339947D01*
X146481601Y-87182634D01*
X146485718Y-87153707D01*
X146504918Y-87018800D01*
X146504918Y-87018794D01*
X146505490Y-87014778D01*
X146505645Y-87000000D01*
X146485276Y-86831680D01*
X146425345Y-86673077D01*
X146416657Y-86660436D01*
X146333549Y-86539513D01*
X146333546Y-86539510D01*
X146329312Y-86533349D01*
X146202721Y-86420560D01*
X146188347Y-86412949D01*
X146059489Y-86344723D01*
X146052881Y-86341224D01*
X145888441Y-86299919D01*
X145802248Y-86299468D01*
X145726368Y-86299070D01*
X145726367Y-86299070D01*
X145718895Y-86299031D01*
X145697235Y-86304231D01*
X145561295Y-86336868D01*
X145561293Y-86336869D01*
X145554032Y-86338612D01*
X145547399Y-86342035D01*
X145547395Y-86342037D01*
X145480465Y-86376583D01*
X145403369Y-86416375D01*
X145275604Y-86527831D01*
X145178113Y-86666547D01*
X145116524Y-86824513D01*
X145094394Y-86992611D01*
X145095214Y-87000039D01*
X145095214Y-87000041D01*
X145096841Y-87014778D01*
X145112999Y-87161135D01*
X145115565Y-87168147D01*
X145115566Y-87168151D01*
X145135012Y-87221288D01*
X145171266Y-87320356D01*
X145175433Y-87326558D01*
X145175435Y-87326561D01*
X145188510Y-87346018D01*
X145265830Y-87461083D01*
X145286700Y-87480073D01*
X145308954Y-87500323D01*
X145345290Y-87560001D01*
X145349500Y-87592037D01*
X145349500Y-93562035D01*
X145329815Y-93629074D01*
X145313181Y-93649716D01*
X143305564Y-95657333D01*
X143294651Y-95667031D01*
X143267890Y-95688128D01*
X143262620Y-95695753D01*
X143234510Y-95736426D01*
X143232281Y-95739546D01*
X143197366Y-95786816D01*
X143194973Y-95793632D01*
X143190869Y-95799569D01*
X143180494Y-95832375D01*
X143173175Y-95855516D01*
X143171943Y-95859209D01*
X143155552Y-95905884D01*
X143155551Y-95905888D01*
X143152481Y-95914631D01*
X143152202Y-95921735D01*
X143152153Y-95921986D01*
X143150020Y-95928730D01*
X143149500Y-95935337D01*
X143149500Y-95988068D01*
X143149404Y-95992937D01*
X143147162Y-96049994D01*
X143149040Y-96057078D01*
X143149500Y-96065438D01*
X143149500Y-97006989D01*
X143129815Y-97074028D01*
X143107015Y-97100430D01*
X143075604Y-97127831D01*
X142978113Y-97266547D01*
X142916524Y-97424513D01*
X142915548Y-97431923D01*
X142915548Y-97431925D01*
X142911047Y-97466115D01*
X142894394Y-97592611D01*
X142896523Y-97611893D01*
X142884315Y-97680686D01*
X142836851Y-97731960D01*
X142773272Y-97749500D01*
X141837965Y-97749500D01*
X141770926Y-97729815D01*
X141750284Y-97713181D01*
X137541736Y-93504633D01*
X137508251Y-93443310D01*
X137506269Y-93414786D01*
X137505490Y-93414778D01*
X137505602Y-93404065D01*
X137505645Y-93400000D01*
X137485276Y-93231680D01*
X137425345Y-93073077D01*
X137416657Y-93060436D01*
X137333549Y-92939513D01*
X137333546Y-92939510D01*
X137329312Y-92933349D01*
X137202721Y-92820560D01*
X137188347Y-92812949D01*
X137059489Y-92744723D01*
X137052881Y-92741224D01*
X136888441Y-92699919D01*
X136802248Y-92699468D01*
X136726368Y-92699070D01*
X136726367Y-92699070D01*
X136718895Y-92699031D01*
X136697235Y-92704231D01*
X136561295Y-92736868D01*
X136561293Y-92736869D01*
X136554032Y-92738612D01*
X136547399Y-92742035D01*
X136547395Y-92742037D01*
X136480465Y-92776583D01*
X136403369Y-92816375D01*
X136275604Y-92927831D01*
X136178113Y-93066547D01*
X136116524Y-93224513D01*
X136094394Y-93392611D01*
X136095214Y-93400039D01*
X136095214Y-93400041D01*
X136096841Y-93414778D01*
X136112999Y-93561135D01*
X136115565Y-93568147D01*
X136115566Y-93568151D01*
X136132124Y-93613397D01*
X136171266Y-93720356D01*
X136175433Y-93726558D01*
X136175435Y-93726561D01*
X136197412Y-93759266D01*
X136265830Y-93861083D01*
X136271360Y-93866115D01*
X136385702Y-93970159D01*
X136385706Y-93970162D01*
X136391233Y-93975191D01*
X136540235Y-94056092D01*
X136635585Y-94081107D01*
X136697005Y-94097220D01*
X136697007Y-94097220D01*
X136704233Y-94099116D01*
X136814313Y-94100845D01*
X136881034Y-94121580D01*
X136900046Y-94137149D01*
X141257333Y-98494436D01*
X141267031Y-98505349D01*
X141288128Y-98532110D01*
X141336446Y-98565505D01*
X141339546Y-98567719D01*
X141386816Y-98602634D01*
X141393632Y-98605027D01*
X141399569Y-98609131D01*
X141448743Y-98624683D01*
X141455516Y-98626825D01*
X141459209Y-98628057D01*
X141505884Y-98644448D01*
X141505888Y-98644449D01*
X141514631Y-98647519D01*
X141521735Y-98647798D01*
X141521986Y-98647847D01*
X141528730Y-98649980D01*
X141535337Y-98650500D01*
X141588068Y-98650500D01*
X141592937Y-98650596D01*
X141640727Y-98652474D01*
X141640728Y-98652474D01*
X141649994Y-98652838D01*
X141657078Y-98650960D01*
X141665438Y-98650500D01*
X143025500Y-98650500D01*
X143092539Y-98670185D01*
X143138294Y-98722989D01*
X143149500Y-98774500D01*
X143149500Y-102422696D01*
X143129815Y-102489735D01*
X143113181Y-102510377D01*
X142310377Y-103313181D01*
X142249054Y-103346666D01*
X142222696Y-103349500D01*
X142034103Y-103349500D01*
X142019529Y-103348641D01*
X141994893Y-103345725D01*
X141994892Y-103345725D01*
X141985690Y-103344636D01*
X141976574Y-103346301D01*
X141976567Y-103346301D01*
X141927938Y-103355182D01*
X141924102Y-103355821D01*
X141911004Y-103357791D01*
X141875202Y-103363173D01*
X141875201Y-103363173D01*
X141866038Y-103364551D01*
X141859528Y-103367677D01*
X141852427Y-103368974D01*
X141844201Y-103373247D01*
X141800322Y-103396039D01*
X141796840Y-103397779D01*
X141752277Y-103419178D01*
X141752275Y-103419179D01*
X141743921Y-103423191D01*
X141738701Y-103428017D01*
X141738488Y-103428160D01*
X141732212Y-103431420D01*
X141727172Y-103435725D01*
X141689903Y-103472994D01*
X141686393Y-103476369D01*
X141651251Y-103508853D01*
X141651249Y-103508856D01*
X141644444Y-103515146D01*
X141640763Y-103521484D01*
X141635172Y-103527725D01*
X139499699Y-105663198D01*
X139438376Y-105696683D01*
X139411369Y-105699515D01*
X139326368Y-105699070D01*
X139326367Y-105699070D01*
X139318895Y-105699031D01*
X139311631Y-105700775D01*
X139161295Y-105736868D01*
X139161293Y-105736869D01*
X139154032Y-105738612D01*
X139147399Y-105742035D01*
X139147395Y-105742037D01*
X139080465Y-105776583D01*
X139003369Y-105816375D01*
X138875604Y-105927831D01*
X138778113Y-106066547D01*
X138716524Y-106224513D01*
X138694394Y-106392611D01*
X138695405Y-106401772D01*
X138695183Y-106403025D01*
X138695136Y-106407516D01*
X138694387Y-106407508D01*
X138683199Y-106470563D01*
X138659836Y-106503061D01*
X136449716Y-108713181D01*
X136388393Y-108746666D01*
X136362035Y-108749500D01*
X130037966Y-108749500D01*
X129970927Y-108729815D01*
X129950285Y-108713181D01*
X129541736Y-108304633D01*
X129508251Y-108243310D01*
X129506269Y-108214786D01*
X129505490Y-108214778D01*
X129505602Y-108204065D01*
X129505645Y-108200000D01*
X129485276Y-108031680D01*
X129425345Y-107873077D01*
X129421108Y-107866912D01*
X129333549Y-107739513D01*
X129333546Y-107739510D01*
X129329312Y-107733349D01*
X129202721Y-107620560D01*
X129052881Y-107541224D01*
X128888441Y-107499919D01*
X128787208Y-107499389D01*
X128720272Y-107479354D01*
X128700176Y-107463072D01*
X122686819Y-101449716D01*
X122653334Y-101388393D01*
X122650500Y-101362035D01*
X122650500Y-99593665D01*
X122670185Y-99526626D01*
X122693968Y-99499375D01*
X122713741Y-99482487D01*
X122719423Y-99477634D01*
X122818361Y-99339947D01*
X122881601Y-99182634D01*
X122888663Y-99133014D01*
X122904918Y-99018800D01*
X122904918Y-99018794D01*
X122905490Y-99014778D01*
X122905645Y-99000000D01*
X122904382Y-98989564D01*
X122886175Y-98839105D01*
X122886174Y-98839101D01*
X122885276Y-98831680D01*
X122844205Y-98722989D01*
X122827989Y-98680073D01*
X122827987Y-98680070D01*
X122825345Y-98673077D01*
X122807974Y-98647802D01*
X122733549Y-98539513D01*
X122733546Y-98539510D01*
X122729312Y-98533349D01*
X122654745Y-98466912D01*
X122608303Y-98425533D01*
X122608301Y-98425532D01*
X122602721Y-98420560D01*
X122452881Y-98341224D01*
X122288441Y-98299919D01*
X122187207Y-98299389D01*
X122120271Y-98279354D01*
X122100175Y-98263072D01*
X121992667Y-98155564D01*
X121982969Y-98144651D01*
X121976543Y-98136500D01*
X121961872Y-98117890D01*
X121954002Y-98112450D01*
X121953796Y-98112197D01*
X121947489Y-98106274D01*
X121948302Y-98105409D01*
X121910042Y-98058143D01*
X121900500Y-98010441D01*
X121900500Y-95187965D01*
X121920185Y-95120926D01*
X121936819Y-95100284D01*
X128500336Y-88536767D01*
X128561659Y-88503282D01*
X128589964Y-88500463D01*
X128666290Y-88501662D01*
X128666293Y-88501662D01*
X128673760Y-88501779D01*
X128796209Y-88473735D01*
X128831738Y-88465598D01*
X128831739Y-88465598D01*
X128839029Y-88463928D01*
X128914111Y-88426166D01*
X128983820Y-88391106D01*
X128983822Y-88391105D01*
X128990498Y-88387747D01*
X128996180Y-88382894D01*
X128996183Y-88382892D01*
X129113741Y-88282487D01*
X129119423Y-88277634D01*
X129218361Y-88139947D01*
X129281601Y-87982634D01*
X129305490Y-87814778D01*
X129305645Y-87800000D01*
X129285276Y-87631680D01*
X129258191Y-87560001D01*
X129227989Y-87480073D01*
X129227987Y-87480070D01*
X129225345Y-87473077D01*
X129216657Y-87460436D01*
X129133549Y-87339513D01*
X129133546Y-87339510D01*
X129129312Y-87333349D01*
X129002721Y-87220560D01*
X128988347Y-87212949D01*
X128927801Y-87180892D01*
X128852881Y-87141224D01*
X128688441Y-87099919D01*
X128602248Y-87099468D01*
X128526368Y-87099070D01*
X128526367Y-87099070D01*
X128518895Y-87099031D01*
X128497235Y-87104231D01*
X128361295Y-87136868D01*
X128361293Y-87136869D01*
X128354032Y-87138612D01*
X128347399Y-87142035D01*
X128347395Y-87142037D01*
X128296801Y-87168151D01*
X128203369Y-87216375D01*
X128197737Y-87221288D01*
X128084173Y-87320356D01*
X128075604Y-87327831D01*
X127978113Y-87466547D01*
X127916524Y-87624513D01*
X127894394Y-87792611D01*
X127895405Y-87801772D01*
X127895183Y-87803025D01*
X127895136Y-87807516D01*
X127894387Y-87807508D01*
X127883199Y-87870563D01*
X127859836Y-87903061D01*
X121155564Y-94607333D01*
X121144651Y-94617031D01*
X121117890Y-94638128D01*
X121112620Y-94645753D01*
X121084510Y-94686426D01*
X121082281Y-94689546D01*
X121047366Y-94736816D01*
X121044973Y-94743632D01*
X121040869Y-94749569D01*
X121038074Y-94758408D01*
X121023175Y-94805516D01*
X121021943Y-94809209D01*
X121005552Y-94855884D01*
X121005551Y-94855888D01*
X121002481Y-94864631D01*
X121002202Y-94871735D01*
X121002153Y-94871986D01*
X121000020Y-94878730D01*
X120999500Y-94885337D01*
X120999500Y-94938068D01*
X120999404Y-94942937D01*
X120997162Y-94999994D01*
X120999040Y-95007078D01*
X120999500Y-95015438D01*
X120999500Y-97875500D01*
X120979815Y-97942539D01*
X120927011Y-97988294D01*
X120875500Y-97999500D01*
X104934103Y-97999500D01*
X104919529Y-97998641D01*
X104894893Y-97995725D01*
X104894892Y-97995725D01*
X104885690Y-97994636D01*
X104876574Y-97996301D01*
X104876567Y-97996301D01*
X104827938Y-98005182D01*
X104824102Y-98005821D01*
X104811004Y-98007791D01*
X104775202Y-98013173D01*
X104775201Y-98013173D01*
X104766038Y-98014551D01*
X104759528Y-98017677D01*
X104752427Y-98018974D01*
X104744202Y-98023247D01*
X104744201Y-98023247D01*
X104700349Y-98046027D01*
X104696875Y-98047763D01*
X104643921Y-98073191D01*
X104638699Y-98078018D01*
X104638483Y-98078163D01*
X104632212Y-98081421D01*
X104627172Y-98085725D01*
X104589903Y-98122994D01*
X104586393Y-98126369D01*
X104551251Y-98158853D01*
X104551249Y-98158856D01*
X104544444Y-98165146D01*
X104540763Y-98171484D01*
X104535172Y-98177725D01*
X104049699Y-98663198D01*
X103988376Y-98696683D01*
X103961369Y-98699515D01*
X103876368Y-98699070D01*
X103876367Y-98699070D01*
X103868895Y-98699031D01*
X103861631Y-98700775D01*
X103711295Y-98736868D01*
X103711293Y-98736869D01*
X103704032Y-98738612D01*
X103697399Y-98742035D01*
X103697395Y-98742037D01*
X103634500Y-98774500D01*
X103553369Y-98816375D01*
X103547737Y-98821288D01*
X103434369Y-98920185D01*
X103425604Y-98927831D01*
X103328113Y-99066547D01*
X103266524Y-99224513D01*
X103265548Y-99231923D01*
X103265548Y-99231925D01*
X103261047Y-99266115D01*
X103244394Y-99392611D01*
X90693313Y-99392611D01*
X90700024Y-97392611D01*
X101094394Y-97392611D01*
X101095214Y-97400039D01*
X101095214Y-97400041D01*
X101104848Y-97487306D01*
X101112999Y-97561135D01*
X101115565Y-97568147D01*
X101115566Y-97568151D01*
X101151855Y-97667313D01*
X101171266Y-97720356D01*
X101175433Y-97726558D01*
X101175435Y-97726561D01*
X101236421Y-97817317D01*
X101265830Y-97861083D01*
X101271360Y-97866115D01*
X101385702Y-97970159D01*
X101385706Y-97970162D01*
X101391233Y-97975191D01*
X101540235Y-98056092D01*
X101624102Y-98078094D01*
X101697005Y-98097220D01*
X101697007Y-98097220D01*
X101704233Y-98099116D01*
X101787178Y-98100419D01*
X101866290Y-98101662D01*
X101866293Y-98101662D01*
X101873760Y-98101779D01*
X102005688Y-98071564D01*
X102031738Y-98065598D01*
X102031739Y-98065598D01*
X102039029Y-98063928D01*
X102124050Y-98021167D01*
X102183820Y-97991106D01*
X102183822Y-97991105D01*
X102190498Y-97987747D01*
X102196180Y-97982894D01*
X102196183Y-97982892D01*
X102313741Y-97882487D01*
X102319423Y-97877634D01*
X102418361Y-97739947D01*
X102481601Y-97582634D01*
X102482661Y-97575191D01*
X102495634Y-97484029D01*
X102524568Y-97420432D01*
X102583292Y-97382573D01*
X102618397Y-97377500D01*
X106693594Y-97377500D01*
X106760633Y-97397185D01*
X106796516Y-97432341D01*
X106811657Y-97454874D01*
X106811660Y-97454878D01*
X106815830Y-97461083D01*
X106821360Y-97466115D01*
X106935702Y-97570159D01*
X106935706Y-97570162D01*
X106941233Y-97575191D01*
X107090235Y-97656092D01*
X107175592Y-97678485D01*
X107247005Y-97697220D01*
X107247007Y-97697220D01*
X107254233Y-97699116D01*
X107337178Y-97700419D01*
X107416290Y-97701662D01*
X107416293Y-97701662D01*
X107423760Y-97701779D01*
X107555260Y-97671662D01*
X107581738Y-97665598D01*
X107581739Y-97665598D01*
X107589029Y-97663928D01*
X107692493Y-97611891D01*
X107733820Y-97591106D01*
X107733822Y-97591105D01*
X107740498Y-97587747D01*
X107746180Y-97582894D01*
X107746183Y-97582892D01*
X107863741Y-97482487D01*
X107869423Y-97477634D01*
X107968361Y-97339947D01*
X108031601Y-97182634D01*
X108038615Y-97133349D01*
X108054918Y-97018800D01*
X108054918Y-97018794D01*
X108055490Y-97014778D01*
X108055645Y-97000000D01*
X108035276Y-96831680D01*
X108021345Y-96794812D01*
X107977989Y-96680073D01*
X107977987Y-96680070D01*
X107975345Y-96673077D01*
X107968786Y-96663533D01*
X107883549Y-96539513D01*
X107883546Y-96539510D01*
X107879312Y-96533349D01*
X107752721Y-96420560D01*
X107738347Y-96412949D01*
X107609489Y-96344723D01*
X107602881Y-96341224D01*
X107438441Y-96299919D01*
X107352248Y-96299468D01*
X107276368Y-96299070D01*
X107276367Y-96299070D01*
X107268895Y-96299031D01*
X107247235Y-96304231D01*
X107111295Y-96336868D01*
X107111293Y-96336869D01*
X107104032Y-96338612D01*
X107097399Y-96342035D01*
X107097395Y-96342037D01*
X107030465Y-96376583D01*
X106953369Y-96416375D01*
X106825604Y-96527831D01*
X106796108Y-96569800D01*
X106741455Y-96613330D01*
X106694657Y-96622500D01*
X102253496Y-96622500D01*
X102229242Y-96619918D01*
X102228046Y-96619862D01*
X102218029Y-96617705D01*
X102184783Y-96621640D01*
X102178847Y-96621990D01*
X102178854Y-96622078D01*
X102173747Y-96622500D01*
X102168638Y-96622500D01*
X102163600Y-96623339D01*
X102163595Y-96623339D01*
X102149659Y-96625659D01*
X102143877Y-96626482D01*
X102093224Y-96632477D01*
X102085016Y-96636418D01*
X102076030Y-96637914D01*
X102067013Y-96642779D01*
X102067014Y-96642779D01*
X102031104Y-96662155D01*
X102025933Y-96664790D01*
X101979934Y-96686878D01*
X101979486Y-96685946D01*
X101919303Y-96703754D01*
X101903223Y-96701787D01*
X101903111Y-96702677D01*
X101895688Y-96701739D01*
X101888441Y-96699919D01*
X101802248Y-96699468D01*
X101726368Y-96699070D01*
X101726367Y-96699070D01*
X101718895Y-96699031D01*
X101711631Y-96700775D01*
X101561295Y-96736868D01*
X101561293Y-96736869D01*
X101554032Y-96738612D01*
X101547399Y-96742035D01*
X101547395Y-96742037D01*
X101480465Y-96776583D01*
X101403369Y-96816375D01*
X101275604Y-96927831D01*
X101178113Y-97066547D01*
X101116524Y-97224513D01*
X101115548Y-97231923D01*
X101115548Y-97231925D01*
X101105459Y-97308562D01*
X101094394Y-97392611D01*
X90700024Y-97392611D01*
X90706736Y-95392611D01*
X101094394Y-95392611D01*
X101112999Y-95561135D01*
X101115565Y-95568147D01*
X101115566Y-95568151D01*
X101168697Y-95713336D01*
X101171266Y-95720356D01*
X101175433Y-95726558D01*
X101175435Y-95726561D01*
X101226570Y-95802658D01*
X101265830Y-95861083D01*
X101271360Y-95866115D01*
X101385702Y-95970159D01*
X101385706Y-95970162D01*
X101391233Y-95975191D01*
X101540235Y-96056092D01*
X101635585Y-96081107D01*
X101697005Y-96097220D01*
X101697007Y-96097220D01*
X101704233Y-96099116D01*
X101787178Y-96100419D01*
X101866290Y-96101662D01*
X101866293Y-96101662D01*
X101873760Y-96101779D01*
X102005858Y-96071525D01*
X102031738Y-96065598D01*
X102031739Y-96065598D01*
X102039029Y-96063928D01*
X102181422Y-95992312D01*
X102183820Y-95991106D01*
X102183822Y-95991105D01*
X102190498Y-95987747D01*
X102196180Y-95982894D01*
X102196183Y-95982892D01*
X102313741Y-95882487D01*
X102319423Y-95877634D01*
X102418361Y-95739947D01*
X102421148Y-95733015D01*
X102421152Y-95733007D01*
X102452411Y-95655249D01*
X102495680Y-95600390D01*
X102567462Y-95577500D01*
X107693594Y-95577500D01*
X107760633Y-95597185D01*
X107796516Y-95632341D01*
X107811657Y-95654874D01*
X107811660Y-95654878D01*
X107815830Y-95661083D01*
X107821360Y-95666115D01*
X107935702Y-95770159D01*
X107935706Y-95770162D01*
X107941233Y-95775191D01*
X108090235Y-95856092D01*
X108185585Y-95881107D01*
X108247005Y-95897220D01*
X108247007Y-95897220D01*
X108254233Y-95899116D01*
X108337178Y-95900419D01*
X108416290Y-95901662D01*
X108416293Y-95901662D01*
X108423760Y-95901779D01*
X108555688Y-95871564D01*
X108581738Y-95865598D01*
X108581739Y-95865598D01*
X108589029Y-95863928D01*
X108664111Y-95826166D01*
X108733820Y-95791106D01*
X108733822Y-95791105D01*
X108740498Y-95787747D01*
X108746180Y-95782894D01*
X108746183Y-95782892D01*
X108863741Y-95682487D01*
X108869423Y-95677634D01*
X108968361Y-95539947D01*
X109031601Y-95382634D01*
X109032654Y-95375237D01*
X109054918Y-95218800D01*
X109054918Y-95218794D01*
X109055490Y-95214778D01*
X109055645Y-95200000D01*
X109040338Y-95073506D01*
X109036175Y-95039105D01*
X109036174Y-95039101D01*
X109035276Y-95031680D01*
X108975345Y-94873077D01*
X108969540Y-94864631D01*
X108883549Y-94739513D01*
X108883546Y-94739510D01*
X108879312Y-94733349D01*
X108752721Y-94620560D01*
X108738347Y-94612949D01*
X108609489Y-94544723D01*
X108602881Y-94541224D01*
X108438441Y-94499919D01*
X108352248Y-94499468D01*
X108276368Y-94499070D01*
X108276367Y-94499070D01*
X108268895Y-94499031D01*
X108247235Y-94504231D01*
X108111295Y-94536868D01*
X108111293Y-94536869D01*
X108104032Y-94538612D01*
X108097399Y-94542035D01*
X108097395Y-94542037D01*
X108030465Y-94576583D01*
X107953369Y-94616375D01*
X107947737Y-94621288D01*
X107858574Y-94699070D01*
X107825604Y-94727831D01*
X107804114Y-94758408D01*
X107796108Y-94769800D01*
X107741455Y-94813330D01*
X107694657Y-94822500D01*
X102237187Y-94822500D01*
X102179164Y-94808087D01*
X102068455Y-94749470D01*
X102052881Y-94741224D01*
X101888441Y-94699919D01*
X101802248Y-94699468D01*
X101726368Y-94699070D01*
X101726367Y-94699070D01*
X101718895Y-94699031D01*
X101697235Y-94704231D01*
X101561295Y-94736868D01*
X101561293Y-94736869D01*
X101554032Y-94738612D01*
X101547399Y-94742035D01*
X101547395Y-94742037D01*
X101493606Y-94769800D01*
X101403369Y-94816375D01*
X101397737Y-94821288D01*
X101331890Y-94878730D01*
X101275604Y-94927831D01*
X101178113Y-95066547D01*
X101116524Y-95224513D01*
X101094394Y-95392611D01*
X90706736Y-95392611D01*
X90778986Y-73862326D01*
X113112667Y-73862326D01*
X113165168Y-74058264D01*
X113168857Y-74068397D01*
X113264110Y-74272667D01*
X113269508Y-74282017D01*
X113398784Y-74466643D01*
X113405719Y-74474907D01*
X113565091Y-74634279D01*
X113573357Y-74641215D01*
X113757992Y-74770498D01*
X113767324Y-74775886D01*
X113971603Y-74871143D01*
X113981736Y-74874832D01*
X114172779Y-74926022D01*
X114186653Y-74925691D01*
X114190000Y-74917875D01*
X114190000Y-74912806D01*
X114690000Y-74912806D01*
X114693910Y-74926123D01*
X114702326Y-74927333D01*
X114898264Y-74874832D01*
X114908397Y-74871143D01*
X115112676Y-74775886D01*
X115122008Y-74770498D01*
X115306643Y-74641215D01*
X115314909Y-74634279D01*
X115474281Y-74474907D01*
X115481211Y-74466648D01*
X115608425Y-74284968D01*
X115663002Y-74241344D01*
X115732501Y-74234151D01*
X115794855Y-74265673D01*
X115811575Y-74284968D01*
X115938789Y-74466648D01*
X115945719Y-74474907D01*
X116105091Y-74634279D01*
X116113357Y-74641215D01*
X116297992Y-74770498D01*
X116307324Y-74775886D01*
X116511603Y-74871143D01*
X116521736Y-74874832D01*
X116712779Y-74926022D01*
X116726653Y-74925691D01*
X116730000Y-74917875D01*
X116730000Y-74912806D01*
X117230000Y-74912806D01*
X117233910Y-74926123D01*
X117242326Y-74927333D01*
X117438264Y-74874832D01*
X117448397Y-74871143D01*
X117652676Y-74775886D01*
X117662008Y-74770498D01*
X117846643Y-74641215D01*
X117854909Y-74634279D01*
X118014281Y-74474907D01*
X118021211Y-74466648D01*
X118148425Y-74284968D01*
X118203002Y-74241344D01*
X118272501Y-74234151D01*
X118334855Y-74265673D01*
X118351575Y-74284968D01*
X118478789Y-74466648D01*
X118485719Y-74474907D01*
X118645091Y-74634279D01*
X118653357Y-74641215D01*
X118837992Y-74770498D01*
X118847324Y-74775886D01*
X119051603Y-74871143D01*
X119061736Y-74874832D01*
X119252779Y-74926022D01*
X119266653Y-74925691D01*
X119270000Y-74917875D01*
X119270000Y-74912806D01*
X119770000Y-74912806D01*
X119773910Y-74926123D01*
X119782326Y-74927333D01*
X119978264Y-74874832D01*
X119988397Y-74871143D01*
X120192676Y-74775886D01*
X120202008Y-74770498D01*
X120386643Y-74641215D01*
X120394909Y-74634279D01*
X120554281Y-74474907D01*
X120561216Y-74466643D01*
X120690492Y-74282017D01*
X120695890Y-74272667D01*
X120787656Y-74075876D01*
X120833829Y-74023437D01*
X120901022Y-74004285D01*
X120967903Y-74024501D01*
X121012648Y-74076368D01*
X121059369Y-74177714D01*
X121062647Y-74182352D01*
X121135169Y-74284968D01*
X121181405Y-74350391D01*
X121332865Y-74497937D01*
X121337588Y-74501093D01*
X121337592Y-74501096D01*
X121408663Y-74548584D01*
X121508677Y-74615411D01*
X121702953Y-74698878D01*
X121738277Y-74706871D01*
X121903638Y-74744289D01*
X121903642Y-74744290D01*
X121909186Y-74745544D01*
X122035315Y-74750500D01*
X122114789Y-74753623D01*
X122114791Y-74753623D01*
X122120470Y-74753846D01*
X122126090Y-74753031D01*
X122126092Y-74753031D01*
X122324103Y-74724320D01*
X122324104Y-74724320D01*
X122329730Y-74723504D01*
X122348588Y-74717103D01*
X122524565Y-74657367D01*
X122524568Y-74657366D01*
X122529955Y-74655537D01*
X122534916Y-74652759D01*
X122534922Y-74652756D01*
X122641530Y-74593052D01*
X122714442Y-74552219D01*
X122752165Y-74520846D01*
X122872645Y-74420644D01*
X122877012Y-74417012D01*
X122880644Y-74412645D01*
X123008584Y-74258813D01*
X123008585Y-74258811D01*
X123012219Y-74254442D01*
X123111946Y-74076368D01*
X123112756Y-74074922D01*
X123112759Y-74074916D01*
X123115537Y-74069955D01*
X123146009Y-73980189D01*
X123181675Y-73875118D01*
X123183504Y-73869730D01*
X123185954Y-73852831D01*
X123207820Y-73702033D01*
X123236921Y-73638512D01*
X123290225Y-73604346D01*
X123370974Y-73604346D01*
X123424347Y-73638736D01*
X123453296Y-73702327D01*
X123454271Y-73711707D01*
X123458796Y-73780749D01*
X123510845Y-73985690D01*
X123513219Y-73990841D01*
X123513221Y-73990845D01*
X123551981Y-74074922D01*
X123599369Y-74177714D01*
X123602647Y-74182352D01*
X123675169Y-74284968D01*
X123721405Y-74350391D01*
X123872865Y-74497937D01*
X123877588Y-74501093D01*
X123877592Y-74501096D01*
X123948663Y-74548584D01*
X124048677Y-74615411D01*
X124242953Y-74698878D01*
X124278277Y-74706871D01*
X124443638Y-74744289D01*
X124443642Y-74744290D01*
X124449186Y-74745544D01*
X124575315Y-74750500D01*
X124654789Y-74753623D01*
X124654791Y-74753623D01*
X124660470Y-74753846D01*
X124666090Y-74753031D01*
X124666092Y-74753031D01*
X124864103Y-74724320D01*
X124864104Y-74724320D01*
X124869730Y-74723504D01*
X124888588Y-74717103D01*
X125064565Y-74657367D01*
X125064568Y-74657366D01*
X125069955Y-74655537D01*
X125074916Y-74652759D01*
X125074922Y-74652756D01*
X125181530Y-74593052D01*
X125254442Y-74552219D01*
X125292165Y-74520846D01*
X125412645Y-74420644D01*
X125417012Y-74417012D01*
X125420644Y-74412645D01*
X125548584Y-74258813D01*
X125548585Y-74258811D01*
X125552219Y-74254442D01*
X125651946Y-74076368D01*
X125652756Y-74074922D01*
X125652759Y-74074916D01*
X125655537Y-74069955D01*
X125686009Y-73980189D01*
X125721675Y-73875118D01*
X125723504Y-73869730D01*
X125725954Y-73852831D01*
X125747820Y-73702033D01*
X125776921Y-73638512D01*
X125830225Y-73604346D01*
X125910974Y-73604346D01*
X125964347Y-73638736D01*
X125993296Y-73702327D01*
X125994271Y-73711707D01*
X125998796Y-73780749D01*
X126050845Y-73985690D01*
X126053219Y-73990841D01*
X126053221Y-73990845D01*
X126091981Y-74074922D01*
X126139369Y-74177714D01*
X126142647Y-74182352D01*
X126215169Y-74284968D01*
X126261405Y-74350391D01*
X126412865Y-74497937D01*
X126417588Y-74501093D01*
X126417592Y-74501096D01*
X126488663Y-74548584D01*
X126588677Y-74615411D01*
X126782953Y-74698878D01*
X126818277Y-74706871D01*
X126983638Y-74744289D01*
X126983642Y-74744290D01*
X126989186Y-74745544D01*
X127115315Y-74750500D01*
X127194789Y-74753623D01*
X127194791Y-74753623D01*
X127200470Y-74753846D01*
X127206090Y-74753031D01*
X127206092Y-74753031D01*
X127404103Y-74724320D01*
X127404104Y-74724320D01*
X127409730Y-74723504D01*
X127428588Y-74717103D01*
X127604565Y-74657367D01*
X127604568Y-74657366D01*
X127609955Y-74655537D01*
X127614916Y-74652759D01*
X127614922Y-74652756D01*
X127721530Y-74593052D01*
X127794442Y-74552219D01*
X127832165Y-74520846D01*
X127952645Y-74420644D01*
X127957012Y-74417012D01*
X127960644Y-74412645D01*
X128088584Y-74258813D01*
X128088585Y-74258811D01*
X128092219Y-74254442D01*
X128191946Y-74076368D01*
X128192756Y-74074922D01*
X128192759Y-74074916D01*
X128195537Y-74069955D01*
X128226009Y-73980189D01*
X128261675Y-73875118D01*
X128263504Y-73869730D01*
X128265954Y-73852831D01*
X128287820Y-73702033D01*
X128316921Y-73638512D01*
X128370225Y-73604346D01*
X128450974Y-73604346D01*
X128504347Y-73638736D01*
X128533296Y-73702327D01*
X128534271Y-73711707D01*
X128538796Y-73780749D01*
X128590845Y-73985690D01*
X128593219Y-73990841D01*
X128593221Y-73990845D01*
X128631981Y-74074922D01*
X128679369Y-74177714D01*
X128682647Y-74182352D01*
X128755169Y-74284968D01*
X128801405Y-74350391D01*
X128952865Y-74497937D01*
X128957588Y-74501093D01*
X128957592Y-74501096D01*
X129028663Y-74548584D01*
X129128677Y-74615411D01*
X129322953Y-74698878D01*
X129358277Y-74706871D01*
X129523638Y-74744289D01*
X129523642Y-74744290D01*
X129529186Y-74745544D01*
X129655315Y-74750500D01*
X129734789Y-74753623D01*
X129734791Y-74753623D01*
X129740470Y-74753846D01*
X129746090Y-74753031D01*
X129746092Y-74753031D01*
X129944103Y-74724320D01*
X129944104Y-74724320D01*
X129949730Y-74723504D01*
X129968588Y-74717103D01*
X130144565Y-74657367D01*
X130144568Y-74657366D01*
X130149955Y-74655537D01*
X130154916Y-74652759D01*
X130154922Y-74652756D01*
X130261530Y-74593052D01*
X130334442Y-74552219D01*
X130372165Y-74520846D01*
X130492645Y-74420644D01*
X130497012Y-74417012D01*
X130500644Y-74412645D01*
X130628584Y-74258813D01*
X130628585Y-74258811D01*
X130632219Y-74254442D01*
X130731946Y-74076368D01*
X130732756Y-74074922D01*
X130732759Y-74074916D01*
X130735537Y-74069955D01*
X130766009Y-73980189D01*
X130801675Y-73875118D01*
X130803504Y-73869730D01*
X130805954Y-73852831D01*
X130827820Y-73702033D01*
X130856921Y-73638512D01*
X130910225Y-73604346D01*
X130990974Y-73604346D01*
X131044347Y-73638736D01*
X131073296Y-73702327D01*
X131074271Y-73711707D01*
X131078796Y-73780749D01*
X131130845Y-73985690D01*
X131133219Y-73990841D01*
X131133221Y-73990845D01*
X131171981Y-74074922D01*
X131219369Y-74177714D01*
X131222647Y-74182352D01*
X131295169Y-74284968D01*
X131341405Y-74350391D01*
X131492865Y-74497937D01*
X131497588Y-74501093D01*
X131497592Y-74501096D01*
X131568663Y-74548584D01*
X131668677Y-74615411D01*
X131862953Y-74698878D01*
X131898277Y-74706871D01*
X132063638Y-74744289D01*
X132063642Y-74744290D01*
X132069186Y-74745544D01*
X132195315Y-74750500D01*
X132274789Y-74753623D01*
X132274791Y-74753623D01*
X132280470Y-74753846D01*
X132286090Y-74753031D01*
X132286092Y-74753031D01*
X132484103Y-74724320D01*
X132484104Y-74724320D01*
X132489730Y-74723504D01*
X132508588Y-74717103D01*
X132684565Y-74657367D01*
X132684568Y-74657366D01*
X132689955Y-74655537D01*
X132694916Y-74652759D01*
X132694922Y-74652756D01*
X132801530Y-74593052D01*
X132874442Y-74552219D01*
X132912165Y-74520846D01*
X133032645Y-74420644D01*
X133037012Y-74417012D01*
X133040644Y-74412645D01*
X133168584Y-74258813D01*
X133168585Y-74258811D01*
X133172219Y-74254442D01*
X133271946Y-74076368D01*
X133272756Y-74074922D01*
X133272759Y-74074916D01*
X133275537Y-74069955D01*
X133306009Y-73980189D01*
X133341675Y-73875118D01*
X133343504Y-73869730D01*
X133345954Y-73852831D01*
X133367820Y-73702033D01*
X133396921Y-73638512D01*
X133450225Y-73604346D01*
X133530974Y-73604346D01*
X133584347Y-73638736D01*
X133613296Y-73702327D01*
X133614271Y-73711707D01*
X133618796Y-73780749D01*
X133670845Y-73985690D01*
X133673219Y-73990841D01*
X133673221Y-73990845D01*
X133711981Y-74074922D01*
X133759369Y-74177714D01*
X133762647Y-74182352D01*
X133835169Y-74284968D01*
X133881405Y-74350391D01*
X134032865Y-74497937D01*
X134037588Y-74501093D01*
X134037592Y-74501096D01*
X134108663Y-74548584D01*
X134208677Y-74615411D01*
X134402953Y-74698878D01*
X134438277Y-74706871D01*
X134603638Y-74744289D01*
X134603642Y-74744290D01*
X134609186Y-74745544D01*
X134735315Y-74750500D01*
X134814789Y-74753623D01*
X134814791Y-74753623D01*
X134820470Y-74753846D01*
X134826090Y-74753031D01*
X134826092Y-74753031D01*
X135024103Y-74724320D01*
X135024104Y-74724320D01*
X135029730Y-74723504D01*
X135048588Y-74717103D01*
X135224565Y-74657367D01*
X135224568Y-74657366D01*
X135229955Y-74655537D01*
X135234916Y-74652759D01*
X135234922Y-74652756D01*
X135341530Y-74593052D01*
X135414442Y-74552219D01*
X135452165Y-74520846D01*
X135572645Y-74420644D01*
X135577012Y-74417012D01*
X135580644Y-74412645D01*
X135708584Y-74258813D01*
X135708585Y-74258811D01*
X135712219Y-74254442D01*
X135811946Y-74076368D01*
X135812756Y-74074922D01*
X135812759Y-74074916D01*
X135815537Y-74069955D01*
X135846009Y-73980189D01*
X135881675Y-73875118D01*
X135883504Y-73869730D01*
X135885954Y-73852831D01*
X135907820Y-73702033D01*
X135936921Y-73638512D01*
X135990225Y-73604346D01*
X136070974Y-73604346D01*
X136124347Y-73638736D01*
X136153296Y-73702327D01*
X136154271Y-73711707D01*
X136158796Y-73780749D01*
X136210845Y-73985690D01*
X136213219Y-73990841D01*
X136213221Y-73990845D01*
X136251981Y-74074922D01*
X136299369Y-74177714D01*
X136302647Y-74182352D01*
X136375169Y-74284968D01*
X136421405Y-74350391D01*
X136572865Y-74497937D01*
X136577588Y-74501093D01*
X136577592Y-74501096D01*
X136648663Y-74548584D01*
X136748677Y-74615411D01*
X136942953Y-74698878D01*
X136978277Y-74706871D01*
X137143638Y-74744289D01*
X137143642Y-74744290D01*
X137149186Y-74745544D01*
X137275315Y-74750500D01*
X137354789Y-74753623D01*
X137354791Y-74753623D01*
X137360470Y-74753846D01*
X137366090Y-74753031D01*
X137366092Y-74753031D01*
X137564103Y-74724320D01*
X137564104Y-74724320D01*
X137569730Y-74723504D01*
X137588588Y-74717103D01*
X137764565Y-74657367D01*
X137764568Y-74657366D01*
X137769955Y-74655537D01*
X137774916Y-74652759D01*
X137774922Y-74652756D01*
X137881530Y-74593052D01*
X137954442Y-74552219D01*
X137992165Y-74520846D01*
X138112645Y-74420644D01*
X138117012Y-74417012D01*
X138120644Y-74412645D01*
X138248584Y-74258813D01*
X138248585Y-74258811D01*
X138252219Y-74254442D01*
X138351946Y-74076368D01*
X138352756Y-74074922D01*
X138352759Y-74074916D01*
X138355537Y-74069955D01*
X138386009Y-73980189D01*
X138421675Y-73875118D01*
X138423504Y-73869730D01*
X138425954Y-73852831D01*
X138447820Y-73702033D01*
X138476921Y-73638512D01*
X138530225Y-73604346D01*
X138610974Y-73604346D01*
X138664347Y-73638736D01*
X138693296Y-73702327D01*
X138694271Y-73711707D01*
X138698796Y-73780749D01*
X138750845Y-73985690D01*
X138753219Y-73990841D01*
X138753221Y-73990845D01*
X138791981Y-74074922D01*
X138839369Y-74177714D01*
X138842647Y-74182352D01*
X138915169Y-74284968D01*
X138961405Y-74350391D01*
X139112865Y-74497937D01*
X139117588Y-74501093D01*
X139117592Y-74501096D01*
X139188663Y-74548584D01*
X139288677Y-74615411D01*
X139482953Y-74698878D01*
X139518277Y-74706871D01*
X139683638Y-74744289D01*
X139683642Y-74744290D01*
X139689186Y-74745544D01*
X139815315Y-74750500D01*
X139894789Y-74753623D01*
X139894791Y-74753623D01*
X139900470Y-74753846D01*
X139906090Y-74753031D01*
X139906092Y-74753031D01*
X140104103Y-74724320D01*
X140104104Y-74724320D01*
X140109730Y-74723504D01*
X140128588Y-74717103D01*
X140304565Y-74657367D01*
X140304568Y-74657366D01*
X140309955Y-74655537D01*
X140314916Y-74652759D01*
X140314922Y-74652756D01*
X140421530Y-74593052D01*
X140494442Y-74552219D01*
X140532165Y-74520846D01*
X140652645Y-74420644D01*
X140657012Y-74417012D01*
X140660644Y-74412645D01*
X140788584Y-74258813D01*
X140788585Y-74258811D01*
X140792219Y-74254442D01*
X140891946Y-74076368D01*
X140892756Y-74074922D01*
X140892759Y-74074916D01*
X140895537Y-74069955D01*
X140926009Y-73980189D01*
X140961675Y-73875118D01*
X140963504Y-73869730D01*
X140965954Y-73852831D01*
X140987820Y-73702033D01*
X141016921Y-73638512D01*
X141070225Y-73604346D01*
X141150974Y-73604346D01*
X141204347Y-73638736D01*
X141233296Y-73702327D01*
X141234271Y-73711707D01*
X141238796Y-73780749D01*
X141290845Y-73985690D01*
X141293219Y-73990841D01*
X141293221Y-73990845D01*
X141331981Y-74074922D01*
X141379369Y-74177714D01*
X141382647Y-74182352D01*
X141455169Y-74284968D01*
X141501405Y-74350391D01*
X141652865Y-74497937D01*
X141657588Y-74501093D01*
X141657592Y-74501096D01*
X141728663Y-74548584D01*
X141828677Y-74615411D01*
X142022953Y-74698878D01*
X142058277Y-74706871D01*
X142223638Y-74744289D01*
X142223642Y-74744290D01*
X142229186Y-74745544D01*
X142355315Y-74750500D01*
X142434789Y-74753623D01*
X142434791Y-74753623D01*
X142440470Y-74753846D01*
X142446090Y-74753031D01*
X142446092Y-74753031D01*
X142644103Y-74724320D01*
X142644104Y-74724320D01*
X142649730Y-74723504D01*
X142668588Y-74717103D01*
X142844565Y-74657367D01*
X142844568Y-74657366D01*
X142849955Y-74655537D01*
X142854916Y-74652759D01*
X142854922Y-74652756D01*
X142961530Y-74593052D01*
X143034442Y-74552219D01*
X143072165Y-74520846D01*
X143192645Y-74420644D01*
X143197012Y-74417012D01*
X143200644Y-74412645D01*
X143328584Y-74258813D01*
X143328585Y-74258811D01*
X143332219Y-74254442D01*
X143431946Y-74076368D01*
X143432756Y-74074922D01*
X143432759Y-74074916D01*
X143435537Y-74069955D01*
X143466009Y-73980189D01*
X143501675Y-73875118D01*
X143503504Y-73869730D01*
X143505954Y-73852831D01*
X143527820Y-73702033D01*
X143556921Y-73638512D01*
X143610225Y-73604346D01*
X143690974Y-73604346D01*
X143744347Y-73638736D01*
X143773296Y-73702327D01*
X143774271Y-73711707D01*
X143778796Y-73780749D01*
X143830845Y-73985690D01*
X143833219Y-73990841D01*
X143833221Y-73990845D01*
X143871981Y-74074922D01*
X143919369Y-74177714D01*
X143922647Y-74182352D01*
X143995169Y-74284968D01*
X144041405Y-74350391D01*
X144192865Y-74497937D01*
X144197588Y-74501093D01*
X144197592Y-74501096D01*
X144268663Y-74548584D01*
X144368677Y-74615411D01*
X144562953Y-74698878D01*
X144598277Y-74706871D01*
X144763638Y-74744289D01*
X144763642Y-74744290D01*
X144769186Y-74745544D01*
X144895315Y-74750500D01*
X144974789Y-74753623D01*
X144974791Y-74753623D01*
X144980470Y-74753846D01*
X144986090Y-74753031D01*
X144986092Y-74753031D01*
X145184103Y-74724320D01*
X145184104Y-74724320D01*
X145189730Y-74723504D01*
X145208588Y-74717103D01*
X145384565Y-74657367D01*
X145384568Y-74657366D01*
X145389955Y-74655537D01*
X145394916Y-74652759D01*
X145394922Y-74652756D01*
X145501530Y-74593052D01*
X145574442Y-74552219D01*
X145612165Y-74520846D01*
X145732645Y-74420644D01*
X145737012Y-74417012D01*
X145740644Y-74412645D01*
X145868584Y-74258813D01*
X145868585Y-74258811D01*
X145872219Y-74254442D01*
X145971946Y-74076368D01*
X145972756Y-74074922D01*
X145972759Y-74074916D01*
X145975537Y-74069955D01*
X146006009Y-73980189D01*
X146041675Y-73875118D01*
X146043504Y-73869730D01*
X146045954Y-73852831D01*
X146067820Y-73702033D01*
X146096921Y-73638512D01*
X146150225Y-73604346D01*
X146230974Y-73604346D01*
X146284347Y-73638736D01*
X146313296Y-73702327D01*
X146314271Y-73711707D01*
X146318796Y-73780749D01*
X146370845Y-73985690D01*
X146373219Y-73990841D01*
X146373221Y-73990845D01*
X146411981Y-74074922D01*
X146459369Y-74177714D01*
X146462647Y-74182352D01*
X146535169Y-74284968D01*
X146581405Y-74350391D01*
X146732865Y-74497937D01*
X146737588Y-74501093D01*
X146737592Y-74501096D01*
X146808663Y-74548584D01*
X146908677Y-74615411D01*
X147102953Y-74698878D01*
X147138277Y-74706871D01*
X147303638Y-74744289D01*
X147303642Y-74744290D01*
X147309186Y-74745544D01*
X147435315Y-74750500D01*
X147514789Y-74753623D01*
X147514791Y-74753623D01*
X147520470Y-74753846D01*
X147526090Y-74753031D01*
X147526092Y-74753031D01*
X147724103Y-74724320D01*
X147724104Y-74724320D01*
X147729730Y-74723504D01*
X147748588Y-74717103D01*
X147924565Y-74657367D01*
X147924568Y-74657366D01*
X147929955Y-74655537D01*
X147934916Y-74652759D01*
X147934922Y-74652756D01*
X148041530Y-74593052D01*
X148114442Y-74552219D01*
X148152165Y-74520846D01*
X148272645Y-74420644D01*
X148277012Y-74417012D01*
X148280644Y-74412645D01*
X148408584Y-74258813D01*
X148408585Y-74258811D01*
X148412219Y-74254442D01*
X148511946Y-74076368D01*
X148512756Y-74074922D01*
X148512759Y-74074916D01*
X148515537Y-74069955D01*
X148546009Y-73980189D01*
X148581675Y-73875118D01*
X148583504Y-73869730D01*
X148596406Y-73780749D01*
X148602783Y-73736769D01*
X148631884Y-73673248D01*
X148690707Y-73635543D01*
X148760577Y-73635627D01*
X148819310Y-73673471D01*
X148848259Y-73737061D01*
X148849500Y-73754562D01*
X148849500Y-74494646D01*
X148852618Y-74520846D01*
X148898061Y-74623153D01*
X148977287Y-74702241D01*
X148987758Y-74706870D01*
X148987759Y-74706871D01*
X149071147Y-74743737D01*
X149071149Y-74743738D01*
X149079673Y-74747506D01*
X149105354Y-74750500D01*
X150894646Y-74750500D01*
X150898300Y-74750065D01*
X150898302Y-74750065D01*
X150903266Y-74749474D01*
X150920846Y-74747382D01*
X151023153Y-74701939D01*
X151102241Y-74622713D01*
X151147506Y-74520327D01*
X151150500Y-74494646D01*
X151150500Y-72705354D01*
X151147382Y-72679154D01*
X151101939Y-72576847D01*
X151022713Y-72497759D01*
X151012242Y-72493130D01*
X151012241Y-72493129D01*
X150928853Y-72456263D01*
X150928851Y-72456262D01*
X150920327Y-72452494D01*
X150894646Y-72449500D01*
X149105354Y-72449500D01*
X149101700Y-72449935D01*
X149101698Y-72449935D01*
X149096734Y-72450526D01*
X149079154Y-72452618D01*
X148976847Y-72498061D01*
X148897759Y-72577287D01*
X148893130Y-72587758D01*
X148893129Y-72587759D01*
X148858876Y-72665238D01*
X148852494Y-72679673D01*
X148849500Y-72705354D01*
X148849500Y-73442727D01*
X148829815Y-73509766D01*
X148777011Y-73555521D01*
X148707853Y-73565465D01*
X148644297Y-73536440D01*
X148606523Y-73477662D01*
X148602020Y-73454073D01*
X148596601Y-73395101D01*
X148596601Y-73395100D01*
X148596081Y-73389440D01*
X148538686Y-73185931D01*
X148445165Y-72996290D01*
X148318651Y-72826867D01*
X148314481Y-72823012D01*
X148314478Y-72823009D01*
X148208552Y-72725093D01*
X148163381Y-72683337D01*
X148157574Y-72679673D01*
X147989363Y-72573539D01*
X147989361Y-72573538D01*
X147984554Y-72570505D01*
X147788160Y-72492152D01*
X147782579Y-72491042D01*
X147782576Y-72491041D01*
X147684468Y-72471527D01*
X147580775Y-72450901D01*
X147575088Y-72450827D01*
X147575083Y-72450826D01*
X147375034Y-72448207D01*
X147375029Y-72448207D01*
X147369346Y-72448133D01*
X147363742Y-72449096D01*
X147363741Y-72449096D01*
X147166550Y-72482979D01*
X147166547Y-72482980D01*
X147160953Y-72483941D01*
X146962575Y-72557127D01*
X146957697Y-72560029D01*
X146957695Y-72560030D01*
X146785740Y-72662332D01*
X146785737Y-72662334D01*
X146780856Y-72665238D01*
X146621881Y-72804655D01*
X146618362Y-72809119D01*
X146618359Y-72809122D01*
X146601119Y-72830991D01*
X146490976Y-72970708D01*
X146392523Y-73157836D01*
X146390837Y-73163267D01*
X146390835Y-73163271D01*
X146388812Y-73169786D01*
X146329820Y-73359773D01*
X146312851Y-73503140D01*
X146285425Y-73567398D01*
X146230974Y-73604346D01*
X146150225Y-73604346D01*
X146150667Y-73604063D01*
X146098057Y-73572081D01*
X146067453Y-73509271D01*
X146066232Y-73499909D01*
X146056601Y-73395100D01*
X146056081Y-73389440D01*
X145998686Y-73185931D01*
X145905165Y-72996290D01*
X145778651Y-72826867D01*
X145774481Y-72823012D01*
X145774478Y-72823009D01*
X145668552Y-72725093D01*
X145623381Y-72683337D01*
X145617574Y-72679673D01*
X145449363Y-72573539D01*
X145449361Y-72573538D01*
X145444554Y-72570505D01*
X145248160Y-72492152D01*
X145242579Y-72491042D01*
X145242576Y-72491041D01*
X145144468Y-72471527D01*
X145040775Y-72450901D01*
X145035088Y-72450827D01*
X145035083Y-72450826D01*
X144835034Y-72448207D01*
X144835029Y-72448207D01*
X144829346Y-72448133D01*
X144823742Y-72449096D01*
X144823741Y-72449096D01*
X144626550Y-72482979D01*
X144626547Y-72482980D01*
X144620953Y-72483941D01*
X144422575Y-72557127D01*
X144417697Y-72560029D01*
X144417695Y-72560030D01*
X144245740Y-72662332D01*
X144245737Y-72662334D01*
X144240856Y-72665238D01*
X144081881Y-72804655D01*
X144078362Y-72809119D01*
X144078359Y-72809122D01*
X144061119Y-72830991D01*
X143950976Y-72970708D01*
X143852523Y-73157836D01*
X143850837Y-73163267D01*
X143850835Y-73163271D01*
X143848812Y-73169786D01*
X143789820Y-73359773D01*
X143772851Y-73503140D01*
X143745425Y-73567398D01*
X143690974Y-73604346D01*
X143610225Y-73604346D01*
X143610667Y-73604063D01*
X143558057Y-73572081D01*
X143527453Y-73509271D01*
X143526232Y-73499909D01*
X143516601Y-73395100D01*
X143516081Y-73389440D01*
X143458686Y-73185931D01*
X143365165Y-72996290D01*
X143238651Y-72826867D01*
X143234481Y-72823012D01*
X143234478Y-72823009D01*
X143128552Y-72725093D01*
X143083381Y-72683337D01*
X143077574Y-72679673D01*
X142909363Y-72573539D01*
X142909361Y-72573538D01*
X142904554Y-72570505D01*
X142708160Y-72492152D01*
X142702579Y-72491042D01*
X142702576Y-72491041D01*
X142604468Y-72471527D01*
X142500775Y-72450901D01*
X142495088Y-72450827D01*
X142495083Y-72450826D01*
X142295034Y-72448207D01*
X142295029Y-72448207D01*
X142289346Y-72448133D01*
X142283742Y-72449096D01*
X142283741Y-72449096D01*
X142086550Y-72482979D01*
X142086547Y-72482980D01*
X142080953Y-72483941D01*
X141882575Y-72557127D01*
X141877697Y-72560029D01*
X141877695Y-72560030D01*
X141705740Y-72662332D01*
X141705737Y-72662334D01*
X141700856Y-72665238D01*
X141541881Y-72804655D01*
X141538362Y-72809119D01*
X141538359Y-72809122D01*
X141521119Y-72830991D01*
X141410976Y-72970708D01*
X141312523Y-73157836D01*
X141310837Y-73163267D01*
X141310835Y-73163271D01*
X141308812Y-73169786D01*
X141249820Y-73359773D01*
X141232851Y-73503140D01*
X141205425Y-73567398D01*
X141150974Y-73604346D01*
X141070225Y-73604346D01*
X141070667Y-73604063D01*
X141018057Y-73572081D01*
X140987453Y-73509271D01*
X140986232Y-73499909D01*
X140976601Y-73395100D01*
X140976081Y-73389440D01*
X140918686Y-73185931D01*
X140825165Y-72996290D01*
X140698651Y-72826867D01*
X140694481Y-72823012D01*
X140694478Y-72823009D01*
X140588552Y-72725093D01*
X140543381Y-72683337D01*
X140537574Y-72679673D01*
X140369363Y-72573539D01*
X140369361Y-72573538D01*
X140364554Y-72570505D01*
X140168160Y-72492152D01*
X140162579Y-72491042D01*
X140162576Y-72491041D01*
X140064468Y-72471527D01*
X139960775Y-72450901D01*
X139955088Y-72450827D01*
X139955083Y-72450826D01*
X139755034Y-72448207D01*
X139755029Y-72448207D01*
X139749346Y-72448133D01*
X139743742Y-72449096D01*
X139743741Y-72449096D01*
X139546550Y-72482979D01*
X139546547Y-72482980D01*
X139540953Y-72483941D01*
X139342575Y-72557127D01*
X139337697Y-72560029D01*
X139337695Y-72560030D01*
X139165740Y-72662332D01*
X139165737Y-72662334D01*
X139160856Y-72665238D01*
X139001881Y-72804655D01*
X138998362Y-72809119D01*
X138998359Y-72809122D01*
X138981119Y-72830991D01*
X138870976Y-72970708D01*
X138772523Y-73157836D01*
X138770837Y-73163267D01*
X138770835Y-73163271D01*
X138768812Y-73169786D01*
X138709820Y-73359773D01*
X138692851Y-73503140D01*
X138665425Y-73567398D01*
X138610974Y-73604346D01*
X138530225Y-73604346D01*
X138530667Y-73604063D01*
X138478057Y-73572081D01*
X138447453Y-73509271D01*
X138446232Y-73499909D01*
X138436601Y-73395100D01*
X138436081Y-73389440D01*
X138378686Y-73185931D01*
X138285165Y-72996290D01*
X138158651Y-72826867D01*
X138154481Y-72823012D01*
X138154478Y-72823009D01*
X138048552Y-72725093D01*
X138003381Y-72683337D01*
X137997574Y-72679673D01*
X137829363Y-72573539D01*
X137829361Y-72573538D01*
X137824554Y-72570505D01*
X137628160Y-72492152D01*
X137622579Y-72491042D01*
X137622576Y-72491041D01*
X137524468Y-72471527D01*
X137420775Y-72450901D01*
X137415088Y-72450827D01*
X137415083Y-72450826D01*
X137215034Y-72448207D01*
X137215029Y-72448207D01*
X137209346Y-72448133D01*
X137203742Y-72449096D01*
X137203741Y-72449096D01*
X137006550Y-72482979D01*
X137006547Y-72482980D01*
X137000953Y-72483941D01*
X136802575Y-72557127D01*
X136797697Y-72560029D01*
X136797695Y-72560030D01*
X136625740Y-72662332D01*
X136625737Y-72662334D01*
X136620856Y-72665238D01*
X136461881Y-72804655D01*
X136458362Y-72809119D01*
X136458359Y-72809122D01*
X136441119Y-72830991D01*
X136330976Y-72970708D01*
X136232523Y-73157836D01*
X136230837Y-73163267D01*
X136230835Y-73163271D01*
X136228812Y-73169786D01*
X136169820Y-73359773D01*
X136152851Y-73503140D01*
X136125425Y-73567398D01*
X136070974Y-73604346D01*
X135990225Y-73604346D01*
X135990667Y-73604063D01*
X135938057Y-73572081D01*
X135907453Y-73509271D01*
X135906232Y-73499909D01*
X135896601Y-73395100D01*
X135896081Y-73389440D01*
X135838686Y-73185931D01*
X135745165Y-72996290D01*
X135618651Y-72826867D01*
X135614481Y-72823012D01*
X135614478Y-72823009D01*
X135508552Y-72725093D01*
X135463381Y-72683337D01*
X135457574Y-72679673D01*
X135289363Y-72573539D01*
X135289361Y-72573538D01*
X135284554Y-72570505D01*
X135088160Y-72492152D01*
X135082579Y-72491042D01*
X135082576Y-72491041D01*
X134984468Y-72471527D01*
X134880775Y-72450901D01*
X134875088Y-72450827D01*
X134875083Y-72450826D01*
X134675034Y-72448207D01*
X134675029Y-72448207D01*
X134669346Y-72448133D01*
X134663742Y-72449096D01*
X134663741Y-72449096D01*
X134466550Y-72482979D01*
X134466547Y-72482980D01*
X134460953Y-72483941D01*
X134262575Y-72557127D01*
X134257697Y-72560029D01*
X134257695Y-72560030D01*
X134085740Y-72662332D01*
X134085737Y-72662334D01*
X134080856Y-72665238D01*
X133921881Y-72804655D01*
X133918362Y-72809119D01*
X133918359Y-72809122D01*
X133901119Y-72830991D01*
X133790976Y-72970708D01*
X133692523Y-73157836D01*
X133690837Y-73163267D01*
X133690835Y-73163271D01*
X133688812Y-73169786D01*
X133629820Y-73359773D01*
X133612851Y-73503140D01*
X133585425Y-73567398D01*
X133530974Y-73604346D01*
X133450225Y-73604346D01*
X133450667Y-73604063D01*
X133398057Y-73572081D01*
X133367453Y-73509271D01*
X133366232Y-73499909D01*
X133356601Y-73395100D01*
X133356081Y-73389440D01*
X133298686Y-73185931D01*
X133205165Y-72996290D01*
X133078651Y-72826867D01*
X133074481Y-72823012D01*
X133074478Y-72823009D01*
X132968552Y-72725093D01*
X132923381Y-72683337D01*
X132917574Y-72679673D01*
X132749363Y-72573539D01*
X132749361Y-72573538D01*
X132744554Y-72570505D01*
X132548160Y-72492152D01*
X132542579Y-72491042D01*
X132542576Y-72491041D01*
X132444468Y-72471527D01*
X132340775Y-72450901D01*
X132335088Y-72450827D01*
X132335083Y-72450826D01*
X132135034Y-72448207D01*
X132135029Y-72448207D01*
X132129346Y-72448133D01*
X132123742Y-72449096D01*
X132123741Y-72449096D01*
X131926550Y-72482979D01*
X131926547Y-72482980D01*
X131920953Y-72483941D01*
X131722575Y-72557127D01*
X131717697Y-72560029D01*
X131717695Y-72560030D01*
X131545740Y-72662332D01*
X131545737Y-72662334D01*
X131540856Y-72665238D01*
X131381881Y-72804655D01*
X131378362Y-72809119D01*
X131378359Y-72809122D01*
X131361119Y-72830991D01*
X131250976Y-72970708D01*
X131152523Y-73157836D01*
X131150837Y-73163267D01*
X131150835Y-73163271D01*
X131148812Y-73169786D01*
X131089820Y-73359773D01*
X131072851Y-73503140D01*
X131045425Y-73567398D01*
X130990974Y-73604346D01*
X130910225Y-73604346D01*
X130910667Y-73604063D01*
X130858057Y-73572081D01*
X130827453Y-73509271D01*
X130826232Y-73499909D01*
X130816601Y-73395100D01*
X130816081Y-73389440D01*
X130758686Y-73185931D01*
X130665165Y-72996290D01*
X130538651Y-72826867D01*
X130534481Y-72823012D01*
X130534478Y-72823009D01*
X130428552Y-72725093D01*
X130383381Y-72683337D01*
X130377574Y-72679673D01*
X130209363Y-72573539D01*
X130209361Y-72573538D01*
X130204554Y-72570505D01*
X130008160Y-72492152D01*
X130002579Y-72491042D01*
X130002576Y-72491041D01*
X129904468Y-72471527D01*
X129800775Y-72450901D01*
X129795088Y-72450827D01*
X129795083Y-72450826D01*
X129595034Y-72448207D01*
X129595029Y-72448207D01*
X129589346Y-72448133D01*
X129583742Y-72449096D01*
X129583741Y-72449096D01*
X129386550Y-72482979D01*
X129386547Y-72482980D01*
X129380953Y-72483941D01*
X129182575Y-72557127D01*
X129177697Y-72560029D01*
X129177695Y-72560030D01*
X129005740Y-72662332D01*
X129005737Y-72662334D01*
X129000856Y-72665238D01*
X128841881Y-72804655D01*
X128838362Y-72809119D01*
X128838359Y-72809122D01*
X128821119Y-72830991D01*
X128710976Y-72970708D01*
X128612523Y-73157836D01*
X128610837Y-73163267D01*
X128610835Y-73163271D01*
X128608812Y-73169786D01*
X128549820Y-73359773D01*
X128532851Y-73503140D01*
X128505425Y-73567398D01*
X128450974Y-73604346D01*
X128370225Y-73604346D01*
X128370667Y-73604063D01*
X128318057Y-73572081D01*
X128287453Y-73509271D01*
X128286232Y-73499909D01*
X128276601Y-73395100D01*
X128276081Y-73389440D01*
X128218686Y-73185931D01*
X128125165Y-72996290D01*
X127998651Y-72826867D01*
X127994481Y-72823012D01*
X127994478Y-72823009D01*
X127888552Y-72725093D01*
X127843381Y-72683337D01*
X127837574Y-72679673D01*
X127669363Y-72573539D01*
X127669361Y-72573538D01*
X127664554Y-72570505D01*
X127468160Y-72492152D01*
X127462579Y-72491042D01*
X127462576Y-72491041D01*
X127364468Y-72471527D01*
X127260775Y-72450901D01*
X127255088Y-72450827D01*
X127255083Y-72450826D01*
X127055034Y-72448207D01*
X127055029Y-72448207D01*
X127049346Y-72448133D01*
X127043742Y-72449096D01*
X127043741Y-72449096D01*
X126846550Y-72482979D01*
X126846547Y-72482980D01*
X126840953Y-72483941D01*
X126642575Y-72557127D01*
X126637697Y-72560029D01*
X126637695Y-72560030D01*
X126465740Y-72662332D01*
X126465737Y-72662334D01*
X126460856Y-72665238D01*
X126301881Y-72804655D01*
X126298362Y-72809119D01*
X126298359Y-72809122D01*
X126281119Y-72830991D01*
X126170976Y-72970708D01*
X126072523Y-73157836D01*
X126070837Y-73163267D01*
X126070835Y-73163271D01*
X126068812Y-73169786D01*
X126009820Y-73359773D01*
X125992851Y-73503140D01*
X125965425Y-73567398D01*
X125910974Y-73604346D01*
X125830225Y-73604346D01*
X125830667Y-73604063D01*
X125778057Y-73572081D01*
X125747453Y-73509271D01*
X125746232Y-73499909D01*
X125736601Y-73395100D01*
X125736081Y-73389440D01*
X125678686Y-73185931D01*
X125585165Y-72996290D01*
X125458651Y-72826867D01*
X125454481Y-72823012D01*
X125454478Y-72823009D01*
X125348552Y-72725093D01*
X125303381Y-72683337D01*
X125297574Y-72679673D01*
X125129363Y-72573539D01*
X125129361Y-72573538D01*
X125124554Y-72570505D01*
X124928160Y-72492152D01*
X124922579Y-72491042D01*
X124922576Y-72491041D01*
X124824468Y-72471527D01*
X124720775Y-72450901D01*
X124715088Y-72450827D01*
X124715083Y-72450826D01*
X124515034Y-72448207D01*
X124515029Y-72448207D01*
X124509346Y-72448133D01*
X124503742Y-72449096D01*
X124503741Y-72449096D01*
X124306550Y-72482979D01*
X124306547Y-72482980D01*
X124300953Y-72483941D01*
X124102575Y-72557127D01*
X124097697Y-72560029D01*
X124097695Y-72560030D01*
X123925740Y-72662332D01*
X123925737Y-72662334D01*
X123920856Y-72665238D01*
X123761881Y-72804655D01*
X123758362Y-72809119D01*
X123758359Y-72809122D01*
X123741119Y-72830991D01*
X123630976Y-72970708D01*
X123532523Y-73157836D01*
X123530837Y-73163267D01*
X123530835Y-73163271D01*
X123528812Y-73169786D01*
X123469820Y-73359773D01*
X123452851Y-73503140D01*
X123425425Y-73567398D01*
X123370974Y-73604346D01*
X123290225Y-73604346D01*
X123290667Y-73604063D01*
X123238057Y-73572081D01*
X123207453Y-73509271D01*
X123206232Y-73499909D01*
X123196601Y-73395100D01*
X123196081Y-73389440D01*
X123138686Y-73185931D01*
X123045165Y-72996290D01*
X122918651Y-72826867D01*
X122914481Y-72823012D01*
X122914478Y-72823009D01*
X122808552Y-72725093D01*
X122763381Y-72683337D01*
X122757574Y-72679673D01*
X122589363Y-72573539D01*
X122589361Y-72573538D01*
X122584554Y-72570505D01*
X122388160Y-72492152D01*
X122382579Y-72491042D01*
X122382576Y-72491041D01*
X122284468Y-72471527D01*
X122180775Y-72450901D01*
X122175088Y-72450827D01*
X122175083Y-72450826D01*
X121975034Y-72448207D01*
X121975029Y-72448207D01*
X121969346Y-72448133D01*
X121963742Y-72449096D01*
X121963741Y-72449096D01*
X121766550Y-72482979D01*
X121766547Y-72482980D01*
X121760953Y-72483941D01*
X121562575Y-72557127D01*
X121557697Y-72560029D01*
X121557695Y-72560030D01*
X121385740Y-72662332D01*
X121385737Y-72662334D01*
X121380856Y-72665238D01*
X121221881Y-72804655D01*
X121218362Y-72809119D01*
X121218359Y-72809122D01*
X121201119Y-72830991D01*
X121090976Y-72970708D01*
X121088325Y-72975747D01*
X121008685Y-73127117D01*
X120960050Y-73177281D01*
X120892015Y-73193187D01*
X120826181Y-73169786D01*
X120786565Y-73121786D01*
X120695890Y-72927333D01*
X120690492Y-72917983D01*
X120561216Y-72733357D01*
X120554281Y-72725093D01*
X120394909Y-72565721D01*
X120386643Y-72558785D01*
X120202008Y-72429502D01*
X120192676Y-72424114D01*
X119988397Y-72328857D01*
X119978264Y-72325168D01*
X119787221Y-72273978D01*
X119773347Y-72274309D01*
X119770000Y-72282125D01*
X119770000Y-74912806D01*
X119270000Y-74912806D01*
X119270000Y-73867830D01*
X119265596Y-73852831D01*
X119264226Y-73851644D01*
X119256668Y-73850000D01*
X117247830Y-73850000D01*
X117232831Y-73854404D01*
X117231644Y-73855774D01*
X117230000Y-73863332D01*
X117230000Y-74912806D01*
X116730000Y-74912806D01*
X116730000Y-73867830D01*
X116725596Y-73852831D01*
X116724226Y-73851644D01*
X116716668Y-73850000D01*
X114707830Y-73850000D01*
X114692831Y-73854404D01*
X114691644Y-73855774D01*
X114690000Y-73863332D01*
X114690000Y-74912806D01*
X114190000Y-74912806D01*
X114190000Y-73867830D01*
X114185596Y-73852831D01*
X114184226Y-73851644D01*
X114176668Y-73850000D01*
X113127194Y-73850000D01*
X113113877Y-73853910D01*
X113112667Y-73862326D01*
X90778986Y-73862326D01*
X90785458Y-71933562D01*
X93591185Y-71933562D01*
X93600132Y-72171882D01*
X93601209Y-72177017D01*
X93601210Y-72177022D01*
X93632294Y-72325168D01*
X93649105Y-72405288D01*
X93651034Y-72410172D01*
X93651035Y-72410176D01*
X93669236Y-72456263D01*
X93736705Y-72627105D01*
X93860426Y-72830991D01*
X94016732Y-73011117D01*
X94201151Y-73162332D01*
X94408413Y-73280312D01*
X94632589Y-73361684D01*
X94867271Y-73404122D01*
X94892252Y-73405300D01*
X95059880Y-73405300D01*
X95062496Y-73405078D01*
X95062497Y-73405078D01*
X95180076Y-73395101D01*
X95237634Y-73390217D01*
X95458934Y-73332779D01*
X113113978Y-73332779D01*
X113114309Y-73346653D01*
X113122125Y-73350000D01*
X114172170Y-73350000D01*
X114187169Y-73345596D01*
X114188356Y-73344226D01*
X114190000Y-73336668D01*
X114190000Y-73332170D01*
X114690000Y-73332170D01*
X114694404Y-73347169D01*
X114695774Y-73348356D01*
X114703332Y-73350000D01*
X116712170Y-73350000D01*
X116727169Y-73345596D01*
X116728356Y-73344226D01*
X116730000Y-73336668D01*
X116730000Y-73332170D01*
X117230000Y-73332170D01*
X117234404Y-73347169D01*
X117235774Y-73348356D01*
X117243332Y-73350000D01*
X119252170Y-73350000D01*
X119267169Y-73345596D01*
X119268356Y-73344226D01*
X119270000Y-73336668D01*
X119270000Y-72287194D01*
X119266090Y-72273877D01*
X119257674Y-72272667D01*
X119061736Y-72325168D01*
X119051603Y-72328857D01*
X118847333Y-72424110D01*
X118837983Y-72429508D01*
X118653357Y-72558784D01*
X118645093Y-72565719D01*
X118485719Y-72725093D01*
X118478789Y-72733352D01*
X118351575Y-72915032D01*
X118296998Y-72958656D01*
X118227499Y-72965849D01*
X118165145Y-72934327D01*
X118148425Y-72915032D01*
X118021211Y-72733352D01*
X118014281Y-72725093D01*
X117854909Y-72565721D01*
X117846643Y-72558785D01*
X117662008Y-72429502D01*
X117652676Y-72424114D01*
X117448397Y-72328857D01*
X117438264Y-72325168D01*
X117247221Y-72273978D01*
X117233347Y-72274309D01*
X117230000Y-72282125D01*
X117230000Y-73332170D01*
X116730000Y-73332170D01*
X116730000Y-72287194D01*
X116726090Y-72273877D01*
X116717674Y-72272667D01*
X116521736Y-72325168D01*
X116511603Y-72328857D01*
X116307333Y-72424110D01*
X116297983Y-72429508D01*
X116113357Y-72558784D01*
X116105093Y-72565719D01*
X115945719Y-72725093D01*
X115938789Y-72733352D01*
X115811575Y-72915032D01*
X115756998Y-72958656D01*
X115687499Y-72965849D01*
X115625145Y-72934327D01*
X115608425Y-72915032D01*
X115481211Y-72733352D01*
X115474281Y-72725093D01*
X115314909Y-72565721D01*
X115306643Y-72558785D01*
X115122008Y-72429502D01*
X115112676Y-72424114D01*
X114908397Y-72328857D01*
X114898264Y-72325168D01*
X114707221Y-72273978D01*
X114693347Y-72274309D01*
X114690000Y-72282125D01*
X114690000Y-73332170D01*
X114190000Y-73332170D01*
X114190000Y-72287194D01*
X114186090Y-72273877D01*
X114177674Y-72272667D01*
X113981736Y-72325168D01*
X113971603Y-72328857D01*
X113767333Y-72424110D01*
X113757983Y-72429508D01*
X113573357Y-72558784D01*
X113565093Y-72565719D01*
X113405719Y-72725093D01*
X113398784Y-72733357D01*
X113269508Y-72917983D01*
X113264110Y-72927333D01*
X113168857Y-73131603D01*
X113165168Y-73141736D01*
X113113978Y-73332779D01*
X95458934Y-73332779D01*
X95468474Y-73330303D01*
X95685918Y-73232352D01*
X95883750Y-73099163D01*
X96056313Y-72934547D01*
X96198673Y-72743208D01*
X96201052Y-72738529D01*
X96304376Y-72535306D01*
X96304378Y-72535301D01*
X96306758Y-72530620D01*
X96314451Y-72505847D01*
X96375921Y-72307879D01*
X96377480Y-72302859D01*
X96395535Y-72166638D01*
X96408126Y-72071640D01*
X96408126Y-72071635D01*
X96408815Y-72066438D01*
X96403827Y-71933562D01*
X158591185Y-71933562D01*
X158600132Y-72171882D01*
X158601209Y-72177017D01*
X158601210Y-72177022D01*
X158632294Y-72325168D01*
X158649105Y-72405288D01*
X158651034Y-72410172D01*
X158651035Y-72410176D01*
X158669236Y-72456263D01*
X158736705Y-72627105D01*
X158860426Y-72830991D01*
X159016732Y-73011117D01*
X159201151Y-73162332D01*
X159408413Y-73280312D01*
X159632589Y-73361684D01*
X159867271Y-73404122D01*
X159892252Y-73405300D01*
X160059880Y-73405300D01*
X160062496Y-73405078D01*
X160062497Y-73405078D01*
X160180076Y-73395101D01*
X160237634Y-73390217D01*
X160468474Y-73330303D01*
X160685918Y-73232352D01*
X160883750Y-73099163D01*
X161056313Y-72934547D01*
X161198673Y-72743208D01*
X161201052Y-72738529D01*
X161304376Y-72535306D01*
X161304378Y-72535301D01*
X161306758Y-72530620D01*
X161314451Y-72505847D01*
X161375921Y-72307879D01*
X161377480Y-72302859D01*
X161395535Y-72166638D01*
X161408126Y-72071640D01*
X161408126Y-72071635D01*
X161408815Y-72066438D01*
X161399868Y-71828118D01*
X161373480Y-71702350D01*
X161351975Y-71599858D01*
X161351974Y-71599855D01*
X161350895Y-71594712D01*
X161348164Y-71587795D01*
X161265223Y-71377778D01*
X161263295Y-71372895D01*
X161139574Y-71169009D01*
X160983268Y-70988883D01*
X160798849Y-70837668D01*
X160591587Y-70719688D01*
X160367411Y-70638316D01*
X160132729Y-70595878D01*
X160107748Y-70594700D01*
X159940120Y-70594700D01*
X159937504Y-70594922D01*
X159937503Y-70594922D01*
X159926237Y-70595878D01*
X159762366Y-70609783D01*
X159531526Y-70669697D01*
X159314082Y-70767648D01*
X159116250Y-70900837D01*
X158943687Y-71065453D01*
X158801327Y-71256792D01*
X158798948Y-71261470D01*
X158798948Y-71261471D01*
X158739815Y-71377778D01*
X158693242Y-71469380D01*
X158622520Y-71697141D01*
X158591185Y-71933562D01*
X96403827Y-71933562D01*
X96399868Y-71828118D01*
X96373480Y-71702350D01*
X96351975Y-71599858D01*
X96351974Y-71599855D01*
X96350895Y-71594712D01*
X96348164Y-71587795D01*
X96265223Y-71377778D01*
X96263295Y-71372895D01*
X96139574Y-71169009D01*
X95983268Y-70988883D01*
X95798849Y-70837668D01*
X95591587Y-70719688D01*
X95367411Y-70638316D01*
X95132729Y-70595878D01*
X95107748Y-70594700D01*
X94940120Y-70594700D01*
X94937504Y-70594922D01*
X94937503Y-70594922D01*
X94926237Y-70595878D01*
X94762366Y-70609783D01*
X94531526Y-70669697D01*
X94314082Y-70767648D01*
X94116250Y-70900837D01*
X93943687Y-71065453D01*
X93801327Y-71256792D01*
X93798948Y-71261470D01*
X93798948Y-71261471D01*
X93739815Y-71377778D01*
X93693242Y-71469380D01*
X93622520Y-71697141D01*
X93591185Y-71933562D01*
X90785458Y-71933562D01*
X90792145Y-69940849D01*
X90806228Y-69883867D01*
X90933250Y-69640624D01*
X90938687Y-69631238D01*
X91147555Y-69304478D01*
X91155059Y-69292739D01*
X91161292Y-69283868D01*
X91406413Y-68965580D01*
X91413400Y-68957284D01*
X91685405Y-68661625D01*
X91693091Y-68653971D01*
X91989899Y-68383209D01*
X91998225Y-68376257D01*
X92317545Y-68132479D01*
X92326427Y-68126293D01*
X92665858Y-67911334D01*
X92675252Y-67905946D01*
X93032142Y-67721486D01*
X93041987Y-67716932D01*
X93238718Y-67636171D01*
X93287148Y-67626888D01*
X110567594Y-67813703D01*
G37*
%TD.AperFunction*%
%TD*%
M02*
