%TF.GenerationSoftware,KiCad,Pcbnew,(6.0.6)*%
%TF.CreationDate,2022-08-27T21:29:47+05:30*%
%TF.ProjectId,rp2040-ble,72703230-3430-42d6-926c-652e6b696361,rev?*%
%TF.SameCoordinates,Original*%
%TF.FileFunction,Soldermask,Top*%
%TF.FilePolarity,Negative*%
%FSLAX46Y46*%
G04 Gerber Fmt 4.6, Leading zero omitted, Abs format (unit mm)*
G04 Created by KiCad (PCBNEW (6.0.6)) date 2022-08-27 21:29:47*
%MOMM*%
%LPD*%
G01*
G04 APERTURE LIST*
G04 Aperture macros list*
%AMRoundRect*
0 Rectangle with rounded corners*
0 $1 Rounding radius*
0 $2 $3 $4 $5 $6 $7 $8 $9 X,Y pos of 4 corners*
0 Add a 4 corners polygon primitive as box body*
4,1,4,$2,$3,$4,$5,$6,$7,$8,$9,$2,$3,0*
0 Add four circle primitives for the rounded corners*
1,1,$1+$1,$2,$3*
1,1,$1+$1,$4,$5*
1,1,$1+$1,$6,$7*
1,1,$1+$1,$8,$9*
0 Add four rect primitives between the rounded corners*
20,1,$1+$1,$2,$3,$4,$5,0*
20,1,$1+$1,$4,$5,$6,$7,0*
20,1,$1+$1,$6,$7,$8,$9,0*
20,1,$1+$1,$8,$9,$2,$3,0*%
G04 Aperture macros list end*
%ADD10RoundRect,0.200000X0.200000X0.275000X-0.200000X0.275000X-0.200000X-0.275000X0.200000X-0.275000X0*%
%ADD11RoundRect,0.200000X-0.275000X0.200000X-0.275000X-0.200000X0.275000X-0.200000X0.275000X0.200000X0*%
%ADD12RoundRect,0.200000X0.275000X-0.200000X0.275000X0.200000X-0.275000X0.200000X-0.275000X-0.200000X0*%
%ADD13RoundRect,0.200000X-0.200000X-0.275000X0.200000X-0.275000X0.200000X0.275000X-0.200000X0.275000X0*%
%ADD14C,1.600000*%
%ADD15RoundRect,0.225000X0.250000X-0.225000X0.250000X0.225000X-0.250000X0.225000X-0.250000X-0.225000X0*%
%ADD16RoundRect,0.140000X-0.170000X0.140000X-0.170000X-0.140000X0.170000X-0.140000X0.170000X0.140000X0*%
%ADD17R,1.700000X1.700000*%
%ADD18O,1.700000X1.700000*%
%ADD19RoundRect,0.150000X-0.650000X-0.150000X0.650000X-0.150000X0.650000X0.150000X-0.650000X0.150000X0*%
%ADD20R,2.100000X5.600000*%
%ADD21R,3.000000X1.600000*%
%ADD22R,6.200000X5.800000*%
%ADD23C,2.200000*%
%ADD24R,1.000000X1.000000*%
%ADD25O,1.000000X1.000000*%
%ADD26RoundRect,0.140000X0.170000X-0.140000X0.170000X0.140000X-0.170000X0.140000X-0.170000X-0.140000X0*%
%ADD27RoundRect,0.218750X0.256250X-0.218750X0.256250X0.218750X-0.256250X0.218750X-0.256250X-0.218750X0*%
%ADD28RoundRect,0.140000X-0.140000X-0.170000X0.140000X-0.170000X0.140000X0.170000X-0.140000X0.170000X0*%
%ADD29R,0.900000X1.200000*%
%ADD30RoundRect,0.140000X0.140000X0.170000X-0.140000X0.170000X-0.140000X-0.170000X0.140000X-0.170000X0*%
%ADD31R,1.650000X0.400000*%
%ADD32R,0.700000X1.825000*%
%ADD33R,2.500000X1.430000*%
%ADD34R,2.000000X1.350000*%
%ADD35O,1.700000X1.350000*%
%ADD36R,1.500000X2.000000*%
%ADD37O,1.500000X1.100000*%
%ADD38R,1.041400X0.660400*%
%ADD39R,3.200000X3.200000*%
%ADD40RoundRect,0.050000X-0.387500X0.050000X-0.387500X-0.050000X0.387500X-0.050000X0.387500X0.050000X0*%
%ADD41RoundRect,0.050000X-0.050000X0.387500X-0.050000X-0.387500X0.050000X-0.387500X0.050000X0.387500X0*%
G04 APERTURE END LIST*
D10*
%TO.C,R8*%
X143225000Y-87000000D03*
X141575000Y-87000000D03*
%TD*%
D11*
%TO.C,R7*%
X143400000Y-108775000D03*
X143400000Y-110425000D03*
%TD*%
D12*
%TO.C,R6*%
X139600000Y-87625000D03*
X139600000Y-85975000D03*
%TD*%
D13*
%TO.C,R5*%
X133575000Y-109000000D03*
X135225000Y-109000000D03*
%TD*%
D12*
%TO.C,R4*%
X119600000Y-104425000D03*
X119600000Y-102775000D03*
%TD*%
D10*
%TO.C,R2*%
X144450000Y-100800000D03*
X142800000Y-100800000D03*
%TD*%
%TO.C,R1*%
X144425000Y-99000000D03*
X142775000Y-99000000D03*
%TD*%
D14*
%TO.C,U3*%
X92800000Y-102650000D03*
X94800000Y-102650000D03*
X96800000Y-102650000D03*
X98800000Y-102650000D03*
X101800000Y-99400000D03*
X101800000Y-97400000D03*
X101800000Y-95400000D03*
X101800000Y-93400000D03*
X98800000Y-90150000D03*
X96800000Y-90150000D03*
X94800000Y-90150000D03*
%TD*%
D15*
%TO.C,C16*%
X143400000Y-106950000D03*
X143400000Y-105400000D03*
%TD*%
D16*
%TO.C,C5*%
X140000000Y-101120000D03*
X140000000Y-102080000D03*
%TD*%
D17*
%TO.C,J1*%
X150000000Y-73600000D03*
D18*
X147460000Y-73600000D03*
X144920000Y-73600000D03*
X142380000Y-73600000D03*
X139840000Y-73600000D03*
X137300000Y-73600000D03*
X134760000Y-73600000D03*
X132220000Y-73600000D03*
X129680000Y-73600000D03*
X127140000Y-73600000D03*
X124600000Y-73600000D03*
X122060000Y-73600000D03*
X119520000Y-73600000D03*
X116980000Y-73600000D03*
X114440000Y-73600000D03*
%TD*%
D19*
%TO.C,U2*%
X141600000Y-89695000D03*
X141600000Y-90965000D03*
X141600000Y-92235000D03*
X141600000Y-93505000D03*
X148800000Y-93505000D03*
X148800000Y-92235000D03*
X148800000Y-90965000D03*
X148800000Y-89695000D03*
%TD*%
D20*
%TO.C,Y1*%
X115600000Y-93850000D03*
X115600000Y-103350000D03*
%TD*%
D21*
%TO.C,U4*%
X158180000Y-112485000D03*
X158180000Y-107915000D03*
D22*
X151000000Y-110200000D03*
%TD*%
D23*
%TO.C,H4*%
X95000000Y-124000000D03*
%TD*%
D17*
%TO.C,J2*%
X150000000Y-122425000D03*
D18*
X147460000Y-122425000D03*
X144920000Y-122425000D03*
X142380000Y-122425000D03*
X139840000Y-122425000D03*
X137300000Y-122425000D03*
X134760000Y-122425000D03*
X132220000Y-122425000D03*
X129680000Y-122425000D03*
X127140000Y-122425000D03*
X124600000Y-122425000D03*
X122060000Y-122425000D03*
X119520000Y-122425000D03*
X116980000Y-122425000D03*
X114440000Y-122425000D03*
%TD*%
D24*
%TO.C,J4*%
X106600000Y-116075000D03*
D25*
X106600000Y-114805000D03*
X106600000Y-113535000D03*
%TD*%
D15*
%TO.C,C15*%
X157800000Y-104775000D03*
X157800000Y-103225000D03*
%TD*%
D26*
%TO.C,C4*%
X123800000Y-98680000D03*
X123800000Y-97720000D03*
%TD*%
D27*
%TO.C,D2*%
X143400000Y-113787500D03*
X143400000Y-112212500D03*
%TD*%
D28*
%TO.C,C12*%
X140520000Y-96400000D03*
X141480000Y-96400000D03*
%TD*%
%TO.C,C14*%
X150920000Y-89400000D03*
X151880000Y-89400000D03*
%TD*%
D16*
%TO.C,C7*%
X136000000Y-103320000D03*
X136000000Y-104280000D03*
%TD*%
D27*
%TO.C,D1*%
X135400000Y-112787500D03*
X135400000Y-111212500D03*
%TD*%
D26*
%TO.C,C9*%
X141200000Y-98480000D03*
X141200000Y-97520000D03*
%TD*%
D28*
%TO.C,C3*%
X131320000Y-89000000D03*
X132280000Y-89000000D03*
%TD*%
D29*
%TO.C,D3*%
X149750000Y-102200000D03*
X153050000Y-102200000D03*
%TD*%
D30*
%TO.C,C11*%
X124680000Y-100000000D03*
X123720000Y-100000000D03*
%TD*%
D26*
%TO.C,C6*%
X130200000Y-106480000D03*
X130200000Y-105520000D03*
%TD*%
D31*
%TO.C,J3*%
X160035000Y-100525000D03*
X160035000Y-99875000D03*
X160035000Y-99225000D03*
X160035000Y-98575000D03*
X160035000Y-97925000D03*
D32*
X161235000Y-102175000D03*
D33*
X163185000Y-98265000D03*
D34*
X161985000Y-101955000D03*
D35*
X162915000Y-101955000D03*
D36*
X159915000Y-96325000D03*
D35*
X162915000Y-96495000D03*
D32*
X161235000Y-96225000D03*
D37*
X159915000Y-101645000D03*
X159915000Y-96805000D03*
D36*
X159935000Y-102075000D03*
D33*
X163185000Y-100185000D03*
D34*
X161985000Y-96475000D03*
%TD*%
D16*
%TO.C,C10*%
X119600000Y-94520000D03*
X119600000Y-95480000D03*
%TD*%
D38*
%TO.C,SW2*%
X114243300Y-113878401D03*
X118393300Y-113878401D03*
X114243300Y-116028399D03*
X118393300Y-116028399D03*
%TD*%
D28*
%TO.C,C1*%
X137120000Y-92400000D03*
X138080000Y-92400000D03*
%TD*%
D23*
%TO.C,H1*%
X160000000Y-124000000D03*
%TD*%
D38*
%TO.C,SW1*%
X147075000Y-83274999D03*
X142925000Y-83274999D03*
X147075000Y-81125001D03*
X142925000Y-81125001D03*
%TD*%
D16*
%TO.C,C2*%
X137800000Y-101520000D03*
X137800000Y-102480000D03*
%TD*%
D26*
%TO.C,C13*%
X119600000Y-101480000D03*
X119600000Y-100520000D03*
%TD*%
D16*
%TO.C,C8*%
X141200000Y-101120000D03*
X141200000Y-102080000D03*
%TD*%
D23*
%TO.C,H2*%
X95000000Y-72000000D03*
%TD*%
D39*
%TO.C,U1*%
X132600000Y-98200000D03*
D40*
X136037500Y-95600000D03*
X136037500Y-96000000D03*
X136037500Y-96400000D03*
X136037500Y-96800000D03*
X136037500Y-97200000D03*
X136037500Y-97600000D03*
X136037500Y-98000000D03*
X136037500Y-98400000D03*
X136037500Y-98800000D03*
X136037500Y-99200000D03*
X136037500Y-99600000D03*
X136037500Y-100000000D03*
X136037500Y-100400000D03*
X136037500Y-100800000D03*
D41*
X135200000Y-101637500D03*
X134800000Y-101637500D03*
X134400000Y-101637500D03*
X134000000Y-101637500D03*
X133600000Y-101637500D03*
X133200000Y-101637500D03*
X132800000Y-101637500D03*
X132400000Y-101637500D03*
X132000000Y-101637500D03*
X131600000Y-101637500D03*
X131200000Y-101637500D03*
X130800000Y-101637500D03*
X130400000Y-101637500D03*
X130000000Y-101637500D03*
D40*
X129162500Y-100800000D03*
X129162500Y-100400000D03*
X129162500Y-100000000D03*
X129162500Y-99600000D03*
X129162500Y-99200000D03*
X129162500Y-98800000D03*
X129162500Y-98400000D03*
X129162500Y-98000000D03*
X129162500Y-97600000D03*
X129162500Y-97200000D03*
X129162500Y-96800000D03*
X129162500Y-96400000D03*
X129162500Y-96000000D03*
X129162500Y-95600000D03*
D41*
X130000000Y-94762500D03*
X130400000Y-94762500D03*
X130800000Y-94762500D03*
X131200000Y-94762500D03*
X131600000Y-94762500D03*
X132000000Y-94762500D03*
X132400000Y-94762500D03*
X132800000Y-94762500D03*
X133200000Y-94762500D03*
X133600000Y-94762500D03*
X134000000Y-94762500D03*
X134400000Y-94762500D03*
X134800000Y-94762500D03*
X135200000Y-94762500D03*
%TD*%
D23*
%TO.C,H3*%
X160000000Y-72000000D03*
%TD*%
M02*
