M48
; DRILL file {KiCad (6.0.6)} date Sun Sep  4 20:55:51 2022
; FORMAT={-:-/ absolute / inch / decimal}
; #@! TF.CreationDate,2022-09-04T20:55:51+05:30
; #@! TF.GenerationSoftware,Kicad,Pcbnew,(6.0.6)
; #@! TF.FileFunction,Plated,1,2,PTH
FMAT,2
INCH
; #@! TA.AperFunction,Plated,PTH,ViaDrill
T1C0.0138
; #@! TA.AperFunction,Plated,PTH,ViaDrill
T2C0.0157
; #@! TA.AperFunction,Plated,PTH,ComponentDrill
T3C0.0256
; #@! TA.AperFunction,Plated,PTH,ComponentDrill
T4C0.0276
; #@! TA.AperFunction,Plated,PTH,ComponentDrill
T5C0.0394
%
G90
G05
T1
X3.747Y-3.6791
X3.8043Y-3.7725
X3.812Y-3.3632
X3.875Y-3.3612
X3.877Y-3.4232
X3.8831Y-3.7725
X4.0012Y-3.487
X4.0012Y-3.5658
X4.1673Y-4.1093
X4.2648Y-4.1122
X4.3593Y-3.1594
X4.3661Y-3.1033
X4.4081Y-3.2256
X4.4567Y-3.2982
X4.4626Y-3.7825
X4.5748Y-3.6713
X4.6102Y-3.4055
X4.6309Y-3.686
X4.6348Y-3.4616
X4.6585Y-3.5463
X4.8179Y-3.5325
X4.8189Y-3.1535
X4.8661Y-3.8829
X4.9823Y-3.5394
X5.0276Y-3.1919
X5.0354Y-4.1053
X5.1013Y-3.495
X5.2815Y-3.7461
X5.2844Y-3.6594
X5.2854Y-3.6329
X5.2854Y-3.7018
X5.3169Y-3.4961
X5.3238Y-3.4547
X5.3465Y-3.9498
X5.3474Y-3.69
X5.3819Y-3.1093
X5.4051Y-3.4632
X5.8642Y-3.185
X5.8671Y-3.1024
X5.8888Y-4.1535
X5.9273Y-3.574
X6.0Y-3.7961
T2
X4.8543Y-3.4606
X4.8543Y-3.5039
X4.8543Y-3.5551
X4.9016Y-3.4606
X4.9055Y-3.5079
X4.9094Y-3.5551
X4.9488Y-3.4606
X4.9488Y-3.5039
X4.9488Y-3.5551
T3
X3.9429Y-4.0683
X3.9429Y-4.1183
X3.9429Y-4.1683
T5
X4.1906Y-2.6969
X4.1906Y-4.3504
X4.2906Y-2.6969
X4.2906Y-4.3504
X4.3906Y-2.6969
X4.3906Y-4.3504
X4.4906Y-2.6969
X4.4906Y-4.3504
X4.5906Y-2.6969
X4.5906Y-4.3504
X4.6906Y-2.6969
X4.6906Y-4.3504
X4.7906Y-2.6969
X4.7906Y-4.3504
X4.8906Y-2.6969
X4.8906Y-4.3504
X4.9906Y-2.6969
X4.9906Y-4.3504
X5.0906Y-2.6969
X5.0906Y-4.3504
X5.1906Y-2.6969
X5.1906Y-4.3504
X5.2906Y-2.6969
X5.2906Y-4.3504
X5.3906Y-2.6969
X5.3906Y-4.3504
X5.4906Y-2.6969
X5.4906Y-4.3504
X5.5906Y-2.6969
X5.5906Y-4.3504
T3
G00X5.8803Y-3.4488
M15
G01X5.8646Y-3.4488
M16
G05
G00X5.8803Y-3.6394
M15
G01X5.8646Y-3.6394
M16
G05
T4
G00X6.0004Y-3.4366
M15
G01X5.9807Y-3.4366
M16
G05
G00X6.0004Y-3.6516
M15
G01X5.9807Y-3.6516
M16
G05
T0
M30
